G04 #@! TF.GenerationSoftware,KiCad,Pcbnew,7.0.1*
G04 #@! TF.CreationDate,2023-04-18T17:18:43+02:00*
G04 #@! TF.ProjectId,Alexandrie,416c6578-616e-4647-9269-652e6b696361,rev?*
G04 #@! TF.SameCoordinates,Original*
G04 #@! TF.FileFunction,Paste,Bot*
G04 #@! TF.FilePolarity,Positive*
%FSLAX46Y46*%
G04 Gerber Fmt 4.6, Leading zero omitted, Abs format (unit mm)*
G04 Created by KiCad (PCBNEW 7.0.1) date 2023-04-18 17:18:43*
%MOMM*%
%LPD*%
G01*
G04 APERTURE LIST*
G04 Aperture macros list*
%AMRoundRect*
0 Rectangle with rounded corners*
0 $1 Rounding radius*
0 $2 $3 $4 $5 $6 $7 $8 $9 X,Y pos of 4 corners*
0 Add a 4 corners polygon primitive as box body*
4,1,4,$2,$3,$4,$5,$6,$7,$8,$9,$2,$3,0*
0 Add four circle primitives for the rounded corners*
1,1,$1+$1,$2,$3*
1,1,$1+$1,$4,$5*
1,1,$1+$1,$6,$7*
1,1,$1+$1,$8,$9*
0 Add four rect primitives between the rounded corners*
20,1,$1+$1,$2,$3,$4,$5,0*
20,1,$1+$1,$4,$5,$6,$7,0*
20,1,$1+$1,$6,$7,$8,$9,0*
20,1,$1+$1,$8,$9,$2,$3,0*%
G04 Aperture macros list end*
%ADD10RoundRect,0.250000X-0.475000X0.337500X-0.475000X-0.337500X0.475000X-0.337500X0.475000X0.337500X0*%
%ADD11RoundRect,0.250000X-0.337500X-0.475000X0.337500X-0.475000X0.337500X0.475000X-0.337500X0.475000X0*%
%ADD12RoundRect,0.250000X0.350000X0.450000X-0.350000X0.450000X-0.350000X-0.450000X0.350000X-0.450000X0*%
G04 APERTURE END LIST*
D10*
X126000000Y-115962500D03*
X126000000Y-118037500D03*
D11*
X128962500Y-90000000D03*
X131037500Y-90000000D03*
D12*
X110500000Y-84000000D03*
X108500000Y-84000000D03*
X111500000Y-104500000D03*
X109500000Y-104500000D03*
G36*
X182438000Y-150016613D02*
G01*
X182483387Y-150062000D01*
X182500000Y-150124000D01*
X182500000Y-152376000D01*
X182483387Y-152438000D01*
X182438000Y-152483387D01*
X182376000Y-152500000D01*
X82624000Y-152500000D01*
X82562000Y-152483387D01*
X82516613Y-152438000D01*
X82500000Y-152376000D01*
X82500000Y-150124000D01*
X82516613Y-150062000D01*
X82562000Y-150016613D01*
X82624000Y-150000000D01*
X182376000Y-150000000D01*
X182438000Y-150016613D01*
G37*
G36*
X182438000Y-52516613D02*
G01*
X182483387Y-52562000D01*
X182500000Y-52624000D01*
X182500000Y-54875379D01*
X182483284Y-54937558D01*
X182437642Y-54982972D01*
X182375380Y-54999377D01*
X82623380Y-54500617D01*
X82561642Y-54483799D01*
X82516510Y-54438440D01*
X82500000Y-54376619D01*
X82500000Y-52624000D01*
X82516613Y-52562000D01*
X82562000Y-52516613D01*
X82624000Y-52500000D01*
X182376000Y-52500000D01*
X182438000Y-52516613D01*
G37*
M02*
