M48
; DRILL file {KiCad 7.0.1} date Tue Apr 18 17:18:09 2023
; FORMAT={-:-/ absolute / metric / decimal}
; #@! TF.CreationDate,2023-04-18T17:18:09+02:00
; #@! TF.GenerationSoftware,Kicad,Pcbnew,7.0.1
; #@! TF.FileFunction,Plated,1,2,PTH
FMAT,2
METRIC
; #@! TA.AperFunction,Plated,PTH,ViaDrill
T1C0.400
; #@! TA.AperFunction,Plated,PTH,ComponentDrill
T2C0.500
; #@! TA.AperFunction,Plated,PTH,ComponentDrill
T3C1.000
; #@! TA.AperFunction,Plated,PTH,ComponentDrill
T4C1.190
; #@! TA.AperFunction,Plated,PTH,ComponentDrill
T5C3.500
%
G90
G05
T1
X83.5Y-53.5
X83.5Y-56.04
X83.5Y-58.58
X83.5Y-61.12
X83.5Y-63.66
X83.5Y-66.2
X83.5Y-68.74
X83.5Y-71.28
X83.5Y-73.82
X83.5Y-76.36
X83.5Y-78.9
X83.5Y-81.44
X83.5Y-83.98
X83.5Y-86.52
X83.5Y-89.06
X83.5Y-91.6
X83.5Y-94.14
X83.5Y-96.68
X83.5Y-99.22
X83.5Y-101.76
X83.5Y-104.3
X83.5Y-106.84
X83.5Y-109.38
X83.5Y-111.92
X83.5Y-114.46
X83.5Y-117.0
X83.5Y-119.54
X83.5Y-122.08
X83.5Y-124.62
X83.5Y-127.16
X83.5Y-129.7
X83.5Y-132.24
X83.5Y-134.78
X83.5Y-137.32
X83.5Y-139.86
X83.5Y-142.4
X83.5Y-144.94
X83.5Y-147.48
X84.0Y-151.0
X86.04Y-53.5
X86.54Y-151.0
X88.58Y-53.5
X89.08Y-151.0
X90.0Y-91.0
X91.0Y-92.0
X91.12Y-53.5
X91.62Y-151.0
X93.66Y-53.5
X94.16Y-151.0
X96.2Y-53.5
X96.7Y-151.0
X98.74Y-53.5
X99.24Y-151.0
X100.049Y-100.0
X100.5Y-83.5
X101.28Y-53.5
X101.78Y-151.0
X102.92Y-77.42
X103.337Y-80.0
X103.337Y-81.337
X103.82Y-53.5
X104.32Y-151.0
X105.5Y-126.5
X105.5Y-128.5
X105.5Y-130.5
X106.0Y-89.0
X106.0Y-97.5
X106.0Y-103.5
X106.36Y-53.5
X106.5Y-79.0
X106.86Y-151.0
X108.9Y-53.5
X109.0Y-117.5
X109.0Y-126.0
X109.0Y-128.5
X109.0Y-131.0
X109.0Y-133.5
X109.0Y-136.0
X109.4Y-151.0
X109.5Y-79.0
X109.96Y-102.54
X110.0Y-81.0
X110.0Y-93.5
X110.0Y-95.0
X110.5Y-87.5
X111.0Y-128.5
X111.0Y-131.0
X111.0Y-133.5
X111.0Y-136.0
X111.44Y-53.5
X111.5Y-85.5
X111.5Y-88.5
X111.5Y-92.5
X111.5Y-100.0
X111.94Y-151.0
X112.5Y-79.0
X112.5Y-110.5
X113.0Y-128.5
X113.0Y-131.0
X113.0Y-133.5
X113.0Y-136.0
X113.98Y-53.5
X114.0Y-109.5
X114.48Y-151.0
X115.0Y-128.5
X115.0Y-131.0
X115.0Y-133.5
X115.0Y-136.0
X115.5Y-79.0
X115.5Y-82.0
X115.5Y-84.0
X115.5Y-98.5
X115.5Y-109.5
X116.52Y-53.5
X117.0Y-128.5
X117.0Y-131.0
X117.0Y-133.5
X117.0Y-136.0
X117.02Y-151.0
X117.5Y-89.5
X118.5Y-79.0
X118.5Y-93.0
X118.5Y-105.0
X118.5Y-109.5
X119.0Y-97.0
X119.06Y-53.5
X119.56Y-151.0
X120.0Y-92.5
X120.0Y-109.5
X120.5Y-84.0
X121.0Y-93.0
X121.0Y-110.365
X121.5Y-85.5
X121.6Y-53.5
X122.0Y-64.5
X122.0Y-116.5
X122.0Y-137.5
X122.0Y-139.5
X122.0Y-141.5
X122.0Y-143.5
X122.0Y-93.5
X122.0Y-111.5
X122.1Y-151.0
X123.0Y-84.0
X123.0Y-94.0
X123.0Y-112.5
X123.5Y-71.5
X123.5Y-73.0
X123.5Y-139.5
X123.5Y-141.5
X123.5Y-143.5
X124.0Y-95.0
X124.0Y-102.5
X124.0Y-124.5
X124.0Y-125.5
X124.14Y-53.5
X124.64Y-151.0
X125.0Y-139.5
X125.0Y-141.5
X125.0Y-143.5
X125.5Y-105.0
X126.68Y-53.5
X127.18Y-151.0
X127.5Y-71.5
X127.5Y-73.0
X127.5Y-96.5
X127.5Y-97.5
X127.5Y-124.5
X127.5Y-125.5
X128.5Y-62.5
X128.5Y-70.0
X128.5Y-74.5
X128.5Y-82.0
X128.5Y-83.5
X128.5Y-87.5
X128.5Y-94.5
X128.5Y-100.0
X128.5Y-108.5
X128.5Y-115.5
X128.5Y-123.0
X128.5Y-128.0
X128.5Y-131.5
X129.22Y-53.5
X129.72Y-151.0
X130.0Y-98.5
X130.0Y-105.0
X130.5Y-118.0
X130.5Y-129.5
X131.0Y-84.5
X131.31Y-96.5
X131.31Y-103.81
X131.31Y-124.31
X131.62Y-70.12
X131.76Y-53.5
X132.26Y-151.0
X132.325Y-123.645
X132.325Y-139.0
X132.5Y-80.5
X132.5Y-86.5
X132.5Y-88.0
X132.5Y-95.0
X132.5Y-106.0
X133.0Y-62.5
X133.11Y-71.39
X133.5Y-138.5
X133.5Y-72.5
X133.5Y-97.5
X133.5Y-115.0
X133.5Y-116.0
X133.5Y-124.5
X134.0Y-83.5
X134.3Y-53.5
X134.5Y-127.0
X134.8Y-151.0
X135.0Y-133.0
X135.0Y-134.0
X135.5Y-105.0
X136.0Y-127.0
X136.037Y-77.037
X136.84Y-53.5
X137.0Y-72.5
X137.0Y-86.5
X137.0Y-88.0
X137.0Y-89.0
X137.0Y-130.5
X137.0Y-136.5
X137.34Y-151.0
X137.5Y-60.5
X137.5Y-61.5
X137.5Y-62.5
X138.0Y-72.5
X138.0Y-79.245
X138.0Y-125.0
X138.0Y-126.0
X138.5Y-78.0
X138.5Y-129.0
X138.5Y-132.0
X138.5Y-134.0
X139.0Y-97.5
X139.0Y-109.0
X139.0Y-110.0
X139.0Y-136.5
X139.0Y-138.0
X139.26Y-91.303
X139.299Y-93.105
X139.38Y-53.5
X139.5Y-85.5
X139.88Y-151.0
X141.799Y-85.408
X141.92Y-53.5
X142.42Y-151.0
X142.5Y-63.77
X142.5Y-74.165
X142.5Y-137.0
X142.5Y-138.0
X143.0Y-101.0
X143.0Y-109.0
X143.0Y-110.5
X143.0Y-125.0
X143.0Y-131.5
X144.0Y-78.0
X144.0Y-97.5
X144.0Y-104.0
X144.0Y-132.5
X144.46Y-53.5
X144.96Y-151.0
X145.0Y-77.0
X145.0Y-96.445
X145.0Y-124.0
X145.0Y-134.0
X146.0Y-75.5
X146.0Y-95.175
X146.0Y-128.825
X146.0Y-145.5
X147.0Y-53.5
X147.0Y-70.5
X147.0Y-82.0
X147.0Y-107.0
X147.0Y-108.5
X147.0Y-135.175
X147.0Y-143.5
X147.5Y-99.0
X147.5Y-100.0
X147.5Y-123.0
X147.5Y-151.0
X148.0Y-70.0
X148.0Y-80.5
X148.0Y-83.0
X148.0Y-136.5
X148.0Y-142.5
X148.5Y-110.0
X148.5Y-127.5
X149.54Y-53.5
X150.0Y-111.5
X150.04Y-151.0
X151.0Y-111.5
X151.75Y-83.0
X152.0Y-72.0
X152.0Y-73.0
X152.0Y-74.0
X152.0Y-99.0
X152.0Y-100.0
X152.0Y-110.5
X152.0Y-127.5
X152.0Y-137.0
X152.0Y-138.5
X152.0Y-147.5
X152.08Y-53.5
X152.5Y-101.5
X152.5Y-105.135
X152.58Y-151.0
X153.5Y-62.0
X153.5Y-76.705
X153.5Y-104.0
X153.5Y-109.5
X154.496Y-145.205
X154.5Y-63.0
X154.5Y-69.0
X154.5Y-104.5
X154.5Y-112.0
X154.5Y-143.0
X154.62Y-53.5
X155.12Y-151.0
X155.5Y-63.799
X155.5Y-66.31
X155.5Y-83.0
X155.5Y-85.5
X156.5Y-145.0
X157.0Y-131.5
X157.0Y-135.08
X157.16Y-53.5
X157.66Y-151.0
X158.0Y-132.635
X159.0Y-126.5
X159.7Y-53.5
X160.2Y-151.0
X162.24Y-53.5
X162.5Y-124.299
X162.74Y-151.0
X164.5Y-99.0
X164.78Y-53.5
X165.0Y-125.099
X165.28Y-151.0
X165.5Y-98.0
X166.5Y-101.5
X167.0Y-126.5
X167.32Y-53.5
X167.82Y-151.0
X168.0Y-123.0
X169.0Y-121.905
X169.86Y-53.5
X170.36Y-151.0
X172.4Y-53.5
X172.9Y-151.0
X174.94Y-53.5
X175.44Y-151.0
X177.48Y-53.5
X177.98Y-151.0
X181.0Y-53.5
X181.0Y-56.04
X181.0Y-58.58
X181.0Y-61.12
X181.0Y-63.66
X181.0Y-66.2
X181.0Y-68.74
X181.0Y-71.28
X181.0Y-73.82
X181.0Y-76.36
X181.0Y-78.9
X181.0Y-81.44
X181.0Y-83.98
X181.0Y-86.52
X181.0Y-89.06
X181.0Y-91.6
X181.0Y-94.14
X181.0Y-96.68
X181.0Y-99.22
X181.0Y-101.76
X181.0Y-104.3
X181.0Y-106.84
X181.0Y-109.38
X181.0Y-111.92
X181.0Y-114.46
X181.0Y-117.0
X181.0Y-119.54
X181.0Y-122.08
X181.0Y-124.62
X181.0Y-127.16
X181.0Y-129.7
X181.0Y-132.24
X181.0Y-134.78
X181.0Y-137.32
X181.0Y-139.86
X181.0Y-142.4
X181.0Y-144.94
X181.0Y-147.48
T2
X85.375Y-58.0
X85.375Y-147.0
X86.144Y-56.144
X86.144Y-59.856
X86.144Y-145.144
X86.144Y-148.856
X88.0Y-55.375
X88.0Y-60.625
X88.0Y-144.375
X88.0Y-149.625
X89.856Y-56.144
X89.856Y-59.856
X89.856Y-145.144
X89.856Y-148.856
X90.625Y-58.0
X90.625Y-147.0
X174.0Y-58.0
X174.0Y-147.0
X174.769Y-56.144
X174.769Y-59.856
X174.769Y-145.144
X174.769Y-148.856
X176.625Y-55.375
X176.625Y-60.625
X176.625Y-144.375
X176.625Y-149.625
X178.481Y-56.144
X178.481Y-59.856
X178.481Y-145.144
X178.481Y-148.856
X179.25Y-58.0
X179.25Y-147.0
T3
X93.172Y-94.84
X93.172Y-97.38
X93.172Y-99.92
X93.172Y-102.46
X93.172Y-105.0
X95.712Y-94.84
X95.712Y-97.38
X95.712Y-99.92
X95.712Y-102.46
X95.712Y-105.0
X101.537Y-115.0
X101.537Y-117.54
X101.537Y-120.08
X162.5Y-67.5
X162.5Y-70.04
X162.5Y-72.58
X162.5Y-75.12
X162.5Y-77.66
X162.5Y-104.5
X162.5Y-107.04
X162.5Y-109.58
X162.5Y-112.12
X162.5Y-114.66
X162.5Y-129.0
X162.5Y-131.54
X162.5Y-134.08
X162.5Y-136.62
X162.5Y-139.16
X165.04Y-67.5
X165.04Y-70.04
X165.04Y-72.58
X165.04Y-75.12
X165.04Y-77.66
X165.04Y-104.5
X165.04Y-107.04
X165.04Y-109.58
X165.04Y-112.12
X165.04Y-114.66
X165.04Y-129.0
X165.04Y-131.54
X165.04Y-134.08
X165.04Y-136.62
X165.04Y-139.16
T4
X93.212Y-72.34
X93.212Y-74.88
X93.212Y-77.42
X93.212Y-79.96
X93.212Y-82.5
X93.212Y-85.04
X93.212Y-114.96
X93.212Y-117.5
X93.212Y-120.04
X140.5Y-117.5
X143.04Y-117.5
X143.42Y-90.5
X145.58Y-117.5
X145.96Y-90.5
X148.12Y-117.5
X148.5Y-90.5
X150.66Y-117.5
X151.04Y-90.5
X153.2Y-117.5
X153.58Y-90.5
X155.74Y-117.5
X162.5Y-87.92
X162.5Y-90.46
X162.5Y-93.0
X162.5Y-95.54
T5
X88.0Y-58.0
X88.0Y-147.0
X176.625Y-58.0
X176.625Y-147.0
T0
M30
