G04 #@! TF.GenerationSoftware,KiCad,Pcbnew,7.0.1*
G04 #@! TF.CreationDate,2023-04-18T17:18:43+02:00*
G04 #@! TF.ProjectId,Alexandrie,416c6578-616e-4647-9269-652e6b696361,rev?*
G04 #@! TF.SameCoordinates,Original*
G04 #@! TF.FileFunction,Legend,Bot*
G04 #@! TF.FilePolarity,Positive*
%FSLAX46Y46*%
G04 Gerber Fmt 4.6, Leading zero omitted, Abs format (unit mm)*
G04 Created by KiCad (PCBNEW 7.0.1) date 2023-04-18 17:18:43*
%MOMM*%
%LPD*%
G01*
G04 APERTURE LIST*
G04 Aperture macros list*
%AMRoundRect*
0 Rectangle with rounded corners*
0 $1 Rounding radius*
0 $2 $3 $4 $5 $6 $7 $8 $9 X,Y pos of 4 corners*
0 Add a 4 corners polygon primitive as box body*
4,1,4,$2,$3,$4,$5,$6,$7,$8,$9,$2,$3,0*
0 Add four circle primitives for the rounded corners*
1,1,$1+$1,$2,$3*
1,1,$1+$1,$4,$5*
1,1,$1+$1,$6,$7*
1,1,$1+$1,$8,$9*
0 Add four rect primitives between the rounded corners*
20,1,$1+$1,$2,$3,$4,$5,0*
20,1,$1+$1,$4,$5,$6,$7,0*
20,1,$1+$1,$6,$7,$8,$9,0*
20,1,$1+$1,$8,$9,$2,$3,0*%
G04 Aperture macros list end*
%ADD10C,0.300000*%
%ADD11C,0.150000*%
%ADD12C,0.120000*%
%ADD13RoundRect,0.450000X0.845000X-0.620000X0.845000X0.620000X-0.845000X0.620000X-0.845000X-0.620000X0*%
%ADD14O,2.590000X2.140000*%
%ADD15C,1.200000*%
%ADD16C,7.400000*%
%ADD17RoundRect,0.450000X-0.600000X-0.600000X0.600000X-0.600000X0.600000X0.600000X-0.600000X0.600000X0*%
%ADD18C,2.100000*%
%ADD19RoundRect,0.450000X-0.620000X-0.845000X0.620000X-0.845000X0.620000X0.845000X-0.620000X0.845000X0*%
%ADD20O,2.140000X2.590000*%
%ADD21RoundRect,0.200000X0.850000X0.850000X-0.850000X0.850000X-0.850000X-0.850000X0.850000X-0.850000X0*%
%ADD22O,2.100000X2.100000*%
%ADD23RoundRect,0.450000X0.620000X0.845000X-0.620000X0.845000X-0.620000X-0.845000X0.620000X-0.845000X0*%
%ADD24RoundRect,0.450000X-0.845000X0.620000X-0.845000X-0.620000X0.845000X-0.620000X0.845000X0.620000X0*%
%ADD25RoundRect,0.450000X-0.475000X0.337500X-0.475000X-0.337500X0.475000X-0.337500X0.475000X0.337500X0*%
%ADD26RoundRect,0.450000X-0.337500X-0.475000X0.337500X-0.475000X0.337500X0.475000X-0.337500X0.475000X0*%
%ADD27RoundRect,0.450000X0.350000X0.450000X-0.350000X0.450000X-0.350000X-0.450000X0.350000X-0.450000X0*%
G04 APERTURE END LIST*
D10*
X158000001Y-137903571D02*
X157142858Y-137903571D01*
X157571429Y-137903571D02*
X157571429Y-139403571D01*
X157571429Y-139403571D02*
X157428572Y-139189285D01*
X157428572Y-139189285D02*
X157285715Y-139046428D01*
X157285715Y-139046428D02*
X157142858Y-138975000D01*
X158571429Y-139260714D02*
X158642857Y-139332142D01*
X158642857Y-139332142D02*
X158785715Y-139403571D01*
X158785715Y-139403571D02*
X159142857Y-139403571D01*
X159142857Y-139403571D02*
X159285715Y-139332142D01*
X159285715Y-139332142D02*
X159357143Y-139260714D01*
X159357143Y-139260714D02*
X159428572Y-139117857D01*
X159428572Y-139117857D02*
X159428572Y-138975000D01*
X159428572Y-138975000D02*
X159357143Y-138760714D01*
X159357143Y-138760714D02*
X158500000Y-137903571D01*
X158500000Y-137903571D02*
X159428572Y-137903571D01*
X159857143Y-139403571D02*
X160357143Y-137903571D01*
X160357143Y-137903571D02*
X160857143Y-139403571D01*
X152142857Y-135473571D02*
X151642857Y-136187857D01*
X151285714Y-135473571D02*
X151285714Y-136973571D01*
X151285714Y-136973571D02*
X151857143Y-136973571D01*
X151857143Y-136973571D02*
X152000000Y-136902142D01*
X152000000Y-136902142D02*
X152071429Y-136830714D01*
X152071429Y-136830714D02*
X152142857Y-136687857D01*
X152142857Y-136687857D02*
X152142857Y-136473571D01*
X152142857Y-136473571D02*
X152071429Y-136330714D01*
X152071429Y-136330714D02*
X152000000Y-136259285D01*
X152000000Y-136259285D02*
X151857143Y-136187857D01*
X151857143Y-136187857D02*
X151285714Y-136187857D01*
X152642857Y-136973571D02*
X153642857Y-135473571D01*
X153642857Y-136973571D02*
X152642857Y-135473571D01*
X154142857Y-136830714D02*
X154214285Y-136902142D01*
X154214285Y-136902142D02*
X154357143Y-136973571D01*
X154357143Y-136973571D02*
X154714285Y-136973571D01*
X154714285Y-136973571D02*
X154857143Y-136902142D01*
X154857143Y-136902142D02*
X154928571Y-136830714D01*
X154928571Y-136830714D02*
X155000000Y-136687857D01*
X155000000Y-136687857D02*
X155000000Y-136545000D01*
X155000000Y-136545000D02*
X154928571Y-136330714D01*
X154928571Y-136330714D02*
X154071428Y-135473571D01*
X154071428Y-135473571D02*
X155000000Y-135473571D01*
X155285714Y-135330714D02*
X156428571Y-135330714D01*
X157571428Y-136902142D02*
X157428571Y-136973571D01*
X157428571Y-136973571D02*
X157214285Y-136973571D01*
X157214285Y-136973571D02*
X156999999Y-136902142D01*
X156999999Y-136902142D02*
X156857142Y-136759285D01*
X156857142Y-136759285D02*
X156785713Y-136616428D01*
X156785713Y-136616428D02*
X156714285Y-136330714D01*
X156714285Y-136330714D02*
X156714285Y-136116428D01*
X156714285Y-136116428D02*
X156785713Y-135830714D01*
X156785713Y-135830714D02*
X156857142Y-135687857D01*
X156857142Y-135687857D02*
X156999999Y-135545000D01*
X156999999Y-135545000D02*
X157214285Y-135473571D01*
X157214285Y-135473571D02*
X157357142Y-135473571D01*
X157357142Y-135473571D02*
X157571428Y-135545000D01*
X157571428Y-135545000D02*
X157642856Y-135616428D01*
X157642856Y-135616428D02*
X157642856Y-136116428D01*
X157642856Y-136116428D02*
X157357142Y-136116428D01*
X158285713Y-135473571D02*
X158285713Y-136973571D01*
X158285713Y-136973571D02*
X159142856Y-135473571D01*
X159142856Y-135473571D02*
X159142856Y-136973571D01*
X159857142Y-135473571D02*
X159857142Y-136973571D01*
X159857142Y-136973571D02*
X160214285Y-136973571D01*
X160214285Y-136973571D02*
X160428571Y-136902142D01*
X160428571Y-136902142D02*
X160571428Y-136759285D01*
X160571428Y-136759285D02*
X160642857Y-136616428D01*
X160642857Y-136616428D02*
X160714285Y-136330714D01*
X160714285Y-136330714D02*
X160714285Y-136116428D01*
X160714285Y-136116428D02*
X160642857Y-135830714D01*
X160642857Y-135830714D02*
X160571428Y-135687857D01*
X160571428Y-135687857D02*
X160428571Y-135545000D01*
X160428571Y-135545000D02*
X160214285Y-135473571D01*
X160214285Y-135473571D02*
X159857142Y-135473571D01*
X154785714Y-133043571D02*
X153928571Y-133043571D01*
X154357142Y-133043571D02*
X154357142Y-134543571D01*
X154357142Y-134543571D02*
X154214285Y-134329285D01*
X154214285Y-134329285D02*
X154071428Y-134186428D01*
X154071428Y-134186428D02*
X153928571Y-134115000D01*
X156142856Y-134543571D02*
X155428570Y-134543571D01*
X155428570Y-134543571D02*
X155357142Y-133829285D01*
X155357142Y-133829285D02*
X155428570Y-133900714D01*
X155428570Y-133900714D02*
X155571428Y-133972142D01*
X155571428Y-133972142D02*
X155928570Y-133972142D01*
X155928570Y-133972142D02*
X156071428Y-133900714D01*
X156071428Y-133900714D02*
X156142856Y-133829285D01*
X156142856Y-133829285D02*
X156214285Y-133686428D01*
X156214285Y-133686428D02*
X156214285Y-133329285D01*
X156214285Y-133329285D02*
X156142856Y-133186428D01*
X156142856Y-133186428D02*
X156071428Y-133115000D01*
X156071428Y-133115000D02*
X155928570Y-133043571D01*
X155928570Y-133043571D02*
X155571428Y-133043571D01*
X155571428Y-133043571D02*
X155428570Y-133115000D01*
X155428570Y-133115000D02*
X155357142Y-133186428D01*
X156857141Y-133043571D02*
X156857141Y-134543571D01*
X156857141Y-134543571D02*
X157357141Y-133472142D01*
X157357141Y-133472142D02*
X157857141Y-134543571D01*
X157857141Y-134543571D02*
X157857141Y-133043571D01*
X158571427Y-133043571D02*
X158571427Y-134543571D01*
X158571427Y-133829285D02*
X159428570Y-133829285D01*
X159428570Y-133043571D02*
X159428570Y-134543571D01*
X159999999Y-134043571D02*
X160785714Y-134043571D01*
X160785714Y-134043571D02*
X159999999Y-133043571D01*
X159999999Y-133043571D02*
X160785714Y-133043571D01*
X153357142Y-130613571D02*
X153642856Y-130613571D01*
X153642856Y-130613571D02*
X153785713Y-130685000D01*
X153785713Y-130685000D02*
X153857142Y-130756428D01*
X153857142Y-130756428D02*
X153999999Y-130970714D01*
X153999999Y-130970714D02*
X154071428Y-131256428D01*
X154071428Y-131256428D02*
X154071428Y-131827857D01*
X154071428Y-131827857D02*
X153999999Y-131970714D01*
X153999999Y-131970714D02*
X153928571Y-132042142D01*
X153928571Y-132042142D02*
X153785713Y-132113571D01*
X153785713Y-132113571D02*
X153499999Y-132113571D01*
X153499999Y-132113571D02*
X153357142Y-132042142D01*
X153357142Y-132042142D02*
X153285713Y-131970714D01*
X153285713Y-131970714D02*
X153214285Y-131827857D01*
X153214285Y-131827857D02*
X153214285Y-131470714D01*
X153214285Y-131470714D02*
X153285713Y-131327857D01*
X153285713Y-131327857D02*
X153357142Y-131256428D01*
X153357142Y-131256428D02*
X153499999Y-131185000D01*
X153499999Y-131185000D02*
X153785713Y-131185000D01*
X153785713Y-131185000D02*
X153928571Y-131256428D01*
X153928571Y-131256428D02*
X153999999Y-131327857D01*
X153999999Y-131327857D02*
X154071428Y-131470714D01*
X154714284Y-130756428D02*
X154785713Y-130685000D01*
X154785713Y-130685000D02*
X154714284Y-130613571D01*
X154714284Y-130613571D02*
X154642856Y-130685000D01*
X154642856Y-130685000D02*
X154714284Y-130756428D01*
X154714284Y-130756428D02*
X154714284Y-130613571D01*
X156142856Y-132113571D02*
X155428570Y-132113571D01*
X155428570Y-132113571D02*
X155357142Y-131399285D01*
X155357142Y-131399285D02*
X155428570Y-131470714D01*
X155428570Y-131470714D02*
X155571428Y-131542142D01*
X155571428Y-131542142D02*
X155928570Y-131542142D01*
X155928570Y-131542142D02*
X156071428Y-131470714D01*
X156071428Y-131470714D02*
X156142856Y-131399285D01*
X156142856Y-131399285D02*
X156214285Y-131256428D01*
X156214285Y-131256428D02*
X156214285Y-130899285D01*
X156214285Y-130899285D02*
X156142856Y-130756428D01*
X156142856Y-130756428D02*
X156071428Y-130685000D01*
X156071428Y-130685000D02*
X155928570Y-130613571D01*
X155928570Y-130613571D02*
X155571428Y-130613571D01*
X155571428Y-130613571D02*
X155428570Y-130685000D01*
X155428570Y-130685000D02*
X155357142Y-130756428D01*
X156857141Y-130613571D02*
X156857141Y-132113571D01*
X156857141Y-132113571D02*
X157357141Y-131042142D01*
X157357141Y-131042142D02*
X157857141Y-132113571D01*
X157857141Y-132113571D02*
X157857141Y-130613571D01*
X158571427Y-130613571D02*
X158571427Y-132113571D01*
X158571427Y-131399285D02*
X159428570Y-131399285D01*
X159428570Y-130613571D02*
X159428570Y-132113571D01*
X159999999Y-131613571D02*
X160785714Y-131613571D01*
X160785714Y-131613571D02*
X159999999Y-130613571D01*
X159999999Y-130613571D02*
X160785714Y-130613571D01*
X153928571Y-129540714D02*
X153999999Y-129612142D01*
X153999999Y-129612142D02*
X154142857Y-129683571D01*
X154142857Y-129683571D02*
X154499999Y-129683571D01*
X154499999Y-129683571D02*
X154642857Y-129612142D01*
X154642857Y-129612142D02*
X154714285Y-129540714D01*
X154714285Y-129540714D02*
X154785714Y-129397857D01*
X154785714Y-129397857D02*
X154785714Y-129255000D01*
X154785714Y-129255000D02*
X154714285Y-129040714D01*
X154714285Y-129040714D02*
X153857142Y-128183571D01*
X153857142Y-128183571D02*
X154785714Y-128183571D01*
X155714285Y-129683571D02*
X155857142Y-129683571D01*
X155857142Y-129683571D02*
X155999999Y-129612142D01*
X155999999Y-129612142D02*
X156071428Y-129540714D01*
X156071428Y-129540714D02*
X156142856Y-129397857D01*
X156142856Y-129397857D02*
X156214285Y-129112142D01*
X156214285Y-129112142D02*
X156214285Y-128755000D01*
X156214285Y-128755000D02*
X156142856Y-128469285D01*
X156142856Y-128469285D02*
X156071428Y-128326428D01*
X156071428Y-128326428D02*
X155999999Y-128255000D01*
X155999999Y-128255000D02*
X155857142Y-128183571D01*
X155857142Y-128183571D02*
X155714285Y-128183571D01*
X155714285Y-128183571D02*
X155571428Y-128255000D01*
X155571428Y-128255000D02*
X155499999Y-128326428D01*
X155499999Y-128326428D02*
X155428570Y-128469285D01*
X155428570Y-128469285D02*
X155357142Y-128755000D01*
X155357142Y-128755000D02*
X155357142Y-129112142D01*
X155357142Y-129112142D02*
X155428570Y-129397857D01*
X155428570Y-129397857D02*
X155499999Y-129540714D01*
X155499999Y-129540714D02*
X155571428Y-129612142D01*
X155571428Y-129612142D02*
X155714285Y-129683571D01*
X156857141Y-128183571D02*
X156857141Y-129683571D01*
X156857141Y-129683571D02*
X157357141Y-128612142D01*
X157357141Y-128612142D02*
X157857141Y-129683571D01*
X157857141Y-129683571D02*
X157857141Y-128183571D01*
X158571427Y-128183571D02*
X158571427Y-129683571D01*
X158571427Y-128969285D02*
X159428570Y-128969285D01*
X159428570Y-128183571D02*
X159428570Y-129683571D01*
X159999999Y-129183571D02*
X160785714Y-129183571D01*
X160785714Y-129183571D02*
X159999999Y-128183571D01*
X159999999Y-128183571D02*
X160785714Y-128183571D01*
X101285714Y-145664642D02*
X102000000Y-145664642D01*
X101142857Y-145236071D02*
X101642857Y-146736071D01*
X101642857Y-146736071D02*
X102142857Y-145236071D01*
X102642856Y-146236071D02*
X102642856Y-145236071D01*
X102642856Y-146093214D02*
X102714285Y-146164642D01*
X102714285Y-146164642D02*
X102857142Y-146236071D01*
X102857142Y-146236071D02*
X103071428Y-146236071D01*
X103071428Y-146236071D02*
X103214285Y-146164642D01*
X103214285Y-146164642D02*
X103285714Y-146021785D01*
X103285714Y-146021785D02*
X103285714Y-145236071D01*
X104642857Y-145236071D02*
X104642857Y-146736071D01*
X104642857Y-145307500D02*
X104499999Y-145236071D01*
X104499999Y-145236071D02*
X104214285Y-145236071D01*
X104214285Y-145236071D02*
X104071428Y-145307500D01*
X104071428Y-145307500D02*
X103999999Y-145378928D01*
X103999999Y-145378928D02*
X103928571Y-145521785D01*
X103928571Y-145521785D02*
X103928571Y-145950357D01*
X103928571Y-145950357D02*
X103999999Y-146093214D01*
X103999999Y-146093214D02*
X104071428Y-146164642D01*
X104071428Y-146164642D02*
X104214285Y-146236071D01*
X104214285Y-146236071D02*
X104499999Y-146236071D01*
X104499999Y-146236071D02*
X104642857Y-146164642D01*
X106714285Y-145236071D02*
X106571428Y-145307500D01*
X106571428Y-145307500D02*
X106499999Y-145378928D01*
X106499999Y-145378928D02*
X106428571Y-145521785D01*
X106428571Y-145521785D02*
X106428571Y-145950357D01*
X106428571Y-145950357D02*
X106499999Y-146093214D01*
X106499999Y-146093214D02*
X106571428Y-146164642D01*
X106571428Y-146164642D02*
X106714285Y-146236071D01*
X106714285Y-146236071D02*
X106928571Y-146236071D01*
X106928571Y-146236071D02*
X107071428Y-146164642D01*
X107071428Y-146164642D02*
X107142857Y-146093214D01*
X107142857Y-146093214D02*
X107214285Y-145950357D01*
X107214285Y-145950357D02*
X107214285Y-145521785D01*
X107214285Y-145521785D02*
X107142857Y-145378928D01*
X107142857Y-145378928D02*
X107071428Y-145307500D01*
X107071428Y-145307500D02*
X106928571Y-145236071D01*
X106928571Y-145236071D02*
X106714285Y-145236071D01*
X107857142Y-146236071D02*
X107857142Y-145236071D01*
X107857142Y-146093214D02*
X107928571Y-146164642D01*
X107928571Y-146164642D02*
X108071428Y-146236071D01*
X108071428Y-146236071D02*
X108285714Y-146236071D01*
X108285714Y-146236071D02*
X108428571Y-146164642D01*
X108428571Y-146164642D02*
X108500000Y-146021785D01*
X108500000Y-146021785D02*
X108500000Y-145236071D01*
X110142857Y-146236071D02*
X110714285Y-146236071D01*
X110357142Y-146736071D02*
X110357142Y-145450357D01*
X110357142Y-145450357D02*
X110428571Y-145307500D01*
X110428571Y-145307500D02*
X110571428Y-145236071D01*
X110571428Y-145236071D02*
X110714285Y-145236071D01*
X111214285Y-145236071D02*
X111214285Y-146736071D01*
X111857143Y-145236071D02*
X111857143Y-146021785D01*
X111857143Y-146021785D02*
X111785714Y-146164642D01*
X111785714Y-146164642D02*
X111642857Y-146236071D01*
X111642857Y-146236071D02*
X111428571Y-146236071D01*
X111428571Y-146236071D02*
X111285714Y-146164642D01*
X111285714Y-146164642D02*
X111214285Y-146093214D01*
X113142857Y-145307500D02*
X113000000Y-145236071D01*
X113000000Y-145236071D02*
X112714286Y-145236071D01*
X112714286Y-145236071D02*
X112571428Y-145307500D01*
X112571428Y-145307500D02*
X112500000Y-145450357D01*
X112500000Y-145450357D02*
X112500000Y-146021785D01*
X112500000Y-146021785D02*
X112571428Y-146164642D01*
X112571428Y-146164642D02*
X112714286Y-146236071D01*
X112714286Y-146236071D02*
X113000000Y-146236071D01*
X113000000Y-146236071D02*
X113142857Y-146164642D01*
X113142857Y-146164642D02*
X113214286Y-146021785D01*
X113214286Y-146021785D02*
X113214286Y-145878928D01*
X113214286Y-145878928D02*
X112500000Y-145736071D01*
X114999999Y-146236071D02*
X114999999Y-144736071D01*
X114999999Y-146164642D02*
X115142857Y-146236071D01*
X115142857Y-146236071D02*
X115428571Y-146236071D01*
X115428571Y-146236071D02*
X115571428Y-146164642D01*
X115571428Y-146164642D02*
X115642857Y-146093214D01*
X115642857Y-146093214D02*
X115714285Y-145950357D01*
X115714285Y-145950357D02*
X115714285Y-145521785D01*
X115714285Y-145521785D02*
X115642857Y-145378928D01*
X115642857Y-145378928D02*
X115571428Y-145307500D01*
X115571428Y-145307500D02*
X115428571Y-145236071D01*
X115428571Y-145236071D02*
X115142857Y-145236071D01*
X115142857Y-145236071D02*
X114999999Y-145307500D01*
X116928571Y-145307500D02*
X116785714Y-145236071D01*
X116785714Y-145236071D02*
X116500000Y-145236071D01*
X116500000Y-145236071D02*
X116357142Y-145307500D01*
X116357142Y-145307500D02*
X116285714Y-145450357D01*
X116285714Y-145450357D02*
X116285714Y-146021785D01*
X116285714Y-146021785D02*
X116357142Y-146164642D01*
X116357142Y-146164642D02*
X116500000Y-146236071D01*
X116500000Y-146236071D02*
X116785714Y-146236071D01*
X116785714Y-146236071D02*
X116928571Y-146164642D01*
X116928571Y-146164642D02*
X117000000Y-146021785D01*
X117000000Y-146021785D02*
X117000000Y-145878928D01*
X117000000Y-145878928D02*
X116285714Y-145736071D01*
X118285714Y-145236071D02*
X118285714Y-146736071D01*
X118285714Y-145307500D02*
X118142856Y-145236071D01*
X118142856Y-145236071D02*
X117857142Y-145236071D01*
X117857142Y-145236071D02*
X117714285Y-145307500D01*
X117714285Y-145307500D02*
X117642856Y-145378928D01*
X117642856Y-145378928D02*
X117571428Y-145521785D01*
X117571428Y-145521785D02*
X117571428Y-145950357D01*
X117571428Y-145950357D02*
X117642856Y-146093214D01*
X117642856Y-146093214D02*
X117714285Y-146164642D01*
X117714285Y-146164642D02*
X117857142Y-146236071D01*
X117857142Y-146236071D02*
X118142856Y-146236071D01*
X118142856Y-146236071D02*
X118285714Y-146164642D01*
X119571428Y-145307500D02*
X119428571Y-145236071D01*
X119428571Y-145236071D02*
X119142857Y-145236071D01*
X119142857Y-145236071D02*
X118999999Y-145307500D01*
X118999999Y-145307500D02*
X118928571Y-145450357D01*
X118928571Y-145450357D02*
X118928571Y-146021785D01*
X118928571Y-146021785D02*
X118999999Y-146164642D01*
X118999999Y-146164642D02*
X119142857Y-146236071D01*
X119142857Y-146236071D02*
X119428571Y-146236071D01*
X119428571Y-146236071D02*
X119571428Y-146164642D01*
X119571428Y-146164642D02*
X119642857Y-146021785D01*
X119642857Y-146021785D02*
X119642857Y-145878928D01*
X119642857Y-145878928D02*
X118928571Y-145736071D01*
X120214285Y-145307500D02*
X120357142Y-145236071D01*
X120357142Y-145236071D02*
X120642856Y-145236071D01*
X120642856Y-145236071D02*
X120785713Y-145307500D01*
X120785713Y-145307500D02*
X120857142Y-145450357D01*
X120857142Y-145450357D02*
X120857142Y-145521785D01*
X120857142Y-145521785D02*
X120785713Y-145664642D01*
X120785713Y-145664642D02*
X120642856Y-145736071D01*
X120642856Y-145736071D02*
X120428571Y-145736071D01*
X120428571Y-145736071D02*
X120285713Y-145807500D01*
X120285713Y-145807500D02*
X120214285Y-145950357D01*
X120214285Y-145950357D02*
X120214285Y-146021785D01*
X120214285Y-146021785D02*
X120285713Y-146164642D01*
X120285713Y-146164642D02*
X120428571Y-146236071D01*
X120428571Y-146236071D02*
X120642856Y-146236071D01*
X120642856Y-146236071D02*
X120785713Y-146164642D01*
X121285714Y-146236071D02*
X121857142Y-146236071D01*
X121499999Y-146736071D02*
X121499999Y-145450357D01*
X121499999Y-145450357D02*
X121571428Y-145307500D01*
X121571428Y-145307500D02*
X121714285Y-145236071D01*
X121714285Y-145236071D02*
X121857142Y-145236071D01*
X123000000Y-145236071D02*
X123000000Y-146021785D01*
X123000000Y-146021785D02*
X122928571Y-146164642D01*
X122928571Y-146164642D02*
X122785714Y-146236071D01*
X122785714Y-146236071D02*
X122500000Y-146236071D01*
X122500000Y-146236071D02*
X122357142Y-146164642D01*
X123000000Y-145307500D02*
X122857142Y-145236071D01*
X122857142Y-145236071D02*
X122500000Y-145236071D01*
X122500000Y-145236071D02*
X122357142Y-145307500D01*
X122357142Y-145307500D02*
X122285714Y-145450357D01*
X122285714Y-145450357D02*
X122285714Y-145593214D01*
X122285714Y-145593214D02*
X122357142Y-145736071D01*
X122357142Y-145736071D02*
X122500000Y-145807500D01*
X122500000Y-145807500D02*
X122857142Y-145807500D01*
X122857142Y-145807500D02*
X123000000Y-145878928D01*
X123928571Y-145236071D02*
X123785714Y-145307500D01*
X123785714Y-145307500D02*
X123714285Y-145450357D01*
X123714285Y-145450357D02*
X123714285Y-146736071D01*
X125428571Y-146236071D02*
X125999999Y-146236071D01*
X125642856Y-146736071D02*
X125642856Y-145450357D01*
X125642856Y-145450357D02*
X125714285Y-145307500D01*
X125714285Y-145307500D02*
X125857142Y-145236071D01*
X125857142Y-145236071D02*
X125999999Y-145236071D01*
X126499999Y-145236071D02*
X126499999Y-146736071D01*
X127142857Y-145236071D02*
X127142857Y-146021785D01*
X127142857Y-146021785D02*
X127071428Y-146164642D01*
X127071428Y-146164642D02*
X126928571Y-146236071D01*
X126928571Y-146236071D02*
X126714285Y-146236071D01*
X126714285Y-146236071D02*
X126571428Y-146164642D01*
X126571428Y-146164642D02*
X126499999Y-146093214D01*
X128428571Y-145307500D02*
X128285714Y-145236071D01*
X128285714Y-145236071D02*
X128000000Y-145236071D01*
X128000000Y-145236071D02*
X127857142Y-145307500D01*
X127857142Y-145307500D02*
X127785714Y-145450357D01*
X127785714Y-145450357D02*
X127785714Y-146021785D01*
X127785714Y-146021785D02*
X127857142Y-146164642D01*
X127857142Y-146164642D02*
X128000000Y-146236071D01*
X128000000Y-146236071D02*
X128285714Y-146236071D01*
X128285714Y-146236071D02*
X128428571Y-146164642D01*
X128428571Y-146164642D02*
X128500000Y-146021785D01*
X128500000Y-146021785D02*
X128500000Y-145878928D01*
X128500000Y-145878928D02*
X127785714Y-145736071D01*
X129071428Y-145307500D02*
X129214285Y-145236071D01*
X129214285Y-145236071D02*
X129499999Y-145236071D01*
X129499999Y-145236071D02*
X129642856Y-145307500D01*
X129642856Y-145307500D02*
X129714285Y-145450357D01*
X129714285Y-145450357D02*
X129714285Y-145521785D01*
X129714285Y-145521785D02*
X129642856Y-145664642D01*
X129642856Y-145664642D02*
X129499999Y-145736071D01*
X129499999Y-145736071D02*
X129285714Y-145736071D01*
X129285714Y-145736071D02*
X129142856Y-145807500D01*
X129142856Y-145807500D02*
X129071428Y-145950357D01*
X129071428Y-145950357D02*
X129071428Y-146021785D01*
X129071428Y-146021785D02*
X129142856Y-146164642D01*
X129142856Y-146164642D02*
X129285714Y-146236071D01*
X129285714Y-146236071D02*
X129499999Y-146236071D01*
X129499999Y-146236071D02*
X129642856Y-146164642D01*
X130928571Y-145307500D02*
X130785714Y-145236071D01*
X130785714Y-145236071D02*
X130500000Y-145236071D01*
X130500000Y-145236071D02*
X130357142Y-145307500D01*
X130357142Y-145307500D02*
X130285714Y-145450357D01*
X130285714Y-145450357D02*
X130285714Y-146021785D01*
X130285714Y-146021785D02*
X130357142Y-146164642D01*
X130357142Y-146164642D02*
X130500000Y-146236071D01*
X130500000Y-146236071D02*
X130785714Y-146236071D01*
X130785714Y-146236071D02*
X130928571Y-146164642D01*
X130928571Y-146164642D02*
X131000000Y-146021785D01*
X131000000Y-146021785D02*
X131000000Y-145878928D01*
X131000000Y-145878928D02*
X130285714Y-145736071D01*
X132642856Y-146236071D02*
X132928571Y-145236071D01*
X132928571Y-145236071D02*
X133214285Y-145950357D01*
X133214285Y-145950357D02*
X133499999Y-145236071D01*
X133499999Y-145236071D02*
X133785713Y-146236071D01*
X134571428Y-145236071D02*
X134428571Y-145307500D01*
X134428571Y-145307500D02*
X134357142Y-145378928D01*
X134357142Y-145378928D02*
X134285714Y-145521785D01*
X134285714Y-145521785D02*
X134285714Y-145950357D01*
X134285714Y-145950357D02*
X134357142Y-146093214D01*
X134357142Y-146093214D02*
X134428571Y-146164642D01*
X134428571Y-146164642D02*
X134571428Y-146236071D01*
X134571428Y-146236071D02*
X134785714Y-146236071D01*
X134785714Y-146236071D02*
X134928571Y-146164642D01*
X134928571Y-146164642D02*
X135000000Y-146093214D01*
X135000000Y-146093214D02*
X135071428Y-145950357D01*
X135071428Y-145950357D02*
X135071428Y-145521785D01*
X135071428Y-145521785D02*
X135000000Y-145378928D01*
X135000000Y-145378928D02*
X134928571Y-145307500D01*
X134928571Y-145307500D02*
X134785714Y-145236071D01*
X134785714Y-145236071D02*
X134571428Y-145236071D01*
X135714285Y-145236071D02*
X135714285Y-146236071D01*
X135714285Y-145950357D02*
X135785714Y-146093214D01*
X135785714Y-146093214D02*
X135857143Y-146164642D01*
X135857143Y-146164642D02*
X136000000Y-146236071D01*
X136000000Y-146236071D02*
X136142857Y-146236071D01*
X137285714Y-145236071D02*
X137285714Y-146736071D01*
X137285714Y-145307500D02*
X137142856Y-145236071D01*
X137142856Y-145236071D02*
X136857142Y-145236071D01*
X136857142Y-145236071D02*
X136714285Y-145307500D01*
X136714285Y-145307500D02*
X136642856Y-145378928D01*
X136642856Y-145378928D02*
X136571428Y-145521785D01*
X136571428Y-145521785D02*
X136571428Y-145950357D01*
X136571428Y-145950357D02*
X136642856Y-146093214D01*
X136642856Y-146093214D02*
X136714285Y-146164642D01*
X136714285Y-146164642D02*
X136857142Y-146236071D01*
X136857142Y-146236071D02*
X137142856Y-146236071D01*
X137142856Y-146236071D02*
X137285714Y-146164642D01*
X137928571Y-145307500D02*
X138071428Y-145236071D01*
X138071428Y-145236071D02*
X138357142Y-145236071D01*
X138357142Y-145236071D02*
X138499999Y-145307500D01*
X138499999Y-145307500D02*
X138571428Y-145450357D01*
X138571428Y-145450357D02*
X138571428Y-145521785D01*
X138571428Y-145521785D02*
X138499999Y-145664642D01*
X138499999Y-145664642D02*
X138357142Y-145736071D01*
X138357142Y-145736071D02*
X138142857Y-145736071D01*
X138142857Y-145736071D02*
X137999999Y-145807500D01*
X137999999Y-145807500D02*
X137928571Y-145950357D01*
X137928571Y-145950357D02*
X137928571Y-146021785D01*
X137928571Y-146021785D02*
X137999999Y-146164642D01*
X137999999Y-146164642D02*
X138142857Y-146236071D01*
X138142857Y-146236071D02*
X138357142Y-146236071D01*
X138357142Y-146236071D02*
X138499999Y-146164642D01*
X141000000Y-145236071D02*
X141000000Y-146021785D01*
X141000000Y-146021785D02*
X140928571Y-146164642D01*
X140928571Y-146164642D02*
X140785714Y-146236071D01*
X140785714Y-146236071D02*
X140500000Y-146236071D01*
X140500000Y-146236071D02*
X140357142Y-146164642D01*
X141000000Y-145307500D02*
X140857142Y-145236071D01*
X140857142Y-145236071D02*
X140500000Y-145236071D01*
X140500000Y-145236071D02*
X140357142Y-145307500D01*
X140357142Y-145307500D02*
X140285714Y-145450357D01*
X140285714Y-145450357D02*
X140285714Y-145593214D01*
X140285714Y-145593214D02*
X140357142Y-145736071D01*
X140357142Y-145736071D02*
X140500000Y-145807500D01*
X140500000Y-145807500D02*
X140857142Y-145807500D01*
X140857142Y-145807500D02*
X141000000Y-145878928D01*
X141714285Y-146236071D02*
X141714285Y-144736071D01*
X141714285Y-146164642D02*
X141857143Y-146236071D01*
X141857143Y-146236071D02*
X142142857Y-146236071D01*
X142142857Y-146236071D02*
X142285714Y-146164642D01*
X142285714Y-146164642D02*
X142357143Y-146093214D01*
X142357143Y-146093214D02*
X142428571Y-145950357D01*
X142428571Y-145950357D02*
X142428571Y-145521785D01*
X142428571Y-145521785D02*
X142357143Y-145378928D01*
X142357143Y-145378928D02*
X142285714Y-145307500D01*
X142285714Y-145307500D02*
X142142857Y-145236071D01*
X142142857Y-145236071D02*
X141857143Y-145236071D01*
X141857143Y-145236071D02*
X141714285Y-145307500D01*
X143071428Y-146236071D02*
X143071428Y-144736071D01*
X143071428Y-146164642D02*
X143214286Y-146236071D01*
X143214286Y-146236071D02*
X143500000Y-146236071D01*
X143500000Y-146236071D02*
X143642857Y-146164642D01*
X143642857Y-146164642D02*
X143714286Y-146093214D01*
X143714286Y-146093214D02*
X143785714Y-145950357D01*
X143785714Y-145950357D02*
X143785714Y-145521785D01*
X143785714Y-145521785D02*
X143714286Y-145378928D01*
X143714286Y-145378928D02*
X143642857Y-145307500D01*
X143642857Y-145307500D02*
X143500000Y-145236071D01*
X143500000Y-145236071D02*
X143214286Y-145236071D01*
X143214286Y-145236071D02*
X143071428Y-145307500D01*
X145000000Y-145307500D02*
X144857143Y-145236071D01*
X144857143Y-145236071D02*
X144571429Y-145236071D01*
X144571429Y-145236071D02*
X144428571Y-145307500D01*
X144428571Y-145307500D02*
X144357143Y-145450357D01*
X144357143Y-145450357D02*
X144357143Y-146021785D01*
X144357143Y-146021785D02*
X144428571Y-146164642D01*
X144428571Y-146164642D02*
X144571429Y-146236071D01*
X144571429Y-146236071D02*
X144857143Y-146236071D01*
X144857143Y-146236071D02*
X145000000Y-146164642D01*
X145000000Y-146164642D02*
X145071429Y-146021785D01*
X145071429Y-146021785D02*
X145071429Y-145878928D01*
X145071429Y-145878928D02*
X144357143Y-145736071D01*
X146357143Y-145236071D02*
X146357143Y-146021785D01*
X146357143Y-146021785D02*
X146285714Y-146164642D01*
X146285714Y-146164642D02*
X146142857Y-146236071D01*
X146142857Y-146236071D02*
X145857143Y-146236071D01*
X145857143Y-146236071D02*
X145714285Y-146164642D01*
X146357143Y-145307500D02*
X146214285Y-145236071D01*
X146214285Y-145236071D02*
X145857143Y-145236071D01*
X145857143Y-145236071D02*
X145714285Y-145307500D01*
X145714285Y-145307500D02*
X145642857Y-145450357D01*
X145642857Y-145450357D02*
X145642857Y-145593214D01*
X145642857Y-145593214D02*
X145714285Y-145736071D01*
X145714285Y-145736071D02*
X145857143Y-145807500D01*
X145857143Y-145807500D02*
X146214285Y-145807500D01*
X146214285Y-145807500D02*
X146357143Y-145878928D01*
X147071428Y-145236071D02*
X147071428Y-146236071D01*
X147071428Y-145950357D02*
X147142857Y-146093214D01*
X147142857Y-146093214D02*
X147214286Y-146164642D01*
X147214286Y-146164642D02*
X147357143Y-146236071D01*
X147357143Y-146236071D02*
X147500000Y-146236071D01*
X147999999Y-145378928D02*
X148071428Y-145307500D01*
X148071428Y-145307500D02*
X147999999Y-145236071D01*
X147999999Y-145236071D02*
X147928571Y-145307500D01*
X147928571Y-145307500D02*
X147999999Y-145378928D01*
X147999999Y-145378928D02*
X147999999Y-145236071D01*
X147999999Y-146164642D02*
X148071428Y-146093214D01*
X148071428Y-146093214D02*
X147999999Y-146021785D01*
X147999999Y-146021785D02*
X147928571Y-146093214D01*
X147928571Y-146093214D02*
X147999999Y-146164642D01*
X147999999Y-146164642D02*
X147999999Y-146021785D01*
X101285714Y-144306071D02*
X101285714Y-144020357D01*
X101857142Y-144306071D02*
X101857142Y-144020357D01*
X102499999Y-142806071D02*
X102499999Y-144306071D01*
X102499999Y-144306071D02*
X102999999Y-143234642D01*
X102999999Y-143234642D02*
X103499999Y-144306071D01*
X103499999Y-144306071D02*
X103499999Y-142806071D01*
X104071428Y-143806071D02*
X104428571Y-142806071D01*
X104785714Y-143806071D02*
X104428571Y-142806071D01*
X104428571Y-142806071D02*
X104285714Y-142448928D01*
X104285714Y-142448928D02*
X104214285Y-142377500D01*
X104214285Y-142377500D02*
X104071428Y-142306071D01*
X106499999Y-143806071D02*
X106499999Y-142806071D01*
X106499999Y-143663214D02*
X106571428Y-143734642D01*
X106571428Y-143734642D02*
X106714285Y-143806071D01*
X106714285Y-143806071D02*
X106928571Y-143806071D01*
X106928571Y-143806071D02*
X107071428Y-143734642D01*
X107071428Y-143734642D02*
X107142857Y-143591785D01*
X107142857Y-143591785D02*
X107142857Y-142806071D01*
X108500000Y-142806071D02*
X108500000Y-143591785D01*
X108500000Y-143591785D02*
X108428571Y-143734642D01*
X108428571Y-143734642D02*
X108285714Y-143806071D01*
X108285714Y-143806071D02*
X108000000Y-143806071D01*
X108000000Y-143806071D02*
X107857142Y-143734642D01*
X108500000Y-142877500D02*
X108357142Y-142806071D01*
X108357142Y-142806071D02*
X108000000Y-142806071D01*
X108000000Y-142806071D02*
X107857142Y-142877500D01*
X107857142Y-142877500D02*
X107785714Y-143020357D01*
X107785714Y-143020357D02*
X107785714Y-143163214D01*
X107785714Y-143163214D02*
X107857142Y-143306071D01*
X107857142Y-143306071D02*
X108000000Y-143377500D01*
X108000000Y-143377500D02*
X108357142Y-143377500D01*
X108357142Y-143377500D02*
X108500000Y-143448928D01*
X109214285Y-142806071D02*
X109214285Y-143806071D01*
X109214285Y-143663214D02*
X109285714Y-143734642D01*
X109285714Y-143734642D02*
X109428571Y-143806071D01*
X109428571Y-143806071D02*
X109642857Y-143806071D01*
X109642857Y-143806071D02*
X109785714Y-143734642D01*
X109785714Y-143734642D02*
X109857143Y-143591785D01*
X109857143Y-143591785D02*
X109857143Y-142806071D01*
X109857143Y-143591785D02*
X109928571Y-143734642D01*
X109928571Y-143734642D02*
X110071428Y-143806071D01*
X110071428Y-143806071D02*
X110285714Y-143806071D01*
X110285714Y-143806071D02*
X110428571Y-143734642D01*
X110428571Y-143734642D02*
X110500000Y-143591785D01*
X110500000Y-143591785D02*
X110500000Y-142806071D01*
X111785714Y-142877500D02*
X111642857Y-142806071D01*
X111642857Y-142806071D02*
X111357143Y-142806071D01*
X111357143Y-142806071D02*
X111214285Y-142877500D01*
X111214285Y-142877500D02*
X111142857Y-143020357D01*
X111142857Y-143020357D02*
X111142857Y-143591785D01*
X111142857Y-143591785D02*
X111214285Y-143734642D01*
X111214285Y-143734642D02*
X111357143Y-143806071D01*
X111357143Y-143806071D02*
X111642857Y-143806071D01*
X111642857Y-143806071D02*
X111785714Y-143734642D01*
X111785714Y-143734642D02*
X111857143Y-143591785D01*
X111857143Y-143591785D02*
X111857143Y-143448928D01*
X111857143Y-143448928D02*
X111142857Y-143306071D01*
X113642856Y-142806071D02*
X113642856Y-143806071D01*
X113642856Y-144306071D02*
X113571428Y-144234642D01*
X113571428Y-144234642D02*
X113642856Y-144163214D01*
X113642856Y-144163214D02*
X113714285Y-144234642D01*
X113714285Y-144234642D02*
X113642856Y-144306071D01*
X113642856Y-144306071D02*
X113642856Y-144163214D01*
X114285714Y-142877500D02*
X114428571Y-142806071D01*
X114428571Y-142806071D02*
X114714285Y-142806071D01*
X114714285Y-142806071D02*
X114857142Y-142877500D01*
X114857142Y-142877500D02*
X114928571Y-143020357D01*
X114928571Y-143020357D02*
X114928571Y-143091785D01*
X114928571Y-143091785D02*
X114857142Y-143234642D01*
X114857142Y-143234642D02*
X114714285Y-143306071D01*
X114714285Y-143306071D02*
X114500000Y-143306071D01*
X114500000Y-143306071D02*
X114357142Y-143377500D01*
X114357142Y-143377500D02*
X114285714Y-143520357D01*
X114285714Y-143520357D02*
X114285714Y-143591785D01*
X114285714Y-143591785D02*
X114357142Y-143734642D01*
X114357142Y-143734642D02*
X114500000Y-143806071D01*
X114500000Y-143806071D02*
X114714285Y-143806071D01*
X114714285Y-143806071D02*
X114857142Y-143734642D01*
X117000000Y-144306071D02*
X117285714Y-144306071D01*
X117285714Y-144306071D02*
X117428571Y-144234642D01*
X117428571Y-144234642D02*
X117571428Y-144091785D01*
X117571428Y-144091785D02*
X117642857Y-143806071D01*
X117642857Y-143806071D02*
X117642857Y-143306071D01*
X117642857Y-143306071D02*
X117571428Y-143020357D01*
X117571428Y-143020357D02*
X117428571Y-142877500D01*
X117428571Y-142877500D02*
X117285714Y-142806071D01*
X117285714Y-142806071D02*
X117000000Y-142806071D01*
X117000000Y-142806071D02*
X116857143Y-142877500D01*
X116857143Y-142877500D02*
X116714285Y-143020357D01*
X116714285Y-143020357D02*
X116642857Y-143306071D01*
X116642857Y-143306071D02*
X116642857Y-143806071D01*
X116642857Y-143806071D02*
X116714285Y-144091785D01*
X116714285Y-144091785D02*
X116857143Y-144234642D01*
X116857143Y-144234642D02*
X117000000Y-144306071D01*
X118142857Y-143806071D02*
X118928572Y-143806071D01*
X118928572Y-143806071D02*
X118142857Y-142806071D01*
X118142857Y-142806071D02*
X118928572Y-142806071D01*
X119357143Y-143806071D02*
X119714286Y-142806071D01*
X120071429Y-143806071D02*
X119714286Y-142806071D01*
X119714286Y-142806071D02*
X119571429Y-142448928D01*
X119571429Y-142448928D02*
X119500000Y-142377500D01*
X119500000Y-142377500D02*
X119357143Y-142306071D01*
X120642857Y-142806071D02*
X120642857Y-143806071D01*
X120642857Y-143663214D02*
X120714286Y-143734642D01*
X120714286Y-143734642D02*
X120857143Y-143806071D01*
X120857143Y-143806071D02*
X121071429Y-143806071D01*
X121071429Y-143806071D02*
X121214286Y-143734642D01*
X121214286Y-143734642D02*
X121285715Y-143591785D01*
X121285715Y-143591785D02*
X121285715Y-142806071D01*
X121285715Y-143591785D02*
X121357143Y-143734642D01*
X121357143Y-143734642D02*
X121500000Y-143806071D01*
X121500000Y-143806071D02*
X121714286Y-143806071D01*
X121714286Y-143806071D02*
X121857143Y-143734642D01*
X121857143Y-143734642D02*
X121928572Y-143591785D01*
X121928572Y-143591785D02*
X121928572Y-142806071D01*
X123285715Y-142806071D02*
X123285715Y-143591785D01*
X123285715Y-143591785D02*
X123214286Y-143734642D01*
X123214286Y-143734642D02*
X123071429Y-143806071D01*
X123071429Y-143806071D02*
X122785715Y-143806071D01*
X122785715Y-143806071D02*
X122642857Y-143734642D01*
X123285715Y-142877500D02*
X123142857Y-142806071D01*
X123142857Y-142806071D02*
X122785715Y-142806071D01*
X122785715Y-142806071D02*
X122642857Y-142877500D01*
X122642857Y-142877500D02*
X122571429Y-143020357D01*
X122571429Y-143020357D02*
X122571429Y-143163214D01*
X122571429Y-143163214D02*
X122642857Y-143306071D01*
X122642857Y-143306071D02*
X122785715Y-143377500D01*
X122785715Y-143377500D02*
X123142857Y-143377500D01*
X123142857Y-143377500D02*
X123285715Y-143448928D01*
X124000000Y-143806071D02*
X124000000Y-142806071D01*
X124000000Y-143663214D02*
X124071429Y-143734642D01*
X124071429Y-143734642D02*
X124214286Y-143806071D01*
X124214286Y-143806071D02*
X124428572Y-143806071D01*
X124428572Y-143806071D02*
X124571429Y-143734642D01*
X124571429Y-143734642D02*
X124642858Y-143591785D01*
X124642858Y-143591785D02*
X124642858Y-142806071D01*
X126000001Y-142806071D02*
X126000001Y-144306071D01*
X126000001Y-142877500D02*
X125857143Y-142806071D01*
X125857143Y-142806071D02*
X125571429Y-142806071D01*
X125571429Y-142806071D02*
X125428572Y-142877500D01*
X125428572Y-142877500D02*
X125357143Y-142948928D01*
X125357143Y-142948928D02*
X125285715Y-143091785D01*
X125285715Y-143091785D02*
X125285715Y-143520357D01*
X125285715Y-143520357D02*
X125357143Y-143663214D01*
X125357143Y-143663214D02*
X125428572Y-143734642D01*
X125428572Y-143734642D02*
X125571429Y-143806071D01*
X125571429Y-143806071D02*
X125857143Y-143806071D01*
X125857143Y-143806071D02*
X126000001Y-143734642D01*
X126714286Y-142806071D02*
X126714286Y-143806071D01*
X126714286Y-144306071D02*
X126642858Y-144234642D01*
X126642858Y-144234642D02*
X126714286Y-144163214D01*
X126714286Y-144163214D02*
X126785715Y-144234642D01*
X126785715Y-144234642D02*
X126714286Y-144306071D01*
X126714286Y-144306071D02*
X126714286Y-144163214D01*
X128071430Y-142806071D02*
X128071430Y-143591785D01*
X128071430Y-143591785D02*
X128000001Y-143734642D01*
X128000001Y-143734642D02*
X127857144Y-143806071D01*
X127857144Y-143806071D02*
X127571430Y-143806071D01*
X127571430Y-143806071D02*
X127428572Y-143734642D01*
X128071430Y-142877500D02*
X127928572Y-142806071D01*
X127928572Y-142806071D02*
X127571430Y-142806071D01*
X127571430Y-142806071D02*
X127428572Y-142877500D01*
X127428572Y-142877500D02*
X127357144Y-143020357D01*
X127357144Y-143020357D02*
X127357144Y-143163214D01*
X127357144Y-143163214D02*
X127428572Y-143306071D01*
X127428572Y-143306071D02*
X127571430Y-143377500D01*
X127571430Y-143377500D02*
X127928572Y-143377500D01*
X127928572Y-143377500D02*
X128071430Y-143448928D01*
X128714287Y-142877500D02*
X128857144Y-142806071D01*
X128857144Y-142806071D02*
X129142858Y-142806071D01*
X129142858Y-142806071D02*
X129285715Y-142877500D01*
X129285715Y-142877500D02*
X129357144Y-143020357D01*
X129357144Y-143020357D02*
X129357144Y-143091785D01*
X129357144Y-143091785D02*
X129285715Y-143234642D01*
X129285715Y-143234642D02*
X129142858Y-143306071D01*
X129142858Y-143306071D02*
X128928573Y-143306071D01*
X128928573Y-143306071D02*
X128785715Y-143377500D01*
X128785715Y-143377500D02*
X128714287Y-143520357D01*
X128714287Y-143520357D02*
X128714287Y-143591785D01*
X128714287Y-143591785D02*
X128785715Y-143734642D01*
X128785715Y-143734642D02*
X128928573Y-143806071D01*
X128928573Y-143806071D02*
X129142858Y-143806071D01*
X129142858Y-143806071D02*
X129285715Y-143734642D01*
X130071430Y-142877500D02*
X130071430Y-142806071D01*
X130071430Y-142806071D02*
X130000001Y-142663214D01*
X130000001Y-142663214D02*
X129928573Y-142591785D01*
X131857144Y-142806071D02*
X131857144Y-144306071D01*
X132000002Y-143377500D02*
X132428573Y-142806071D01*
X132428573Y-143806071D02*
X131857144Y-143234642D01*
X133071430Y-142806071D02*
X133071430Y-143806071D01*
X133071430Y-144306071D02*
X133000002Y-144234642D01*
X133000002Y-144234642D02*
X133071430Y-144163214D01*
X133071430Y-144163214D02*
X133142859Y-144234642D01*
X133142859Y-144234642D02*
X133071430Y-144306071D01*
X133071430Y-144306071D02*
X133071430Y-144163214D01*
X133785716Y-143806071D02*
X133785716Y-142806071D01*
X133785716Y-143663214D02*
X133857145Y-143734642D01*
X133857145Y-143734642D02*
X134000002Y-143806071D01*
X134000002Y-143806071D02*
X134214288Y-143806071D01*
X134214288Y-143806071D02*
X134357145Y-143734642D01*
X134357145Y-143734642D02*
X134428574Y-143591785D01*
X134428574Y-143591785D02*
X134428574Y-142806071D01*
X135785717Y-143806071D02*
X135785717Y-142591785D01*
X135785717Y-142591785D02*
X135714288Y-142448928D01*
X135714288Y-142448928D02*
X135642859Y-142377500D01*
X135642859Y-142377500D02*
X135500002Y-142306071D01*
X135500002Y-142306071D02*
X135285717Y-142306071D01*
X135285717Y-142306071D02*
X135142859Y-142377500D01*
X135785717Y-142877500D02*
X135642859Y-142806071D01*
X135642859Y-142806071D02*
X135357145Y-142806071D01*
X135357145Y-142806071D02*
X135214288Y-142877500D01*
X135214288Y-142877500D02*
X135142859Y-142948928D01*
X135142859Y-142948928D02*
X135071431Y-143091785D01*
X135071431Y-143091785D02*
X135071431Y-143520357D01*
X135071431Y-143520357D02*
X135142859Y-143663214D01*
X135142859Y-143663214D02*
X135214288Y-143734642D01*
X135214288Y-143734642D02*
X135357145Y-143806071D01*
X135357145Y-143806071D02*
X135642859Y-143806071D01*
X135642859Y-143806071D02*
X135785717Y-143734642D01*
X137857145Y-142806071D02*
X137714288Y-142877500D01*
X137714288Y-142877500D02*
X137642859Y-142948928D01*
X137642859Y-142948928D02*
X137571431Y-143091785D01*
X137571431Y-143091785D02*
X137571431Y-143520357D01*
X137571431Y-143520357D02*
X137642859Y-143663214D01*
X137642859Y-143663214D02*
X137714288Y-143734642D01*
X137714288Y-143734642D02*
X137857145Y-143806071D01*
X137857145Y-143806071D02*
X138071431Y-143806071D01*
X138071431Y-143806071D02*
X138214288Y-143734642D01*
X138214288Y-143734642D02*
X138285717Y-143663214D01*
X138285717Y-143663214D02*
X138357145Y-143520357D01*
X138357145Y-143520357D02*
X138357145Y-143091785D01*
X138357145Y-143091785D02*
X138285717Y-142948928D01*
X138285717Y-142948928D02*
X138214288Y-142877500D01*
X138214288Y-142877500D02*
X138071431Y-142806071D01*
X138071431Y-142806071D02*
X137857145Y-142806071D01*
X138785717Y-143806071D02*
X139357145Y-143806071D01*
X139000002Y-142806071D02*
X139000002Y-144091785D01*
X139000002Y-144091785D02*
X139071431Y-144234642D01*
X139071431Y-144234642D02*
X139214288Y-144306071D01*
X139214288Y-144306071D02*
X139357145Y-144306071D01*
X141000002Y-142806071D02*
X141000002Y-144306071D01*
X141142860Y-143377500D02*
X141571431Y-142806071D01*
X141571431Y-143806071D02*
X141000002Y-143234642D01*
X142214288Y-142806071D02*
X142214288Y-143806071D01*
X142214288Y-144306071D02*
X142142860Y-144234642D01*
X142142860Y-144234642D02*
X142214288Y-144163214D01*
X142214288Y-144163214D02*
X142285717Y-144234642D01*
X142285717Y-144234642D02*
X142214288Y-144306071D01*
X142214288Y-144306071D02*
X142214288Y-144163214D01*
X142928574Y-143806071D02*
X142928574Y-142806071D01*
X142928574Y-143663214D02*
X143000003Y-143734642D01*
X143000003Y-143734642D02*
X143142860Y-143806071D01*
X143142860Y-143806071D02*
X143357146Y-143806071D01*
X143357146Y-143806071D02*
X143500003Y-143734642D01*
X143500003Y-143734642D02*
X143571432Y-143591785D01*
X143571432Y-143591785D02*
X143571432Y-142806071D01*
X144928575Y-143806071D02*
X144928575Y-142591785D01*
X144928575Y-142591785D02*
X144857146Y-142448928D01*
X144857146Y-142448928D02*
X144785717Y-142377500D01*
X144785717Y-142377500D02*
X144642860Y-142306071D01*
X144642860Y-142306071D02*
X144428575Y-142306071D01*
X144428575Y-142306071D02*
X144285717Y-142377500D01*
X144928575Y-142877500D02*
X144785717Y-142806071D01*
X144785717Y-142806071D02*
X144500003Y-142806071D01*
X144500003Y-142806071D02*
X144357146Y-142877500D01*
X144357146Y-142877500D02*
X144285717Y-142948928D01*
X144285717Y-142948928D02*
X144214289Y-143091785D01*
X144214289Y-143091785D02*
X144214289Y-143520357D01*
X144214289Y-143520357D02*
X144285717Y-143663214D01*
X144285717Y-143663214D02*
X144357146Y-143734642D01*
X144357146Y-143734642D02*
X144500003Y-143806071D01*
X144500003Y-143806071D02*
X144785717Y-143806071D01*
X144785717Y-143806071D02*
X144928575Y-143734642D01*
X145571432Y-142877500D02*
X145714289Y-142806071D01*
X145714289Y-142806071D02*
X146000003Y-142806071D01*
X146000003Y-142806071D02*
X146142860Y-142877500D01*
X146142860Y-142877500D02*
X146214289Y-143020357D01*
X146214289Y-143020357D02*
X146214289Y-143091785D01*
X146214289Y-143091785D02*
X146142860Y-143234642D01*
X146142860Y-143234642D02*
X146000003Y-143306071D01*
X146000003Y-143306071D02*
X145785718Y-143306071D01*
X145785718Y-143306071D02*
X145642860Y-143377500D01*
X145642860Y-143377500D02*
X145571432Y-143520357D01*
X145571432Y-143520357D02*
X145571432Y-143591785D01*
X145571432Y-143591785D02*
X145642860Y-143734642D01*
X145642860Y-143734642D02*
X145785718Y-143806071D01*
X145785718Y-143806071D02*
X146000003Y-143806071D01*
X146000003Y-143806071D02*
X146142860Y-143734642D01*
X146857146Y-142948928D02*
X146928575Y-142877500D01*
X146928575Y-142877500D02*
X146857146Y-142806071D01*
X146857146Y-142806071D02*
X146785718Y-142877500D01*
X146785718Y-142877500D02*
X146857146Y-142948928D01*
X146857146Y-142948928D02*
X146857146Y-142806071D01*
X146857146Y-143734642D02*
X146928575Y-143663214D01*
X146928575Y-143663214D02*
X146857146Y-143591785D01*
X146857146Y-143591785D02*
X146785718Y-143663214D01*
X146785718Y-143663214D02*
X146857146Y-143734642D01*
X146857146Y-143734642D02*
X146857146Y-143591785D01*
X102071428Y-140376071D02*
X101357142Y-140376071D01*
X101357142Y-140376071D02*
X101357142Y-141876071D01*
X102785714Y-140376071D02*
X102642857Y-140447500D01*
X102642857Y-140447500D02*
X102571428Y-140518928D01*
X102571428Y-140518928D02*
X102500000Y-140661785D01*
X102500000Y-140661785D02*
X102500000Y-141090357D01*
X102500000Y-141090357D02*
X102571428Y-141233214D01*
X102571428Y-141233214D02*
X102642857Y-141304642D01*
X102642857Y-141304642D02*
X102785714Y-141376071D01*
X102785714Y-141376071D02*
X103000000Y-141376071D01*
X103000000Y-141376071D02*
X103142857Y-141304642D01*
X103142857Y-141304642D02*
X103214286Y-141233214D01*
X103214286Y-141233214D02*
X103285714Y-141090357D01*
X103285714Y-141090357D02*
X103285714Y-140661785D01*
X103285714Y-140661785D02*
X103214286Y-140518928D01*
X103214286Y-140518928D02*
X103142857Y-140447500D01*
X103142857Y-140447500D02*
X103000000Y-140376071D01*
X103000000Y-140376071D02*
X102785714Y-140376071D01*
X104142857Y-140376071D02*
X104000000Y-140447500D01*
X104000000Y-140447500D02*
X103928571Y-140518928D01*
X103928571Y-140518928D02*
X103857143Y-140661785D01*
X103857143Y-140661785D02*
X103857143Y-141090357D01*
X103857143Y-141090357D02*
X103928571Y-141233214D01*
X103928571Y-141233214D02*
X104000000Y-141304642D01*
X104000000Y-141304642D02*
X104142857Y-141376071D01*
X104142857Y-141376071D02*
X104357143Y-141376071D01*
X104357143Y-141376071D02*
X104500000Y-141304642D01*
X104500000Y-141304642D02*
X104571429Y-141233214D01*
X104571429Y-141233214D02*
X104642857Y-141090357D01*
X104642857Y-141090357D02*
X104642857Y-140661785D01*
X104642857Y-140661785D02*
X104571429Y-140518928D01*
X104571429Y-140518928D02*
X104500000Y-140447500D01*
X104500000Y-140447500D02*
X104357143Y-140376071D01*
X104357143Y-140376071D02*
X104142857Y-140376071D01*
X105285714Y-140376071D02*
X105285714Y-141876071D01*
X105428572Y-140947500D02*
X105857143Y-140376071D01*
X105857143Y-141376071D02*
X105285714Y-140804642D01*
X107857143Y-140376071D02*
X107714286Y-140447500D01*
X107714286Y-140447500D02*
X107642857Y-140518928D01*
X107642857Y-140518928D02*
X107571429Y-140661785D01*
X107571429Y-140661785D02*
X107571429Y-141090357D01*
X107571429Y-141090357D02*
X107642857Y-141233214D01*
X107642857Y-141233214D02*
X107714286Y-141304642D01*
X107714286Y-141304642D02*
X107857143Y-141376071D01*
X107857143Y-141376071D02*
X108071429Y-141376071D01*
X108071429Y-141376071D02*
X108214286Y-141304642D01*
X108214286Y-141304642D02*
X108285715Y-141233214D01*
X108285715Y-141233214D02*
X108357143Y-141090357D01*
X108357143Y-141090357D02*
X108357143Y-140661785D01*
X108357143Y-140661785D02*
X108285715Y-140518928D01*
X108285715Y-140518928D02*
X108214286Y-140447500D01*
X108214286Y-140447500D02*
X108071429Y-140376071D01*
X108071429Y-140376071D02*
X107857143Y-140376071D01*
X109000000Y-141376071D02*
X109000000Y-140376071D01*
X109000000Y-141233214D02*
X109071429Y-141304642D01*
X109071429Y-141304642D02*
X109214286Y-141376071D01*
X109214286Y-141376071D02*
X109428572Y-141376071D01*
X109428572Y-141376071D02*
X109571429Y-141304642D01*
X109571429Y-141304642D02*
X109642858Y-141161785D01*
X109642858Y-141161785D02*
X109642858Y-140376071D01*
X111500000Y-140376071D02*
X111500000Y-141376071D01*
X111500000Y-141233214D02*
X111571429Y-141304642D01*
X111571429Y-141304642D02*
X111714286Y-141376071D01*
X111714286Y-141376071D02*
X111928572Y-141376071D01*
X111928572Y-141376071D02*
X112071429Y-141304642D01*
X112071429Y-141304642D02*
X112142858Y-141161785D01*
X112142858Y-141161785D02*
X112142858Y-140376071D01*
X112142858Y-141161785D02*
X112214286Y-141304642D01*
X112214286Y-141304642D02*
X112357143Y-141376071D01*
X112357143Y-141376071D02*
X112571429Y-141376071D01*
X112571429Y-141376071D02*
X112714286Y-141304642D01*
X112714286Y-141304642D02*
X112785715Y-141161785D01*
X112785715Y-141161785D02*
X112785715Y-140376071D01*
X113357143Y-141376071D02*
X113714286Y-140376071D01*
X114071429Y-141376071D02*
X113714286Y-140376071D01*
X113714286Y-140376071D02*
X113571429Y-140018928D01*
X113571429Y-140018928D02*
X113500000Y-139947500D01*
X113500000Y-139947500D02*
X113357143Y-139876071D01*
X115642857Y-141376071D02*
X115928572Y-140376071D01*
X115928572Y-140376071D02*
X116214286Y-141090357D01*
X116214286Y-141090357D02*
X116500000Y-140376071D01*
X116500000Y-140376071D02*
X116785714Y-141376071D01*
X117571429Y-140376071D02*
X117428572Y-140447500D01*
X117428572Y-140447500D02*
X117357143Y-140518928D01*
X117357143Y-140518928D02*
X117285715Y-140661785D01*
X117285715Y-140661785D02*
X117285715Y-141090357D01*
X117285715Y-141090357D02*
X117357143Y-141233214D01*
X117357143Y-141233214D02*
X117428572Y-141304642D01*
X117428572Y-141304642D02*
X117571429Y-141376071D01*
X117571429Y-141376071D02*
X117785715Y-141376071D01*
X117785715Y-141376071D02*
X117928572Y-141304642D01*
X117928572Y-141304642D02*
X118000001Y-141233214D01*
X118000001Y-141233214D02*
X118071429Y-141090357D01*
X118071429Y-141090357D02*
X118071429Y-140661785D01*
X118071429Y-140661785D02*
X118000001Y-140518928D01*
X118000001Y-140518928D02*
X117928572Y-140447500D01*
X117928572Y-140447500D02*
X117785715Y-140376071D01*
X117785715Y-140376071D02*
X117571429Y-140376071D01*
X118714286Y-140376071D02*
X118714286Y-141376071D01*
X118714286Y-141090357D02*
X118785715Y-141233214D01*
X118785715Y-141233214D02*
X118857144Y-141304642D01*
X118857144Y-141304642D02*
X119000001Y-141376071D01*
X119000001Y-141376071D02*
X119142858Y-141376071D01*
X119642857Y-140376071D02*
X119642857Y-141876071D01*
X119785715Y-140947500D02*
X120214286Y-140376071D01*
X120214286Y-141376071D02*
X119642857Y-140804642D01*
X120785715Y-140447500D02*
X120928572Y-140376071D01*
X120928572Y-140376071D02*
X121214286Y-140376071D01*
X121214286Y-140376071D02*
X121357143Y-140447500D01*
X121357143Y-140447500D02*
X121428572Y-140590357D01*
X121428572Y-140590357D02*
X121428572Y-140661785D01*
X121428572Y-140661785D02*
X121357143Y-140804642D01*
X121357143Y-140804642D02*
X121214286Y-140876071D01*
X121214286Y-140876071D02*
X121000001Y-140876071D01*
X121000001Y-140876071D02*
X120857143Y-140947500D01*
X120857143Y-140947500D02*
X120785715Y-141090357D01*
X120785715Y-141090357D02*
X120785715Y-141161785D01*
X120785715Y-141161785D02*
X120857143Y-141304642D01*
X120857143Y-141304642D02*
X121000001Y-141376071D01*
X121000001Y-141376071D02*
X121214286Y-141376071D01*
X121214286Y-141376071D02*
X121357143Y-141304642D01*
X122142858Y-140447500D02*
X122142858Y-140376071D01*
X122142858Y-140376071D02*
X122071429Y-140233214D01*
X122071429Y-140233214D02*
X122000001Y-140161785D01*
X124214287Y-141090357D02*
X124214287Y-140376071D01*
X123714287Y-141876071D02*
X124214287Y-141090357D01*
X124214287Y-141090357D02*
X124714287Y-141876071D01*
X125785715Y-140447500D02*
X125642858Y-140376071D01*
X125642858Y-140376071D02*
X125357144Y-140376071D01*
X125357144Y-140376071D02*
X125214286Y-140447500D01*
X125214286Y-140447500D02*
X125142858Y-140590357D01*
X125142858Y-140590357D02*
X125142858Y-141161785D01*
X125142858Y-141161785D02*
X125214286Y-141304642D01*
X125214286Y-141304642D02*
X125357144Y-141376071D01*
X125357144Y-141376071D02*
X125642858Y-141376071D01*
X125642858Y-141376071D02*
X125785715Y-141304642D01*
X125785715Y-141304642D02*
X125857144Y-141161785D01*
X125857144Y-141161785D02*
X125857144Y-141018928D01*
X125857144Y-141018928D02*
X125142858Y-140876071D01*
X127642857Y-140376071D02*
X127642857Y-141876071D01*
X127642857Y-141876071D02*
X128142857Y-140804642D01*
X128142857Y-140804642D02*
X128642857Y-141876071D01*
X128642857Y-141876071D02*
X128642857Y-140376071D01*
X129357143Y-140376071D02*
X129357143Y-141376071D01*
X129357143Y-141876071D02*
X129285715Y-141804642D01*
X129285715Y-141804642D02*
X129357143Y-141733214D01*
X129357143Y-141733214D02*
X129428572Y-141804642D01*
X129428572Y-141804642D02*
X129357143Y-141876071D01*
X129357143Y-141876071D02*
X129357143Y-141733214D01*
X130714287Y-141376071D02*
X130714287Y-140161785D01*
X130714287Y-140161785D02*
X130642858Y-140018928D01*
X130642858Y-140018928D02*
X130571429Y-139947500D01*
X130571429Y-139947500D02*
X130428572Y-139876071D01*
X130428572Y-139876071D02*
X130214287Y-139876071D01*
X130214287Y-139876071D02*
X130071429Y-139947500D01*
X130714287Y-140447500D02*
X130571429Y-140376071D01*
X130571429Y-140376071D02*
X130285715Y-140376071D01*
X130285715Y-140376071D02*
X130142858Y-140447500D01*
X130142858Y-140447500D02*
X130071429Y-140518928D01*
X130071429Y-140518928D02*
X130000001Y-140661785D01*
X130000001Y-140661785D02*
X130000001Y-141090357D01*
X130000001Y-141090357D02*
X130071429Y-141233214D01*
X130071429Y-141233214D02*
X130142858Y-141304642D01*
X130142858Y-141304642D02*
X130285715Y-141376071D01*
X130285715Y-141376071D02*
X130571429Y-141376071D01*
X130571429Y-141376071D02*
X130714287Y-141304642D01*
X131428572Y-140376071D02*
X131428572Y-141876071D01*
X132071430Y-140376071D02*
X132071430Y-141161785D01*
X132071430Y-141161785D02*
X132000001Y-141304642D01*
X132000001Y-141304642D02*
X131857144Y-141376071D01*
X131857144Y-141376071D02*
X131642858Y-141376071D01*
X131642858Y-141376071D02*
X131500001Y-141304642D01*
X131500001Y-141304642D02*
X131428572Y-141233214D01*
X132571430Y-141376071D02*
X133142858Y-141376071D01*
X132785715Y-141876071D02*
X132785715Y-140590357D01*
X132785715Y-140590357D02*
X132857144Y-140447500D01*
X132857144Y-140447500D02*
X133000001Y-140376071D01*
X133000001Y-140376071D02*
X133142858Y-140376071D01*
X133500001Y-141376071D02*
X133857144Y-140376071D01*
X134214287Y-141376071D02*
X133857144Y-140376071D01*
X133857144Y-140376071D02*
X133714287Y-140018928D01*
X133714287Y-140018928D02*
X133642858Y-139947500D01*
X133642858Y-139947500D02*
X133500001Y-139876071D01*
X134857144Y-140447500D02*
X134857144Y-140376071D01*
X134857144Y-140376071D02*
X134785715Y-140233214D01*
X134785715Y-140233214D02*
X134714287Y-140161785D01*
X137285716Y-140376071D02*
X137285716Y-141161785D01*
X137285716Y-141161785D02*
X137214287Y-141304642D01*
X137214287Y-141304642D02*
X137071430Y-141376071D01*
X137071430Y-141376071D02*
X136785716Y-141376071D01*
X136785716Y-141376071D02*
X136642858Y-141304642D01*
X137285716Y-140447500D02*
X137142858Y-140376071D01*
X137142858Y-140376071D02*
X136785716Y-140376071D01*
X136785716Y-140376071D02*
X136642858Y-140447500D01*
X136642858Y-140447500D02*
X136571430Y-140590357D01*
X136571430Y-140590357D02*
X136571430Y-140733214D01*
X136571430Y-140733214D02*
X136642858Y-140876071D01*
X136642858Y-140876071D02*
X136785716Y-140947500D01*
X136785716Y-140947500D02*
X137142858Y-140947500D01*
X137142858Y-140947500D02*
X137285716Y-141018928D01*
X138000001Y-141376071D02*
X138000001Y-140376071D01*
X138000001Y-141233214D02*
X138071430Y-141304642D01*
X138071430Y-141304642D02*
X138214287Y-141376071D01*
X138214287Y-141376071D02*
X138428573Y-141376071D01*
X138428573Y-141376071D02*
X138571430Y-141304642D01*
X138571430Y-141304642D02*
X138642859Y-141161785D01*
X138642859Y-141161785D02*
X138642859Y-140376071D01*
X140000002Y-140376071D02*
X140000002Y-141876071D01*
X140000002Y-140447500D02*
X139857144Y-140376071D01*
X139857144Y-140376071D02*
X139571430Y-140376071D01*
X139571430Y-140376071D02*
X139428573Y-140447500D01*
X139428573Y-140447500D02*
X139357144Y-140518928D01*
X139357144Y-140518928D02*
X139285716Y-140661785D01*
X139285716Y-140661785D02*
X139285716Y-141090357D01*
X139285716Y-141090357D02*
X139357144Y-141233214D01*
X139357144Y-141233214D02*
X139428573Y-141304642D01*
X139428573Y-141304642D02*
X139571430Y-141376071D01*
X139571430Y-141376071D02*
X139857144Y-141376071D01*
X139857144Y-141376071D02*
X140000002Y-141304642D01*
X142500002Y-140376071D02*
X142500002Y-141876071D01*
X142500002Y-140447500D02*
X142357144Y-140376071D01*
X142357144Y-140376071D02*
X142071430Y-140376071D01*
X142071430Y-140376071D02*
X141928573Y-140447500D01*
X141928573Y-140447500D02*
X141857144Y-140518928D01*
X141857144Y-140518928D02*
X141785716Y-140661785D01*
X141785716Y-140661785D02*
X141785716Y-141090357D01*
X141785716Y-141090357D02*
X141857144Y-141233214D01*
X141857144Y-141233214D02*
X141928573Y-141304642D01*
X141928573Y-141304642D02*
X142071430Y-141376071D01*
X142071430Y-141376071D02*
X142357144Y-141376071D01*
X142357144Y-141376071D02*
X142500002Y-141304642D01*
X143785716Y-140447500D02*
X143642859Y-140376071D01*
X143642859Y-140376071D02*
X143357145Y-140376071D01*
X143357145Y-140376071D02*
X143214287Y-140447500D01*
X143214287Y-140447500D02*
X143142859Y-140590357D01*
X143142859Y-140590357D02*
X143142859Y-141161785D01*
X143142859Y-141161785D02*
X143214287Y-141304642D01*
X143214287Y-141304642D02*
X143357145Y-141376071D01*
X143357145Y-141376071D02*
X143642859Y-141376071D01*
X143642859Y-141376071D02*
X143785716Y-141304642D01*
X143785716Y-141304642D02*
X143857145Y-141161785D01*
X143857145Y-141161785D02*
X143857145Y-141018928D01*
X143857145Y-141018928D02*
X143142859Y-140876071D01*
X144428573Y-140447500D02*
X144571430Y-140376071D01*
X144571430Y-140376071D02*
X144857144Y-140376071D01*
X144857144Y-140376071D02*
X145000001Y-140447500D01*
X145000001Y-140447500D02*
X145071430Y-140590357D01*
X145071430Y-140590357D02*
X145071430Y-140661785D01*
X145071430Y-140661785D02*
X145000001Y-140804642D01*
X145000001Y-140804642D02*
X144857144Y-140876071D01*
X144857144Y-140876071D02*
X144642859Y-140876071D01*
X144642859Y-140876071D02*
X144500001Y-140947500D01*
X144500001Y-140947500D02*
X144428573Y-141090357D01*
X144428573Y-141090357D02*
X144428573Y-141161785D01*
X144428573Y-141161785D02*
X144500001Y-141304642D01*
X144500001Y-141304642D02*
X144642859Y-141376071D01*
X144642859Y-141376071D02*
X144857144Y-141376071D01*
X144857144Y-141376071D02*
X145000001Y-141304642D01*
X145714287Y-141376071D02*
X145714287Y-139876071D01*
X145714287Y-141304642D02*
X145857145Y-141376071D01*
X145857145Y-141376071D02*
X146142859Y-141376071D01*
X146142859Y-141376071D02*
X146285716Y-141304642D01*
X146285716Y-141304642D02*
X146357145Y-141233214D01*
X146357145Y-141233214D02*
X146428573Y-141090357D01*
X146428573Y-141090357D02*
X146428573Y-140661785D01*
X146428573Y-140661785D02*
X146357145Y-140518928D01*
X146357145Y-140518928D02*
X146285716Y-140447500D01*
X146285716Y-140447500D02*
X146142859Y-140376071D01*
X146142859Y-140376071D02*
X145857145Y-140376071D01*
X145857145Y-140376071D02*
X145714287Y-140447500D01*
X147714288Y-140376071D02*
X147714288Y-141161785D01*
X147714288Y-141161785D02*
X147642859Y-141304642D01*
X147642859Y-141304642D02*
X147500002Y-141376071D01*
X147500002Y-141376071D02*
X147214288Y-141376071D01*
X147214288Y-141376071D02*
X147071430Y-141304642D01*
X147714288Y-140447500D02*
X147571430Y-140376071D01*
X147571430Y-140376071D02*
X147214288Y-140376071D01*
X147214288Y-140376071D02*
X147071430Y-140447500D01*
X147071430Y-140447500D02*
X147000002Y-140590357D01*
X147000002Y-140590357D02*
X147000002Y-140733214D01*
X147000002Y-140733214D02*
X147071430Y-140876071D01*
X147071430Y-140876071D02*
X147214288Y-140947500D01*
X147214288Y-140947500D02*
X147571430Y-140947500D01*
X147571430Y-140947500D02*
X147714288Y-141018928D01*
X148428573Y-140376071D02*
X148428573Y-141376071D01*
X148428573Y-141876071D02*
X148357145Y-141804642D01*
X148357145Y-141804642D02*
X148428573Y-141733214D01*
X148428573Y-141733214D02*
X148500002Y-141804642D01*
X148500002Y-141804642D02*
X148428573Y-141876071D01*
X148428573Y-141876071D02*
X148428573Y-141733214D01*
X149142859Y-140376071D02*
X149142859Y-141376071D01*
X149142859Y-141090357D02*
X149214288Y-141233214D01*
X149214288Y-141233214D02*
X149285717Y-141304642D01*
X149285717Y-141304642D02*
X149428574Y-141376071D01*
X149428574Y-141376071D02*
X149571431Y-141376071D01*
X150071430Y-140518928D02*
X150142859Y-140447500D01*
X150142859Y-140447500D02*
X150071430Y-140376071D01*
X150071430Y-140376071D02*
X150000002Y-140447500D01*
X150000002Y-140447500D02*
X150071430Y-140518928D01*
X150071430Y-140518928D02*
X150071430Y-140376071D01*
X150071430Y-140947500D02*
X150000002Y-141804642D01*
X150000002Y-141804642D02*
X150071430Y-141876071D01*
X150071430Y-141876071D02*
X150142859Y-141804642D01*
X150142859Y-141804642D02*
X150071430Y-140947500D01*
X150071430Y-140947500D02*
X150071430Y-141876071D01*
X150714288Y-141876071D02*
X150714288Y-141590357D01*
X151285716Y-141876071D02*
X151285716Y-141590357D01*
X158500001Y-113403571D02*
X157642858Y-113403571D01*
X158071429Y-113403571D02*
X158071429Y-114903571D01*
X158071429Y-114903571D02*
X157928572Y-114689285D01*
X157928572Y-114689285D02*
X157785715Y-114546428D01*
X157785715Y-114546428D02*
X157642858Y-114475000D01*
X159071429Y-114760714D02*
X159142857Y-114832142D01*
X159142857Y-114832142D02*
X159285715Y-114903571D01*
X159285715Y-114903571D02*
X159642857Y-114903571D01*
X159642857Y-114903571D02*
X159785715Y-114832142D01*
X159785715Y-114832142D02*
X159857143Y-114760714D01*
X159857143Y-114760714D02*
X159928572Y-114617857D01*
X159928572Y-114617857D02*
X159928572Y-114475000D01*
X159928572Y-114475000D02*
X159857143Y-114260714D01*
X159857143Y-114260714D02*
X159000000Y-113403571D01*
X159000000Y-113403571D02*
X159928572Y-113403571D01*
X160357143Y-114903571D02*
X160857143Y-113403571D01*
X160857143Y-113403571D02*
X161357143Y-114903571D01*
X158785713Y-110973571D02*
X158785713Y-112473571D01*
X158785713Y-112473571D02*
X159642856Y-110973571D01*
X159642856Y-110973571D02*
X159642856Y-112473571D01*
X161214285Y-111116428D02*
X161142857Y-111045000D01*
X161142857Y-111045000D02*
X160928571Y-110973571D01*
X160928571Y-110973571D02*
X160785714Y-110973571D01*
X160785714Y-110973571D02*
X160571428Y-111045000D01*
X160571428Y-111045000D02*
X160428571Y-111187857D01*
X160428571Y-111187857D02*
X160357142Y-111330714D01*
X160357142Y-111330714D02*
X160285714Y-111616428D01*
X160285714Y-111616428D02*
X160285714Y-111830714D01*
X160285714Y-111830714D02*
X160357142Y-112116428D01*
X160357142Y-112116428D02*
X160428571Y-112259285D01*
X160428571Y-112259285D02*
X160571428Y-112402142D01*
X160571428Y-112402142D02*
X160785714Y-112473571D01*
X160785714Y-112473571D02*
X160928571Y-112473571D01*
X160928571Y-112473571D02*
X161142857Y-112402142D01*
X161142857Y-112402142D02*
X161214285Y-112330714D01*
X158071429Y-108543571D02*
X157214286Y-108543571D01*
X157642857Y-108543571D02*
X157642857Y-110043571D01*
X157642857Y-110043571D02*
X157500000Y-109829285D01*
X157500000Y-109829285D02*
X157357143Y-109686428D01*
X157357143Y-109686428D02*
X157214286Y-109615000D01*
X159428571Y-110043571D02*
X158714285Y-110043571D01*
X158714285Y-110043571D02*
X158642857Y-109329285D01*
X158642857Y-109329285D02*
X158714285Y-109400714D01*
X158714285Y-109400714D02*
X158857143Y-109472142D01*
X158857143Y-109472142D02*
X159214285Y-109472142D01*
X159214285Y-109472142D02*
X159357143Y-109400714D01*
X159357143Y-109400714D02*
X159428571Y-109329285D01*
X159428571Y-109329285D02*
X159500000Y-109186428D01*
X159500000Y-109186428D02*
X159500000Y-108829285D01*
X159500000Y-108829285D02*
X159428571Y-108686428D01*
X159428571Y-108686428D02*
X159357143Y-108615000D01*
X159357143Y-108615000D02*
X159214285Y-108543571D01*
X159214285Y-108543571D02*
X158857143Y-108543571D01*
X158857143Y-108543571D02*
X158714285Y-108615000D01*
X158714285Y-108615000D02*
X158642857Y-108686428D01*
X160142856Y-108543571D02*
X160142856Y-110043571D01*
X160142856Y-110043571D02*
X160642856Y-108972142D01*
X160642856Y-108972142D02*
X161142856Y-110043571D01*
X161142856Y-110043571D02*
X161142856Y-108543571D01*
X156642857Y-106113571D02*
X156928571Y-106113571D01*
X156928571Y-106113571D02*
X157071428Y-106185000D01*
X157071428Y-106185000D02*
X157142857Y-106256428D01*
X157142857Y-106256428D02*
X157285714Y-106470714D01*
X157285714Y-106470714D02*
X157357143Y-106756428D01*
X157357143Y-106756428D02*
X157357143Y-107327857D01*
X157357143Y-107327857D02*
X157285714Y-107470714D01*
X157285714Y-107470714D02*
X157214286Y-107542142D01*
X157214286Y-107542142D02*
X157071428Y-107613571D01*
X157071428Y-107613571D02*
X156785714Y-107613571D01*
X156785714Y-107613571D02*
X156642857Y-107542142D01*
X156642857Y-107542142D02*
X156571428Y-107470714D01*
X156571428Y-107470714D02*
X156500000Y-107327857D01*
X156500000Y-107327857D02*
X156500000Y-106970714D01*
X156500000Y-106970714D02*
X156571428Y-106827857D01*
X156571428Y-106827857D02*
X156642857Y-106756428D01*
X156642857Y-106756428D02*
X156785714Y-106685000D01*
X156785714Y-106685000D02*
X157071428Y-106685000D01*
X157071428Y-106685000D02*
X157214286Y-106756428D01*
X157214286Y-106756428D02*
X157285714Y-106827857D01*
X157285714Y-106827857D02*
X157357143Y-106970714D01*
X157999999Y-106256428D02*
X158071428Y-106185000D01*
X158071428Y-106185000D02*
X157999999Y-106113571D01*
X157999999Y-106113571D02*
X157928571Y-106185000D01*
X157928571Y-106185000D02*
X157999999Y-106256428D01*
X157999999Y-106256428D02*
X157999999Y-106113571D01*
X159428571Y-107613571D02*
X158714285Y-107613571D01*
X158714285Y-107613571D02*
X158642857Y-106899285D01*
X158642857Y-106899285D02*
X158714285Y-106970714D01*
X158714285Y-106970714D02*
X158857143Y-107042142D01*
X158857143Y-107042142D02*
X159214285Y-107042142D01*
X159214285Y-107042142D02*
X159357143Y-106970714D01*
X159357143Y-106970714D02*
X159428571Y-106899285D01*
X159428571Y-106899285D02*
X159500000Y-106756428D01*
X159500000Y-106756428D02*
X159500000Y-106399285D01*
X159500000Y-106399285D02*
X159428571Y-106256428D01*
X159428571Y-106256428D02*
X159357143Y-106185000D01*
X159357143Y-106185000D02*
X159214285Y-106113571D01*
X159214285Y-106113571D02*
X158857143Y-106113571D01*
X158857143Y-106113571D02*
X158714285Y-106185000D01*
X158714285Y-106185000D02*
X158642857Y-106256428D01*
X160142856Y-106113571D02*
X160142856Y-107613571D01*
X160142856Y-107613571D02*
X160642856Y-106542142D01*
X160642856Y-106542142D02*
X161142856Y-107613571D01*
X161142856Y-107613571D02*
X161142856Y-106113571D01*
X157214286Y-105040714D02*
X157285714Y-105112142D01*
X157285714Y-105112142D02*
X157428572Y-105183571D01*
X157428572Y-105183571D02*
X157785714Y-105183571D01*
X157785714Y-105183571D02*
X157928572Y-105112142D01*
X157928572Y-105112142D02*
X158000000Y-105040714D01*
X158000000Y-105040714D02*
X158071429Y-104897857D01*
X158071429Y-104897857D02*
X158071429Y-104755000D01*
X158071429Y-104755000D02*
X158000000Y-104540714D01*
X158000000Y-104540714D02*
X157142857Y-103683571D01*
X157142857Y-103683571D02*
X158071429Y-103683571D01*
X159000000Y-105183571D02*
X159142857Y-105183571D01*
X159142857Y-105183571D02*
X159285714Y-105112142D01*
X159285714Y-105112142D02*
X159357143Y-105040714D01*
X159357143Y-105040714D02*
X159428571Y-104897857D01*
X159428571Y-104897857D02*
X159500000Y-104612142D01*
X159500000Y-104612142D02*
X159500000Y-104255000D01*
X159500000Y-104255000D02*
X159428571Y-103969285D01*
X159428571Y-103969285D02*
X159357143Y-103826428D01*
X159357143Y-103826428D02*
X159285714Y-103755000D01*
X159285714Y-103755000D02*
X159142857Y-103683571D01*
X159142857Y-103683571D02*
X159000000Y-103683571D01*
X159000000Y-103683571D02*
X158857143Y-103755000D01*
X158857143Y-103755000D02*
X158785714Y-103826428D01*
X158785714Y-103826428D02*
X158714285Y-103969285D01*
X158714285Y-103969285D02*
X158642857Y-104255000D01*
X158642857Y-104255000D02*
X158642857Y-104612142D01*
X158642857Y-104612142D02*
X158714285Y-104897857D01*
X158714285Y-104897857D02*
X158785714Y-105040714D01*
X158785714Y-105040714D02*
X158857143Y-105112142D01*
X158857143Y-105112142D02*
X159000000Y-105183571D01*
X160142856Y-103683571D02*
X160142856Y-105183571D01*
X160142856Y-105183571D02*
X160642856Y-104112142D01*
X160642856Y-104112142D02*
X161142856Y-105183571D01*
X161142856Y-105183571D02*
X161142856Y-103683571D01*
X98142857Y-105809642D02*
X98000000Y-105881071D01*
X98000000Y-105881071D02*
X97785714Y-105881071D01*
X97785714Y-105881071D02*
X97571428Y-105809642D01*
X97571428Y-105809642D02*
X97428571Y-105666785D01*
X97428571Y-105666785D02*
X97357142Y-105523928D01*
X97357142Y-105523928D02*
X97285714Y-105238214D01*
X97285714Y-105238214D02*
X97285714Y-105023928D01*
X97285714Y-105023928D02*
X97357142Y-104738214D01*
X97357142Y-104738214D02*
X97428571Y-104595357D01*
X97428571Y-104595357D02*
X97571428Y-104452500D01*
X97571428Y-104452500D02*
X97785714Y-104381071D01*
X97785714Y-104381071D02*
X97928571Y-104381071D01*
X97928571Y-104381071D02*
X98142857Y-104452500D01*
X98142857Y-104452500D02*
X98214285Y-104523928D01*
X98214285Y-104523928D02*
X98214285Y-105023928D01*
X98214285Y-105023928D02*
X97928571Y-105023928D01*
X98857142Y-104381071D02*
X98857142Y-105881071D01*
X98857142Y-105881071D02*
X99714285Y-104381071D01*
X99714285Y-104381071D02*
X99714285Y-105881071D01*
X100428571Y-104381071D02*
X100428571Y-105881071D01*
X100428571Y-105881071D02*
X100785714Y-105881071D01*
X100785714Y-105881071D02*
X101000000Y-105809642D01*
X101000000Y-105809642D02*
X101142857Y-105666785D01*
X101142857Y-105666785D02*
X101214286Y-105523928D01*
X101214286Y-105523928D02*
X101285714Y-105238214D01*
X101285714Y-105238214D02*
X101285714Y-105023928D01*
X101285714Y-105023928D02*
X101214286Y-104738214D01*
X101214286Y-104738214D02*
X101142857Y-104595357D01*
X101142857Y-104595357D02*
X101000000Y-104452500D01*
X101000000Y-104452500D02*
X100785714Y-104381071D01*
X100785714Y-104381071D02*
X100428571Y-104381071D01*
X97285714Y-102379642D02*
X98000000Y-102379642D01*
X97142857Y-101951071D02*
X97642857Y-103451071D01*
X97642857Y-103451071D02*
X98142857Y-101951071D01*
X98642856Y-102951071D02*
X98642856Y-101951071D01*
X98642856Y-102808214D02*
X98714285Y-102879642D01*
X98714285Y-102879642D02*
X98857142Y-102951071D01*
X98857142Y-102951071D02*
X99071428Y-102951071D01*
X99071428Y-102951071D02*
X99214285Y-102879642D01*
X99214285Y-102879642D02*
X99285714Y-102736785D01*
X99285714Y-102736785D02*
X99285714Y-101951071D01*
X99785714Y-102951071D02*
X100357142Y-102951071D01*
X99999999Y-103451071D02*
X99999999Y-102165357D01*
X99999999Y-102165357D02*
X100071428Y-102022500D01*
X100071428Y-102022500D02*
X100214285Y-101951071D01*
X100214285Y-101951071D02*
X100357142Y-101951071D01*
X100500000Y-101808214D02*
X101642857Y-101808214D01*
X101785714Y-103451071D02*
X102642857Y-103451071D01*
X102214285Y-101951071D02*
X102214285Y-103451071D01*
X103785714Y-102951071D02*
X103785714Y-101951071D01*
X103142856Y-102951071D02*
X103142856Y-102165357D01*
X103142856Y-102165357D02*
X103214285Y-102022500D01*
X103214285Y-102022500D02*
X103357142Y-101951071D01*
X103357142Y-101951071D02*
X103571428Y-101951071D01*
X103571428Y-101951071D02*
X103714285Y-102022500D01*
X103714285Y-102022500D02*
X103785714Y-102093928D01*
X104499999Y-102951071D02*
X104499999Y-101951071D01*
X104499999Y-102808214D02*
X104571428Y-102879642D01*
X104571428Y-102879642D02*
X104714285Y-102951071D01*
X104714285Y-102951071D02*
X104928571Y-102951071D01*
X104928571Y-102951071D02*
X105071428Y-102879642D01*
X105071428Y-102879642D02*
X105142857Y-102736785D01*
X105142857Y-102736785D02*
X105142857Y-101951071D01*
X106428571Y-102022500D02*
X106285714Y-101951071D01*
X106285714Y-101951071D02*
X106000000Y-101951071D01*
X106000000Y-101951071D02*
X105857142Y-102022500D01*
X105857142Y-102022500D02*
X105785714Y-102165357D01*
X105785714Y-102165357D02*
X105785714Y-102736785D01*
X105785714Y-102736785D02*
X105857142Y-102879642D01*
X105857142Y-102879642D02*
X106000000Y-102951071D01*
X106000000Y-102951071D02*
X106285714Y-102951071D01*
X106285714Y-102951071D02*
X106428571Y-102879642D01*
X106428571Y-102879642D02*
X106500000Y-102736785D01*
X106500000Y-102736785D02*
X106500000Y-102593928D01*
X106500000Y-102593928D02*
X105785714Y-102451071D01*
X97285714Y-99592500D02*
X97500000Y-99521071D01*
X97500000Y-99521071D02*
X97857142Y-99521071D01*
X97857142Y-99521071D02*
X98000000Y-99592500D01*
X98000000Y-99592500D02*
X98071428Y-99663928D01*
X98071428Y-99663928D02*
X98142857Y-99806785D01*
X98142857Y-99806785D02*
X98142857Y-99949642D01*
X98142857Y-99949642D02*
X98071428Y-100092500D01*
X98071428Y-100092500D02*
X98000000Y-100163928D01*
X98000000Y-100163928D02*
X97857142Y-100235357D01*
X97857142Y-100235357D02*
X97571428Y-100306785D01*
X97571428Y-100306785D02*
X97428571Y-100378214D01*
X97428571Y-100378214D02*
X97357142Y-100449642D01*
X97357142Y-100449642D02*
X97285714Y-100592500D01*
X97285714Y-100592500D02*
X97285714Y-100735357D01*
X97285714Y-100735357D02*
X97357142Y-100878214D01*
X97357142Y-100878214D02*
X97428571Y-100949642D01*
X97428571Y-100949642D02*
X97571428Y-101021071D01*
X97571428Y-101021071D02*
X97928571Y-101021071D01*
X97928571Y-101021071D02*
X98142857Y-100949642D01*
X98785713Y-99521071D02*
X98785713Y-101021071D01*
X98785713Y-101021071D02*
X99357142Y-101021071D01*
X99357142Y-101021071D02*
X99499999Y-100949642D01*
X99499999Y-100949642D02*
X99571428Y-100878214D01*
X99571428Y-100878214D02*
X99642856Y-100735357D01*
X99642856Y-100735357D02*
X99642856Y-100521071D01*
X99642856Y-100521071D02*
X99571428Y-100378214D01*
X99571428Y-100378214D02*
X99499999Y-100306785D01*
X99499999Y-100306785D02*
X99357142Y-100235357D01*
X99357142Y-100235357D02*
X98785713Y-100235357D01*
X100285713Y-99521071D02*
X100285713Y-101021071D01*
X100642857Y-99378214D02*
X101785714Y-99378214D01*
X101928571Y-101021071D02*
X102785714Y-101021071D01*
X102357142Y-99521071D02*
X102357142Y-101021071D01*
X103142856Y-101021071D02*
X104142856Y-99521071D01*
X104142856Y-101021071D02*
X103142856Y-99521071D01*
X104357142Y-99378214D02*
X105499999Y-99378214D01*
X106571427Y-99521071D02*
X105857141Y-99521071D01*
X105857141Y-99521071D02*
X105857141Y-101021071D01*
X107285713Y-99521071D02*
X107142856Y-99592500D01*
X107142856Y-99592500D02*
X107071427Y-99663928D01*
X107071427Y-99663928D02*
X106999999Y-99806785D01*
X106999999Y-99806785D02*
X106999999Y-100235357D01*
X106999999Y-100235357D02*
X107071427Y-100378214D01*
X107071427Y-100378214D02*
X107142856Y-100449642D01*
X107142856Y-100449642D02*
X107285713Y-100521071D01*
X107285713Y-100521071D02*
X107499999Y-100521071D01*
X107499999Y-100521071D02*
X107642856Y-100449642D01*
X107642856Y-100449642D02*
X107714285Y-100378214D01*
X107714285Y-100378214D02*
X107785713Y-100235357D01*
X107785713Y-100235357D02*
X107785713Y-99806785D01*
X107785713Y-99806785D02*
X107714285Y-99663928D01*
X107714285Y-99663928D02*
X107642856Y-99592500D01*
X107642856Y-99592500D02*
X107499999Y-99521071D01*
X107499999Y-99521071D02*
X107285713Y-99521071D01*
X109071428Y-99521071D02*
X109071428Y-100306785D01*
X109071428Y-100306785D02*
X108999999Y-100449642D01*
X108999999Y-100449642D02*
X108857142Y-100521071D01*
X108857142Y-100521071D02*
X108571428Y-100521071D01*
X108571428Y-100521071D02*
X108428570Y-100449642D01*
X109071428Y-99592500D02*
X108928570Y-99521071D01*
X108928570Y-99521071D02*
X108571428Y-99521071D01*
X108571428Y-99521071D02*
X108428570Y-99592500D01*
X108428570Y-99592500D02*
X108357142Y-99735357D01*
X108357142Y-99735357D02*
X108357142Y-99878214D01*
X108357142Y-99878214D02*
X108428570Y-100021071D01*
X108428570Y-100021071D02*
X108571428Y-100092500D01*
X108571428Y-100092500D02*
X108928570Y-100092500D01*
X108928570Y-100092500D02*
X109071428Y-100163928D01*
X110428571Y-99521071D02*
X110428571Y-101021071D01*
X110428571Y-99592500D02*
X110285713Y-99521071D01*
X110285713Y-99521071D02*
X109999999Y-99521071D01*
X109999999Y-99521071D02*
X109857142Y-99592500D01*
X109857142Y-99592500D02*
X109785713Y-99663928D01*
X109785713Y-99663928D02*
X109714285Y-99806785D01*
X109714285Y-99806785D02*
X109714285Y-100235357D01*
X109714285Y-100235357D02*
X109785713Y-100378214D01*
X109785713Y-100378214D02*
X109857142Y-100449642D01*
X109857142Y-100449642D02*
X109999999Y-100521071D01*
X109999999Y-100521071D02*
X110285713Y-100521071D01*
X110285713Y-100521071D02*
X110428571Y-100449642D01*
X97285714Y-97162500D02*
X97500000Y-97091071D01*
X97500000Y-97091071D02*
X97857142Y-97091071D01*
X97857142Y-97091071D02*
X98000000Y-97162500D01*
X98000000Y-97162500D02*
X98071428Y-97233928D01*
X98071428Y-97233928D02*
X98142857Y-97376785D01*
X98142857Y-97376785D02*
X98142857Y-97519642D01*
X98142857Y-97519642D02*
X98071428Y-97662500D01*
X98071428Y-97662500D02*
X98000000Y-97733928D01*
X98000000Y-97733928D02*
X97857142Y-97805357D01*
X97857142Y-97805357D02*
X97571428Y-97876785D01*
X97571428Y-97876785D02*
X97428571Y-97948214D01*
X97428571Y-97948214D02*
X97357142Y-98019642D01*
X97357142Y-98019642D02*
X97285714Y-98162500D01*
X97285714Y-98162500D02*
X97285714Y-98305357D01*
X97285714Y-98305357D02*
X97357142Y-98448214D01*
X97357142Y-98448214D02*
X97428571Y-98519642D01*
X97428571Y-98519642D02*
X97571428Y-98591071D01*
X97571428Y-98591071D02*
X97928571Y-98591071D01*
X97928571Y-98591071D02*
X98142857Y-98519642D01*
X98785713Y-97091071D02*
X98785713Y-98591071D01*
X98785713Y-98591071D02*
X99357142Y-98591071D01*
X99357142Y-98591071D02*
X99499999Y-98519642D01*
X99499999Y-98519642D02*
X99571428Y-98448214D01*
X99571428Y-98448214D02*
X99642856Y-98305357D01*
X99642856Y-98305357D02*
X99642856Y-98091071D01*
X99642856Y-98091071D02*
X99571428Y-97948214D01*
X99571428Y-97948214D02*
X99499999Y-97876785D01*
X99499999Y-97876785D02*
X99357142Y-97805357D01*
X99357142Y-97805357D02*
X98785713Y-97805357D01*
X100285713Y-97091071D02*
X100285713Y-98591071D01*
X100642857Y-96948214D02*
X101785714Y-96948214D01*
X102999999Y-97233928D02*
X102928571Y-97162500D01*
X102928571Y-97162500D02*
X102714285Y-97091071D01*
X102714285Y-97091071D02*
X102571428Y-97091071D01*
X102571428Y-97091071D02*
X102357142Y-97162500D01*
X102357142Y-97162500D02*
X102214285Y-97305357D01*
X102214285Y-97305357D02*
X102142856Y-97448214D01*
X102142856Y-97448214D02*
X102071428Y-97733928D01*
X102071428Y-97733928D02*
X102071428Y-97948214D01*
X102071428Y-97948214D02*
X102142856Y-98233928D01*
X102142856Y-98233928D02*
X102214285Y-98376785D01*
X102214285Y-98376785D02*
X102357142Y-98519642D01*
X102357142Y-98519642D02*
X102571428Y-98591071D01*
X102571428Y-98591071D02*
X102714285Y-98591071D01*
X102714285Y-98591071D02*
X102928571Y-98519642D01*
X102928571Y-98519642D02*
X102999999Y-98448214D01*
X104357142Y-97091071D02*
X103642856Y-97091071D01*
X103642856Y-97091071D02*
X103642856Y-98591071D01*
X104857142Y-97091071D02*
X104857142Y-98591071D01*
X105714285Y-97091071D02*
X105071428Y-97948214D01*
X105714285Y-98591071D02*
X104857142Y-97733928D01*
X97357142Y-95232500D02*
X98500000Y-95232500D01*
X97928571Y-94661071D02*
X97928571Y-95803928D01*
X100000000Y-94661071D02*
X99142857Y-94661071D01*
X99571428Y-94661071D02*
X99571428Y-96161071D01*
X99571428Y-96161071D02*
X99428571Y-95946785D01*
X99428571Y-95946785D02*
X99285714Y-95803928D01*
X99285714Y-95803928D02*
X99142857Y-95732500D01*
X100571428Y-96018214D02*
X100642856Y-96089642D01*
X100642856Y-96089642D02*
X100785714Y-96161071D01*
X100785714Y-96161071D02*
X101142856Y-96161071D01*
X101142856Y-96161071D02*
X101285714Y-96089642D01*
X101285714Y-96089642D02*
X101357142Y-96018214D01*
X101357142Y-96018214D02*
X101428571Y-95875357D01*
X101428571Y-95875357D02*
X101428571Y-95732500D01*
X101428571Y-95732500D02*
X101357142Y-95518214D01*
X101357142Y-95518214D02*
X100499999Y-94661071D01*
X100499999Y-94661071D02*
X101428571Y-94661071D01*
X101857142Y-96161071D02*
X102357142Y-94661071D01*
X102357142Y-94661071D02*
X102857142Y-96161071D01*
X104428570Y-95089642D02*
X105142856Y-95089642D01*
X104285713Y-94661071D02*
X104785713Y-96161071D01*
X104785713Y-96161071D02*
X105285713Y-94661071D01*
X105999998Y-94661071D02*
X105857141Y-94732500D01*
X105857141Y-94732500D02*
X105785712Y-94875357D01*
X105785712Y-94875357D02*
X105785712Y-96161071D01*
X107142855Y-94732500D02*
X106999998Y-94661071D01*
X106999998Y-94661071D02*
X106714284Y-94661071D01*
X106714284Y-94661071D02*
X106571426Y-94732500D01*
X106571426Y-94732500D02*
X106499998Y-94875357D01*
X106499998Y-94875357D02*
X106499998Y-95446785D01*
X106499998Y-95446785D02*
X106571426Y-95589642D01*
X106571426Y-95589642D02*
X106714284Y-95661071D01*
X106714284Y-95661071D02*
X106999998Y-95661071D01*
X106999998Y-95661071D02*
X107142855Y-95589642D01*
X107142855Y-95589642D02*
X107214284Y-95446785D01*
X107214284Y-95446785D02*
X107214284Y-95303928D01*
X107214284Y-95303928D02*
X106499998Y-95161071D01*
X107714283Y-94661071D02*
X108499998Y-95661071D01*
X107714283Y-95661071D02*
X108499998Y-94661071D01*
X167642857Y-78094642D02*
X167500000Y-78166071D01*
X167500000Y-78166071D02*
X167285714Y-78166071D01*
X167285714Y-78166071D02*
X167071428Y-78094642D01*
X167071428Y-78094642D02*
X166928571Y-77951785D01*
X166928571Y-77951785D02*
X166857142Y-77808928D01*
X166857142Y-77808928D02*
X166785714Y-77523214D01*
X166785714Y-77523214D02*
X166785714Y-77308928D01*
X166785714Y-77308928D02*
X166857142Y-77023214D01*
X166857142Y-77023214D02*
X166928571Y-76880357D01*
X166928571Y-76880357D02*
X167071428Y-76737500D01*
X167071428Y-76737500D02*
X167285714Y-76666071D01*
X167285714Y-76666071D02*
X167428571Y-76666071D01*
X167428571Y-76666071D02*
X167642857Y-76737500D01*
X167642857Y-76737500D02*
X167714285Y-76808928D01*
X167714285Y-76808928D02*
X167714285Y-77308928D01*
X167714285Y-77308928D02*
X167428571Y-77308928D01*
X168357142Y-76666071D02*
X168357142Y-78166071D01*
X168357142Y-78166071D02*
X169214285Y-76666071D01*
X169214285Y-76666071D02*
X169214285Y-78166071D01*
X169928571Y-76666071D02*
X169928571Y-78166071D01*
X169928571Y-78166071D02*
X170285714Y-78166071D01*
X170285714Y-78166071D02*
X170500000Y-78094642D01*
X170500000Y-78094642D02*
X170642857Y-77951785D01*
X170642857Y-77951785D02*
X170714286Y-77808928D01*
X170714286Y-77808928D02*
X170785714Y-77523214D01*
X170785714Y-77523214D02*
X170785714Y-77308928D01*
X170785714Y-77308928D02*
X170714286Y-77023214D01*
X170714286Y-77023214D02*
X170642857Y-76880357D01*
X170642857Y-76880357D02*
X170500000Y-76737500D01*
X170500000Y-76737500D02*
X170285714Y-76666071D01*
X170285714Y-76666071D02*
X169928571Y-76666071D01*
X167642857Y-75664642D02*
X167500000Y-75736071D01*
X167500000Y-75736071D02*
X167285714Y-75736071D01*
X167285714Y-75736071D02*
X167071428Y-75664642D01*
X167071428Y-75664642D02*
X166928571Y-75521785D01*
X166928571Y-75521785D02*
X166857142Y-75378928D01*
X166857142Y-75378928D02*
X166785714Y-75093214D01*
X166785714Y-75093214D02*
X166785714Y-74878928D01*
X166785714Y-74878928D02*
X166857142Y-74593214D01*
X166857142Y-74593214D02*
X166928571Y-74450357D01*
X166928571Y-74450357D02*
X167071428Y-74307500D01*
X167071428Y-74307500D02*
X167285714Y-74236071D01*
X167285714Y-74236071D02*
X167428571Y-74236071D01*
X167428571Y-74236071D02*
X167642857Y-74307500D01*
X167642857Y-74307500D02*
X167714285Y-74378928D01*
X167714285Y-74378928D02*
X167714285Y-74878928D01*
X167714285Y-74878928D02*
X167428571Y-74878928D01*
X168357142Y-74236071D02*
X168357142Y-75736071D01*
X168357142Y-75736071D02*
X169214285Y-74236071D01*
X169214285Y-74236071D02*
X169214285Y-75736071D01*
X169928571Y-74236071D02*
X169928571Y-75736071D01*
X169928571Y-75736071D02*
X170285714Y-75736071D01*
X170285714Y-75736071D02*
X170500000Y-75664642D01*
X170500000Y-75664642D02*
X170642857Y-75521785D01*
X170642857Y-75521785D02*
X170714286Y-75378928D01*
X170714286Y-75378928D02*
X170785714Y-75093214D01*
X170785714Y-75093214D02*
X170785714Y-74878928D01*
X170785714Y-74878928D02*
X170714286Y-74593214D01*
X170714286Y-74593214D02*
X170642857Y-74450357D01*
X170642857Y-74450357D02*
X170500000Y-74307500D01*
X170500000Y-74307500D02*
X170285714Y-74236071D01*
X170285714Y-74236071D02*
X169928571Y-74236071D01*
X167642857Y-71806071D02*
X166785714Y-71806071D01*
X167214285Y-71806071D02*
X167214285Y-73306071D01*
X167214285Y-73306071D02*
X167071428Y-73091785D01*
X167071428Y-73091785D02*
X166928571Y-72948928D01*
X166928571Y-72948928D02*
X166785714Y-72877500D01*
X168214285Y-73163214D02*
X168285713Y-73234642D01*
X168285713Y-73234642D02*
X168428571Y-73306071D01*
X168428571Y-73306071D02*
X168785713Y-73306071D01*
X168785713Y-73306071D02*
X168928571Y-73234642D01*
X168928571Y-73234642D02*
X168999999Y-73163214D01*
X168999999Y-73163214D02*
X169071428Y-73020357D01*
X169071428Y-73020357D02*
X169071428Y-72877500D01*
X169071428Y-72877500D02*
X168999999Y-72663214D01*
X168999999Y-72663214D02*
X168142856Y-71806071D01*
X168142856Y-71806071D02*
X169071428Y-71806071D01*
X170785713Y-73377500D02*
X169499999Y-71448928D01*
X172071428Y-71806071D02*
X171214285Y-71806071D01*
X171642856Y-71806071D02*
X171642856Y-73306071D01*
X171642856Y-73306071D02*
X171499999Y-73091785D01*
X171499999Y-73091785D02*
X171357142Y-72948928D01*
X171357142Y-72948928D02*
X171214285Y-72877500D01*
X172999999Y-73306071D02*
X173142856Y-73306071D01*
X173142856Y-73306071D02*
X173285713Y-73234642D01*
X173285713Y-73234642D02*
X173357142Y-73163214D01*
X173357142Y-73163214D02*
X173428570Y-73020357D01*
X173428570Y-73020357D02*
X173499999Y-72734642D01*
X173499999Y-72734642D02*
X173499999Y-72377500D01*
X173499999Y-72377500D02*
X173428570Y-72091785D01*
X173428570Y-72091785D02*
X173357142Y-71948928D01*
X173357142Y-71948928D02*
X173285713Y-71877500D01*
X173285713Y-71877500D02*
X173142856Y-71806071D01*
X173142856Y-71806071D02*
X172999999Y-71806071D01*
X172999999Y-71806071D02*
X172857142Y-71877500D01*
X172857142Y-71877500D02*
X172785713Y-71948928D01*
X172785713Y-71948928D02*
X172714284Y-72091785D01*
X172714284Y-72091785D02*
X172642856Y-72377500D01*
X172642856Y-72377500D02*
X172642856Y-72734642D01*
X172642856Y-72734642D02*
X172714284Y-73020357D01*
X172714284Y-73020357D02*
X172785713Y-73163214D01*
X172785713Y-73163214D02*
X172857142Y-73234642D01*
X172857142Y-73234642D02*
X172999999Y-73306071D01*
X174142855Y-71806071D02*
X174142855Y-72806071D01*
X174142855Y-72663214D02*
X174214284Y-72734642D01*
X174214284Y-72734642D02*
X174357141Y-72806071D01*
X174357141Y-72806071D02*
X174571427Y-72806071D01*
X174571427Y-72806071D02*
X174714284Y-72734642D01*
X174714284Y-72734642D02*
X174785713Y-72591785D01*
X174785713Y-72591785D02*
X174785713Y-71806071D01*
X174785713Y-72591785D02*
X174857141Y-72734642D01*
X174857141Y-72734642D02*
X174999998Y-72806071D01*
X174999998Y-72806071D02*
X175214284Y-72806071D01*
X175214284Y-72806071D02*
X175357141Y-72734642D01*
X175357141Y-72734642D02*
X175428570Y-72591785D01*
X175428570Y-72591785D02*
X175428570Y-71806071D01*
X166714285Y-70876071D02*
X167642857Y-70876071D01*
X167642857Y-70876071D02*
X167142857Y-70304642D01*
X167142857Y-70304642D02*
X167357142Y-70304642D01*
X167357142Y-70304642D02*
X167500000Y-70233214D01*
X167500000Y-70233214D02*
X167571428Y-70161785D01*
X167571428Y-70161785D02*
X167642857Y-70018928D01*
X167642857Y-70018928D02*
X167642857Y-69661785D01*
X167642857Y-69661785D02*
X167571428Y-69518928D01*
X167571428Y-69518928D02*
X167500000Y-69447500D01*
X167500000Y-69447500D02*
X167357142Y-69376071D01*
X167357142Y-69376071D02*
X166928571Y-69376071D01*
X166928571Y-69376071D02*
X166785714Y-69447500D01*
X166785714Y-69447500D02*
X166714285Y-69518928D01*
X168571428Y-70876071D02*
X168714285Y-70876071D01*
X168714285Y-70876071D02*
X168857142Y-70804642D01*
X168857142Y-70804642D02*
X168928571Y-70733214D01*
X168928571Y-70733214D02*
X168999999Y-70590357D01*
X168999999Y-70590357D02*
X169071428Y-70304642D01*
X169071428Y-70304642D02*
X169071428Y-69947500D01*
X169071428Y-69947500D02*
X168999999Y-69661785D01*
X168999999Y-69661785D02*
X168928571Y-69518928D01*
X168928571Y-69518928D02*
X168857142Y-69447500D01*
X168857142Y-69447500D02*
X168714285Y-69376071D01*
X168714285Y-69376071D02*
X168571428Y-69376071D01*
X168571428Y-69376071D02*
X168428571Y-69447500D01*
X168428571Y-69447500D02*
X168357142Y-69518928D01*
X168357142Y-69518928D02*
X168285713Y-69661785D01*
X168285713Y-69661785D02*
X168214285Y-69947500D01*
X168214285Y-69947500D02*
X168214285Y-70304642D01*
X168214285Y-70304642D02*
X168285713Y-70590357D01*
X168285713Y-70590357D02*
X168357142Y-70733214D01*
X168357142Y-70733214D02*
X168428571Y-70804642D01*
X168428571Y-70804642D02*
X168571428Y-70876071D01*
X170785713Y-70947500D02*
X169499999Y-69018928D01*
X171214285Y-70733214D02*
X171285713Y-70804642D01*
X171285713Y-70804642D02*
X171428571Y-70876071D01*
X171428571Y-70876071D02*
X171785713Y-70876071D01*
X171785713Y-70876071D02*
X171928571Y-70804642D01*
X171928571Y-70804642D02*
X171999999Y-70733214D01*
X171999999Y-70733214D02*
X172071428Y-70590357D01*
X172071428Y-70590357D02*
X172071428Y-70447500D01*
X172071428Y-70447500D02*
X171999999Y-70233214D01*
X171999999Y-70233214D02*
X171142856Y-69376071D01*
X171142856Y-69376071D02*
X172071428Y-69376071D01*
X172999999Y-70876071D02*
X173142856Y-70876071D01*
X173142856Y-70876071D02*
X173285713Y-70804642D01*
X173285713Y-70804642D02*
X173357142Y-70733214D01*
X173357142Y-70733214D02*
X173428570Y-70590357D01*
X173428570Y-70590357D02*
X173499999Y-70304642D01*
X173499999Y-70304642D02*
X173499999Y-69947500D01*
X173499999Y-69947500D02*
X173428570Y-69661785D01*
X173428570Y-69661785D02*
X173357142Y-69518928D01*
X173357142Y-69518928D02*
X173285713Y-69447500D01*
X173285713Y-69447500D02*
X173142856Y-69376071D01*
X173142856Y-69376071D02*
X172999999Y-69376071D01*
X172999999Y-69376071D02*
X172857142Y-69447500D01*
X172857142Y-69447500D02*
X172785713Y-69518928D01*
X172785713Y-69518928D02*
X172714284Y-69661785D01*
X172714284Y-69661785D02*
X172642856Y-69947500D01*
X172642856Y-69947500D02*
X172642856Y-70304642D01*
X172642856Y-70304642D02*
X172714284Y-70590357D01*
X172714284Y-70590357D02*
X172785713Y-70733214D01*
X172785713Y-70733214D02*
X172857142Y-70804642D01*
X172857142Y-70804642D02*
X172999999Y-70876071D01*
X174142855Y-69376071D02*
X174142855Y-70376071D01*
X174142855Y-70233214D02*
X174214284Y-70304642D01*
X174214284Y-70304642D02*
X174357141Y-70376071D01*
X174357141Y-70376071D02*
X174571427Y-70376071D01*
X174571427Y-70376071D02*
X174714284Y-70304642D01*
X174714284Y-70304642D02*
X174785713Y-70161785D01*
X174785713Y-70161785D02*
X174785713Y-69376071D01*
X174785713Y-70161785D02*
X174857141Y-70304642D01*
X174857141Y-70304642D02*
X174999998Y-70376071D01*
X174999998Y-70376071D02*
X175214284Y-70376071D01*
X175214284Y-70376071D02*
X175357141Y-70304642D01*
X175357141Y-70304642D02*
X175428570Y-70161785D01*
X175428570Y-70161785D02*
X175428570Y-69376071D01*
X167071428Y-67803214D02*
X166928571Y-67874642D01*
X166928571Y-67874642D02*
X166857142Y-67946071D01*
X166857142Y-67946071D02*
X166785714Y-68088928D01*
X166785714Y-68088928D02*
X166785714Y-68160357D01*
X166785714Y-68160357D02*
X166857142Y-68303214D01*
X166857142Y-68303214D02*
X166928571Y-68374642D01*
X166928571Y-68374642D02*
X167071428Y-68446071D01*
X167071428Y-68446071D02*
X167357142Y-68446071D01*
X167357142Y-68446071D02*
X167500000Y-68374642D01*
X167500000Y-68374642D02*
X167571428Y-68303214D01*
X167571428Y-68303214D02*
X167642857Y-68160357D01*
X167642857Y-68160357D02*
X167642857Y-68088928D01*
X167642857Y-68088928D02*
X167571428Y-67946071D01*
X167571428Y-67946071D02*
X167500000Y-67874642D01*
X167500000Y-67874642D02*
X167357142Y-67803214D01*
X167357142Y-67803214D02*
X167071428Y-67803214D01*
X167071428Y-67803214D02*
X166928571Y-67731785D01*
X166928571Y-67731785D02*
X166857142Y-67660357D01*
X166857142Y-67660357D02*
X166785714Y-67517500D01*
X166785714Y-67517500D02*
X166785714Y-67231785D01*
X166785714Y-67231785D02*
X166857142Y-67088928D01*
X166857142Y-67088928D02*
X166928571Y-67017500D01*
X166928571Y-67017500D02*
X167071428Y-66946071D01*
X167071428Y-66946071D02*
X167357142Y-66946071D01*
X167357142Y-66946071D02*
X167500000Y-67017500D01*
X167500000Y-67017500D02*
X167571428Y-67088928D01*
X167571428Y-67088928D02*
X167642857Y-67231785D01*
X167642857Y-67231785D02*
X167642857Y-67517500D01*
X167642857Y-67517500D02*
X167571428Y-67660357D01*
X167571428Y-67660357D02*
X167500000Y-67731785D01*
X167500000Y-67731785D02*
X167357142Y-67803214D01*
X168571428Y-68446071D02*
X168714285Y-68446071D01*
X168714285Y-68446071D02*
X168857142Y-68374642D01*
X168857142Y-68374642D02*
X168928571Y-68303214D01*
X168928571Y-68303214D02*
X168999999Y-68160357D01*
X168999999Y-68160357D02*
X169071428Y-67874642D01*
X169071428Y-67874642D02*
X169071428Y-67517500D01*
X169071428Y-67517500D02*
X168999999Y-67231785D01*
X168999999Y-67231785D02*
X168928571Y-67088928D01*
X168928571Y-67088928D02*
X168857142Y-67017500D01*
X168857142Y-67017500D02*
X168714285Y-66946071D01*
X168714285Y-66946071D02*
X168571428Y-66946071D01*
X168571428Y-66946071D02*
X168428571Y-67017500D01*
X168428571Y-67017500D02*
X168357142Y-67088928D01*
X168357142Y-67088928D02*
X168285713Y-67231785D01*
X168285713Y-67231785D02*
X168214285Y-67517500D01*
X168214285Y-67517500D02*
X168214285Y-67874642D01*
X168214285Y-67874642D02*
X168285713Y-68160357D01*
X168285713Y-68160357D02*
X168357142Y-68303214D01*
X168357142Y-68303214D02*
X168428571Y-68374642D01*
X168428571Y-68374642D02*
X168571428Y-68446071D01*
X169714284Y-66946071D02*
X169714284Y-67946071D01*
X169714284Y-67803214D02*
X169785713Y-67874642D01*
X169785713Y-67874642D02*
X169928570Y-67946071D01*
X169928570Y-67946071D02*
X170142856Y-67946071D01*
X170142856Y-67946071D02*
X170285713Y-67874642D01*
X170285713Y-67874642D02*
X170357142Y-67731785D01*
X170357142Y-67731785D02*
X170357142Y-66946071D01*
X170357142Y-67731785D02*
X170428570Y-67874642D01*
X170428570Y-67874642D02*
X170571427Y-67946071D01*
X170571427Y-67946071D02*
X170785713Y-67946071D01*
X170785713Y-67946071D02*
X170928570Y-67874642D01*
X170928570Y-67874642D02*
X170999999Y-67731785D01*
X170999999Y-67731785D02*
X170999999Y-66946071D01*
X155357143Y-77475000D02*
X156500001Y-77475000D01*
X155928572Y-76903571D02*
X155928572Y-78046428D01*
X158000001Y-76903571D02*
X157142858Y-76903571D01*
X157571429Y-76903571D02*
X157571429Y-78403571D01*
X157571429Y-78403571D02*
X157428572Y-78189285D01*
X157428572Y-78189285D02*
X157285715Y-78046428D01*
X157285715Y-78046428D02*
X157142858Y-77975000D01*
X158571429Y-78260714D02*
X158642857Y-78332142D01*
X158642857Y-78332142D02*
X158785715Y-78403571D01*
X158785715Y-78403571D02*
X159142857Y-78403571D01*
X159142857Y-78403571D02*
X159285715Y-78332142D01*
X159285715Y-78332142D02*
X159357143Y-78260714D01*
X159357143Y-78260714D02*
X159428572Y-78117857D01*
X159428572Y-78117857D02*
X159428572Y-77975000D01*
X159428572Y-77975000D02*
X159357143Y-77760714D01*
X159357143Y-77760714D02*
X158500000Y-76903571D01*
X158500000Y-76903571D02*
X159428572Y-76903571D01*
X159857143Y-78403571D02*
X160357143Y-76903571D01*
X160357143Y-76903571D02*
X160857143Y-78403571D01*
X149642857Y-75973571D02*
X149357142Y-75973571D01*
X149357142Y-75973571D02*
X149214285Y-75902142D01*
X149214285Y-75902142D02*
X149142857Y-75830714D01*
X149142857Y-75830714D02*
X148999999Y-75616428D01*
X148999999Y-75616428D02*
X148928571Y-75330714D01*
X148928571Y-75330714D02*
X148928571Y-74759285D01*
X148928571Y-74759285D02*
X148999999Y-74616428D01*
X148999999Y-74616428D02*
X149071428Y-74545000D01*
X149071428Y-74545000D02*
X149214285Y-74473571D01*
X149214285Y-74473571D02*
X149499999Y-74473571D01*
X149499999Y-74473571D02*
X149642857Y-74545000D01*
X149642857Y-74545000D02*
X149714285Y-74616428D01*
X149714285Y-74616428D02*
X149785714Y-74759285D01*
X149785714Y-74759285D02*
X149785714Y-75116428D01*
X149785714Y-75116428D02*
X149714285Y-75259285D01*
X149714285Y-75259285D02*
X149642857Y-75330714D01*
X149642857Y-75330714D02*
X149499999Y-75402142D01*
X149499999Y-75402142D02*
X149214285Y-75402142D01*
X149214285Y-75402142D02*
X149071428Y-75330714D01*
X149071428Y-75330714D02*
X148999999Y-75259285D01*
X148999999Y-75259285D02*
X148928571Y-75116428D01*
X150428570Y-74473571D02*
X150428570Y-75473571D01*
X150428570Y-75330714D02*
X150499999Y-75402142D01*
X150499999Y-75402142D02*
X150642856Y-75473571D01*
X150642856Y-75473571D02*
X150857142Y-75473571D01*
X150857142Y-75473571D02*
X150999999Y-75402142D01*
X150999999Y-75402142D02*
X151071428Y-75259285D01*
X151071428Y-75259285D02*
X151071428Y-74473571D01*
X151071428Y-75259285D02*
X151142856Y-75402142D01*
X151142856Y-75402142D02*
X151285713Y-75473571D01*
X151285713Y-75473571D02*
X151499999Y-75473571D01*
X151499999Y-75473571D02*
X151642856Y-75402142D01*
X151642856Y-75402142D02*
X151714285Y-75259285D01*
X151714285Y-75259285D02*
X151714285Y-74473571D01*
X152071428Y-74330714D02*
X153214285Y-74330714D01*
X154071427Y-75259285D02*
X154285713Y-75187857D01*
X154285713Y-75187857D02*
X154357142Y-75116428D01*
X154357142Y-75116428D02*
X154428570Y-74973571D01*
X154428570Y-74973571D02*
X154428570Y-74759285D01*
X154428570Y-74759285D02*
X154357142Y-74616428D01*
X154357142Y-74616428D02*
X154285713Y-74545000D01*
X154285713Y-74545000D02*
X154142856Y-74473571D01*
X154142856Y-74473571D02*
X153571427Y-74473571D01*
X153571427Y-74473571D02*
X153571427Y-75973571D01*
X153571427Y-75973571D02*
X154071427Y-75973571D01*
X154071427Y-75973571D02*
X154214285Y-75902142D01*
X154214285Y-75902142D02*
X154285713Y-75830714D01*
X154285713Y-75830714D02*
X154357142Y-75687857D01*
X154357142Y-75687857D02*
X154357142Y-75545000D01*
X154357142Y-75545000D02*
X154285713Y-75402142D01*
X154285713Y-75402142D02*
X154214285Y-75330714D01*
X154214285Y-75330714D02*
X154071427Y-75259285D01*
X154071427Y-75259285D02*
X153571427Y-75259285D01*
X154928570Y-75473571D02*
X155285713Y-74473571D01*
X155642856Y-75473571D02*
X155285713Y-74473571D01*
X155285713Y-74473571D02*
X155142856Y-74116428D01*
X155142856Y-74116428D02*
X155071427Y-74045000D01*
X155071427Y-74045000D02*
X154928570Y-73973571D01*
X156214284Y-75473571D02*
X156214284Y-73973571D01*
X156214284Y-75402142D02*
X156357142Y-75473571D01*
X156357142Y-75473571D02*
X156642856Y-75473571D01*
X156642856Y-75473571D02*
X156785713Y-75402142D01*
X156785713Y-75402142D02*
X156857142Y-75330714D01*
X156857142Y-75330714D02*
X156928570Y-75187857D01*
X156928570Y-75187857D02*
X156928570Y-74759285D01*
X156928570Y-74759285D02*
X156857142Y-74616428D01*
X156857142Y-74616428D02*
X156785713Y-74545000D01*
X156785713Y-74545000D02*
X156642856Y-74473571D01*
X156642856Y-74473571D02*
X156357142Y-74473571D01*
X156357142Y-74473571D02*
X156214284Y-74545000D01*
X158214285Y-74473571D02*
X158214285Y-75259285D01*
X158214285Y-75259285D02*
X158142856Y-75402142D01*
X158142856Y-75402142D02*
X157999999Y-75473571D01*
X157999999Y-75473571D02*
X157714285Y-75473571D01*
X157714285Y-75473571D02*
X157571427Y-75402142D01*
X158214285Y-74545000D02*
X158071427Y-74473571D01*
X158071427Y-74473571D02*
X157714285Y-74473571D01*
X157714285Y-74473571D02*
X157571427Y-74545000D01*
X157571427Y-74545000D02*
X157499999Y-74687857D01*
X157499999Y-74687857D02*
X157499999Y-74830714D01*
X157499999Y-74830714D02*
X157571427Y-74973571D01*
X157571427Y-74973571D02*
X157714285Y-75045000D01*
X157714285Y-75045000D02*
X158071427Y-75045000D01*
X158071427Y-75045000D02*
X158214285Y-75116428D01*
X158857142Y-74545000D02*
X158999999Y-74473571D01*
X158999999Y-74473571D02*
X159285713Y-74473571D01*
X159285713Y-74473571D02*
X159428570Y-74545000D01*
X159428570Y-74545000D02*
X159499999Y-74687857D01*
X159499999Y-74687857D02*
X159499999Y-74759285D01*
X159499999Y-74759285D02*
X159428570Y-74902142D01*
X159428570Y-74902142D02*
X159285713Y-74973571D01*
X159285713Y-74973571D02*
X159071428Y-74973571D01*
X159071428Y-74973571D02*
X158928570Y-75045000D01*
X158928570Y-75045000D02*
X158857142Y-75187857D01*
X158857142Y-75187857D02*
X158857142Y-75259285D01*
X158857142Y-75259285D02*
X158928570Y-75402142D01*
X158928570Y-75402142D02*
X159071428Y-75473571D01*
X159071428Y-75473571D02*
X159285713Y-75473571D01*
X159285713Y-75473571D02*
X159428570Y-75402142D01*
X160071428Y-74545000D02*
X160214285Y-74473571D01*
X160214285Y-74473571D02*
X160499999Y-74473571D01*
X160499999Y-74473571D02*
X160642856Y-74545000D01*
X160642856Y-74545000D02*
X160714285Y-74687857D01*
X160714285Y-74687857D02*
X160714285Y-74759285D01*
X160714285Y-74759285D02*
X160642856Y-74902142D01*
X160642856Y-74902142D02*
X160499999Y-74973571D01*
X160499999Y-74973571D02*
X160285714Y-74973571D01*
X160285714Y-74973571D02*
X160142856Y-75045000D01*
X160142856Y-75045000D02*
X160071428Y-75187857D01*
X160071428Y-75187857D02*
X160071428Y-75259285D01*
X160071428Y-75259285D02*
X160142856Y-75402142D01*
X160142856Y-75402142D02*
X160285714Y-75473571D01*
X160285714Y-75473571D02*
X160499999Y-75473571D01*
X160499999Y-75473571D02*
X160642856Y-75402142D01*
X152857144Y-72043571D02*
X152000001Y-72043571D01*
X152428572Y-72043571D02*
X152428572Y-73543571D01*
X152428572Y-73543571D02*
X152285715Y-73329285D01*
X152285715Y-73329285D02*
X152142858Y-73186428D01*
X152142858Y-73186428D02*
X152000001Y-73115000D01*
X153357143Y-73543571D02*
X154357143Y-73543571D01*
X154357143Y-73543571D02*
X153714286Y-72043571D01*
X156000000Y-73615000D02*
X154714286Y-71686428D01*
X157285715Y-72043571D02*
X156428572Y-72043571D01*
X156857143Y-72043571D02*
X156857143Y-73543571D01*
X156857143Y-73543571D02*
X156714286Y-73329285D01*
X156714286Y-73329285D02*
X156571429Y-73186428D01*
X156571429Y-73186428D02*
X156428572Y-73115000D01*
X158642857Y-73543571D02*
X157928571Y-73543571D01*
X157928571Y-73543571D02*
X157857143Y-72829285D01*
X157857143Y-72829285D02*
X157928571Y-72900714D01*
X157928571Y-72900714D02*
X158071429Y-72972142D01*
X158071429Y-72972142D02*
X158428571Y-72972142D01*
X158428571Y-72972142D02*
X158571429Y-72900714D01*
X158571429Y-72900714D02*
X158642857Y-72829285D01*
X158642857Y-72829285D02*
X158714286Y-72686428D01*
X158714286Y-72686428D02*
X158714286Y-72329285D01*
X158714286Y-72329285D02*
X158642857Y-72186428D01*
X158642857Y-72186428D02*
X158571429Y-72115000D01*
X158571429Y-72115000D02*
X158428571Y-72043571D01*
X158428571Y-72043571D02*
X158071429Y-72043571D01*
X158071429Y-72043571D02*
X157928571Y-72115000D01*
X157928571Y-72115000D02*
X157857143Y-72186428D01*
X159357142Y-72043571D02*
X159357142Y-73043571D01*
X159357142Y-72900714D02*
X159428571Y-72972142D01*
X159428571Y-72972142D02*
X159571428Y-73043571D01*
X159571428Y-73043571D02*
X159785714Y-73043571D01*
X159785714Y-73043571D02*
X159928571Y-72972142D01*
X159928571Y-72972142D02*
X160000000Y-72829285D01*
X160000000Y-72829285D02*
X160000000Y-72043571D01*
X160000000Y-72829285D02*
X160071428Y-72972142D01*
X160071428Y-72972142D02*
X160214285Y-73043571D01*
X160214285Y-73043571D02*
X160428571Y-73043571D01*
X160428571Y-73043571D02*
X160571428Y-72972142D01*
X160571428Y-72972142D02*
X160642857Y-72829285D01*
X160642857Y-72829285D02*
X160642857Y-72043571D01*
X157142858Y-70613571D02*
X157142858Y-69613571D01*
X156785715Y-71185000D02*
X156428572Y-70113571D01*
X156428572Y-70113571D02*
X157357143Y-70113571D01*
X158214286Y-71113571D02*
X158357143Y-71113571D01*
X158357143Y-71113571D02*
X158500000Y-71042142D01*
X158500000Y-71042142D02*
X158571429Y-70970714D01*
X158571429Y-70970714D02*
X158642857Y-70827857D01*
X158642857Y-70827857D02*
X158714286Y-70542142D01*
X158714286Y-70542142D02*
X158714286Y-70185000D01*
X158714286Y-70185000D02*
X158642857Y-69899285D01*
X158642857Y-69899285D02*
X158571429Y-69756428D01*
X158571429Y-69756428D02*
X158500000Y-69685000D01*
X158500000Y-69685000D02*
X158357143Y-69613571D01*
X158357143Y-69613571D02*
X158214286Y-69613571D01*
X158214286Y-69613571D02*
X158071429Y-69685000D01*
X158071429Y-69685000D02*
X158000000Y-69756428D01*
X158000000Y-69756428D02*
X157928571Y-69899285D01*
X157928571Y-69899285D02*
X157857143Y-70185000D01*
X157857143Y-70185000D02*
X157857143Y-70542142D01*
X157857143Y-70542142D02*
X157928571Y-70827857D01*
X157928571Y-70827857D02*
X158000000Y-70970714D01*
X158000000Y-70970714D02*
X158071429Y-71042142D01*
X158071429Y-71042142D02*
X158214286Y-71113571D01*
X159357142Y-69613571D02*
X159357142Y-70613571D01*
X159357142Y-70470714D02*
X159428571Y-70542142D01*
X159428571Y-70542142D02*
X159571428Y-70613571D01*
X159571428Y-70613571D02*
X159785714Y-70613571D01*
X159785714Y-70613571D02*
X159928571Y-70542142D01*
X159928571Y-70542142D02*
X160000000Y-70399285D01*
X160000000Y-70399285D02*
X160000000Y-69613571D01*
X160000000Y-70399285D02*
X160071428Y-70542142D01*
X160071428Y-70542142D02*
X160214285Y-70613571D01*
X160214285Y-70613571D02*
X160428571Y-70613571D01*
X160428571Y-70613571D02*
X160571428Y-70542142D01*
X160571428Y-70542142D02*
X160642857Y-70399285D01*
X160642857Y-70399285D02*
X160642857Y-69613571D01*
X155857144Y-67183571D02*
X155000001Y-67183571D01*
X155428572Y-67183571D02*
X155428572Y-68683571D01*
X155428572Y-68683571D02*
X155285715Y-68469285D01*
X155285715Y-68469285D02*
X155142858Y-68326428D01*
X155142858Y-68326428D02*
X155000001Y-68255000D01*
X157142858Y-68683571D02*
X156857143Y-68683571D01*
X156857143Y-68683571D02*
X156714286Y-68612142D01*
X156714286Y-68612142D02*
X156642858Y-68540714D01*
X156642858Y-68540714D02*
X156500000Y-68326428D01*
X156500000Y-68326428D02*
X156428572Y-68040714D01*
X156428572Y-68040714D02*
X156428572Y-67469285D01*
X156428572Y-67469285D02*
X156500000Y-67326428D01*
X156500000Y-67326428D02*
X156571429Y-67255000D01*
X156571429Y-67255000D02*
X156714286Y-67183571D01*
X156714286Y-67183571D02*
X157000000Y-67183571D01*
X157000000Y-67183571D02*
X157142858Y-67255000D01*
X157142858Y-67255000D02*
X157214286Y-67326428D01*
X157214286Y-67326428D02*
X157285715Y-67469285D01*
X157285715Y-67469285D02*
X157285715Y-67826428D01*
X157285715Y-67826428D02*
X157214286Y-67969285D01*
X157214286Y-67969285D02*
X157142858Y-68040714D01*
X157142858Y-68040714D02*
X157000000Y-68112142D01*
X157000000Y-68112142D02*
X156714286Y-68112142D01*
X156714286Y-68112142D02*
X156571429Y-68040714D01*
X156571429Y-68040714D02*
X156500000Y-67969285D01*
X156500000Y-67969285D02*
X156428572Y-67826428D01*
X158214286Y-68683571D02*
X158357143Y-68683571D01*
X158357143Y-68683571D02*
X158500000Y-68612142D01*
X158500000Y-68612142D02*
X158571429Y-68540714D01*
X158571429Y-68540714D02*
X158642857Y-68397857D01*
X158642857Y-68397857D02*
X158714286Y-68112142D01*
X158714286Y-68112142D02*
X158714286Y-67755000D01*
X158714286Y-67755000D02*
X158642857Y-67469285D01*
X158642857Y-67469285D02*
X158571429Y-67326428D01*
X158571429Y-67326428D02*
X158500000Y-67255000D01*
X158500000Y-67255000D02*
X158357143Y-67183571D01*
X158357143Y-67183571D02*
X158214286Y-67183571D01*
X158214286Y-67183571D02*
X158071429Y-67255000D01*
X158071429Y-67255000D02*
X158000000Y-67326428D01*
X158000000Y-67326428D02*
X157928571Y-67469285D01*
X157928571Y-67469285D02*
X157857143Y-67755000D01*
X157857143Y-67755000D02*
X157857143Y-68112142D01*
X157857143Y-68112142D02*
X157928571Y-68397857D01*
X157928571Y-68397857D02*
X158000000Y-68540714D01*
X158000000Y-68540714D02*
X158071429Y-68612142D01*
X158071429Y-68612142D02*
X158214286Y-68683571D01*
X159357142Y-67183571D02*
X159357142Y-68183571D01*
X159357142Y-68040714D02*
X159428571Y-68112142D01*
X159428571Y-68112142D02*
X159571428Y-68183571D01*
X159571428Y-68183571D02*
X159785714Y-68183571D01*
X159785714Y-68183571D02*
X159928571Y-68112142D01*
X159928571Y-68112142D02*
X160000000Y-67969285D01*
X160000000Y-67969285D02*
X160000000Y-67183571D01*
X160000000Y-67969285D02*
X160071428Y-68112142D01*
X160071428Y-68112142D02*
X160214285Y-68183571D01*
X160214285Y-68183571D02*
X160428571Y-68183571D01*
X160428571Y-68183571D02*
X160571428Y-68112142D01*
X160571428Y-68112142D02*
X160642857Y-67969285D01*
X160642857Y-67969285D02*
X160642857Y-67183571D01*
X96357142Y-85166785D02*
X95857142Y-85166785D01*
X95857142Y-84381071D02*
X95857142Y-85881071D01*
X95857142Y-85881071D02*
X96571428Y-85881071D01*
X96999999Y-85881071D02*
X97357142Y-84381071D01*
X97357142Y-84381071D02*
X97642856Y-85452500D01*
X97642856Y-85452500D02*
X97928571Y-84381071D01*
X97928571Y-84381071D02*
X98285714Y-85881071D01*
X98857142Y-84381071D02*
X98857142Y-85881071D01*
X98857142Y-85881071D02*
X99214285Y-85881071D01*
X99214285Y-85881071D02*
X99428571Y-85809642D01*
X99428571Y-85809642D02*
X99571428Y-85666785D01*
X99571428Y-85666785D02*
X99642857Y-85523928D01*
X99642857Y-85523928D02*
X99714285Y-85238214D01*
X99714285Y-85238214D02*
X99714285Y-85023928D01*
X99714285Y-85023928D02*
X99642857Y-84738214D01*
X99642857Y-84738214D02*
X99571428Y-84595357D01*
X99571428Y-84595357D02*
X99428571Y-84452500D01*
X99428571Y-84452500D02*
X99214285Y-84381071D01*
X99214285Y-84381071D02*
X98857142Y-84381071D01*
X100000000Y-84238214D02*
X101142857Y-84238214D01*
X101499999Y-84381071D02*
X101499999Y-85881071D01*
X101499999Y-85881071D02*
X102071428Y-85881071D01*
X102071428Y-85881071D02*
X102214285Y-85809642D01*
X102214285Y-85809642D02*
X102285714Y-85738214D01*
X102285714Y-85738214D02*
X102357142Y-85595357D01*
X102357142Y-85595357D02*
X102357142Y-85381071D01*
X102357142Y-85381071D02*
X102285714Y-85238214D01*
X102285714Y-85238214D02*
X102214285Y-85166785D01*
X102214285Y-85166785D02*
X102071428Y-85095357D01*
X102071428Y-85095357D02*
X101499999Y-85095357D01*
X102857142Y-85881071D02*
X103214285Y-84381071D01*
X103214285Y-84381071D02*
X103499999Y-85452500D01*
X103499999Y-85452500D02*
X103785714Y-84381071D01*
X103785714Y-84381071D02*
X104142857Y-85881071D01*
X105571428Y-84381071D02*
X105071428Y-85095357D01*
X104714285Y-84381071D02*
X104714285Y-85881071D01*
X104714285Y-85881071D02*
X105285714Y-85881071D01*
X105285714Y-85881071D02*
X105428571Y-85809642D01*
X105428571Y-85809642D02*
X105500000Y-85738214D01*
X105500000Y-85738214D02*
X105571428Y-85595357D01*
X105571428Y-85595357D02*
X105571428Y-85381071D01*
X105571428Y-85381071D02*
X105500000Y-85238214D01*
X105500000Y-85238214D02*
X105428571Y-85166785D01*
X105428571Y-85166785D02*
X105285714Y-85095357D01*
X105285714Y-85095357D02*
X104714285Y-85095357D01*
X96714285Y-81951071D02*
X96214285Y-82665357D01*
X95857142Y-81951071D02*
X95857142Y-83451071D01*
X95857142Y-83451071D02*
X96428571Y-83451071D01*
X96428571Y-83451071D02*
X96571428Y-83379642D01*
X96571428Y-83379642D02*
X96642857Y-83308214D01*
X96642857Y-83308214D02*
X96714285Y-83165357D01*
X96714285Y-83165357D02*
X96714285Y-82951071D01*
X96714285Y-82951071D02*
X96642857Y-82808214D01*
X96642857Y-82808214D02*
X96571428Y-82736785D01*
X96571428Y-82736785D02*
X96428571Y-82665357D01*
X96428571Y-82665357D02*
X95857142Y-82665357D01*
X97357142Y-82736785D02*
X97857142Y-82736785D01*
X98071428Y-81951071D02*
X97357142Y-81951071D01*
X97357142Y-81951071D02*
X97357142Y-83451071D01*
X97357142Y-83451071D02*
X98071428Y-83451071D01*
X99214285Y-82736785D02*
X98714285Y-82736785D01*
X98714285Y-81951071D02*
X98714285Y-83451071D01*
X98714285Y-83451071D02*
X99428571Y-83451071D01*
X100714285Y-81951071D02*
X99999999Y-81951071D01*
X99999999Y-81951071D02*
X99999999Y-83451071D01*
X100857143Y-81808214D02*
X102000000Y-81808214D01*
X102357142Y-81951071D02*
X102357142Y-83451071D01*
X102357142Y-83451071D02*
X102928571Y-83451071D01*
X102928571Y-83451071D02*
X103071428Y-83379642D01*
X103071428Y-83379642D02*
X103142857Y-83308214D01*
X103142857Y-83308214D02*
X103214285Y-83165357D01*
X103214285Y-83165357D02*
X103214285Y-82951071D01*
X103214285Y-82951071D02*
X103142857Y-82808214D01*
X103142857Y-82808214D02*
X103071428Y-82736785D01*
X103071428Y-82736785D02*
X102928571Y-82665357D01*
X102928571Y-82665357D02*
X102357142Y-82665357D01*
X103714285Y-83451071D02*
X104071428Y-81951071D01*
X104071428Y-81951071D02*
X104357142Y-83022500D01*
X104357142Y-83022500D02*
X104642857Y-81951071D01*
X104642857Y-81951071D02*
X105000000Y-83451071D01*
X106428571Y-81951071D02*
X105928571Y-82665357D01*
X105571428Y-81951071D02*
X105571428Y-83451071D01*
X105571428Y-83451071D02*
X106142857Y-83451071D01*
X106142857Y-83451071D02*
X106285714Y-83379642D01*
X106285714Y-83379642D02*
X106357143Y-83308214D01*
X106357143Y-83308214D02*
X106428571Y-83165357D01*
X106428571Y-83165357D02*
X106428571Y-82951071D01*
X106428571Y-82951071D02*
X106357143Y-82808214D01*
X106357143Y-82808214D02*
X106285714Y-82736785D01*
X106285714Y-82736785D02*
X106142857Y-82665357D01*
X106142857Y-82665357D02*
X105571428Y-82665357D01*
X96642857Y-80949642D02*
X96500000Y-81021071D01*
X96500000Y-81021071D02*
X96285714Y-81021071D01*
X96285714Y-81021071D02*
X96071428Y-80949642D01*
X96071428Y-80949642D02*
X95928571Y-80806785D01*
X95928571Y-80806785D02*
X95857142Y-80663928D01*
X95857142Y-80663928D02*
X95785714Y-80378214D01*
X95785714Y-80378214D02*
X95785714Y-80163928D01*
X95785714Y-80163928D02*
X95857142Y-79878214D01*
X95857142Y-79878214D02*
X95928571Y-79735357D01*
X95928571Y-79735357D02*
X96071428Y-79592500D01*
X96071428Y-79592500D02*
X96285714Y-79521071D01*
X96285714Y-79521071D02*
X96428571Y-79521071D01*
X96428571Y-79521071D02*
X96642857Y-79592500D01*
X96642857Y-79592500D02*
X96714285Y-79663928D01*
X96714285Y-79663928D02*
X96714285Y-80163928D01*
X96714285Y-80163928D02*
X96428571Y-80163928D01*
X97357142Y-80521071D02*
X97357142Y-79521071D01*
X97357142Y-80378214D02*
X97428571Y-80449642D01*
X97428571Y-80449642D02*
X97571428Y-80521071D01*
X97571428Y-80521071D02*
X97785714Y-80521071D01*
X97785714Y-80521071D02*
X97928571Y-80449642D01*
X97928571Y-80449642D02*
X98000000Y-80306785D01*
X98000000Y-80306785D02*
X98000000Y-79521071D01*
X99357143Y-79521071D02*
X99357143Y-81021071D01*
X99357143Y-79592500D02*
X99214285Y-79521071D01*
X99214285Y-79521071D02*
X98928571Y-79521071D01*
X98928571Y-79521071D02*
X98785714Y-79592500D01*
X98785714Y-79592500D02*
X98714285Y-79663928D01*
X98714285Y-79663928D02*
X98642857Y-79806785D01*
X98642857Y-79806785D02*
X98642857Y-80235357D01*
X98642857Y-80235357D02*
X98714285Y-80378214D01*
X98714285Y-80378214D02*
X98785714Y-80449642D01*
X98785714Y-80449642D02*
X98928571Y-80521071D01*
X98928571Y-80521071D02*
X99214285Y-80521071D01*
X99214285Y-80521071D02*
X99357143Y-80449642D01*
X95857142Y-77662500D02*
X97000000Y-77662500D01*
X96428571Y-77091071D02*
X96428571Y-78233928D01*
X98500000Y-77091071D02*
X97642857Y-77091071D01*
X98071428Y-77091071D02*
X98071428Y-78591071D01*
X98071428Y-78591071D02*
X97928571Y-78376785D01*
X97928571Y-78376785D02*
X97785714Y-78233928D01*
X97785714Y-78233928D02*
X97642857Y-78162500D01*
X99071428Y-78448214D02*
X99142856Y-78519642D01*
X99142856Y-78519642D02*
X99285714Y-78591071D01*
X99285714Y-78591071D02*
X99642856Y-78591071D01*
X99642856Y-78591071D02*
X99785714Y-78519642D01*
X99785714Y-78519642D02*
X99857142Y-78448214D01*
X99857142Y-78448214D02*
X99928571Y-78305357D01*
X99928571Y-78305357D02*
X99928571Y-78162500D01*
X99928571Y-78162500D02*
X99857142Y-77948214D01*
X99857142Y-77948214D02*
X98999999Y-77091071D01*
X98999999Y-77091071D02*
X99928571Y-77091071D01*
X100357142Y-78591071D02*
X100857142Y-77091071D01*
X100857142Y-77091071D02*
X101357142Y-78591071D01*
X95642857Y-76161071D02*
X96500000Y-76161071D01*
X96071428Y-74661071D02*
X96071428Y-76161071D01*
X96857142Y-76161071D02*
X97857142Y-74661071D01*
X97857142Y-76161071D02*
X96857142Y-74661071D01*
X98071428Y-74518214D02*
X99214285Y-74518214D01*
X100428570Y-74661071D02*
X99928570Y-75375357D01*
X99571427Y-74661071D02*
X99571427Y-76161071D01*
X99571427Y-76161071D02*
X100142856Y-76161071D01*
X100142856Y-76161071D02*
X100285713Y-76089642D01*
X100285713Y-76089642D02*
X100357142Y-76018214D01*
X100357142Y-76018214D02*
X100428570Y-75875357D01*
X100428570Y-75875357D02*
X100428570Y-75661071D01*
X100428570Y-75661071D02*
X100357142Y-75518214D01*
X100357142Y-75518214D02*
X100285713Y-75446785D01*
X100285713Y-75446785D02*
X100142856Y-75375357D01*
X100142856Y-75375357D02*
X99571427Y-75375357D01*
X100928570Y-76161071D02*
X101928570Y-74661071D01*
X101928570Y-76161071D02*
X100928570Y-74661071D01*
X102142856Y-74518214D02*
X103285713Y-74518214D01*
X104499998Y-74661071D02*
X103999998Y-75375357D01*
X103642855Y-74661071D02*
X103642855Y-76161071D01*
X103642855Y-76161071D02*
X104214284Y-76161071D01*
X104214284Y-76161071D02*
X104357141Y-76089642D01*
X104357141Y-76089642D02*
X104428570Y-76018214D01*
X104428570Y-76018214D02*
X104499998Y-75875357D01*
X104499998Y-75875357D02*
X104499998Y-75661071D01*
X104499998Y-75661071D02*
X104428570Y-75518214D01*
X104428570Y-75518214D02*
X104357141Y-75446785D01*
X104357141Y-75446785D02*
X104214284Y-75375357D01*
X104214284Y-75375357D02*
X103642855Y-75375357D01*
X105857141Y-74661071D02*
X105142855Y-74661071D01*
X105142855Y-74661071D02*
X105142855Y-76161071D01*
X106642856Y-75375357D02*
X106642856Y-74661071D01*
X106142856Y-76161071D02*
X106642856Y-75375357D01*
X106642856Y-75375357D02*
X107142856Y-76161071D01*
X95642857Y-73731071D02*
X96500000Y-73731071D01*
X96071428Y-72231071D02*
X96071428Y-73731071D01*
X96857142Y-73731071D02*
X97857142Y-72231071D01*
X97857142Y-73731071D02*
X96857142Y-72231071D01*
X99285713Y-72231071D02*
X98785713Y-72945357D01*
X98428570Y-72231071D02*
X98428570Y-73731071D01*
X98428570Y-73731071D02*
X98999999Y-73731071D01*
X98999999Y-73731071D02*
X99142856Y-73659642D01*
X99142856Y-73659642D02*
X99214285Y-73588214D01*
X99214285Y-73588214D02*
X99285713Y-73445357D01*
X99285713Y-73445357D02*
X99285713Y-73231071D01*
X99285713Y-73231071D02*
X99214285Y-73088214D01*
X99214285Y-73088214D02*
X99142856Y-73016785D01*
X99142856Y-73016785D02*
X98999999Y-72945357D01*
X98999999Y-72945357D02*
X98428570Y-72945357D01*
X99785713Y-73731071D02*
X100785713Y-72231071D01*
X100785713Y-73731071D02*
X99785713Y-72231071D01*
X100999999Y-72088214D02*
X102142856Y-72088214D01*
X102428570Y-72302500D02*
X102642856Y-72231071D01*
X102642856Y-72231071D02*
X102999998Y-72231071D01*
X102999998Y-72231071D02*
X103142856Y-72302500D01*
X103142856Y-72302500D02*
X103214284Y-72373928D01*
X103214284Y-72373928D02*
X103285713Y-72516785D01*
X103285713Y-72516785D02*
X103285713Y-72659642D01*
X103285713Y-72659642D02*
X103214284Y-72802500D01*
X103214284Y-72802500D02*
X103142856Y-72873928D01*
X103142856Y-72873928D02*
X102999998Y-72945357D01*
X102999998Y-72945357D02*
X102714284Y-73016785D01*
X102714284Y-73016785D02*
X102571427Y-73088214D01*
X102571427Y-73088214D02*
X102499998Y-73159642D01*
X102499998Y-73159642D02*
X102428570Y-73302500D01*
X102428570Y-73302500D02*
X102428570Y-73445357D01*
X102428570Y-73445357D02*
X102499998Y-73588214D01*
X102499998Y-73588214D02*
X102571427Y-73659642D01*
X102571427Y-73659642D02*
X102714284Y-73731071D01*
X102714284Y-73731071D02*
X103071427Y-73731071D01*
X103071427Y-73731071D02*
X103285713Y-73659642D01*
X103714284Y-73231071D02*
X104285712Y-73231071D01*
X103928569Y-73731071D02*
X103928569Y-72445357D01*
X103928569Y-72445357D02*
X103999998Y-72302500D01*
X103999998Y-72302500D02*
X104142855Y-72231071D01*
X104142855Y-72231071D02*
X104285712Y-72231071D01*
X105428570Y-72231071D02*
X105428570Y-73016785D01*
X105428570Y-73016785D02*
X105357141Y-73159642D01*
X105357141Y-73159642D02*
X105214284Y-73231071D01*
X105214284Y-73231071D02*
X104928570Y-73231071D01*
X104928570Y-73231071D02*
X104785712Y-73159642D01*
X105428570Y-72302500D02*
X105285712Y-72231071D01*
X105285712Y-72231071D02*
X104928570Y-72231071D01*
X104928570Y-72231071D02*
X104785712Y-72302500D01*
X104785712Y-72302500D02*
X104714284Y-72445357D01*
X104714284Y-72445357D02*
X104714284Y-72588214D01*
X104714284Y-72588214D02*
X104785712Y-72731071D01*
X104785712Y-72731071D02*
X104928570Y-72802500D01*
X104928570Y-72802500D02*
X105285712Y-72802500D01*
X105285712Y-72802500D02*
X105428570Y-72873928D01*
X105928570Y-73231071D02*
X106499998Y-73231071D01*
X106142855Y-73731071D02*
X106142855Y-72445357D01*
X106142855Y-72445357D02*
X106214284Y-72302500D01*
X106214284Y-72302500D02*
X106357141Y-72231071D01*
X106357141Y-72231071D02*
X106499998Y-72231071D01*
X107642856Y-73231071D02*
X107642856Y-72231071D01*
X106999998Y-73231071D02*
X106999998Y-72445357D01*
X106999998Y-72445357D02*
X107071427Y-72302500D01*
X107071427Y-72302500D02*
X107214284Y-72231071D01*
X107214284Y-72231071D02*
X107428570Y-72231071D01*
X107428570Y-72231071D02*
X107571427Y-72302500D01*
X107571427Y-72302500D02*
X107642856Y-72373928D01*
X108285713Y-72302500D02*
X108428570Y-72231071D01*
X108428570Y-72231071D02*
X108714284Y-72231071D01*
X108714284Y-72231071D02*
X108857141Y-72302500D01*
X108857141Y-72302500D02*
X108928570Y-72445357D01*
X108928570Y-72445357D02*
X108928570Y-72516785D01*
X108928570Y-72516785D02*
X108857141Y-72659642D01*
X108857141Y-72659642D02*
X108714284Y-72731071D01*
X108714284Y-72731071D02*
X108499999Y-72731071D01*
X108499999Y-72731071D02*
X108357141Y-72802500D01*
X108357141Y-72802500D02*
X108285713Y-72945357D01*
X108285713Y-72945357D02*
X108285713Y-73016785D01*
X108285713Y-73016785D02*
X108357141Y-73159642D01*
X108357141Y-73159642D02*
X108499999Y-73231071D01*
X108499999Y-73231071D02*
X108714284Y-73231071D01*
X108714284Y-73231071D02*
X108857141Y-73159642D01*
X83142857Y-119807500D02*
X84285715Y-119807500D01*
X83714286Y-119236071D02*
X83714286Y-120378928D01*
X85785715Y-119236071D02*
X84928572Y-119236071D01*
X85357143Y-119236071D02*
X85357143Y-120736071D01*
X85357143Y-120736071D02*
X85214286Y-120521785D01*
X85214286Y-120521785D02*
X85071429Y-120378928D01*
X85071429Y-120378928D02*
X84928572Y-120307500D01*
X86357143Y-120593214D02*
X86428571Y-120664642D01*
X86428571Y-120664642D02*
X86571429Y-120736071D01*
X86571429Y-120736071D02*
X86928571Y-120736071D01*
X86928571Y-120736071D02*
X87071429Y-120664642D01*
X87071429Y-120664642D02*
X87142857Y-120593214D01*
X87142857Y-120593214D02*
X87214286Y-120450357D01*
X87214286Y-120450357D02*
X87214286Y-120307500D01*
X87214286Y-120307500D02*
X87142857Y-120093214D01*
X87142857Y-120093214D02*
X86285714Y-119236071D01*
X86285714Y-119236071D02*
X87214286Y-119236071D01*
X87642857Y-120736071D02*
X88142857Y-119236071D01*
X88142857Y-119236071D02*
X88642857Y-120736071D01*
X90285713Y-119236071D02*
X90285713Y-120736071D01*
X90999999Y-120236071D02*
X90999999Y-119236071D01*
X90999999Y-120093214D02*
X91071428Y-120164642D01*
X91071428Y-120164642D02*
X91214285Y-120236071D01*
X91214285Y-120236071D02*
X91428571Y-120236071D01*
X91428571Y-120236071D02*
X91571428Y-120164642D01*
X91571428Y-120164642D02*
X91642857Y-120021785D01*
X91642857Y-120021785D02*
X91642857Y-119236071D01*
X83142857Y-117377500D02*
X84285715Y-117377500D01*
X83714286Y-116806071D02*
X83714286Y-117948928D01*
X85785715Y-116806071D02*
X84928572Y-116806071D01*
X85357143Y-116806071D02*
X85357143Y-118306071D01*
X85357143Y-118306071D02*
X85214286Y-118091785D01*
X85214286Y-118091785D02*
X85071429Y-117948928D01*
X85071429Y-117948928D02*
X84928572Y-117877500D01*
X86357143Y-118163214D02*
X86428571Y-118234642D01*
X86428571Y-118234642D02*
X86571429Y-118306071D01*
X86571429Y-118306071D02*
X86928571Y-118306071D01*
X86928571Y-118306071D02*
X87071429Y-118234642D01*
X87071429Y-118234642D02*
X87142857Y-118163214D01*
X87142857Y-118163214D02*
X87214286Y-118020357D01*
X87214286Y-118020357D02*
X87214286Y-117877500D01*
X87214286Y-117877500D02*
X87142857Y-117663214D01*
X87142857Y-117663214D02*
X86285714Y-116806071D01*
X86285714Y-116806071D02*
X87214286Y-116806071D01*
X87642857Y-118306071D02*
X88142857Y-116806071D01*
X88142857Y-116806071D02*
X88642857Y-118306071D01*
X90285713Y-116806071D02*
X90285713Y-118306071D01*
X90999999Y-117806071D02*
X90999999Y-116806071D01*
X90999999Y-117663214D02*
X91071428Y-117734642D01*
X91071428Y-117734642D02*
X91214285Y-117806071D01*
X91214285Y-117806071D02*
X91428571Y-117806071D01*
X91428571Y-117806071D02*
X91571428Y-117734642D01*
X91571428Y-117734642D02*
X91642857Y-117591785D01*
X91642857Y-117591785D02*
X91642857Y-116806071D01*
X88928571Y-115804642D02*
X88785714Y-115876071D01*
X88785714Y-115876071D02*
X88571428Y-115876071D01*
X88571428Y-115876071D02*
X88357142Y-115804642D01*
X88357142Y-115804642D02*
X88214285Y-115661785D01*
X88214285Y-115661785D02*
X88142856Y-115518928D01*
X88142856Y-115518928D02*
X88071428Y-115233214D01*
X88071428Y-115233214D02*
X88071428Y-115018928D01*
X88071428Y-115018928D02*
X88142856Y-114733214D01*
X88142856Y-114733214D02*
X88214285Y-114590357D01*
X88214285Y-114590357D02*
X88357142Y-114447500D01*
X88357142Y-114447500D02*
X88571428Y-114376071D01*
X88571428Y-114376071D02*
X88714285Y-114376071D01*
X88714285Y-114376071D02*
X88928571Y-114447500D01*
X88928571Y-114447500D02*
X88999999Y-114518928D01*
X88999999Y-114518928D02*
X88999999Y-115018928D01*
X88999999Y-115018928D02*
X88714285Y-115018928D01*
X89642856Y-115376071D02*
X89642856Y-114376071D01*
X89642856Y-115233214D02*
X89714285Y-115304642D01*
X89714285Y-115304642D02*
X89857142Y-115376071D01*
X89857142Y-115376071D02*
X90071428Y-115376071D01*
X90071428Y-115376071D02*
X90214285Y-115304642D01*
X90214285Y-115304642D02*
X90285714Y-115161785D01*
X90285714Y-115161785D02*
X90285714Y-114376071D01*
X91642857Y-114376071D02*
X91642857Y-115876071D01*
X91642857Y-114447500D02*
X91499999Y-114376071D01*
X91499999Y-114376071D02*
X91214285Y-114376071D01*
X91214285Y-114376071D02*
X91071428Y-114447500D01*
X91071428Y-114447500D02*
X90999999Y-114518928D01*
X90999999Y-114518928D02*
X90928571Y-114661785D01*
X90928571Y-114661785D02*
X90928571Y-115090357D01*
X90928571Y-115090357D02*
X90999999Y-115233214D01*
X90999999Y-115233214D02*
X91071428Y-115304642D01*
X91071428Y-115304642D02*
X91214285Y-115376071D01*
X91214285Y-115376071D02*
X91499999Y-115376071D01*
X91499999Y-115376071D02*
X91642857Y-115304642D01*
X155167500Y-115642857D02*
X155167500Y-114500000D01*
X154596071Y-115071428D02*
X155738928Y-115071428D01*
X154596071Y-112999999D02*
X154596071Y-113857142D01*
X154596071Y-113428571D02*
X156096071Y-113428571D01*
X156096071Y-113428571D02*
X155881785Y-113571428D01*
X155881785Y-113571428D02*
X155738928Y-113714285D01*
X155738928Y-113714285D02*
X155667500Y-113857142D01*
X155953214Y-112428571D02*
X156024642Y-112357143D01*
X156024642Y-112357143D02*
X156096071Y-112214286D01*
X156096071Y-112214286D02*
X156096071Y-111857143D01*
X156096071Y-111857143D02*
X156024642Y-111714286D01*
X156024642Y-111714286D02*
X155953214Y-111642857D01*
X155953214Y-111642857D02*
X155810357Y-111571428D01*
X155810357Y-111571428D02*
X155667500Y-111571428D01*
X155667500Y-111571428D02*
X155453214Y-111642857D01*
X155453214Y-111642857D02*
X154596071Y-112500000D01*
X154596071Y-112500000D02*
X154596071Y-111571428D01*
X156096071Y-111142857D02*
X154596071Y-110642857D01*
X154596071Y-110642857D02*
X156096071Y-110142857D01*
X153594642Y-114857142D02*
X153666071Y-115000000D01*
X153666071Y-115000000D02*
X153666071Y-115214285D01*
X153666071Y-115214285D02*
X153594642Y-115428571D01*
X153594642Y-115428571D02*
X153451785Y-115571428D01*
X153451785Y-115571428D02*
X153308928Y-115642857D01*
X153308928Y-115642857D02*
X153023214Y-115714285D01*
X153023214Y-115714285D02*
X152808928Y-115714285D01*
X152808928Y-115714285D02*
X152523214Y-115642857D01*
X152523214Y-115642857D02*
X152380357Y-115571428D01*
X152380357Y-115571428D02*
X152237500Y-115428571D01*
X152237500Y-115428571D02*
X152166071Y-115214285D01*
X152166071Y-115214285D02*
X152166071Y-115071428D01*
X152166071Y-115071428D02*
X152237500Y-114857142D01*
X152237500Y-114857142D02*
X152308928Y-114785714D01*
X152308928Y-114785714D02*
X152808928Y-114785714D01*
X152808928Y-114785714D02*
X152808928Y-115071428D01*
X153166071Y-114142857D02*
X152166071Y-114142857D01*
X153023214Y-114142857D02*
X153094642Y-114071428D01*
X153094642Y-114071428D02*
X153166071Y-113928571D01*
X153166071Y-113928571D02*
X153166071Y-113714285D01*
X153166071Y-113714285D02*
X153094642Y-113571428D01*
X153094642Y-113571428D02*
X152951785Y-113500000D01*
X152951785Y-113500000D02*
X152166071Y-113500000D01*
X152166071Y-112142857D02*
X153666071Y-112142857D01*
X152237500Y-112142857D02*
X152166071Y-112285714D01*
X152166071Y-112285714D02*
X152166071Y-112571428D01*
X152166071Y-112571428D02*
X152237500Y-112714285D01*
X152237500Y-112714285D02*
X152308928Y-112785714D01*
X152308928Y-112785714D02*
X152451785Y-112857142D01*
X152451785Y-112857142D02*
X152880357Y-112857142D01*
X152880357Y-112857142D02*
X153023214Y-112785714D01*
X153023214Y-112785714D02*
X153094642Y-112714285D01*
X153094642Y-112714285D02*
X153166071Y-112571428D01*
X153166071Y-112571428D02*
X153166071Y-112285714D01*
X153166071Y-112285714D02*
X153094642Y-112142857D01*
X151236071Y-115785714D02*
X149736071Y-114785714D01*
X151236071Y-114785714D02*
X149736071Y-115785714D01*
X150736071Y-114357143D02*
X149736071Y-114000000D01*
X149736071Y-114000000D02*
X150736071Y-113642857D01*
X150736071Y-113285714D02*
X150736071Y-112714286D01*
X151236071Y-113071429D02*
X149950357Y-113071429D01*
X149950357Y-113071429D02*
X149807500Y-113000000D01*
X149807500Y-113000000D02*
X149736071Y-112857143D01*
X149736071Y-112857143D02*
X149736071Y-112714286D01*
X149736071Y-112214286D02*
X150736071Y-112214286D01*
X150450357Y-112214286D02*
X150593214Y-112142857D01*
X150593214Y-112142857D02*
X150664642Y-112071429D01*
X150664642Y-112071429D02*
X150736071Y-111928571D01*
X150736071Y-111928571D02*
X150736071Y-111785714D01*
X149593214Y-111642858D02*
X149593214Y-110500000D01*
X149736071Y-110142858D02*
X151236071Y-110142858D01*
X149736071Y-109428572D02*
X151236071Y-109428572D01*
X151236071Y-109428572D02*
X149736071Y-108571429D01*
X149736071Y-108571429D02*
X151236071Y-108571429D01*
X147306071Y-114785714D02*
X148020357Y-115285714D01*
X147306071Y-115642857D02*
X148806071Y-115642857D01*
X148806071Y-115642857D02*
X148806071Y-115071428D01*
X148806071Y-115071428D02*
X148734642Y-114928571D01*
X148734642Y-114928571D02*
X148663214Y-114857142D01*
X148663214Y-114857142D02*
X148520357Y-114785714D01*
X148520357Y-114785714D02*
X148306071Y-114785714D01*
X148306071Y-114785714D02*
X148163214Y-114857142D01*
X148163214Y-114857142D02*
X148091785Y-114928571D01*
X148091785Y-114928571D02*
X148020357Y-115071428D01*
X148020357Y-115071428D02*
X148020357Y-115642857D01*
X148806071Y-114285714D02*
X147306071Y-113285714D01*
X148806071Y-113285714D02*
X147306071Y-114285714D01*
X148663214Y-112785714D02*
X148734642Y-112714286D01*
X148734642Y-112714286D02*
X148806071Y-112571429D01*
X148806071Y-112571429D02*
X148806071Y-112214286D01*
X148806071Y-112214286D02*
X148734642Y-112071429D01*
X148734642Y-112071429D02*
X148663214Y-112000000D01*
X148663214Y-112000000D02*
X148520357Y-111928571D01*
X148520357Y-111928571D02*
X148377500Y-111928571D01*
X148377500Y-111928571D02*
X148163214Y-112000000D01*
X148163214Y-112000000D02*
X147306071Y-112857143D01*
X147306071Y-112857143D02*
X147306071Y-111928571D01*
X147163214Y-111642858D02*
X147163214Y-110500000D01*
X147306071Y-110142858D02*
X148806071Y-110142858D01*
X147306071Y-109428572D02*
X148806071Y-109428572D01*
X148806071Y-109428572D02*
X147306071Y-108571429D01*
X147306071Y-108571429D02*
X148806071Y-108571429D01*
X144876071Y-114785714D02*
X145590357Y-115285714D01*
X144876071Y-115642857D02*
X146376071Y-115642857D01*
X146376071Y-115642857D02*
X146376071Y-115071428D01*
X146376071Y-115071428D02*
X146304642Y-114928571D01*
X146304642Y-114928571D02*
X146233214Y-114857142D01*
X146233214Y-114857142D02*
X146090357Y-114785714D01*
X146090357Y-114785714D02*
X145876071Y-114785714D01*
X145876071Y-114785714D02*
X145733214Y-114857142D01*
X145733214Y-114857142D02*
X145661785Y-114928571D01*
X145661785Y-114928571D02*
X145590357Y-115071428D01*
X145590357Y-115071428D02*
X145590357Y-115642857D01*
X146376071Y-114285714D02*
X144876071Y-113285714D01*
X146376071Y-113285714D02*
X144876071Y-114285714D01*
X146376071Y-112857143D02*
X146376071Y-111928571D01*
X146376071Y-111928571D02*
X145804642Y-112428571D01*
X145804642Y-112428571D02*
X145804642Y-112214286D01*
X145804642Y-112214286D02*
X145733214Y-112071429D01*
X145733214Y-112071429D02*
X145661785Y-112000000D01*
X145661785Y-112000000D02*
X145518928Y-111928571D01*
X145518928Y-111928571D02*
X145161785Y-111928571D01*
X145161785Y-111928571D02*
X145018928Y-112000000D01*
X145018928Y-112000000D02*
X144947500Y-112071429D01*
X144947500Y-112071429D02*
X144876071Y-112214286D01*
X144876071Y-112214286D02*
X144876071Y-112642857D01*
X144876071Y-112642857D02*
X144947500Y-112785714D01*
X144947500Y-112785714D02*
X145018928Y-112857143D01*
X144733214Y-111642858D02*
X144733214Y-110500000D01*
X144876071Y-110142858D02*
X146376071Y-110142858D01*
X144876071Y-109428572D02*
X146376071Y-109428572D01*
X146376071Y-109428572D02*
X144876071Y-108571429D01*
X144876071Y-108571429D02*
X146376071Y-108571429D01*
X142446071Y-114785714D02*
X143160357Y-115285714D01*
X142446071Y-115642857D02*
X143946071Y-115642857D01*
X143946071Y-115642857D02*
X143946071Y-115071428D01*
X143946071Y-115071428D02*
X143874642Y-114928571D01*
X143874642Y-114928571D02*
X143803214Y-114857142D01*
X143803214Y-114857142D02*
X143660357Y-114785714D01*
X143660357Y-114785714D02*
X143446071Y-114785714D01*
X143446071Y-114785714D02*
X143303214Y-114857142D01*
X143303214Y-114857142D02*
X143231785Y-114928571D01*
X143231785Y-114928571D02*
X143160357Y-115071428D01*
X143160357Y-115071428D02*
X143160357Y-115642857D01*
X143946071Y-114285714D02*
X142446071Y-113285714D01*
X143946071Y-113285714D02*
X142446071Y-114285714D01*
X142303214Y-113071429D02*
X142303214Y-111928571D01*
X143231785Y-111071429D02*
X143160357Y-110857143D01*
X143160357Y-110857143D02*
X143088928Y-110785714D01*
X143088928Y-110785714D02*
X142946071Y-110714286D01*
X142946071Y-110714286D02*
X142731785Y-110714286D01*
X142731785Y-110714286D02*
X142588928Y-110785714D01*
X142588928Y-110785714D02*
X142517500Y-110857143D01*
X142517500Y-110857143D02*
X142446071Y-111000000D01*
X142446071Y-111000000D02*
X142446071Y-111571429D01*
X142446071Y-111571429D02*
X143946071Y-111571429D01*
X143946071Y-111571429D02*
X143946071Y-111071429D01*
X143946071Y-111071429D02*
X143874642Y-110928572D01*
X143874642Y-110928572D02*
X143803214Y-110857143D01*
X143803214Y-110857143D02*
X143660357Y-110785714D01*
X143660357Y-110785714D02*
X143517500Y-110785714D01*
X143517500Y-110785714D02*
X143374642Y-110857143D01*
X143374642Y-110857143D02*
X143303214Y-110928572D01*
X143303214Y-110928572D02*
X143231785Y-111071429D01*
X143231785Y-111071429D02*
X143231785Y-111571429D01*
X143446071Y-110214286D02*
X142446071Y-109857143D01*
X143446071Y-109500000D02*
X142446071Y-109857143D01*
X142446071Y-109857143D02*
X142088928Y-110000000D01*
X142088928Y-110000000D02*
X142017500Y-110071429D01*
X142017500Y-110071429D02*
X141946071Y-110214286D01*
X142446071Y-108928572D02*
X143946071Y-108928572D01*
X143946071Y-108928572D02*
X143946071Y-108357143D01*
X143946071Y-108357143D02*
X143874642Y-108214286D01*
X143874642Y-108214286D02*
X143803214Y-108142857D01*
X143803214Y-108142857D02*
X143660357Y-108071429D01*
X143660357Y-108071429D02*
X143446071Y-108071429D01*
X143446071Y-108071429D02*
X143303214Y-108142857D01*
X143303214Y-108142857D02*
X143231785Y-108214286D01*
X143231785Y-108214286D02*
X143160357Y-108357143D01*
X143160357Y-108357143D02*
X143160357Y-108928572D01*
X142446071Y-106785715D02*
X143231785Y-106785715D01*
X143231785Y-106785715D02*
X143374642Y-106857143D01*
X143374642Y-106857143D02*
X143446071Y-107000000D01*
X143446071Y-107000000D02*
X143446071Y-107285715D01*
X143446071Y-107285715D02*
X143374642Y-107428572D01*
X142517500Y-106785715D02*
X142446071Y-106928572D01*
X142446071Y-106928572D02*
X142446071Y-107285715D01*
X142446071Y-107285715D02*
X142517500Y-107428572D01*
X142517500Y-107428572D02*
X142660357Y-107500000D01*
X142660357Y-107500000D02*
X142803214Y-107500000D01*
X142803214Y-107500000D02*
X142946071Y-107428572D01*
X142946071Y-107428572D02*
X143017500Y-107285715D01*
X143017500Y-107285715D02*
X143017500Y-106928572D01*
X143017500Y-106928572D02*
X143088928Y-106785715D01*
X142517500Y-106142857D02*
X142446071Y-106000000D01*
X142446071Y-106000000D02*
X142446071Y-105714286D01*
X142446071Y-105714286D02*
X142517500Y-105571429D01*
X142517500Y-105571429D02*
X142660357Y-105500000D01*
X142660357Y-105500000D02*
X142731785Y-105500000D01*
X142731785Y-105500000D02*
X142874642Y-105571429D01*
X142874642Y-105571429D02*
X142946071Y-105714286D01*
X142946071Y-105714286D02*
X142946071Y-105928572D01*
X142946071Y-105928572D02*
X143017500Y-106071429D01*
X143017500Y-106071429D02*
X143160357Y-106142857D01*
X143160357Y-106142857D02*
X143231785Y-106142857D01*
X143231785Y-106142857D02*
X143374642Y-106071429D01*
X143374642Y-106071429D02*
X143446071Y-105928572D01*
X143446071Y-105928572D02*
X143446071Y-105714286D01*
X143446071Y-105714286D02*
X143374642Y-105571429D01*
X142517500Y-104928571D02*
X142446071Y-104785714D01*
X142446071Y-104785714D02*
X142446071Y-104500000D01*
X142446071Y-104500000D02*
X142517500Y-104357143D01*
X142517500Y-104357143D02*
X142660357Y-104285714D01*
X142660357Y-104285714D02*
X142731785Y-104285714D01*
X142731785Y-104285714D02*
X142874642Y-104357143D01*
X142874642Y-104357143D02*
X142946071Y-104500000D01*
X142946071Y-104500000D02*
X142946071Y-104714286D01*
X142946071Y-104714286D02*
X143017500Y-104857143D01*
X143017500Y-104857143D02*
X143160357Y-104928571D01*
X143160357Y-104928571D02*
X143231785Y-104928571D01*
X143231785Y-104928571D02*
X143374642Y-104857143D01*
X143374642Y-104857143D02*
X143446071Y-104714286D01*
X143446071Y-104714286D02*
X143446071Y-104500000D01*
X143446071Y-104500000D02*
X143374642Y-104357143D01*
X142303214Y-104000000D02*
X142303214Y-102857142D01*
X143946071Y-102214285D02*
X143946071Y-101928571D01*
X143946071Y-101928571D02*
X143874642Y-101785714D01*
X143874642Y-101785714D02*
X143731785Y-101642857D01*
X143731785Y-101642857D02*
X143446071Y-101571428D01*
X143446071Y-101571428D02*
X142946071Y-101571428D01*
X142946071Y-101571428D02*
X142660357Y-101642857D01*
X142660357Y-101642857D02*
X142517500Y-101785714D01*
X142517500Y-101785714D02*
X142446071Y-101928571D01*
X142446071Y-101928571D02*
X142446071Y-102214285D01*
X142446071Y-102214285D02*
X142517500Y-102357143D01*
X142517500Y-102357143D02*
X142660357Y-102500000D01*
X142660357Y-102500000D02*
X142946071Y-102571428D01*
X142946071Y-102571428D02*
X143446071Y-102571428D01*
X143446071Y-102571428D02*
X143731785Y-102500000D01*
X143731785Y-102500000D02*
X143874642Y-102357143D01*
X143874642Y-102357143D02*
X143946071Y-102214285D01*
X143946071Y-100928571D02*
X142731785Y-100928571D01*
X142731785Y-100928571D02*
X142588928Y-100857142D01*
X142588928Y-100857142D02*
X142517500Y-100785714D01*
X142517500Y-100785714D02*
X142446071Y-100642856D01*
X142446071Y-100642856D02*
X142446071Y-100357142D01*
X142446071Y-100357142D02*
X142517500Y-100214285D01*
X142517500Y-100214285D02*
X142588928Y-100142856D01*
X142588928Y-100142856D02*
X142731785Y-100071428D01*
X142731785Y-100071428D02*
X143946071Y-100071428D01*
X143946071Y-99571427D02*
X143946071Y-98714285D01*
X142446071Y-99142856D02*
X143946071Y-99142856D01*
X141516071Y-115857142D02*
X141516071Y-115000000D01*
X140016071Y-115428571D02*
X141516071Y-115428571D01*
X141516071Y-114642857D02*
X140016071Y-113642857D01*
X141516071Y-113642857D02*
X140016071Y-114642857D01*
X139873214Y-113428572D02*
X139873214Y-112285714D01*
X140016071Y-111071429D02*
X140730357Y-111571429D01*
X140016071Y-111928572D02*
X141516071Y-111928572D01*
X141516071Y-111928572D02*
X141516071Y-111357143D01*
X141516071Y-111357143D02*
X141444642Y-111214286D01*
X141444642Y-111214286D02*
X141373214Y-111142857D01*
X141373214Y-111142857D02*
X141230357Y-111071429D01*
X141230357Y-111071429D02*
X141016071Y-111071429D01*
X141016071Y-111071429D02*
X140873214Y-111142857D01*
X140873214Y-111142857D02*
X140801785Y-111214286D01*
X140801785Y-111214286D02*
X140730357Y-111357143D01*
X140730357Y-111357143D02*
X140730357Y-111928572D01*
X141516071Y-110571429D02*
X140016071Y-109571429D01*
X141516071Y-109571429D02*
X140016071Y-110571429D01*
X139873214Y-109357144D02*
X139873214Y-108214286D01*
X140016071Y-107000001D02*
X140730357Y-107500001D01*
X140016071Y-107857144D02*
X141516071Y-107857144D01*
X141516071Y-107857144D02*
X141516071Y-107285715D01*
X141516071Y-107285715D02*
X141444642Y-107142858D01*
X141444642Y-107142858D02*
X141373214Y-107071429D01*
X141373214Y-107071429D02*
X141230357Y-107000001D01*
X141230357Y-107000001D02*
X141016071Y-107000001D01*
X141016071Y-107000001D02*
X140873214Y-107071429D01*
X140873214Y-107071429D02*
X140801785Y-107142858D01*
X140801785Y-107142858D02*
X140730357Y-107285715D01*
X140730357Y-107285715D02*
X140730357Y-107857144D01*
X140016071Y-105642858D02*
X140016071Y-106357144D01*
X140016071Y-106357144D02*
X141516071Y-106357144D01*
X140730357Y-104857143D02*
X140016071Y-104857143D01*
X141516071Y-105357143D02*
X140730357Y-104857143D01*
X140730357Y-104857143D02*
X141516071Y-104357143D01*
X167642857Y-139594642D02*
X167500000Y-139666071D01*
X167500000Y-139666071D02*
X167285714Y-139666071D01*
X167285714Y-139666071D02*
X167071428Y-139594642D01*
X167071428Y-139594642D02*
X166928571Y-139451785D01*
X166928571Y-139451785D02*
X166857142Y-139308928D01*
X166857142Y-139308928D02*
X166785714Y-139023214D01*
X166785714Y-139023214D02*
X166785714Y-138808928D01*
X166785714Y-138808928D02*
X166857142Y-138523214D01*
X166857142Y-138523214D02*
X166928571Y-138380357D01*
X166928571Y-138380357D02*
X167071428Y-138237500D01*
X167071428Y-138237500D02*
X167285714Y-138166071D01*
X167285714Y-138166071D02*
X167428571Y-138166071D01*
X167428571Y-138166071D02*
X167642857Y-138237500D01*
X167642857Y-138237500D02*
X167714285Y-138308928D01*
X167714285Y-138308928D02*
X167714285Y-138808928D01*
X167714285Y-138808928D02*
X167428571Y-138808928D01*
X168357142Y-138166071D02*
X168357142Y-139666071D01*
X168357142Y-139666071D02*
X169214285Y-138166071D01*
X169214285Y-138166071D02*
X169214285Y-139666071D01*
X169928571Y-138166071D02*
X169928571Y-139666071D01*
X169928571Y-139666071D02*
X170285714Y-139666071D01*
X170285714Y-139666071D02*
X170500000Y-139594642D01*
X170500000Y-139594642D02*
X170642857Y-139451785D01*
X170642857Y-139451785D02*
X170714286Y-139308928D01*
X170714286Y-139308928D02*
X170785714Y-139023214D01*
X170785714Y-139023214D02*
X170785714Y-138808928D01*
X170785714Y-138808928D02*
X170714286Y-138523214D01*
X170714286Y-138523214D02*
X170642857Y-138380357D01*
X170642857Y-138380357D02*
X170500000Y-138237500D01*
X170500000Y-138237500D02*
X170285714Y-138166071D01*
X170285714Y-138166071D02*
X169928571Y-138166071D01*
X167357142Y-136521785D02*
X167571428Y-136450357D01*
X167571428Y-136450357D02*
X167642857Y-136378928D01*
X167642857Y-136378928D02*
X167714285Y-136236071D01*
X167714285Y-136236071D02*
X167714285Y-136021785D01*
X167714285Y-136021785D02*
X167642857Y-135878928D01*
X167642857Y-135878928D02*
X167571428Y-135807500D01*
X167571428Y-135807500D02*
X167428571Y-135736071D01*
X167428571Y-135736071D02*
X166857142Y-135736071D01*
X166857142Y-135736071D02*
X166857142Y-137236071D01*
X166857142Y-137236071D02*
X167357142Y-137236071D01*
X167357142Y-137236071D02*
X167500000Y-137164642D01*
X167500000Y-137164642D02*
X167571428Y-137093214D01*
X167571428Y-137093214D02*
X167642857Y-136950357D01*
X167642857Y-136950357D02*
X167642857Y-136807500D01*
X167642857Y-136807500D02*
X167571428Y-136664642D01*
X167571428Y-136664642D02*
X167500000Y-136593214D01*
X167500000Y-136593214D02*
X167357142Y-136521785D01*
X167357142Y-136521785D02*
X166857142Y-136521785D01*
X168214285Y-136736071D02*
X168571428Y-135736071D01*
X168928571Y-136736071D02*
X168571428Y-135736071D01*
X168571428Y-135736071D02*
X168428571Y-135378928D01*
X168428571Y-135378928D02*
X168357142Y-135307500D01*
X168357142Y-135307500D02*
X168214285Y-135236071D01*
X169499999Y-136307500D02*
X170642857Y-136307500D01*
X171357142Y-135736071D02*
X171357142Y-137236071D01*
X171357142Y-137236071D02*
X171928571Y-137236071D01*
X171928571Y-137236071D02*
X172071428Y-137164642D01*
X172071428Y-137164642D02*
X172142857Y-137093214D01*
X172142857Y-137093214D02*
X172214285Y-136950357D01*
X172214285Y-136950357D02*
X172214285Y-136736071D01*
X172214285Y-136736071D02*
X172142857Y-136593214D01*
X172142857Y-136593214D02*
X172071428Y-136521785D01*
X172071428Y-136521785D02*
X171928571Y-136450357D01*
X171928571Y-136450357D02*
X171357142Y-136450357D01*
X173500000Y-135736071D02*
X173500000Y-136521785D01*
X173500000Y-136521785D02*
X173428571Y-136664642D01*
X173428571Y-136664642D02*
X173285714Y-136736071D01*
X173285714Y-136736071D02*
X173000000Y-136736071D01*
X173000000Y-136736071D02*
X172857142Y-136664642D01*
X173500000Y-135807500D02*
X173357142Y-135736071D01*
X173357142Y-135736071D02*
X173000000Y-135736071D01*
X173000000Y-135736071D02*
X172857142Y-135807500D01*
X172857142Y-135807500D02*
X172785714Y-135950357D01*
X172785714Y-135950357D02*
X172785714Y-136093214D01*
X172785714Y-136093214D02*
X172857142Y-136236071D01*
X172857142Y-136236071D02*
X173000000Y-136307500D01*
X173000000Y-136307500D02*
X173357142Y-136307500D01*
X173357142Y-136307500D02*
X173500000Y-136378928D01*
X174142857Y-135807500D02*
X174285714Y-135736071D01*
X174285714Y-135736071D02*
X174571428Y-135736071D01*
X174571428Y-135736071D02*
X174714285Y-135807500D01*
X174714285Y-135807500D02*
X174785714Y-135950357D01*
X174785714Y-135950357D02*
X174785714Y-136021785D01*
X174785714Y-136021785D02*
X174714285Y-136164642D01*
X174714285Y-136164642D02*
X174571428Y-136236071D01*
X174571428Y-136236071D02*
X174357143Y-136236071D01*
X174357143Y-136236071D02*
X174214285Y-136307500D01*
X174214285Y-136307500D02*
X174142857Y-136450357D01*
X174142857Y-136450357D02*
X174142857Y-136521785D01*
X174142857Y-136521785D02*
X174214285Y-136664642D01*
X174214285Y-136664642D02*
X174357143Y-136736071D01*
X174357143Y-136736071D02*
X174571428Y-136736071D01*
X174571428Y-136736071D02*
X174714285Y-136664642D01*
X175357143Y-135807500D02*
X175500000Y-135736071D01*
X175500000Y-135736071D02*
X175785714Y-135736071D01*
X175785714Y-135736071D02*
X175928571Y-135807500D01*
X175928571Y-135807500D02*
X176000000Y-135950357D01*
X176000000Y-135950357D02*
X176000000Y-136021785D01*
X176000000Y-136021785D02*
X175928571Y-136164642D01*
X175928571Y-136164642D02*
X175785714Y-136236071D01*
X175785714Y-136236071D02*
X175571429Y-136236071D01*
X175571429Y-136236071D02*
X175428571Y-136307500D01*
X175428571Y-136307500D02*
X175357143Y-136450357D01*
X175357143Y-136450357D02*
X175357143Y-136521785D01*
X175357143Y-136521785D02*
X175428571Y-136664642D01*
X175428571Y-136664642D02*
X175571429Y-136736071D01*
X175571429Y-136736071D02*
X175785714Y-136736071D01*
X175785714Y-136736071D02*
X175928571Y-136664642D01*
X167500000Y-134806071D02*
X167214285Y-134806071D01*
X167214285Y-134806071D02*
X167071428Y-134734642D01*
X167071428Y-134734642D02*
X167000000Y-134663214D01*
X167000000Y-134663214D02*
X166857142Y-134448928D01*
X166857142Y-134448928D02*
X166785714Y-134163214D01*
X166785714Y-134163214D02*
X166785714Y-133591785D01*
X166785714Y-133591785D02*
X166857142Y-133448928D01*
X166857142Y-133448928D02*
X166928571Y-133377500D01*
X166928571Y-133377500D02*
X167071428Y-133306071D01*
X167071428Y-133306071D02*
X167357142Y-133306071D01*
X167357142Y-133306071D02*
X167500000Y-133377500D01*
X167500000Y-133377500D02*
X167571428Y-133448928D01*
X167571428Y-133448928D02*
X167642857Y-133591785D01*
X167642857Y-133591785D02*
X167642857Y-133948928D01*
X167642857Y-133948928D02*
X167571428Y-134091785D01*
X167571428Y-134091785D02*
X167500000Y-134163214D01*
X167500000Y-134163214D02*
X167357142Y-134234642D01*
X167357142Y-134234642D02*
X167071428Y-134234642D01*
X167071428Y-134234642D02*
X166928571Y-134163214D01*
X166928571Y-134163214D02*
X166857142Y-134091785D01*
X166857142Y-134091785D02*
X166785714Y-133948928D01*
X168285713Y-133306071D02*
X168285713Y-134306071D01*
X168285713Y-134163214D02*
X168357142Y-134234642D01*
X168357142Y-134234642D02*
X168499999Y-134306071D01*
X168499999Y-134306071D02*
X168714285Y-134306071D01*
X168714285Y-134306071D02*
X168857142Y-134234642D01*
X168857142Y-134234642D02*
X168928571Y-134091785D01*
X168928571Y-134091785D02*
X168928571Y-133306071D01*
X168928571Y-134091785D02*
X168999999Y-134234642D01*
X168999999Y-134234642D02*
X169142856Y-134306071D01*
X169142856Y-134306071D02*
X169357142Y-134306071D01*
X169357142Y-134306071D02*
X169499999Y-134234642D01*
X169499999Y-134234642D02*
X169571428Y-134091785D01*
X169571428Y-134091785D02*
X169571428Y-133306071D01*
X169928571Y-133163214D02*
X171071428Y-133163214D01*
X172142856Y-133306071D02*
X171428570Y-133306071D01*
X171428570Y-133306071D02*
X171428570Y-134806071D01*
X172642856Y-133306071D02*
X172642856Y-134806071D01*
X172642856Y-134806071D02*
X173499999Y-133306071D01*
X173499999Y-133306071D02*
X173499999Y-134806071D01*
X174142857Y-133734642D02*
X174857143Y-133734642D01*
X174000000Y-133306071D02*
X174500000Y-134806071D01*
X174500000Y-134806071D02*
X175000000Y-133306071D01*
X167500000Y-132376071D02*
X167214285Y-132376071D01*
X167214285Y-132376071D02*
X167071428Y-132304642D01*
X167071428Y-132304642D02*
X167000000Y-132233214D01*
X167000000Y-132233214D02*
X166857142Y-132018928D01*
X166857142Y-132018928D02*
X166785714Y-131733214D01*
X166785714Y-131733214D02*
X166785714Y-131161785D01*
X166785714Y-131161785D02*
X166857142Y-131018928D01*
X166857142Y-131018928D02*
X166928571Y-130947500D01*
X166928571Y-130947500D02*
X167071428Y-130876071D01*
X167071428Y-130876071D02*
X167357142Y-130876071D01*
X167357142Y-130876071D02*
X167500000Y-130947500D01*
X167500000Y-130947500D02*
X167571428Y-131018928D01*
X167571428Y-131018928D02*
X167642857Y-131161785D01*
X167642857Y-131161785D02*
X167642857Y-131518928D01*
X167642857Y-131518928D02*
X167571428Y-131661785D01*
X167571428Y-131661785D02*
X167500000Y-131733214D01*
X167500000Y-131733214D02*
X167357142Y-131804642D01*
X167357142Y-131804642D02*
X167071428Y-131804642D01*
X167071428Y-131804642D02*
X166928571Y-131733214D01*
X166928571Y-131733214D02*
X166857142Y-131661785D01*
X166857142Y-131661785D02*
X166785714Y-131518928D01*
X168285713Y-131018928D02*
X168357142Y-130947500D01*
X168357142Y-130947500D02*
X168285713Y-130876071D01*
X168285713Y-130876071D02*
X168214285Y-130947500D01*
X168214285Y-130947500D02*
X168285713Y-131018928D01*
X168285713Y-131018928D02*
X168285713Y-130876071D01*
X169714285Y-132376071D02*
X168999999Y-132376071D01*
X168999999Y-132376071D02*
X168928571Y-131661785D01*
X168928571Y-131661785D02*
X168999999Y-131733214D01*
X168999999Y-131733214D02*
X169142857Y-131804642D01*
X169142857Y-131804642D02*
X169499999Y-131804642D01*
X169499999Y-131804642D02*
X169642857Y-131733214D01*
X169642857Y-131733214D02*
X169714285Y-131661785D01*
X169714285Y-131661785D02*
X169785714Y-131518928D01*
X169785714Y-131518928D02*
X169785714Y-131161785D01*
X169785714Y-131161785D02*
X169714285Y-131018928D01*
X169714285Y-131018928D02*
X169642857Y-130947500D01*
X169642857Y-130947500D02*
X169499999Y-130876071D01*
X169499999Y-130876071D02*
X169142857Y-130876071D01*
X169142857Y-130876071D02*
X168999999Y-130947500D01*
X168999999Y-130947500D02*
X168928571Y-131018928D01*
X170071428Y-130733214D02*
X171214285Y-130733214D01*
X171571427Y-130876071D02*
X171571427Y-132376071D01*
X171571427Y-132376071D02*
X172071427Y-131304642D01*
X172071427Y-131304642D02*
X172571427Y-132376071D01*
X172571427Y-132376071D02*
X172571427Y-130876071D01*
X173285713Y-130876071D02*
X173285713Y-132376071D01*
X173285713Y-131661785D02*
X174142856Y-131661785D01*
X174142856Y-130876071D02*
X174142856Y-132376071D01*
X174714285Y-131876071D02*
X175500000Y-131876071D01*
X175500000Y-131876071D02*
X174714285Y-130876071D01*
X174714285Y-130876071D02*
X175500000Y-130876071D01*
X167642857Y-128446071D02*
X166785714Y-128446071D01*
X167214285Y-128446071D02*
X167214285Y-129946071D01*
X167214285Y-129946071D02*
X167071428Y-129731785D01*
X167071428Y-129731785D02*
X166928571Y-129588928D01*
X166928571Y-129588928D02*
X166785714Y-129517500D01*
X168142856Y-129946071D02*
X169071428Y-129946071D01*
X169071428Y-129946071D02*
X168571428Y-129374642D01*
X168571428Y-129374642D02*
X168785713Y-129374642D01*
X168785713Y-129374642D02*
X168928571Y-129303214D01*
X168928571Y-129303214D02*
X168999999Y-129231785D01*
X168999999Y-129231785D02*
X169071428Y-129088928D01*
X169071428Y-129088928D02*
X169071428Y-128731785D01*
X169071428Y-128731785D02*
X168999999Y-128588928D01*
X168999999Y-128588928D02*
X168928571Y-128517500D01*
X168928571Y-128517500D02*
X168785713Y-128446071D01*
X168785713Y-128446071D02*
X168357142Y-128446071D01*
X168357142Y-128446071D02*
X168214285Y-128517500D01*
X168214285Y-128517500D02*
X168142856Y-128588928D01*
X169357142Y-128303214D02*
X170499999Y-128303214D01*
X170857141Y-128446071D02*
X170857141Y-129946071D01*
X170857141Y-129946071D02*
X171357141Y-128874642D01*
X171357141Y-128874642D02*
X171857141Y-129946071D01*
X171857141Y-129946071D02*
X171857141Y-128446071D01*
X172571427Y-128446071D02*
X172571427Y-129946071D01*
X172571427Y-129231785D02*
X173428570Y-129231785D01*
X173428570Y-128446071D02*
X173428570Y-129946071D01*
X173999999Y-129446071D02*
X174785714Y-129446071D01*
X174785714Y-129446071D02*
X173999999Y-128446071D01*
X173999999Y-128446071D02*
X174785714Y-128446071D01*
X87857142Y-103903571D02*
X87357142Y-104617857D01*
X86999999Y-103903571D02*
X86999999Y-105403571D01*
X86999999Y-105403571D02*
X87571428Y-105403571D01*
X87571428Y-105403571D02*
X87714285Y-105332142D01*
X87714285Y-105332142D02*
X87785714Y-105260714D01*
X87785714Y-105260714D02*
X87857142Y-105117857D01*
X87857142Y-105117857D02*
X87857142Y-104903571D01*
X87857142Y-104903571D02*
X87785714Y-104760714D01*
X87785714Y-104760714D02*
X87714285Y-104689285D01*
X87714285Y-104689285D02*
X87571428Y-104617857D01*
X87571428Y-104617857D02*
X86999999Y-104617857D01*
X88499999Y-104689285D02*
X88999999Y-104689285D01*
X89214285Y-103903571D02*
X88499999Y-103903571D01*
X88499999Y-103903571D02*
X88499999Y-105403571D01*
X88499999Y-105403571D02*
X89214285Y-105403571D01*
X90357142Y-104689285D02*
X89857142Y-104689285D01*
X89857142Y-103903571D02*
X89857142Y-105403571D01*
X89857142Y-105403571D02*
X90571428Y-105403571D01*
X91857142Y-103903571D02*
X91142856Y-103903571D01*
X91142856Y-103903571D02*
X91142856Y-105403571D01*
X88357142Y-102259285D02*
X87857142Y-102259285D01*
X87857142Y-101473571D02*
X87857142Y-102973571D01*
X87857142Y-102973571D02*
X88571428Y-102973571D01*
X88999999Y-102973571D02*
X89357142Y-101473571D01*
X89357142Y-101473571D02*
X89642856Y-102545000D01*
X89642856Y-102545000D02*
X89928571Y-101473571D01*
X89928571Y-101473571D02*
X90285714Y-102973571D01*
X90857142Y-101473571D02*
X90857142Y-102973571D01*
X90857142Y-102973571D02*
X91214285Y-102973571D01*
X91214285Y-102973571D02*
X91428571Y-102902142D01*
X91428571Y-102902142D02*
X91571428Y-102759285D01*
X91571428Y-102759285D02*
X91642857Y-102616428D01*
X91642857Y-102616428D02*
X91714285Y-102330714D01*
X91714285Y-102330714D02*
X91714285Y-102116428D01*
X91714285Y-102116428D02*
X91642857Y-101830714D01*
X91642857Y-101830714D02*
X91571428Y-101687857D01*
X91571428Y-101687857D02*
X91428571Y-101545000D01*
X91428571Y-101545000D02*
X91214285Y-101473571D01*
X91214285Y-101473571D02*
X90857142Y-101473571D01*
X83857142Y-99043571D02*
X83357142Y-99757857D01*
X82999999Y-99043571D02*
X82999999Y-100543571D01*
X82999999Y-100543571D02*
X83571428Y-100543571D01*
X83571428Y-100543571D02*
X83714285Y-100472142D01*
X83714285Y-100472142D02*
X83785714Y-100400714D01*
X83785714Y-100400714D02*
X83857142Y-100257857D01*
X83857142Y-100257857D02*
X83857142Y-100043571D01*
X83857142Y-100043571D02*
X83785714Y-99900714D01*
X83785714Y-99900714D02*
X83714285Y-99829285D01*
X83714285Y-99829285D02*
X83571428Y-99757857D01*
X83571428Y-99757857D02*
X82999999Y-99757857D01*
X84357142Y-100543571D02*
X85357142Y-99043571D01*
X85357142Y-100543571D02*
X84357142Y-99043571D01*
X85571428Y-98900714D02*
X86714285Y-98900714D01*
X87785713Y-99043571D02*
X87071427Y-99043571D01*
X87071427Y-99043571D02*
X87071427Y-100543571D01*
X88499999Y-99043571D02*
X88357142Y-99115000D01*
X88357142Y-99115000D02*
X88285713Y-99186428D01*
X88285713Y-99186428D02*
X88214285Y-99329285D01*
X88214285Y-99329285D02*
X88214285Y-99757857D01*
X88214285Y-99757857D02*
X88285713Y-99900714D01*
X88285713Y-99900714D02*
X88357142Y-99972142D01*
X88357142Y-99972142D02*
X88499999Y-100043571D01*
X88499999Y-100043571D02*
X88714285Y-100043571D01*
X88714285Y-100043571D02*
X88857142Y-99972142D01*
X88857142Y-99972142D02*
X88928571Y-99900714D01*
X88928571Y-99900714D02*
X88999999Y-99757857D01*
X88999999Y-99757857D02*
X88999999Y-99329285D01*
X88999999Y-99329285D02*
X88928571Y-99186428D01*
X88928571Y-99186428D02*
X88857142Y-99115000D01*
X88857142Y-99115000D02*
X88714285Y-99043571D01*
X88714285Y-99043571D02*
X88499999Y-99043571D01*
X90285714Y-99043571D02*
X90285714Y-99829285D01*
X90285714Y-99829285D02*
X90214285Y-99972142D01*
X90214285Y-99972142D02*
X90071428Y-100043571D01*
X90071428Y-100043571D02*
X89785714Y-100043571D01*
X89785714Y-100043571D02*
X89642856Y-99972142D01*
X90285714Y-99115000D02*
X90142856Y-99043571D01*
X90142856Y-99043571D02*
X89785714Y-99043571D01*
X89785714Y-99043571D02*
X89642856Y-99115000D01*
X89642856Y-99115000D02*
X89571428Y-99257857D01*
X89571428Y-99257857D02*
X89571428Y-99400714D01*
X89571428Y-99400714D02*
X89642856Y-99543571D01*
X89642856Y-99543571D02*
X89785714Y-99615000D01*
X89785714Y-99615000D02*
X90142856Y-99615000D01*
X90142856Y-99615000D02*
X90285714Y-99686428D01*
X91642857Y-99043571D02*
X91642857Y-100543571D01*
X91642857Y-99115000D02*
X91499999Y-99043571D01*
X91499999Y-99043571D02*
X91214285Y-99043571D01*
X91214285Y-99043571D02*
X91071428Y-99115000D01*
X91071428Y-99115000D02*
X90999999Y-99186428D01*
X90999999Y-99186428D02*
X90928571Y-99329285D01*
X90928571Y-99329285D02*
X90928571Y-99757857D01*
X90928571Y-99757857D02*
X90999999Y-99900714D01*
X90999999Y-99900714D02*
X91071428Y-99972142D01*
X91071428Y-99972142D02*
X91214285Y-100043571D01*
X91214285Y-100043571D02*
X91499999Y-100043571D01*
X91499999Y-100043571D02*
X91642857Y-99972142D01*
X87285713Y-96613571D02*
X87285713Y-98113571D01*
X87285713Y-98113571D02*
X87642856Y-98113571D01*
X87642856Y-98113571D02*
X87857142Y-98042142D01*
X87857142Y-98042142D02*
X87999999Y-97899285D01*
X87999999Y-97899285D02*
X88071428Y-97756428D01*
X88071428Y-97756428D02*
X88142856Y-97470714D01*
X88142856Y-97470714D02*
X88142856Y-97256428D01*
X88142856Y-97256428D02*
X88071428Y-96970714D01*
X88071428Y-96970714D02*
X87999999Y-96827857D01*
X87999999Y-96827857D02*
X87857142Y-96685000D01*
X87857142Y-96685000D02*
X87642856Y-96613571D01*
X87642856Y-96613571D02*
X87285713Y-96613571D01*
X89428571Y-96613571D02*
X89428571Y-97399285D01*
X89428571Y-97399285D02*
X89357142Y-97542142D01*
X89357142Y-97542142D02*
X89214285Y-97613571D01*
X89214285Y-97613571D02*
X88928571Y-97613571D01*
X88928571Y-97613571D02*
X88785713Y-97542142D01*
X89428571Y-96685000D02*
X89285713Y-96613571D01*
X89285713Y-96613571D02*
X88928571Y-96613571D01*
X88928571Y-96613571D02*
X88785713Y-96685000D01*
X88785713Y-96685000D02*
X88714285Y-96827857D01*
X88714285Y-96827857D02*
X88714285Y-96970714D01*
X88714285Y-96970714D02*
X88785713Y-97113571D01*
X88785713Y-97113571D02*
X88928571Y-97185000D01*
X88928571Y-97185000D02*
X89285713Y-97185000D01*
X89285713Y-97185000D02*
X89428571Y-97256428D01*
X89928571Y-97613571D02*
X90499999Y-97613571D01*
X90142856Y-98113571D02*
X90142856Y-96827857D01*
X90142856Y-96827857D02*
X90214285Y-96685000D01*
X90214285Y-96685000D02*
X90357142Y-96613571D01*
X90357142Y-96613571D02*
X90499999Y-96613571D01*
X91642857Y-96613571D02*
X91642857Y-97399285D01*
X91642857Y-97399285D02*
X91571428Y-97542142D01*
X91571428Y-97542142D02*
X91428571Y-97613571D01*
X91428571Y-97613571D02*
X91142857Y-97613571D01*
X91142857Y-97613571D02*
X90999999Y-97542142D01*
X91642857Y-96685000D02*
X91499999Y-96613571D01*
X91499999Y-96613571D02*
X91142857Y-96613571D01*
X91142857Y-96613571D02*
X90999999Y-96685000D01*
X90999999Y-96685000D02*
X90928571Y-96827857D01*
X90928571Y-96827857D02*
X90928571Y-96970714D01*
X90928571Y-96970714D02*
X90999999Y-97113571D01*
X90999999Y-97113571D02*
X91142857Y-97185000D01*
X91142857Y-97185000D02*
X91499999Y-97185000D01*
X91499999Y-97185000D02*
X91642857Y-97256428D01*
X88571428Y-95612142D02*
X88428571Y-95683571D01*
X88428571Y-95683571D02*
X88214285Y-95683571D01*
X88214285Y-95683571D02*
X87999999Y-95612142D01*
X87999999Y-95612142D02*
X87857142Y-95469285D01*
X87857142Y-95469285D02*
X87785713Y-95326428D01*
X87785713Y-95326428D02*
X87714285Y-95040714D01*
X87714285Y-95040714D02*
X87714285Y-94826428D01*
X87714285Y-94826428D02*
X87785713Y-94540714D01*
X87785713Y-94540714D02*
X87857142Y-94397857D01*
X87857142Y-94397857D02*
X87999999Y-94255000D01*
X87999999Y-94255000D02*
X88214285Y-94183571D01*
X88214285Y-94183571D02*
X88357142Y-94183571D01*
X88357142Y-94183571D02*
X88571428Y-94255000D01*
X88571428Y-94255000D02*
X88642856Y-94326428D01*
X88642856Y-94326428D02*
X88642856Y-94826428D01*
X88642856Y-94826428D02*
X88357142Y-94826428D01*
X89285713Y-94183571D02*
X89285713Y-95683571D01*
X89285713Y-95683571D02*
X90142856Y-94183571D01*
X90142856Y-94183571D02*
X90142856Y-95683571D01*
X90857142Y-94183571D02*
X90857142Y-95683571D01*
X90857142Y-95683571D02*
X91214285Y-95683571D01*
X91214285Y-95683571D02*
X91428571Y-95612142D01*
X91428571Y-95612142D02*
X91571428Y-95469285D01*
X91571428Y-95469285D02*
X91642857Y-95326428D01*
X91642857Y-95326428D02*
X91714285Y-95040714D01*
X91714285Y-95040714D02*
X91714285Y-94826428D01*
X91714285Y-94826428D02*
X91642857Y-94540714D01*
X91642857Y-94540714D02*
X91571428Y-94397857D01*
X91571428Y-94397857D02*
X91428571Y-94255000D01*
X91428571Y-94255000D02*
X91214285Y-94183571D01*
X91214285Y-94183571D02*
X90857142Y-94183571D01*
X153237500Y-88642857D02*
X153237500Y-87500000D01*
X152666071Y-88071428D02*
X153808928Y-88071428D01*
X152666071Y-85999999D02*
X152666071Y-86857142D01*
X152666071Y-86428571D02*
X154166071Y-86428571D01*
X154166071Y-86428571D02*
X153951785Y-86571428D01*
X153951785Y-86571428D02*
X153808928Y-86714285D01*
X153808928Y-86714285D02*
X153737500Y-86857142D01*
X154023214Y-85428571D02*
X154094642Y-85357143D01*
X154094642Y-85357143D02*
X154166071Y-85214286D01*
X154166071Y-85214286D02*
X154166071Y-84857143D01*
X154166071Y-84857143D02*
X154094642Y-84714286D01*
X154094642Y-84714286D02*
X154023214Y-84642857D01*
X154023214Y-84642857D02*
X153880357Y-84571428D01*
X153880357Y-84571428D02*
X153737500Y-84571428D01*
X153737500Y-84571428D02*
X153523214Y-84642857D01*
X153523214Y-84642857D02*
X152666071Y-85500000D01*
X152666071Y-85500000D02*
X152666071Y-84571428D01*
X154166071Y-84142857D02*
X152666071Y-83642857D01*
X152666071Y-83642857D02*
X154166071Y-83142857D01*
X151664642Y-87857142D02*
X151736071Y-88000000D01*
X151736071Y-88000000D02*
X151736071Y-88214285D01*
X151736071Y-88214285D02*
X151664642Y-88428571D01*
X151664642Y-88428571D02*
X151521785Y-88571428D01*
X151521785Y-88571428D02*
X151378928Y-88642857D01*
X151378928Y-88642857D02*
X151093214Y-88714285D01*
X151093214Y-88714285D02*
X150878928Y-88714285D01*
X150878928Y-88714285D02*
X150593214Y-88642857D01*
X150593214Y-88642857D02*
X150450357Y-88571428D01*
X150450357Y-88571428D02*
X150307500Y-88428571D01*
X150307500Y-88428571D02*
X150236071Y-88214285D01*
X150236071Y-88214285D02*
X150236071Y-88071428D01*
X150236071Y-88071428D02*
X150307500Y-87857142D01*
X150307500Y-87857142D02*
X150378928Y-87785714D01*
X150378928Y-87785714D02*
X150878928Y-87785714D01*
X150878928Y-87785714D02*
X150878928Y-88071428D01*
X151236071Y-87142857D02*
X150236071Y-87142857D01*
X151093214Y-87142857D02*
X151164642Y-87071428D01*
X151164642Y-87071428D02*
X151236071Y-86928571D01*
X151236071Y-86928571D02*
X151236071Y-86714285D01*
X151236071Y-86714285D02*
X151164642Y-86571428D01*
X151164642Y-86571428D02*
X151021785Y-86500000D01*
X151021785Y-86500000D02*
X150236071Y-86500000D01*
X150236071Y-85142857D02*
X151736071Y-85142857D01*
X150307500Y-85142857D02*
X150236071Y-85285714D01*
X150236071Y-85285714D02*
X150236071Y-85571428D01*
X150236071Y-85571428D02*
X150307500Y-85714285D01*
X150307500Y-85714285D02*
X150378928Y-85785714D01*
X150378928Y-85785714D02*
X150521785Y-85857142D01*
X150521785Y-85857142D02*
X150950357Y-85857142D01*
X150950357Y-85857142D02*
X151093214Y-85785714D01*
X151093214Y-85785714D02*
X151164642Y-85714285D01*
X151164642Y-85714285D02*
X151236071Y-85571428D01*
X151236071Y-85571428D02*
X151236071Y-85285714D01*
X151236071Y-85285714D02*
X151164642Y-85142857D01*
X148234642Y-88714285D02*
X148234642Y-88000000D01*
X147806071Y-88857142D02*
X149306071Y-88357142D01*
X149306071Y-88357142D02*
X147806071Y-87857142D01*
X148806071Y-87357143D02*
X147806071Y-87357143D01*
X148663214Y-87357143D02*
X148734642Y-87285714D01*
X148734642Y-87285714D02*
X148806071Y-87142857D01*
X148806071Y-87142857D02*
X148806071Y-86928571D01*
X148806071Y-86928571D02*
X148734642Y-86785714D01*
X148734642Y-86785714D02*
X148591785Y-86714286D01*
X148591785Y-86714286D02*
X147806071Y-86714286D01*
X148806071Y-86214285D02*
X148806071Y-85642857D01*
X149306071Y-86000000D02*
X148020357Y-86000000D01*
X148020357Y-86000000D02*
X147877500Y-85928571D01*
X147877500Y-85928571D02*
X147806071Y-85785714D01*
X147806071Y-85785714D02*
X147806071Y-85642857D01*
X147663214Y-85500000D02*
X147663214Y-84357142D01*
X147806071Y-83214285D02*
X147806071Y-84071428D01*
X147806071Y-83642857D02*
X149306071Y-83642857D01*
X149306071Y-83642857D02*
X149091785Y-83785714D01*
X149091785Y-83785714D02*
X148948928Y-83928571D01*
X148948928Y-83928571D02*
X148877500Y-84071428D01*
X145804642Y-88714285D02*
X145804642Y-88000000D01*
X145376071Y-88857142D02*
X146876071Y-88357142D01*
X146876071Y-88357142D02*
X145376071Y-87857142D01*
X146376071Y-87357143D02*
X145376071Y-87357143D01*
X146233214Y-87357143D02*
X146304642Y-87285714D01*
X146304642Y-87285714D02*
X146376071Y-87142857D01*
X146376071Y-87142857D02*
X146376071Y-86928571D01*
X146376071Y-86928571D02*
X146304642Y-86785714D01*
X146304642Y-86785714D02*
X146161785Y-86714286D01*
X146161785Y-86714286D02*
X145376071Y-86714286D01*
X146376071Y-86214285D02*
X146376071Y-85642857D01*
X146876071Y-86000000D02*
X145590357Y-86000000D01*
X145590357Y-86000000D02*
X145447500Y-85928571D01*
X145447500Y-85928571D02*
X145376071Y-85785714D01*
X145376071Y-85785714D02*
X145376071Y-85642857D01*
X145233214Y-85500000D02*
X145233214Y-84357142D01*
X146733214Y-84071428D02*
X146804642Y-84000000D01*
X146804642Y-84000000D02*
X146876071Y-83857143D01*
X146876071Y-83857143D02*
X146876071Y-83500000D01*
X146876071Y-83500000D02*
X146804642Y-83357143D01*
X146804642Y-83357143D02*
X146733214Y-83285714D01*
X146733214Y-83285714D02*
X146590357Y-83214285D01*
X146590357Y-83214285D02*
X146447500Y-83214285D01*
X146447500Y-83214285D02*
X146233214Y-83285714D01*
X146233214Y-83285714D02*
X145376071Y-84142857D01*
X145376071Y-84142857D02*
X145376071Y-83214285D01*
X143374642Y-88714285D02*
X143374642Y-88000000D01*
X142946071Y-88857142D02*
X144446071Y-88357142D01*
X144446071Y-88357142D02*
X142946071Y-87857142D01*
X143946071Y-87357143D02*
X142946071Y-87357143D01*
X143803214Y-87357143D02*
X143874642Y-87285714D01*
X143874642Y-87285714D02*
X143946071Y-87142857D01*
X143946071Y-87142857D02*
X143946071Y-86928571D01*
X143946071Y-86928571D02*
X143874642Y-86785714D01*
X143874642Y-86785714D02*
X143731785Y-86714286D01*
X143731785Y-86714286D02*
X142946071Y-86714286D01*
X143946071Y-86214285D02*
X143946071Y-85642857D01*
X144446071Y-86000000D02*
X143160357Y-86000000D01*
X143160357Y-86000000D02*
X143017500Y-85928571D01*
X143017500Y-85928571D02*
X142946071Y-85785714D01*
X142946071Y-85785714D02*
X142946071Y-85642857D01*
X142803214Y-85500000D02*
X142803214Y-84357142D01*
X144446071Y-84142857D02*
X144446071Y-83214285D01*
X144446071Y-83214285D02*
X143874642Y-83714285D01*
X143874642Y-83714285D02*
X143874642Y-83500000D01*
X143874642Y-83500000D02*
X143803214Y-83357143D01*
X143803214Y-83357143D02*
X143731785Y-83285714D01*
X143731785Y-83285714D02*
X143588928Y-83214285D01*
X143588928Y-83214285D02*
X143231785Y-83214285D01*
X143231785Y-83214285D02*
X143088928Y-83285714D01*
X143088928Y-83285714D02*
X143017500Y-83357143D01*
X143017500Y-83357143D02*
X142946071Y-83500000D01*
X142946071Y-83500000D02*
X142946071Y-83928571D01*
X142946071Y-83928571D02*
X143017500Y-84071428D01*
X143017500Y-84071428D02*
X143088928Y-84142857D01*
X168142857Y-115594642D02*
X168000000Y-115666071D01*
X168000000Y-115666071D02*
X167785714Y-115666071D01*
X167785714Y-115666071D02*
X167571428Y-115594642D01*
X167571428Y-115594642D02*
X167428571Y-115451785D01*
X167428571Y-115451785D02*
X167357142Y-115308928D01*
X167357142Y-115308928D02*
X167285714Y-115023214D01*
X167285714Y-115023214D02*
X167285714Y-114808928D01*
X167285714Y-114808928D02*
X167357142Y-114523214D01*
X167357142Y-114523214D02*
X167428571Y-114380357D01*
X167428571Y-114380357D02*
X167571428Y-114237500D01*
X167571428Y-114237500D02*
X167785714Y-114166071D01*
X167785714Y-114166071D02*
X167928571Y-114166071D01*
X167928571Y-114166071D02*
X168142857Y-114237500D01*
X168142857Y-114237500D02*
X168214285Y-114308928D01*
X168214285Y-114308928D02*
X168214285Y-114808928D01*
X168214285Y-114808928D02*
X167928571Y-114808928D01*
X168857142Y-114166071D02*
X168857142Y-115666071D01*
X168857142Y-115666071D02*
X169714285Y-114166071D01*
X169714285Y-114166071D02*
X169714285Y-115666071D01*
X170428571Y-114166071D02*
X170428571Y-115666071D01*
X170428571Y-115666071D02*
X170785714Y-115666071D01*
X170785714Y-115666071D02*
X171000000Y-115594642D01*
X171000000Y-115594642D02*
X171142857Y-115451785D01*
X171142857Y-115451785D02*
X171214286Y-115308928D01*
X171214286Y-115308928D02*
X171285714Y-115023214D01*
X171285714Y-115023214D02*
X171285714Y-114808928D01*
X171285714Y-114808928D02*
X171214286Y-114523214D01*
X171214286Y-114523214D02*
X171142857Y-114380357D01*
X171142857Y-114380357D02*
X171000000Y-114237500D01*
X171000000Y-114237500D02*
X170785714Y-114166071D01*
X170785714Y-114166071D02*
X170428571Y-114166071D01*
X167857142Y-112521785D02*
X168071428Y-112450357D01*
X168071428Y-112450357D02*
X168142857Y-112378928D01*
X168142857Y-112378928D02*
X168214285Y-112236071D01*
X168214285Y-112236071D02*
X168214285Y-112021785D01*
X168214285Y-112021785D02*
X168142857Y-111878928D01*
X168142857Y-111878928D02*
X168071428Y-111807500D01*
X168071428Y-111807500D02*
X167928571Y-111736071D01*
X167928571Y-111736071D02*
X167357142Y-111736071D01*
X167357142Y-111736071D02*
X167357142Y-113236071D01*
X167357142Y-113236071D02*
X167857142Y-113236071D01*
X167857142Y-113236071D02*
X168000000Y-113164642D01*
X168000000Y-113164642D02*
X168071428Y-113093214D01*
X168071428Y-113093214D02*
X168142857Y-112950357D01*
X168142857Y-112950357D02*
X168142857Y-112807500D01*
X168142857Y-112807500D02*
X168071428Y-112664642D01*
X168071428Y-112664642D02*
X168000000Y-112593214D01*
X168000000Y-112593214D02*
X167857142Y-112521785D01*
X167857142Y-112521785D02*
X167357142Y-112521785D01*
X168714285Y-112736071D02*
X169071428Y-111736071D01*
X169428571Y-112736071D02*
X169071428Y-111736071D01*
X169071428Y-111736071D02*
X168928571Y-111378928D01*
X168928571Y-111378928D02*
X168857142Y-111307500D01*
X168857142Y-111307500D02*
X168714285Y-111236071D01*
X169999999Y-112307500D02*
X171142857Y-112307500D01*
X171857142Y-111736071D02*
X171857142Y-113236071D01*
X171857142Y-113236071D02*
X172428571Y-113236071D01*
X172428571Y-113236071D02*
X172571428Y-113164642D01*
X172571428Y-113164642D02*
X172642857Y-113093214D01*
X172642857Y-113093214D02*
X172714285Y-112950357D01*
X172714285Y-112950357D02*
X172714285Y-112736071D01*
X172714285Y-112736071D02*
X172642857Y-112593214D01*
X172642857Y-112593214D02*
X172571428Y-112521785D01*
X172571428Y-112521785D02*
X172428571Y-112450357D01*
X172428571Y-112450357D02*
X171857142Y-112450357D01*
X174000000Y-111736071D02*
X174000000Y-112521785D01*
X174000000Y-112521785D02*
X173928571Y-112664642D01*
X173928571Y-112664642D02*
X173785714Y-112736071D01*
X173785714Y-112736071D02*
X173500000Y-112736071D01*
X173500000Y-112736071D02*
X173357142Y-112664642D01*
X174000000Y-111807500D02*
X173857142Y-111736071D01*
X173857142Y-111736071D02*
X173500000Y-111736071D01*
X173500000Y-111736071D02*
X173357142Y-111807500D01*
X173357142Y-111807500D02*
X173285714Y-111950357D01*
X173285714Y-111950357D02*
X173285714Y-112093214D01*
X173285714Y-112093214D02*
X173357142Y-112236071D01*
X173357142Y-112236071D02*
X173500000Y-112307500D01*
X173500000Y-112307500D02*
X173857142Y-112307500D01*
X173857142Y-112307500D02*
X174000000Y-112378928D01*
X174642857Y-111807500D02*
X174785714Y-111736071D01*
X174785714Y-111736071D02*
X175071428Y-111736071D01*
X175071428Y-111736071D02*
X175214285Y-111807500D01*
X175214285Y-111807500D02*
X175285714Y-111950357D01*
X175285714Y-111950357D02*
X175285714Y-112021785D01*
X175285714Y-112021785D02*
X175214285Y-112164642D01*
X175214285Y-112164642D02*
X175071428Y-112236071D01*
X175071428Y-112236071D02*
X174857143Y-112236071D01*
X174857143Y-112236071D02*
X174714285Y-112307500D01*
X174714285Y-112307500D02*
X174642857Y-112450357D01*
X174642857Y-112450357D02*
X174642857Y-112521785D01*
X174642857Y-112521785D02*
X174714285Y-112664642D01*
X174714285Y-112664642D02*
X174857143Y-112736071D01*
X174857143Y-112736071D02*
X175071428Y-112736071D01*
X175071428Y-112736071D02*
X175214285Y-112664642D01*
X175857143Y-111807500D02*
X176000000Y-111736071D01*
X176000000Y-111736071D02*
X176285714Y-111736071D01*
X176285714Y-111736071D02*
X176428571Y-111807500D01*
X176428571Y-111807500D02*
X176500000Y-111950357D01*
X176500000Y-111950357D02*
X176500000Y-112021785D01*
X176500000Y-112021785D02*
X176428571Y-112164642D01*
X176428571Y-112164642D02*
X176285714Y-112236071D01*
X176285714Y-112236071D02*
X176071429Y-112236071D01*
X176071429Y-112236071D02*
X175928571Y-112307500D01*
X175928571Y-112307500D02*
X175857143Y-112450357D01*
X175857143Y-112450357D02*
X175857143Y-112521785D01*
X175857143Y-112521785D02*
X175928571Y-112664642D01*
X175928571Y-112664642D02*
X176071429Y-112736071D01*
X176071429Y-112736071D02*
X176285714Y-112736071D01*
X176285714Y-112736071D02*
X176428571Y-112664642D01*
X168000000Y-110806071D02*
X167714285Y-110806071D01*
X167714285Y-110806071D02*
X167571428Y-110734642D01*
X167571428Y-110734642D02*
X167500000Y-110663214D01*
X167500000Y-110663214D02*
X167357142Y-110448928D01*
X167357142Y-110448928D02*
X167285714Y-110163214D01*
X167285714Y-110163214D02*
X167285714Y-109591785D01*
X167285714Y-109591785D02*
X167357142Y-109448928D01*
X167357142Y-109448928D02*
X167428571Y-109377500D01*
X167428571Y-109377500D02*
X167571428Y-109306071D01*
X167571428Y-109306071D02*
X167857142Y-109306071D01*
X167857142Y-109306071D02*
X168000000Y-109377500D01*
X168000000Y-109377500D02*
X168071428Y-109448928D01*
X168071428Y-109448928D02*
X168142857Y-109591785D01*
X168142857Y-109591785D02*
X168142857Y-109948928D01*
X168142857Y-109948928D02*
X168071428Y-110091785D01*
X168071428Y-110091785D02*
X168000000Y-110163214D01*
X168000000Y-110163214D02*
X167857142Y-110234642D01*
X167857142Y-110234642D02*
X167571428Y-110234642D01*
X167571428Y-110234642D02*
X167428571Y-110163214D01*
X167428571Y-110163214D02*
X167357142Y-110091785D01*
X167357142Y-110091785D02*
X167285714Y-109948928D01*
X168785713Y-109306071D02*
X168785713Y-110306071D01*
X168785713Y-110163214D02*
X168857142Y-110234642D01*
X168857142Y-110234642D02*
X168999999Y-110306071D01*
X168999999Y-110306071D02*
X169214285Y-110306071D01*
X169214285Y-110306071D02*
X169357142Y-110234642D01*
X169357142Y-110234642D02*
X169428571Y-110091785D01*
X169428571Y-110091785D02*
X169428571Y-109306071D01*
X169428571Y-110091785D02*
X169499999Y-110234642D01*
X169499999Y-110234642D02*
X169642856Y-110306071D01*
X169642856Y-110306071D02*
X169857142Y-110306071D01*
X169857142Y-110306071D02*
X169999999Y-110234642D01*
X169999999Y-110234642D02*
X170071428Y-110091785D01*
X170071428Y-110091785D02*
X170071428Y-109306071D01*
X170428571Y-109163214D02*
X171571428Y-109163214D01*
X172642856Y-109306071D02*
X171928570Y-109306071D01*
X171928570Y-109306071D02*
X171928570Y-110806071D01*
X173142856Y-109306071D02*
X173142856Y-110806071D01*
X173142856Y-110806071D02*
X173999999Y-109306071D01*
X173999999Y-109306071D02*
X173999999Y-110806071D01*
X174642857Y-109734642D02*
X175357143Y-109734642D01*
X174500000Y-109306071D02*
X175000000Y-110806071D01*
X175000000Y-110806071D02*
X175500000Y-109306071D01*
X168000000Y-108376071D02*
X167714285Y-108376071D01*
X167714285Y-108376071D02*
X167571428Y-108304642D01*
X167571428Y-108304642D02*
X167500000Y-108233214D01*
X167500000Y-108233214D02*
X167357142Y-108018928D01*
X167357142Y-108018928D02*
X167285714Y-107733214D01*
X167285714Y-107733214D02*
X167285714Y-107161785D01*
X167285714Y-107161785D02*
X167357142Y-107018928D01*
X167357142Y-107018928D02*
X167428571Y-106947500D01*
X167428571Y-106947500D02*
X167571428Y-106876071D01*
X167571428Y-106876071D02*
X167857142Y-106876071D01*
X167857142Y-106876071D02*
X168000000Y-106947500D01*
X168000000Y-106947500D02*
X168071428Y-107018928D01*
X168071428Y-107018928D02*
X168142857Y-107161785D01*
X168142857Y-107161785D02*
X168142857Y-107518928D01*
X168142857Y-107518928D02*
X168071428Y-107661785D01*
X168071428Y-107661785D02*
X168000000Y-107733214D01*
X168000000Y-107733214D02*
X167857142Y-107804642D01*
X167857142Y-107804642D02*
X167571428Y-107804642D01*
X167571428Y-107804642D02*
X167428571Y-107733214D01*
X167428571Y-107733214D02*
X167357142Y-107661785D01*
X167357142Y-107661785D02*
X167285714Y-107518928D01*
X168785713Y-107018928D02*
X168857142Y-106947500D01*
X168857142Y-106947500D02*
X168785713Y-106876071D01*
X168785713Y-106876071D02*
X168714285Y-106947500D01*
X168714285Y-106947500D02*
X168785713Y-107018928D01*
X168785713Y-107018928D02*
X168785713Y-106876071D01*
X170214285Y-108376071D02*
X169499999Y-108376071D01*
X169499999Y-108376071D02*
X169428571Y-107661785D01*
X169428571Y-107661785D02*
X169499999Y-107733214D01*
X169499999Y-107733214D02*
X169642857Y-107804642D01*
X169642857Y-107804642D02*
X169999999Y-107804642D01*
X169999999Y-107804642D02*
X170142857Y-107733214D01*
X170142857Y-107733214D02*
X170214285Y-107661785D01*
X170214285Y-107661785D02*
X170285714Y-107518928D01*
X170285714Y-107518928D02*
X170285714Y-107161785D01*
X170285714Y-107161785D02*
X170214285Y-107018928D01*
X170214285Y-107018928D02*
X170142857Y-106947500D01*
X170142857Y-106947500D02*
X169999999Y-106876071D01*
X169999999Y-106876071D02*
X169642857Y-106876071D01*
X169642857Y-106876071D02*
X169499999Y-106947500D01*
X169499999Y-106947500D02*
X169428571Y-107018928D01*
X170571428Y-106733214D02*
X171714285Y-106733214D01*
X172071427Y-106876071D02*
X172071427Y-108376071D01*
X172071427Y-108376071D02*
X172571427Y-107304642D01*
X172571427Y-107304642D02*
X173071427Y-108376071D01*
X173071427Y-108376071D02*
X173071427Y-106876071D01*
X173785713Y-106876071D02*
X173785713Y-108376071D01*
X173785713Y-107661785D02*
X174642856Y-107661785D01*
X174642856Y-106876071D02*
X174642856Y-108376071D01*
X175214285Y-107876071D02*
X176000000Y-107876071D01*
X176000000Y-107876071D02*
X175214285Y-106876071D01*
X175214285Y-106876071D02*
X176000000Y-106876071D01*
X168142857Y-104446071D02*
X167285714Y-104446071D01*
X167714285Y-104446071D02*
X167714285Y-105946071D01*
X167714285Y-105946071D02*
X167571428Y-105731785D01*
X167571428Y-105731785D02*
X167428571Y-105588928D01*
X167428571Y-105588928D02*
X167285714Y-105517500D01*
X168642856Y-105946071D02*
X169571428Y-105946071D01*
X169571428Y-105946071D02*
X169071428Y-105374642D01*
X169071428Y-105374642D02*
X169285713Y-105374642D01*
X169285713Y-105374642D02*
X169428571Y-105303214D01*
X169428571Y-105303214D02*
X169499999Y-105231785D01*
X169499999Y-105231785D02*
X169571428Y-105088928D01*
X169571428Y-105088928D02*
X169571428Y-104731785D01*
X169571428Y-104731785D02*
X169499999Y-104588928D01*
X169499999Y-104588928D02*
X169428571Y-104517500D01*
X169428571Y-104517500D02*
X169285713Y-104446071D01*
X169285713Y-104446071D02*
X168857142Y-104446071D01*
X168857142Y-104446071D02*
X168714285Y-104517500D01*
X168714285Y-104517500D02*
X168642856Y-104588928D01*
X169857142Y-104303214D02*
X170999999Y-104303214D01*
X171357141Y-104446071D02*
X171357141Y-105946071D01*
X171357141Y-105946071D02*
X171857141Y-104874642D01*
X171857141Y-104874642D02*
X172357141Y-105946071D01*
X172357141Y-105946071D02*
X172357141Y-104446071D01*
X173071427Y-104446071D02*
X173071427Y-105946071D01*
X173071427Y-105231785D02*
X173928570Y-105231785D01*
X173928570Y-104446071D02*
X173928570Y-105946071D01*
X174499999Y-105446071D02*
X175285714Y-105446071D01*
X175285714Y-105446071D02*
X174499999Y-104446071D01*
X174499999Y-104446071D02*
X175285714Y-104446071D01*
X165642857Y-96402142D02*
X165500000Y-96473571D01*
X165500000Y-96473571D02*
X165285714Y-96473571D01*
X165285714Y-96473571D02*
X165071428Y-96402142D01*
X165071428Y-96402142D02*
X164928571Y-96259285D01*
X164928571Y-96259285D02*
X164857142Y-96116428D01*
X164857142Y-96116428D02*
X164785714Y-95830714D01*
X164785714Y-95830714D02*
X164785714Y-95616428D01*
X164785714Y-95616428D02*
X164857142Y-95330714D01*
X164857142Y-95330714D02*
X164928571Y-95187857D01*
X164928571Y-95187857D02*
X165071428Y-95045000D01*
X165071428Y-95045000D02*
X165285714Y-94973571D01*
X165285714Y-94973571D02*
X165428571Y-94973571D01*
X165428571Y-94973571D02*
X165642857Y-95045000D01*
X165642857Y-95045000D02*
X165714285Y-95116428D01*
X165714285Y-95116428D02*
X165714285Y-95616428D01*
X165714285Y-95616428D02*
X165428571Y-95616428D01*
X166357142Y-94973571D02*
X166357142Y-96473571D01*
X166357142Y-96473571D02*
X167214285Y-94973571D01*
X167214285Y-94973571D02*
X167214285Y-96473571D01*
X167928571Y-94973571D02*
X167928571Y-96473571D01*
X167928571Y-96473571D02*
X168285714Y-96473571D01*
X168285714Y-96473571D02*
X168500000Y-96402142D01*
X168500000Y-96402142D02*
X168642857Y-96259285D01*
X168642857Y-96259285D02*
X168714286Y-96116428D01*
X168714286Y-96116428D02*
X168785714Y-95830714D01*
X168785714Y-95830714D02*
X168785714Y-95616428D01*
X168785714Y-95616428D02*
X168714286Y-95330714D01*
X168714286Y-95330714D02*
X168642857Y-95187857D01*
X168642857Y-95187857D02*
X168500000Y-95045000D01*
X168500000Y-95045000D02*
X168285714Y-94973571D01*
X168285714Y-94973571D02*
X167928571Y-94973571D01*
X164785714Y-92972142D02*
X165500000Y-92972142D01*
X164642857Y-92543571D02*
X165142857Y-94043571D01*
X165142857Y-94043571D02*
X165642857Y-92543571D01*
X165928571Y-93543571D02*
X166499999Y-93543571D01*
X166142856Y-94043571D02*
X166142856Y-92757857D01*
X166142856Y-92757857D02*
X166214285Y-92615000D01*
X166214285Y-92615000D02*
X166357142Y-92543571D01*
X166357142Y-92543571D02*
X166499999Y-92543571D01*
X166785714Y-93543571D02*
X167357142Y-93543571D01*
X166999999Y-94043571D02*
X166999999Y-92757857D01*
X166999999Y-92757857D02*
X167071428Y-92615000D01*
X167071428Y-92615000D02*
X167214285Y-92543571D01*
X167214285Y-92543571D02*
X167357142Y-92543571D01*
X167785714Y-93900714D02*
X167857142Y-93972142D01*
X167857142Y-93972142D02*
X168000000Y-94043571D01*
X168000000Y-94043571D02*
X168357142Y-94043571D01*
X168357142Y-94043571D02*
X168500000Y-93972142D01*
X168500000Y-93972142D02*
X168571428Y-93900714D01*
X168571428Y-93900714D02*
X168642857Y-93757857D01*
X168642857Y-93757857D02*
X168642857Y-93615000D01*
X168642857Y-93615000D02*
X168571428Y-93400714D01*
X168571428Y-93400714D02*
X167714285Y-92543571D01*
X167714285Y-92543571D02*
X168642857Y-92543571D01*
X164785714Y-90542142D02*
X165500000Y-90542142D01*
X164642857Y-90113571D02*
X165142857Y-91613571D01*
X165142857Y-91613571D02*
X165642857Y-90113571D01*
X165928571Y-91113571D02*
X166499999Y-91113571D01*
X166142856Y-91613571D02*
X166142856Y-90327857D01*
X166142856Y-90327857D02*
X166214285Y-90185000D01*
X166214285Y-90185000D02*
X166357142Y-90113571D01*
X166357142Y-90113571D02*
X166499999Y-90113571D01*
X166785714Y-91113571D02*
X167357142Y-91113571D01*
X166999999Y-91613571D02*
X166999999Y-90327857D01*
X166999999Y-90327857D02*
X167071428Y-90185000D01*
X167071428Y-90185000D02*
X167214285Y-90113571D01*
X167214285Y-90113571D02*
X167357142Y-90113571D01*
X168642857Y-90113571D02*
X167785714Y-90113571D01*
X168214285Y-90113571D02*
X168214285Y-91613571D01*
X168214285Y-91613571D02*
X168071428Y-91399285D01*
X168071428Y-91399285D02*
X167928571Y-91256428D01*
X167928571Y-91256428D02*
X167785714Y-91185000D01*
X164642857Y-89183571D02*
X165500000Y-89183571D01*
X165071428Y-87683571D02*
X165071428Y-89183571D01*
X165857142Y-89183571D02*
X166857142Y-87683571D01*
X166857142Y-89183571D02*
X165857142Y-87683571D01*
X167071428Y-87540714D02*
X168214285Y-87540714D01*
X169428570Y-87683571D02*
X168928570Y-88397857D01*
X168571427Y-87683571D02*
X168571427Y-89183571D01*
X168571427Y-89183571D02*
X169142856Y-89183571D01*
X169142856Y-89183571D02*
X169285713Y-89112142D01*
X169285713Y-89112142D02*
X169357142Y-89040714D01*
X169357142Y-89040714D02*
X169428570Y-88897857D01*
X169428570Y-88897857D02*
X169428570Y-88683571D01*
X169428570Y-88683571D02*
X169357142Y-88540714D01*
X169357142Y-88540714D02*
X169285713Y-88469285D01*
X169285713Y-88469285D02*
X169142856Y-88397857D01*
X169142856Y-88397857D02*
X168571427Y-88397857D01*
X169928570Y-89183571D02*
X170928570Y-87683571D01*
X170928570Y-89183571D02*
X169928570Y-87683571D01*
X171142856Y-87540714D02*
X172285713Y-87540714D01*
X173499998Y-87683571D02*
X172999998Y-88397857D01*
X172642855Y-87683571D02*
X172642855Y-89183571D01*
X172642855Y-89183571D02*
X173214284Y-89183571D01*
X173214284Y-89183571D02*
X173357141Y-89112142D01*
X173357141Y-89112142D02*
X173428570Y-89040714D01*
X173428570Y-89040714D02*
X173499998Y-88897857D01*
X173499998Y-88897857D02*
X173499998Y-88683571D01*
X173499998Y-88683571D02*
X173428570Y-88540714D01*
X173428570Y-88540714D02*
X173357141Y-88469285D01*
X173357141Y-88469285D02*
X173214284Y-88397857D01*
X173214284Y-88397857D02*
X172642855Y-88397857D01*
X174857141Y-87683571D02*
X174142855Y-87683571D01*
X174142855Y-87683571D02*
X174142855Y-89183571D01*
X175642856Y-88397857D02*
X175642856Y-87683571D01*
X175142856Y-89183571D02*
X175642856Y-88397857D01*
X175642856Y-88397857D02*
X176142856Y-89183571D01*
D11*
X126367380Y-119833333D02*
X126415000Y-119785714D01*
X126415000Y-119785714D02*
X126462619Y-119642857D01*
X126462619Y-119642857D02*
X126462619Y-119547619D01*
X126462619Y-119547619D02*
X126415000Y-119404762D01*
X126415000Y-119404762D02*
X126319761Y-119309524D01*
X126319761Y-119309524D02*
X126224523Y-119261905D01*
X126224523Y-119261905D02*
X126034047Y-119214286D01*
X126034047Y-119214286D02*
X125891190Y-119214286D01*
X125891190Y-119214286D02*
X125700714Y-119261905D01*
X125700714Y-119261905D02*
X125605476Y-119309524D01*
X125605476Y-119309524D02*
X125510238Y-119404762D01*
X125510238Y-119404762D02*
X125462619Y-119547619D01*
X125462619Y-119547619D02*
X125462619Y-119642857D01*
X125462619Y-119642857D02*
X125510238Y-119785714D01*
X125510238Y-119785714D02*
X125557857Y-119833333D01*
X125891190Y-120404762D02*
X125843571Y-120309524D01*
X125843571Y-120309524D02*
X125795952Y-120261905D01*
X125795952Y-120261905D02*
X125700714Y-120214286D01*
X125700714Y-120214286D02*
X125653095Y-120214286D01*
X125653095Y-120214286D02*
X125557857Y-120261905D01*
X125557857Y-120261905D02*
X125510238Y-120309524D01*
X125510238Y-120309524D02*
X125462619Y-120404762D01*
X125462619Y-120404762D02*
X125462619Y-120595238D01*
X125462619Y-120595238D02*
X125510238Y-120690476D01*
X125510238Y-120690476D02*
X125557857Y-120738095D01*
X125557857Y-120738095D02*
X125653095Y-120785714D01*
X125653095Y-120785714D02*
X125700714Y-120785714D01*
X125700714Y-120785714D02*
X125795952Y-120738095D01*
X125795952Y-120738095D02*
X125843571Y-120690476D01*
X125843571Y-120690476D02*
X125891190Y-120595238D01*
X125891190Y-120595238D02*
X125891190Y-120404762D01*
X125891190Y-120404762D02*
X125938809Y-120309524D01*
X125938809Y-120309524D02*
X125986428Y-120261905D01*
X125986428Y-120261905D02*
X126081666Y-120214286D01*
X126081666Y-120214286D02*
X126272142Y-120214286D01*
X126272142Y-120214286D02*
X126367380Y-120261905D01*
X126367380Y-120261905D02*
X126415000Y-120309524D01*
X126415000Y-120309524D02*
X126462619Y-120404762D01*
X126462619Y-120404762D02*
X126462619Y-120595238D01*
X126462619Y-120595238D02*
X126415000Y-120690476D01*
X126415000Y-120690476D02*
X126367380Y-120738095D01*
X126367380Y-120738095D02*
X126272142Y-120785714D01*
X126272142Y-120785714D02*
X126081666Y-120785714D01*
X126081666Y-120785714D02*
X125986428Y-120738095D01*
X125986428Y-120738095D02*
X125938809Y-120690476D01*
X125938809Y-120690476D02*
X125891190Y-120595238D01*
X130867380Y-92333333D02*
X130915000Y-92285714D01*
X130915000Y-92285714D02*
X130962619Y-92142857D01*
X130962619Y-92142857D02*
X130962619Y-92047619D01*
X130962619Y-92047619D02*
X130915000Y-91904762D01*
X130915000Y-91904762D02*
X130819761Y-91809524D01*
X130819761Y-91809524D02*
X130724523Y-91761905D01*
X130724523Y-91761905D02*
X130534047Y-91714286D01*
X130534047Y-91714286D02*
X130391190Y-91714286D01*
X130391190Y-91714286D02*
X130200714Y-91761905D01*
X130200714Y-91761905D02*
X130105476Y-91809524D01*
X130105476Y-91809524D02*
X130010238Y-91904762D01*
X130010238Y-91904762D02*
X129962619Y-92047619D01*
X129962619Y-92047619D02*
X129962619Y-92142857D01*
X129962619Y-92142857D02*
X130010238Y-92285714D01*
X130010238Y-92285714D02*
X130057857Y-92333333D01*
X129962619Y-92666667D02*
X129962619Y-93333333D01*
X129962619Y-93333333D02*
X130962619Y-92904762D01*
X109962619Y-85833333D02*
X109486428Y-85500000D01*
X109962619Y-85261905D02*
X108962619Y-85261905D01*
X108962619Y-85261905D02*
X108962619Y-85642857D01*
X108962619Y-85642857D02*
X109010238Y-85738095D01*
X109010238Y-85738095D02*
X109057857Y-85785714D01*
X109057857Y-85785714D02*
X109153095Y-85833333D01*
X109153095Y-85833333D02*
X109295952Y-85833333D01*
X109295952Y-85833333D02*
X109391190Y-85785714D01*
X109391190Y-85785714D02*
X109438809Y-85738095D01*
X109438809Y-85738095D02*
X109486428Y-85642857D01*
X109486428Y-85642857D02*
X109486428Y-85261905D01*
X108962619Y-86690476D02*
X108962619Y-86500000D01*
X108962619Y-86500000D02*
X109010238Y-86404762D01*
X109010238Y-86404762D02*
X109057857Y-86357143D01*
X109057857Y-86357143D02*
X109200714Y-86261905D01*
X109200714Y-86261905D02*
X109391190Y-86214286D01*
X109391190Y-86214286D02*
X109772142Y-86214286D01*
X109772142Y-86214286D02*
X109867380Y-86261905D01*
X109867380Y-86261905D02*
X109915000Y-86309524D01*
X109915000Y-86309524D02*
X109962619Y-86404762D01*
X109962619Y-86404762D02*
X109962619Y-86595238D01*
X109962619Y-86595238D02*
X109915000Y-86690476D01*
X109915000Y-86690476D02*
X109867380Y-86738095D01*
X109867380Y-86738095D02*
X109772142Y-86785714D01*
X109772142Y-86785714D02*
X109534047Y-86785714D01*
X109534047Y-86785714D02*
X109438809Y-86738095D01*
X109438809Y-86738095D02*
X109391190Y-86690476D01*
X109391190Y-86690476D02*
X109343571Y-86595238D01*
X109343571Y-86595238D02*
X109343571Y-86404762D01*
X109343571Y-86404762D02*
X109391190Y-86309524D01*
X109391190Y-86309524D02*
X109438809Y-86261905D01*
X109438809Y-86261905D02*
X109534047Y-86214286D01*
X110962619Y-106333333D02*
X110486428Y-106000000D01*
X110962619Y-105761905D02*
X109962619Y-105761905D01*
X109962619Y-105761905D02*
X109962619Y-106142857D01*
X109962619Y-106142857D02*
X110010238Y-106238095D01*
X110010238Y-106238095D02*
X110057857Y-106285714D01*
X110057857Y-106285714D02*
X110153095Y-106333333D01*
X110153095Y-106333333D02*
X110295952Y-106333333D01*
X110295952Y-106333333D02*
X110391190Y-106285714D01*
X110391190Y-106285714D02*
X110438809Y-106238095D01*
X110438809Y-106238095D02*
X110486428Y-106142857D01*
X110486428Y-106142857D02*
X110486428Y-105761905D01*
X110295952Y-107190476D02*
X110962619Y-107190476D01*
X109915000Y-106952381D02*
X110629285Y-106714286D01*
X110629285Y-106714286D02*
X110629285Y-107333333D01*
D12*
X126735000Y-116738748D02*
X126735000Y-117261252D01*
X125265000Y-116738748D02*
X125265000Y-117261252D01*
X129738748Y-89265000D02*
X130261252Y-89265000D01*
X129738748Y-90735000D02*
X130261252Y-90735000D01*
X109727064Y-84735000D02*
X109272936Y-84735000D01*
X109727064Y-83265000D02*
X109272936Y-83265000D01*
X110727064Y-105235000D02*
X110272936Y-105235000D01*
X110727064Y-103765000D02*
X110272936Y-103765000D01*
%LPC*%
D13*
X93212500Y-120040000D03*
D14*
X93212500Y-117500000D03*
X93212500Y-114960000D03*
D15*
X174000000Y-147000000D03*
X174768845Y-145143845D03*
X174768845Y-148856155D03*
X176625000Y-144375000D03*
D16*
X176625000Y-147000000D03*
D15*
X176625000Y-149625000D03*
X178481155Y-145143845D03*
X178481155Y-148856155D03*
X179250000Y-147000000D03*
X174000000Y-58000000D03*
X174768845Y-56143845D03*
X174768845Y-59856155D03*
X176625000Y-55375000D03*
D16*
X176625000Y-58000000D03*
D15*
X176625000Y-60625000D03*
X178481155Y-56143845D03*
X178481155Y-59856155D03*
X179250000Y-58000000D03*
X85375000Y-147000000D03*
X86143845Y-145143845D03*
X86143845Y-148856155D03*
X88000000Y-144375000D03*
D16*
X88000000Y-147000000D03*
D15*
X88000000Y-149625000D03*
X89856155Y-145143845D03*
X89856155Y-148856155D03*
X90625000Y-147000000D03*
D17*
X162500000Y-104500000D03*
D18*
X165040000Y-104500000D03*
X162500000Y-107040000D03*
X165040000Y-107040000D03*
X162500000Y-109580000D03*
X165040000Y-109580000D03*
X162500000Y-112120000D03*
X165040000Y-112120000D03*
X162500000Y-114660000D03*
X165040000Y-114660000D03*
D19*
X140500000Y-117500000D03*
D20*
X143040000Y-117500000D03*
X145580000Y-117500000D03*
X148120000Y-117500000D03*
X150660000Y-117500000D03*
X153200000Y-117500000D03*
X155740000Y-117500000D03*
D15*
X85375000Y-58000000D03*
X86143845Y-56143845D03*
X86143845Y-59856155D03*
X88000000Y-55375000D03*
D16*
X88000000Y-58000000D03*
D15*
X88000000Y-60625000D03*
X89856155Y-56143845D03*
X89856155Y-59856155D03*
X90625000Y-58000000D03*
D21*
X101537500Y-120080000D03*
D22*
X101537500Y-117540000D03*
X101537500Y-115000000D03*
D17*
X93172500Y-94840000D03*
D18*
X95712500Y-94840000D03*
X93172500Y-97380000D03*
X95712500Y-97380000D03*
X93172500Y-99920000D03*
X95712500Y-99920000D03*
X93172500Y-102460000D03*
X95712500Y-102460000D03*
X93172500Y-105000000D03*
X95712500Y-105000000D03*
D23*
X153580000Y-90500000D03*
D20*
X151040000Y-90500000D03*
X148500000Y-90500000D03*
X145960000Y-90500000D03*
X143420000Y-90500000D03*
D17*
X162500000Y-129000000D03*
D18*
X165040000Y-129000000D03*
X162500000Y-131540000D03*
X165040000Y-131540000D03*
X162500000Y-134080000D03*
X165040000Y-134080000D03*
X162500000Y-136620000D03*
X165040000Y-136620000D03*
X162500000Y-139160000D03*
X165040000Y-139160000D03*
D17*
X162500000Y-67500000D03*
D18*
X165040000Y-67500000D03*
X162500000Y-70040000D03*
X165040000Y-70040000D03*
X162500000Y-72580000D03*
X165040000Y-72580000D03*
X162500000Y-75120000D03*
X165040000Y-75120000D03*
X162500000Y-77660000D03*
X165040000Y-77660000D03*
D24*
X162500000Y-87920000D03*
D14*
X162500000Y-90460000D03*
X162500000Y-93000000D03*
X162500000Y-95540000D03*
D13*
X93212500Y-85040000D03*
D14*
X93212500Y-82500000D03*
X93212500Y-79960000D03*
X93212500Y-77420000D03*
X93212500Y-74880000D03*
X93212500Y-72340000D03*
D25*
X126000000Y-115962500D03*
X126000000Y-118037500D03*
D26*
X128962500Y-90000000D03*
X131037500Y-90000000D03*
D27*
X110500000Y-84000000D03*
X108500000Y-84000000D03*
X111500000Y-104500000D03*
X109500000Y-104500000D03*
M02*
