%TF.GenerationSoftware,KiCad,Pcbnew,7.0.1*%
%TF.CreationDate,2023-04-18T17:18:08+02:00*%
%TF.ProjectId,Alexandrie,416c6578-616e-4647-9269-652e6b696361,rev?*%
%TF.SameCoordinates,Original*%
%TF.FileFunction,Drillmap*%
%TF.FilePolarity,Positive*%
%FSLAX45Y45*%
G04 Gerber Fmt 4.5, Leading zero omitted, Abs format (unit mm)*
G04 Created by KiCad (PCBNEW 7.0.1) date 2023-04-18 17:18:08*
%MOMM*%
%LPD*%
G01*
G04 APERTURE LIST*
%ADD10C,0.150000*%
%ADD11C,0.200000*%
G04 APERTURE END LIST*
D10*
X8250000Y-5250000D02*
X8250000Y-15250000D01*
X18250000Y-5250000D02*
X8250000Y-5250000D01*
X18250000Y-15250000D02*
X18250000Y-5250000D01*
X8250000Y-15250000D02*
X18250000Y-15250000D01*
D11*
X8490119Y-15570024D02*
X8490119Y-15370024D01*
X8490119Y-15370024D02*
X8537738Y-15370024D01*
X8537738Y-15370024D02*
X8566310Y-15379548D01*
X8566310Y-15379548D02*
X8585357Y-15398595D01*
X8585357Y-15398595D02*
X8594881Y-15417643D01*
X8594881Y-15417643D02*
X8604405Y-15455738D01*
X8604405Y-15455738D02*
X8604405Y-15484309D01*
X8604405Y-15484309D02*
X8594881Y-15522405D01*
X8594881Y-15522405D02*
X8585357Y-15541452D01*
X8585357Y-15541452D02*
X8566310Y-15560500D01*
X8566310Y-15560500D02*
X8537738Y-15570024D01*
X8537738Y-15570024D02*
X8490119Y-15570024D01*
X8690119Y-15570024D02*
X8690119Y-15436690D01*
X8690119Y-15474786D02*
X8699643Y-15455738D01*
X8699643Y-15455738D02*
X8709167Y-15446214D01*
X8709167Y-15446214D02*
X8728214Y-15436690D01*
X8728214Y-15436690D02*
X8747262Y-15436690D01*
X8813929Y-15570024D02*
X8813929Y-15436690D01*
X8813929Y-15370024D02*
X8804405Y-15379548D01*
X8804405Y-15379548D02*
X8813929Y-15389071D01*
X8813929Y-15389071D02*
X8823452Y-15379548D01*
X8823452Y-15379548D02*
X8813929Y-15370024D01*
X8813929Y-15370024D02*
X8813929Y-15389071D01*
X8937738Y-15570024D02*
X8918690Y-15560500D01*
X8918690Y-15560500D02*
X8909167Y-15541452D01*
X8909167Y-15541452D02*
X8909167Y-15370024D01*
X9042500Y-15570024D02*
X9023452Y-15560500D01*
X9023452Y-15560500D02*
X9013929Y-15541452D01*
X9013929Y-15541452D02*
X9013929Y-15370024D01*
X9271071Y-15570024D02*
X9271071Y-15370024D01*
X9271071Y-15370024D02*
X9337738Y-15512881D01*
X9337738Y-15512881D02*
X9404405Y-15370024D01*
X9404405Y-15370024D02*
X9404405Y-15570024D01*
X9585357Y-15570024D02*
X9585357Y-15465262D01*
X9585357Y-15465262D02*
X9575833Y-15446214D01*
X9575833Y-15446214D02*
X9556786Y-15436690D01*
X9556786Y-15436690D02*
X9518690Y-15436690D01*
X9518690Y-15436690D02*
X9499643Y-15446214D01*
X9585357Y-15560500D02*
X9566310Y-15570024D01*
X9566310Y-15570024D02*
X9518690Y-15570024D01*
X9518690Y-15570024D02*
X9499643Y-15560500D01*
X9499643Y-15560500D02*
X9490119Y-15541452D01*
X9490119Y-15541452D02*
X9490119Y-15522405D01*
X9490119Y-15522405D02*
X9499643Y-15503357D01*
X9499643Y-15503357D02*
X9518690Y-15493833D01*
X9518690Y-15493833D02*
X9566310Y-15493833D01*
X9566310Y-15493833D02*
X9585357Y-15484309D01*
X9680595Y-15436690D02*
X9680595Y-15636690D01*
X9680595Y-15446214D02*
X9699643Y-15436690D01*
X9699643Y-15436690D02*
X9737738Y-15436690D01*
X9737738Y-15436690D02*
X9756786Y-15446214D01*
X9756786Y-15446214D02*
X9766310Y-15455738D01*
X9766310Y-15455738D02*
X9775833Y-15474786D01*
X9775833Y-15474786D02*
X9775833Y-15531928D01*
X9775833Y-15531928D02*
X9766310Y-15550976D01*
X9766310Y-15550976D02*
X9756786Y-15560500D01*
X9756786Y-15560500D02*
X9737738Y-15570024D01*
X9737738Y-15570024D02*
X9699643Y-15570024D01*
X9699643Y-15570024D02*
X9680595Y-15560500D01*
X9861548Y-15550976D02*
X9871071Y-15560500D01*
X9871071Y-15560500D02*
X9861548Y-15570024D01*
X9861548Y-15570024D02*
X9852024Y-15560500D01*
X9852024Y-15560500D02*
X9861548Y-15550976D01*
X9861548Y-15550976D02*
X9861548Y-15570024D01*
X9861548Y-15446214D02*
X9871071Y-15455738D01*
X9871071Y-15455738D02*
X9861548Y-15465262D01*
X9861548Y-15465262D02*
X9852024Y-15455738D01*
X9852024Y-15455738D02*
X9861548Y-15446214D01*
X9861548Y-15446214D02*
X9861548Y-15465262D01*
M02*
