G04 #@! TF.GenerationSoftware,KiCad,Pcbnew,7.0.1*
G04 #@! TF.CreationDate,2023-04-18T17:18:43+02:00*
G04 #@! TF.ProjectId,Alexandrie,416c6578-616e-4647-9269-652e6b696361,rev?*
G04 #@! TF.SameCoordinates,Original*
G04 #@! TF.FileFunction,Legend,Top*
G04 #@! TF.FilePolarity,Positive*
%FSLAX46Y46*%
G04 Gerber Fmt 4.6, Leading zero omitted, Abs format (unit mm)*
G04 Created by KiCad (PCBNEW 7.0.1) date 2023-04-18 17:18:43*
%MOMM*%
%LPD*%
G01*
G04 APERTURE LIST*
G04 Aperture macros list*
%AMRoundRect*
0 Rectangle with rounded corners*
0 $1 Rounding radius*
0 $2 $3 $4 $5 $6 $7 $8 $9 X,Y pos of 4 corners*
0 Add a 4 corners polygon primitive as box body*
4,1,4,$2,$3,$4,$5,$6,$7,$8,$9,$2,$3,0*
0 Add four circle primitives for the rounded corners*
1,1,$1+$1,$2,$3*
1,1,$1+$1,$4,$5*
1,1,$1+$1,$6,$7*
1,1,$1+$1,$8,$9*
0 Add four rect primitives between the rounded corners*
20,1,$1+$1,$2,$3,$4,$5,0*
20,1,$1+$1,$4,$5,$6,$7,0*
20,1,$1+$1,$6,$7,$8,$9,0*
20,1,$1+$1,$8,$9,$2,$3,0*%
G04 Aperture macros list end*
%ADD10C,0.500000*%
%ADD11C,0.300000*%
%ADD12C,0.100000*%
%ADD13C,0.150000*%
%ADD14C,0.120000*%
%ADD15RoundRect,0.450000X0.350000X0.450000X-0.350000X0.450000X-0.350000X-0.450000X0.350000X-0.450000X0*%
%ADD16RoundRect,0.450000X-0.350000X-0.450000X0.350000X-0.450000X0.350000X0.450000X-0.350000X0.450000X0*%
%ADD17RoundRect,0.450001X-0.624999X0.462499X-0.624999X-0.462499X0.624999X-0.462499X0.624999X0.462499X0*%
%ADD18RoundRect,0.450000X0.900000X-1.500000X0.900000X1.500000X-0.900000X1.500000X-0.900000X-1.500000X0*%
%ADD19RoundRect,0.450000X0.450000X-0.350000X0.450000X0.350000X-0.450000X0.350000X-0.450000X-0.350000X0*%
%ADD20RoundRect,0.450000X0.845000X-0.620000X0.845000X0.620000X-0.845000X0.620000X-0.845000X-0.620000X0*%
%ADD21O,2.590000X2.140000*%
%ADD22C,1.200000*%
%ADD23C,7.400000*%
%ADD24RoundRect,0.450000X-0.475000X0.337500X-0.475000X-0.337500X0.475000X-0.337500X0.475000X0.337500X0*%
%ADD25RoundRect,0.450000X-0.350000X0.850000X-0.350000X-0.850000X0.350000X-0.850000X0.350000X0.850000X0*%
%ADD26RoundRect,0.449997X-2.650003X2.950003X-2.650003X-2.950003X2.650003X-2.950003X2.650003X2.950003X0*%
%ADD27RoundRect,0.350000X-0.875000X-0.150000X0.875000X-0.150000X0.875000X0.150000X-0.875000X0.150000X0*%
%ADD28RoundRect,0.450000X-0.337500X-0.475000X0.337500X-0.475000X0.337500X0.475000X-0.337500X0.475000X0*%
%ADD29RoundRect,0.350000X-0.825000X-0.150000X0.825000X-0.150000X0.825000X0.150000X-0.825000X0.150000X0*%
%ADD30RoundRect,0.450001X0.462499X0.624999X-0.462499X0.624999X-0.462499X-0.624999X0.462499X-0.624999X0*%
%ADD31RoundRect,0.450000X-0.600000X-0.600000X0.600000X-0.600000X0.600000X0.600000X-0.600000X0.600000X0*%
%ADD32C,2.100000*%
%ADD33RoundRect,0.450000X-0.620000X-0.845000X0.620000X-0.845000X0.620000X0.845000X-0.620000X0.845000X0*%
%ADD34O,2.140000X2.590000*%
%ADD35RoundRect,0.450001X0.924999X-0.499999X0.924999X0.499999X-0.924999X0.499999X-0.924999X-0.499999X0*%
%ADD36RoundRect,0.200000X0.850000X0.850000X-0.850000X0.850000X-0.850000X-0.850000X0.850000X-0.850000X0*%
%ADD37O,2.100000X2.100000*%
%ADD38RoundRect,0.450001X-0.499999X-0.924999X0.499999X-0.924999X0.499999X0.924999X-0.499999X0.924999X0*%
%ADD39RoundRect,0.450000X0.620000X0.845000X-0.620000X0.845000X-0.620000X-0.845000X0.620000X-0.845000X0*%
%ADD40RoundRect,0.450000X0.337500X0.475000X-0.337500X0.475000X-0.337500X-0.475000X0.337500X-0.475000X0*%
%ADD41RoundRect,0.450000X0.475000X-0.337500X0.475000X0.337500X-0.475000X0.337500X-0.475000X-0.337500X0*%
%ADD42RoundRect,0.450000X-0.450000X0.350000X-0.450000X-0.350000X0.450000X-0.350000X0.450000X0.350000X0*%
%ADD43RoundRect,0.450000X-0.845000X0.620000X-0.845000X-0.620000X0.845000X-0.620000X0.845000X0.620000X0*%
G04 APERTURE END LIST*
D10*
X100095242Y-58493809D02*
X101047623Y-58493809D01*
X99904766Y-59065238D02*
X100571432Y-57065238D01*
X100571432Y-57065238D02*
X101238099Y-59065238D01*
X102190480Y-59065238D02*
X102000004Y-58970000D01*
X102000004Y-58970000D02*
X101904766Y-58779523D01*
X101904766Y-58779523D02*
X101904766Y-57065238D01*
X103714290Y-58970000D02*
X103523814Y-59065238D01*
X103523814Y-59065238D02*
X103142861Y-59065238D01*
X103142861Y-59065238D02*
X102952385Y-58970000D01*
X102952385Y-58970000D02*
X102857147Y-58779523D01*
X102857147Y-58779523D02*
X102857147Y-58017619D01*
X102857147Y-58017619D02*
X102952385Y-57827142D01*
X102952385Y-57827142D02*
X103142861Y-57731904D01*
X103142861Y-57731904D02*
X103523814Y-57731904D01*
X103523814Y-57731904D02*
X103714290Y-57827142D01*
X103714290Y-57827142D02*
X103809528Y-58017619D01*
X103809528Y-58017619D02*
X103809528Y-58208095D01*
X103809528Y-58208095D02*
X102857147Y-58398571D01*
X104476195Y-59065238D02*
X105523814Y-57731904D01*
X104476195Y-57731904D02*
X105523814Y-59065238D01*
X107142862Y-59065238D02*
X107142862Y-58017619D01*
X107142862Y-58017619D02*
X107047624Y-57827142D01*
X107047624Y-57827142D02*
X106857148Y-57731904D01*
X106857148Y-57731904D02*
X106476195Y-57731904D01*
X106476195Y-57731904D02*
X106285719Y-57827142D01*
X107142862Y-58970000D02*
X106952386Y-59065238D01*
X106952386Y-59065238D02*
X106476195Y-59065238D01*
X106476195Y-59065238D02*
X106285719Y-58970000D01*
X106285719Y-58970000D02*
X106190481Y-58779523D01*
X106190481Y-58779523D02*
X106190481Y-58589047D01*
X106190481Y-58589047D02*
X106285719Y-58398571D01*
X106285719Y-58398571D02*
X106476195Y-58303333D01*
X106476195Y-58303333D02*
X106952386Y-58303333D01*
X106952386Y-58303333D02*
X107142862Y-58208095D01*
X108095243Y-57731904D02*
X108095243Y-59065238D01*
X108095243Y-57922380D02*
X108190481Y-57827142D01*
X108190481Y-57827142D02*
X108380957Y-57731904D01*
X108380957Y-57731904D02*
X108666672Y-57731904D01*
X108666672Y-57731904D02*
X108857148Y-57827142D01*
X108857148Y-57827142D02*
X108952386Y-58017619D01*
X108952386Y-58017619D02*
X108952386Y-59065238D01*
X110761910Y-59065238D02*
X110761910Y-57065238D01*
X110761910Y-58970000D02*
X110571434Y-59065238D01*
X110571434Y-59065238D02*
X110190481Y-59065238D01*
X110190481Y-59065238D02*
X110000005Y-58970000D01*
X110000005Y-58970000D02*
X109904767Y-58874761D01*
X109904767Y-58874761D02*
X109809529Y-58684285D01*
X109809529Y-58684285D02*
X109809529Y-58112857D01*
X109809529Y-58112857D02*
X109904767Y-57922380D01*
X109904767Y-57922380D02*
X110000005Y-57827142D01*
X110000005Y-57827142D02*
X110190481Y-57731904D01*
X110190481Y-57731904D02*
X110571434Y-57731904D01*
X110571434Y-57731904D02*
X110761910Y-57827142D01*
X111714291Y-59065238D02*
X111714291Y-57731904D01*
X111714291Y-58112857D02*
X111809529Y-57922380D01*
X111809529Y-57922380D02*
X111904767Y-57827142D01*
X111904767Y-57827142D02*
X112095243Y-57731904D01*
X112095243Y-57731904D02*
X112285720Y-57731904D01*
X112952386Y-59065238D02*
X112952386Y-57731904D01*
X112952386Y-57065238D02*
X112857148Y-57160476D01*
X112857148Y-57160476D02*
X112952386Y-57255714D01*
X112952386Y-57255714D02*
X113047624Y-57160476D01*
X113047624Y-57160476D02*
X112952386Y-57065238D01*
X112952386Y-57065238D02*
X112952386Y-57255714D01*
X114666672Y-58970000D02*
X114476196Y-59065238D01*
X114476196Y-59065238D02*
X114095243Y-59065238D01*
X114095243Y-59065238D02*
X113904767Y-58970000D01*
X113904767Y-58970000D02*
X113809529Y-58779523D01*
X113809529Y-58779523D02*
X113809529Y-58017619D01*
X113809529Y-58017619D02*
X113904767Y-57827142D01*
X113904767Y-57827142D02*
X114095243Y-57731904D01*
X114095243Y-57731904D02*
X114476196Y-57731904D01*
X114476196Y-57731904D02*
X114666672Y-57827142D01*
X114666672Y-57827142D02*
X114761910Y-58017619D01*
X114761910Y-58017619D02*
X114761910Y-58208095D01*
X114761910Y-58208095D02*
X113809529Y-58398571D01*
X116857149Y-57065238D02*
X117523815Y-59065238D01*
X117523815Y-59065238D02*
X118190482Y-57065238D01*
X118761911Y-57255714D02*
X118857149Y-57160476D01*
X118857149Y-57160476D02*
X119047625Y-57065238D01*
X119047625Y-57065238D02*
X119523816Y-57065238D01*
X119523816Y-57065238D02*
X119714292Y-57160476D01*
X119714292Y-57160476D02*
X119809530Y-57255714D01*
X119809530Y-57255714D02*
X119904768Y-57446190D01*
X119904768Y-57446190D02*
X119904768Y-57636666D01*
X119904768Y-57636666D02*
X119809530Y-57922380D01*
X119809530Y-57922380D02*
X118666673Y-59065238D01*
X118666673Y-59065238D02*
X119904768Y-59065238D01*
X152857159Y-58493809D02*
X153809540Y-58493809D01*
X152666683Y-59065238D02*
X153333350Y-57065238D01*
X153333350Y-57065238D02*
X154000016Y-59065238D01*
X152571445Y-57255714D02*
X152666683Y-57255714D01*
X152666683Y-57255714D02*
X152761921Y-57160476D01*
X152761921Y-57160476D02*
X152761921Y-56970000D01*
X154952397Y-57731904D02*
X154476207Y-59065238D01*
X154476207Y-57065238D02*
X154666683Y-57065238D01*
X154666683Y-57065238D02*
X154761921Y-57160476D01*
X154761921Y-57160476D02*
X154952397Y-57731904D01*
X154952397Y-57731904D02*
X155428588Y-59065238D01*
X156380969Y-58398571D02*
X156190493Y-58493809D01*
X156190493Y-58493809D02*
X156095255Y-58684285D01*
X156095255Y-58684285D02*
X156095255Y-58779523D01*
X156095255Y-58779523D02*
X156190493Y-58970000D01*
X156190493Y-58970000D02*
X156380969Y-59065238D01*
X156380969Y-59065238D02*
X156761922Y-59065238D01*
X156761922Y-59065238D02*
X156952398Y-58970000D01*
X156571445Y-58398571D02*
X156380969Y-58398571D01*
X156380969Y-58398571D02*
X156190493Y-58303333D01*
X156190493Y-58303333D02*
X156095255Y-58112857D01*
X156095255Y-58112857D02*
X156095255Y-58017619D01*
X156095255Y-58017619D02*
X156190493Y-57827142D01*
X156190493Y-57827142D02*
X156380969Y-57731904D01*
X156380969Y-57731904D02*
X156761922Y-57731904D01*
X156761922Y-57731904D02*
X156952398Y-57827142D01*
X157809541Y-57065238D02*
X158761922Y-57065238D01*
X158190493Y-57065238D02*
X158000017Y-57160476D01*
X158000017Y-57160476D02*
X157904779Y-57350952D01*
X157904779Y-57350952D02*
X157904779Y-57636666D01*
X157904779Y-57636666D02*
X158000017Y-57827142D01*
X158000017Y-57827142D02*
X158190493Y-57922380D01*
X158190493Y-57922380D02*
X158571446Y-57922380D01*
X158190493Y-57922380D02*
X158000017Y-58017619D01*
X158000017Y-58017619D02*
X157904779Y-58112857D01*
X157904779Y-58112857D02*
X157809541Y-58303333D01*
X157809541Y-58303333D02*
X157809541Y-58684285D01*
X157809541Y-58684285D02*
X157904779Y-58874761D01*
X157904779Y-58874761D02*
X158000017Y-58970000D01*
X158000017Y-58970000D02*
X158190493Y-59065238D01*
X158190493Y-59065238D02*
X158380970Y-59065238D01*
X158380970Y-59065238D02*
X158571446Y-59160476D01*
X158571446Y-59160476D02*
X158666684Y-59350952D01*
X158666684Y-59350952D02*
X158666684Y-59446190D01*
X158666684Y-59446190D02*
X158571446Y-59636666D01*
X158571446Y-59636666D02*
X158380970Y-59731904D01*
X158380970Y-59731904D02*
X158285731Y-59731904D01*
X160666684Y-57731904D02*
X160380970Y-58684285D01*
X160380970Y-58684285D02*
X160285732Y-58874761D01*
X160285732Y-58874761D02*
X160190494Y-58970000D01*
X160190494Y-58970000D02*
X160000017Y-59065238D01*
X160000017Y-59065238D02*
X159809541Y-59065238D01*
X159809541Y-59065238D02*
X159619065Y-58970000D01*
X159619065Y-58970000D02*
X159523827Y-58874761D01*
X159523827Y-58874761D02*
X159428589Y-58589047D01*
X159428589Y-58589047D02*
X159428589Y-58208095D01*
X159428589Y-58208095D02*
X159523827Y-57922380D01*
X159523827Y-57922380D02*
X159619065Y-57827142D01*
X159619065Y-57827142D02*
X159809541Y-57731904D01*
X159809541Y-57731904D02*
X160000017Y-57731904D01*
X160000017Y-57731904D02*
X160190494Y-57827142D01*
X160190494Y-57827142D02*
X160285732Y-57922380D01*
X160285732Y-57922380D02*
X160380970Y-58112857D01*
X160380970Y-58112857D02*
X160476208Y-58779523D01*
X160476208Y-58779523D02*
X160571446Y-58970000D01*
X160571446Y-58970000D02*
X160761922Y-59065238D01*
X160190494Y-56970000D02*
X159904779Y-57255714D01*
X161333351Y-57731904D02*
X161809541Y-59065238D01*
X161809541Y-59065238D02*
X162285732Y-58017619D01*
X162285732Y-58017619D02*
X162285732Y-57922380D01*
X162285732Y-57922380D02*
X162190494Y-57731904D01*
X163714304Y-57731904D02*
X163428589Y-57731904D01*
X163428589Y-57731904D02*
X163238113Y-57827142D01*
X163238113Y-57827142D02*
X163142875Y-57922380D01*
X163142875Y-57922380D02*
X163047637Y-58112857D01*
X163047637Y-58112857D02*
X163047637Y-58684285D01*
X163047637Y-58684285D02*
X163142875Y-58874761D01*
X163142875Y-58874761D02*
X163238113Y-58970000D01*
X163238113Y-58970000D02*
X163428589Y-59065238D01*
X163428589Y-59065238D02*
X163714304Y-59065238D01*
X163714304Y-59065238D02*
X163904780Y-58970000D01*
X163904780Y-58970000D02*
X164000018Y-58874761D01*
X164000018Y-58874761D02*
X164095256Y-58684285D01*
X164095256Y-58684285D02*
X164095256Y-58112857D01*
X164095256Y-58112857D02*
X164000018Y-57922380D01*
X164000018Y-57922380D02*
X163904780Y-57827142D01*
X163904780Y-57827142D02*
X163714304Y-57731904D01*
X163714304Y-57731904D02*
X163428589Y-57636666D01*
X163428589Y-57636666D02*
X163238113Y-57541428D01*
X163238113Y-57541428D02*
X163142875Y-57350952D01*
X163142875Y-57350952D02*
X163238113Y-57160476D01*
X163238113Y-57160476D02*
X163428589Y-57065238D01*
X163428589Y-57065238D02*
X163809542Y-57065238D01*
X163809542Y-57065238D02*
X164000018Y-57160476D01*
X164952399Y-59731904D02*
X164952399Y-58112857D01*
X164952399Y-58112857D02*
X165047637Y-57922380D01*
X165047637Y-57922380D02*
X165142875Y-57827142D01*
X165142875Y-57827142D02*
X165333351Y-57731904D01*
X165333351Y-57731904D02*
X165619066Y-57731904D01*
X165619066Y-57731904D02*
X165809542Y-57827142D01*
X165809542Y-57827142D02*
X165904780Y-57922380D01*
X165904780Y-57922380D02*
X166000018Y-58112857D01*
X166000018Y-58112857D02*
X166000018Y-58684285D01*
X166000018Y-58684285D02*
X165904780Y-58874761D01*
X165904780Y-58874761D02*
X165809542Y-58970000D01*
X165809542Y-58970000D02*
X165619066Y-59065238D01*
X165619066Y-59065238D02*
X165333351Y-59065238D01*
X165333351Y-59065238D02*
X165142875Y-58970000D01*
X165142875Y-58970000D02*
X164952399Y-58779523D01*
X167047637Y-58398571D02*
X166857161Y-58493809D01*
X166857161Y-58493809D02*
X166761923Y-58684285D01*
X166761923Y-58684285D02*
X166761923Y-58779523D01*
X166761923Y-58779523D02*
X166857161Y-58970000D01*
X166857161Y-58970000D02*
X167047637Y-59065238D01*
X167047637Y-59065238D02*
X167428590Y-59065238D01*
X167428590Y-59065238D02*
X167619066Y-58970000D01*
X167238113Y-58398571D02*
X167047637Y-58398571D01*
X167047637Y-58398571D02*
X166857161Y-58303333D01*
X166857161Y-58303333D02*
X166761923Y-58112857D01*
X166761923Y-58112857D02*
X166761923Y-58017619D01*
X166761923Y-58017619D02*
X166857161Y-57827142D01*
X166857161Y-57827142D02*
X167047637Y-57731904D01*
X167047637Y-57731904D02*
X167428590Y-57731904D01*
X167428590Y-57731904D02*
X167619066Y-57827142D01*
X168476209Y-57731904D02*
X168476209Y-58779523D01*
X168476209Y-58779523D02*
X168571447Y-58970000D01*
X168571447Y-58970000D02*
X168761923Y-59065238D01*
X170666685Y-57731904D02*
X170380971Y-58684285D01*
X170380971Y-58684285D02*
X170285733Y-58874761D01*
X170285733Y-58874761D02*
X170190495Y-58970000D01*
X170190495Y-58970000D02*
X170000018Y-59065238D01*
X170000018Y-59065238D02*
X169809542Y-59065238D01*
X169809542Y-59065238D02*
X169619066Y-58970000D01*
X169619066Y-58970000D02*
X169523828Y-58874761D01*
X169523828Y-58874761D02*
X169428590Y-58589047D01*
X169428590Y-58589047D02*
X169428590Y-58208095D01*
X169428590Y-58208095D02*
X169523828Y-57922380D01*
X169523828Y-57922380D02*
X169619066Y-57827142D01*
X169619066Y-57827142D02*
X169809542Y-57731904D01*
X169809542Y-57731904D02*
X170000018Y-57731904D01*
X170000018Y-57731904D02*
X170190495Y-57827142D01*
X170190495Y-57827142D02*
X170285733Y-57922380D01*
X170285733Y-57922380D02*
X170380971Y-58112857D01*
X170380971Y-58112857D02*
X170476209Y-58779523D01*
X170476209Y-58779523D02*
X170571447Y-58970000D01*
X170571447Y-58970000D02*
X170761923Y-59065238D01*
X86476190Y-65545238D02*
X86476190Y-63545238D01*
X86476190Y-63545238D02*
X86952380Y-63545238D01*
X86952380Y-63545238D02*
X87238095Y-63640476D01*
X87238095Y-63640476D02*
X87428571Y-63830952D01*
X87428571Y-63830952D02*
X87523809Y-64021428D01*
X87523809Y-64021428D02*
X87619047Y-64402380D01*
X87619047Y-64402380D02*
X87619047Y-64688095D01*
X87619047Y-64688095D02*
X87523809Y-65069047D01*
X87523809Y-65069047D02*
X87428571Y-65259523D01*
X87428571Y-65259523D02*
X87238095Y-65450000D01*
X87238095Y-65450000D02*
X86952380Y-65545238D01*
X86952380Y-65545238D02*
X86476190Y-65545238D01*
X89333333Y-64211904D02*
X89333333Y-65545238D01*
X88476190Y-64211904D02*
X88476190Y-65259523D01*
X88476190Y-65259523D02*
X88571428Y-65450000D01*
X88571428Y-65450000D02*
X88761904Y-65545238D01*
X88761904Y-65545238D02*
X89047619Y-65545238D01*
X89047619Y-65545238D02*
X89238095Y-65450000D01*
X89238095Y-65450000D02*
X89333333Y-65354761D01*
X91142857Y-65545238D02*
X91142857Y-64497619D01*
X91142857Y-64497619D02*
X91047619Y-64307142D01*
X91047619Y-64307142D02*
X90857143Y-64211904D01*
X90857143Y-64211904D02*
X90476190Y-64211904D01*
X90476190Y-64211904D02*
X90285714Y-64307142D01*
X91142857Y-65450000D02*
X90952381Y-65545238D01*
X90952381Y-65545238D02*
X90476190Y-65545238D01*
X90476190Y-65545238D02*
X90285714Y-65450000D01*
X90285714Y-65450000D02*
X90190476Y-65259523D01*
X90190476Y-65259523D02*
X90190476Y-65069047D01*
X90190476Y-65069047D02*
X90285714Y-64878571D01*
X90285714Y-64878571D02*
X90476190Y-64783333D01*
X90476190Y-64783333D02*
X90952381Y-64783333D01*
X90952381Y-64783333D02*
X91142857Y-64688095D01*
X92380952Y-65545238D02*
X92190476Y-65450000D01*
X92190476Y-65450000D02*
X92095238Y-65259523D01*
X92095238Y-65259523D02*
X92095238Y-63545238D01*
X94571429Y-64973809D02*
X95523810Y-64973809D01*
X94380953Y-65545238D02*
X95047619Y-63545238D01*
X95047619Y-63545238D02*
X95714286Y-65545238D01*
X96380953Y-65545238D02*
X96380953Y-63545238D01*
X96380953Y-63545238D02*
X96857143Y-63545238D01*
X96857143Y-63545238D02*
X97142858Y-63640476D01*
X97142858Y-63640476D02*
X97333334Y-63830952D01*
X97333334Y-63830952D02*
X97428572Y-64021428D01*
X97428572Y-64021428D02*
X97523810Y-64402380D01*
X97523810Y-64402380D02*
X97523810Y-64688095D01*
X97523810Y-64688095D02*
X97428572Y-65069047D01*
X97428572Y-65069047D02*
X97333334Y-65259523D01*
X97333334Y-65259523D02*
X97142858Y-65450000D01*
X97142858Y-65450000D02*
X96857143Y-65545238D01*
X96857143Y-65545238D02*
X96380953Y-65545238D01*
X99523810Y-65354761D02*
X99428572Y-65450000D01*
X99428572Y-65450000D02*
X99142858Y-65545238D01*
X99142858Y-65545238D02*
X98952382Y-65545238D01*
X98952382Y-65545238D02*
X98666667Y-65450000D01*
X98666667Y-65450000D02*
X98476191Y-65259523D01*
X98476191Y-65259523D02*
X98380953Y-65069047D01*
X98380953Y-65069047D02*
X98285715Y-64688095D01*
X98285715Y-64688095D02*
X98285715Y-64402380D01*
X98285715Y-64402380D02*
X98380953Y-64021428D01*
X98380953Y-64021428D02*
X98476191Y-63830952D01*
X98476191Y-63830952D02*
X98666667Y-63640476D01*
X98666667Y-63640476D02*
X98952382Y-63545238D01*
X98952382Y-63545238D02*
X99142858Y-63545238D01*
X99142858Y-63545238D02*
X99428572Y-63640476D01*
X99428572Y-63640476D02*
X99523810Y-63735714D01*
X87142857Y-67737619D02*
X86476190Y-67737619D01*
X86476190Y-68785238D02*
X86476190Y-66785238D01*
X86476190Y-66785238D02*
X87428571Y-66785238D01*
X88190476Y-68785238D02*
X88190476Y-67451904D01*
X88190476Y-67832857D02*
X88285714Y-67642380D01*
X88285714Y-67642380D02*
X88380952Y-67547142D01*
X88380952Y-67547142D02*
X88571428Y-67451904D01*
X88571428Y-67451904D02*
X88761905Y-67451904D01*
X89714285Y-68785238D02*
X89523809Y-68690000D01*
X89523809Y-68690000D02*
X89428571Y-68594761D01*
X89428571Y-68594761D02*
X89333333Y-68404285D01*
X89333333Y-68404285D02*
X89333333Y-67832857D01*
X89333333Y-67832857D02*
X89428571Y-67642380D01*
X89428571Y-67642380D02*
X89523809Y-67547142D01*
X89523809Y-67547142D02*
X89714285Y-67451904D01*
X89714285Y-67451904D02*
X90000000Y-67451904D01*
X90000000Y-67451904D02*
X90190476Y-67547142D01*
X90190476Y-67547142D02*
X90285714Y-67642380D01*
X90285714Y-67642380D02*
X90380952Y-67832857D01*
X90380952Y-67832857D02*
X90380952Y-68404285D01*
X90380952Y-68404285D02*
X90285714Y-68594761D01*
X90285714Y-68594761D02*
X90190476Y-68690000D01*
X90190476Y-68690000D02*
X90000000Y-68785238D01*
X90000000Y-68785238D02*
X89714285Y-68785238D01*
X91238095Y-67451904D02*
X91238095Y-68785238D01*
X91238095Y-67642380D02*
X91333333Y-67547142D01*
X91333333Y-67547142D02*
X91523809Y-67451904D01*
X91523809Y-67451904D02*
X91809524Y-67451904D01*
X91809524Y-67451904D02*
X92000000Y-67547142D01*
X92000000Y-67547142D02*
X92095238Y-67737619D01*
X92095238Y-67737619D02*
X92095238Y-68785238D01*
X92761905Y-67451904D02*
X93523809Y-67451904D01*
X93047619Y-66785238D02*
X93047619Y-68499523D01*
X93047619Y-68499523D02*
X93142857Y-68690000D01*
X93142857Y-68690000D02*
X93333333Y-68785238D01*
X93333333Y-68785238D02*
X93523809Y-68785238D01*
X94952381Y-68690000D02*
X94761905Y-68785238D01*
X94761905Y-68785238D02*
X94380952Y-68785238D01*
X94380952Y-68785238D02*
X94190476Y-68690000D01*
X94190476Y-68690000D02*
X94095238Y-68499523D01*
X94095238Y-68499523D02*
X94095238Y-67737619D01*
X94095238Y-67737619D02*
X94190476Y-67547142D01*
X94190476Y-67547142D02*
X94380952Y-67451904D01*
X94380952Y-67451904D02*
X94761905Y-67451904D01*
X94761905Y-67451904D02*
X94952381Y-67547142D01*
X94952381Y-67547142D02*
X95047619Y-67737619D01*
X95047619Y-67737619D02*
X95047619Y-67928095D01*
X95047619Y-67928095D02*
X94095238Y-68118571D01*
X95904762Y-67451904D02*
X95904762Y-68785238D01*
X95904762Y-67642380D02*
X96000000Y-67547142D01*
X96000000Y-67547142D02*
X96190476Y-67451904D01*
X96190476Y-67451904D02*
X96476191Y-67451904D01*
X96476191Y-67451904D02*
X96666667Y-67547142D01*
X96666667Y-67547142D02*
X96761905Y-67737619D01*
X96761905Y-67737619D02*
X96761905Y-68785238D01*
X98571429Y-68785238D02*
X98571429Y-66785238D01*
X98571429Y-68690000D02*
X98380953Y-68785238D01*
X98380953Y-68785238D02*
X98000000Y-68785238D01*
X98000000Y-68785238D02*
X97809524Y-68690000D01*
X97809524Y-68690000D02*
X97714286Y-68594761D01*
X97714286Y-68594761D02*
X97619048Y-68404285D01*
X97619048Y-68404285D02*
X97619048Y-67832857D01*
X97619048Y-67832857D02*
X97714286Y-67642380D01*
X97714286Y-67642380D02*
X97809524Y-67547142D01*
X97809524Y-67547142D02*
X98000000Y-67451904D01*
X98000000Y-67451904D02*
X98380953Y-67451904D01*
X98380953Y-67451904D02*
X98571429Y-67547142D01*
X101904763Y-68690000D02*
X101714287Y-68785238D01*
X101714287Y-68785238D02*
X101333334Y-68785238D01*
X101333334Y-68785238D02*
X101142858Y-68690000D01*
X101142858Y-68690000D02*
X101047620Y-68594761D01*
X101047620Y-68594761D02*
X100952382Y-68404285D01*
X100952382Y-68404285D02*
X100952382Y-67832857D01*
X100952382Y-67832857D02*
X101047620Y-67642380D01*
X101047620Y-67642380D02*
X101142858Y-67547142D01*
X101142858Y-67547142D02*
X101333334Y-67451904D01*
X101333334Y-67451904D02*
X101714287Y-67451904D01*
X101714287Y-67451904D02*
X101904763Y-67547142D01*
X103047620Y-68785238D02*
X102857144Y-68690000D01*
X102857144Y-68690000D02*
X102761906Y-68594761D01*
X102761906Y-68594761D02*
X102666668Y-68404285D01*
X102666668Y-68404285D02*
X102666668Y-67832857D01*
X102666668Y-67832857D02*
X102761906Y-67642380D01*
X102761906Y-67642380D02*
X102857144Y-67547142D01*
X102857144Y-67547142D02*
X103047620Y-67451904D01*
X103047620Y-67451904D02*
X103333335Y-67451904D01*
X103333335Y-67451904D02*
X103523811Y-67547142D01*
X103523811Y-67547142D02*
X103619049Y-67642380D01*
X103619049Y-67642380D02*
X103714287Y-67832857D01*
X103714287Y-67832857D02*
X103714287Y-68404285D01*
X103714287Y-68404285D02*
X103619049Y-68594761D01*
X103619049Y-68594761D02*
X103523811Y-68690000D01*
X103523811Y-68690000D02*
X103333335Y-68785238D01*
X103333335Y-68785238D02*
X103047620Y-68785238D01*
X104571430Y-67451904D02*
X104571430Y-68785238D01*
X104571430Y-67642380D02*
X104666668Y-67547142D01*
X104666668Y-67547142D02*
X104857144Y-67451904D01*
X104857144Y-67451904D02*
X105142859Y-67451904D01*
X105142859Y-67451904D02*
X105333335Y-67547142D01*
X105333335Y-67547142D02*
X105428573Y-67737619D01*
X105428573Y-67737619D02*
X105428573Y-68785238D01*
X106095240Y-67451904D02*
X106857144Y-67451904D01*
X106380954Y-66785238D02*
X106380954Y-68499523D01*
X106380954Y-68499523D02*
X106476192Y-68690000D01*
X106476192Y-68690000D02*
X106666668Y-68785238D01*
X106666668Y-68785238D02*
X106857144Y-68785238D01*
X107523811Y-68785238D02*
X107523811Y-67451904D01*
X107523811Y-67832857D02*
X107619049Y-67642380D01*
X107619049Y-67642380D02*
X107714287Y-67547142D01*
X107714287Y-67547142D02*
X107904763Y-67451904D01*
X107904763Y-67451904D02*
X108095240Y-67451904D01*
X109047620Y-68785238D02*
X108857144Y-68690000D01*
X108857144Y-68690000D02*
X108761906Y-68594761D01*
X108761906Y-68594761D02*
X108666668Y-68404285D01*
X108666668Y-68404285D02*
X108666668Y-67832857D01*
X108666668Y-67832857D02*
X108761906Y-67642380D01*
X108761906Y-67642380D02*
X108857144Y-67547142D01*
X108857144Y-67547142D02*
X109047620Y-67451904D01*
X109047620Y-67451904D02*
X109333335Y-67451904D01*
X109333335Y-67451904D02*
X109523811Y-67547142D01*
X109523811Y-67547142D02*
X109619049Y-67642380D01*
X109619049Y-67642380D02*
X109714287Y-67832857D01*
X109714287Y-67832857D02*
X109714287Y-68404285D01*
X109714287Y-68404285D02*
X109619049Y-68594761D01*
X109619049Y-68594761D02*
X109523811Y-68690000D01*
X109523811Y-68690000D02*
X109333335Y-68785238D01*
X109333335Y-68785238D02*
X109047620Y-68785238D01*
X110857144Y-68785238D02*
X110666668Y-68690000D01*
X110666668Y-68690000D02*
X110571430Y-68499523D01*
X110571430Y-68499523D02*
X110571430Y-66785238D01*
X113142859Y-68785238D02*
X113142859Y-66785238D01*
X113142859Y-67547142D02*
X113333335Y-67451904D01*
X113333335Y-67451904D02*
X113714288Y-67451904D01*
X113714288Y-67451904D02*
X113904764Y-67547142D01*
X113904764Y-67547142D02*
X114000002Y-67642380D01*
X114000002Y-67642380D02*
X114095240Y-67832857D01*
X114095240Y-67832857D02*
X114095240Y-68404285D01*
X114095240Y-68404285D02*
X114000002Y-68594761D01*
X114000002Y-68594761D02*
X113904764Y-68690000D01*
X113904764Y-68690000D02*
X113714288Y-68785238D01*
X113714288Y-68785238D02*
X113333335Y-68785238D01*
X113333335Y-68785238D02*
X113142859Y-68690000D01*
X115238097Y-68785238D02*
X115047621Y-68690000D01*
X115047621Y-68690000D02*
X114952383Y-68594761D01*
X114952383Y-68594761D02*
X114857145Y-68404285D01*
X114857145Y-68404285D02*
X114857145Y-67832857D01*
X114857145Y-67832857D02*
X114952383Y-67642380D01*
X114952383Y-67642380D02*
X115047621Y-67547142D01*
X115047621Y-67547142D02*
X115238097Y-67451904D01*
X115238097Y-67451904D02*
X115523812Y-67451904D01*
X115523812Y-67451904D02*
X115714288Y-67547142D01*
X115714288Y-67547142D02*
X115809526Y-67642380D01*
X115809526Y-67642380D02*
X115904764Y-67832857D01*
X115904764Y-67832857D02*
X115904764Y-68404285D01*
X115904764Y-68404285D02*
X115809526Y-68594761D01*
X115809526Y-68594761D02*
X115714288Y-68690000D01*
X115714288Y-68690000D02*
X115523812Y-68785238D01*
X115523812Y-68785238D02*
X115238097Y-68785238D01*
X117619050Y-68785238D02*
X117619050Y-67737619D01*
X117619050Y-67737619D02*
X117523812Y-67547142D01*
X117523812Y-67547142D02*
X117333336Y-67451904D01*
X117333336Y-67451904D02*
X116952383Y-67451904D01*
X116952383Y-67451904D02*
X116761907Y-67547142D01*
X117619050Y-68690000D02*
X117428574Y-68785238D01*
X117428574Y-68785238D02*
X116952383Y-68785238D01*
X116952383Y-68785238D02*
X116761907Y-68690000D01*
X116761907Y-68690000D02*
X116666669Y-68499523D01*
X116666669Y-68499523D02*
X116666669Y-68309047D01*
X116666669Y-68309047D02*
X116761907Y-68118571D01*
X116761907Y-68118571D02*
X116952383Y-68023333D01*
X116952383Y-68023333D02*
X117428574Y-68023333D01*
X117428574Y-68023333D02*
X117619050Y-67928095D01*
X118571431Y-68785238D02*
X118571431Y-67451904D01*
X118571431Y-67832857D02*
X118666669Y-67642380D01*
X118666669Y-67642380D02*
X118761907Y-67547142D01*
X118761907Y-67547142D02*
X118952383Y-67451904D01*
X118952383Y-67451904D02*
X119142860Y-67451904D01*
X120666669Y-68785238D02*
X120666669Y-66785238D01*
X120666669Y-68690000D02*
X120476193Y-68785238D01*
X120476193Y-68785238D02*
X120095240Y-68785238D01*
X120095240Y-68785238D02*
X119904764Y-68690000D01*
X119904764Y-68690000D02*
X119809526Y-68594761D01*
X119809526Y-68594761D02*
X119714288Y-68404285D01*
X119714288Y-68404285D02*
X119714288Y-67832857D01*
X119714288Y-67832857D02*
X119809526Y-67642380D01*
X119809526Y-67642380D02*
X119904764Y-67547142D01*
X119904764Y-67547142D02*
X120095240Y-67451904D01*
X120095240Y-67451904D02*
X120476193Y-67451904D01*
X120476193Y-67451904D02*
X120666669Y-67547142D01*
D11*
X94857142Y-123530714D02*
X95357142Y-123530714D01*
X95571428Y-124316428D02*
X94857142Y-124316428D01*
X94857142Y-124316428D02*
X94857142Y-122816428D01*
X94857142Y-122816428D02*
X95571428Y-122816428D01*
X96071428Y-124316428D02*
X96857143Y-123316428D01*
X96071428Y-123316428D02*
X96857143Y-124316428D01*
X97214286Y-123316428D02*
X97785714Y-123316428D01*
X97428571Y-122816428D02*
X97428571Y-124102142D01*
X97428571Y-124102142D02*
X97500000Y-124245000D01*
X97500000Y-124245000D02*
X97642857Y-124316428D01*
X97642857Y-124316428D02*
X97785714Y-124316428D01*
X98285714Y-124173571D02*
X98357143Y-124245000D01*
X98357143Y-124245000D02*
X98285714Y-124316428D01*
X98285714Y-124316428D02*
X98214286Y-124245000D01*
X98214286Y-124245000D02*
X98285714Y-124173571D01*
X98285714Y-124173571D02*
X98285714Y-124316428D01*
X99000000Y-124316428D02*
X99000000Y-122816428D01*
X99000000Y-122816428D02*
X99571429Y-122816428D01*
X99571429Y-122816428D02*
X99714286Y-122887857D01*
X99714286Y-122887857D02*
X99785715Y-122959285D01*
X99785715Y-122959285D02*
X99857143Y-123102142D01*
X99857143Y-123102142D02*
X99857143Y-123316428D01*
X99857143Y-123316428D02*
X99785715Y-123459285D01*
X99785715Y-123459285D02*
X99714286Y-123530714D01*
X99714286Y-123530714D02*
X99571429Y-123602142D01*
X99571429Y-123602142D02*
X99000000Y-123602142D01*
X100357143Y-122816428D02*
X100714286Y-124316428D01*
X100714286Y-124316428D02*
X101000000Y-123245000D01*
X101000000Y-123245000D02*
X101285715Y-124316428D01*
X101285715Y-124316428D02*
X101642858Y-122816428D01*
X103071429Y-124316428D02*
X102571429Y-123602142D01*
X102214286Y-124316428D02*
X102214286Y-122816428D01*
X102214286Y-122816428D02*
X102785715Y-122816428D01*
X102785715Y-122816428D02*
X102928572Y-122887857D01*
X102928572Y-122887857D02*
X103000001Y-122959285D01*
X103000001Y-122959285D02*
X103071429Y-123102142D01*
X103071429Y-123102142D02*
X103071429Y-123316428D01*
X103071429Y-123316428D02*
X103000001Y-123459285D01*
X103000001Y-123459285D02*
X102928572Y-123530714D01*
X102928572Y-123530714D02*
X102785715Y-123602142D01*
X102785715Y-123602142D02*
X102214286Y-123602142D01*
D12*
X87609523Y-114456190D02*
X87533333Y-114418095D01*
X87533333Y-114418095D02*
X87419047Y-114418095D01*
X87419047Y-114418095D02*
X87304761Y-114456190D01*
X87304761Y-114456190D02*
X87228571Y-114532380D01*
X87228571Y-114532380D02*
X87190476Y-114608571D01*
X87190476Y-114608571D02*
X87152380Y-114760952D01*
X87152380Y-114760952D02*
X87152380Y-114875238D01*
X87152380Y-114875238D02*
X87190476Y-115027619D01*
X87190476Y-115027619D02*
X87228571Y-115103809D01*
X87228571Y-115103809D02*
X87304761Y-115180000D01*
X87304761Y-115180000D02*
X87419047Y-115218095D01*
X87419047Y-115218095D02*
X87495238Y-115218095D01*
X87495238Y-115218095D02*
X87609523Y-115180000D01*
X87609523Y-115180000D02*
X87647619Y-115141904D01*
X87647619Y-115141904D02*
X87647619Y-114875238D01*
X87647619Y-114875238D02*
X87495238Y-114875238D01*
X87990476Y-115218095D02*
X87990476Y-114418095D01*
X87990476Y-114418095D02*
X88447619Y-115218095D01*
X88447619Y-115218095D02*
X88447619Y-114418095D01*
X88828571Y-115218095D02*
X88828571Y-114418095D01*
X88828571Y-114418095D02*
X89019047Y-114418095D01*
X89019047Y-114418095D02*
X89133333Y-114456190D01*
X89133333Y-114456190D02*
X89209523Y-114532380D01*
X89209523Y-114532380D02*
X89247618Y-114608571D01*
X89247618Y-114608571D02*
X89285714Y-114760952D01*
X89285714Y-114760952D02*
X89285714Y-114875238D01*
X89285714Y-114875238D02*
X89247618Y-115027619D01*
X89247618Y-115027619D02*
X89209523Y-115103809D01*
X89209523Y-115103809D02*
X89133333Y-115180000D01*
X89133333Y-115180000D02*
X89019047Y-115218095D01*
X89019047Y-115218095D02*
X88828571Y-115218095D01*
X87190476Y-117505333D02*
X87800000Y-117505333D01*
X87495238Y-117810095D02*
X87495238Y-117200571D01*
X88790476Y-117505333D02*
X89400000Y-117505333D01*
X89780952Y-117276761D02*
X90390476Y-117505333D01*
X90390476Y-117505333D02*
X89780952Y-117733904D01*
X87190476Y-120097333D02*
X87800000Y-120097333D01*
X87495238Y-120402095D02*
X87495238Y-119792571D01*
X88790476Y-120097333D02*
X89400000Y-120097333D01*
X89780952Y-119868761D02*
X90390476Y-120097333D01*
X90390476Y-120097333D02*
X89780952Y-120325904D01*
D11*
X90500000Y-137907500D02*
X90714286Y-137978928D01*
X90714286Y-137978928D02*
X91071428Y-137978928D01*
X91071428Y-137978928D02*
X91214286Y-137907500D01*
X91214286Y-137907500D02*
X91285714Y-137836071D01*
X91285714Y-137836071D02*
X91357143Y-137693214D01*
X91357143Y-137693214D02*
X91357143Y-137550357D01*
X91357143Y-137550357D02*
X91285714Y-137407500D01*
X91285714Y-137407500D02*
X91214286Y-137336071D01*
X91214286Y-137336071D02*
X91071428Y-137264642D01*
X91071428Y-137264642D02*
X90785714Y-137193214D01*
X90785714Y-137193214D02*
X90642857Y-137121785D01*
X90642857Y-137121785D02*
X90571428Y-137050357D01*
X90571428Y-137050357D02*
X90500000Y-136907500D01*
X90500000Y-136907500D02*
X90500000Y-136764642D01*
X90500000Y-136764642D02*
X90571428Y-136621785D01*
X90571428Y-136621785D02*
X90642857Y-136550357D01*
X90642857Y-136550357D02*
X90785714Y-136478928D01*
X90785714Y-136478928D02*
X91142857Y-136478928D01*
X91142857Y-136478928D02*
X91357143Y-136550357D01*
X92642857Y-137907500D02*
X92499999Y-137978928D01*
X92499999Y-137978928D02*
X92214285Y-137978928D01*
X92214285Y-137978928D02*
X92071428Y-137907500D01*
X92071428Y-137907500D02*
X91999999Y-137836071D01*
X91999999Y-137836071D02*
X91928571Y-137693214D01*
X91928571Y-137693214D02*
X91928571Y-137264642D01*
X91928571Y-137264642D02*
X91999999Y-137121785D01*
X91999999Y-137121785D02*
X92071428Y-137050357D01*
X92071428Y-137050357D02*
X92214285Y-136978928D01*
X92214285Y-136978928D02*
X92499999Y-136978928D01*
X92499999Y-136978928D02*
X92642857Y-137050357D01*
X93285713Y-137978928D02*
X93285713Y-136478928D01*
X93928571Y-137978928D02*
X93928571Y-137193214D01*
X93928571Y-137193214D02*
X93857142Y-137050357D01*
X93857142Y-137050357D02*
X93714285Y-136978928D01*
X93714285Y-136978928D02*
X93499999Y-136978928D01*
X93499999Y-136978928D02*
X93357142Y-137050357D01*
X93357142Y-137050357D02*
X93285713Y-137121785D01*
X95214285Y-137907500D02*
X95071428Y-137978928D01*
X95071428Y-137978928D02*
X94785714Y-137978928D01*
X94785714Y-137978928D02*
X94642856Y-137907500D01*
X94642856Y-137907500D02*
X94571428Y-137764642D01*
X94571428Y-137764642D02*
X94571428Y-137193214D01*
X94571428Y-137193214D02*
X94642856Y-137050357D01*
X94642856Y-137050357D02*
X94785714Y-136978928D01*
X94785714Y-136978928D02*
X95071428Y-136978928D01*
X95071428Y-136978928D02*
X95214285Y-137050357D01*
X95214285Y-137050357D02*
X95285714Y-137193214D01*
X95285714Y-137193214D02*
X95285714Y-137336071D01*
X95285714Y-137336071D02*
X94571428Y-137478928D01*
X95928570Y-137978928D02*
X95928570Y-136978928D01*
X95928570Y-137121785D02*
X95999999Y-137050357D01*
X95999999Y-137050357D02*
X96142856Y-136978928D01*
X96142856Y-136978928D02*
X96357142Y-136978928D01*
X96357142Y-136978928D02*
X96499999Y-137050357D01*
X96499999Y-137050357D02*
X96571428Y-137193214D01*
X96571428Y-137193214D02*
X96571428Y-137978928D01*
X96571428Y-137193214D02*
X96642856Y-137050357D01*
X96642856Y-137050357D02*
X96785713Y-136978928D01*
X96785713Y-136978928D02*
X96999999Y-136978928D01*
X96999999Y-136978928D02*
X97142856Y-137050357D01*
X97142856Y-137050357D02*
X97214285Y-137193214D01*
X97214285Y-137193214D02*
X97214285Y-137978928D01*
X98571428Y-137978928D02*
X98571428Y-137193214D01*
X98571428Y-137193214D02*
X98499999Y-137050357D01*
X98499999Y-137050357D02*
X98357142Y-136978928D01*
X98357142Y-136978928D02*
X98071428Y-136978928D01*
X98071428Y-136978928D02*
X97928570Y-137050357D01*
X98571428Y-137907500D02*
X98428570Y-137978928D01*
X98428570Y-137978928D02*
X98071428Y-137978928D01*
X98071428Y-137978928D02*
X97928570Y-137907500D01*
X97928570Y-137907500D02*
X97857142Y-137764642D01*
X97857142Y-137764642D02*
X97857142Y-137621785D01*
X97857142Y-137621785D02*
X97928570Y-137478928D01*
X97928570Y-137478928D02*
X98071428Y-137407500D01*
X98071428Y-137407500D02*
X98428570Y-137407500D01*
X98428570Y-137407500D02*
X98571428Y-137336071D01*
X99071428Y-136978928D02*
X99642856Y-136978928D01*
X99285713Y-136478928D02*
X99285713Y-137764642D01*
X99285713Y-137764642D02*
X99357142Y-137907500D01*
X99357142Y-137907500D02*
X99499999Y-137978928D01*
X99499999Y-137978928D02*
X99642856Y-137978928D01*
X100142856Y-137978928D02*
X100142856Y-136978928D01*
X100142856Y-136478928D02*
X100071428Y-136550357D01*
X100071428Y-136550357D02*
X100142856Y-136621785D01*
X100142856Y-136621785D02*
X100214285Y-136550357D01*
X100214285Y-136550357D02*
X100142856Y-136478928D01*
X100142856Y-136478928D02*
X100142856Y-136621785D01*
X101500000Y-137907500D02*
X101357142Y-137978928D01*
X101357142Y-137978928D02*
X101071428Y-137978928D01*
X101071428Y-137978928D02*
X100928571Y-137907500D01*
X100928571Y-137907500D02*
X100857142Y-137836071D01*
X100857142Y-137836071D02*
X100785714Y-137693214D01*
X100785714Y-137693214D02*
X100785714Y-137264642D01*
X100785714Y-137264642D02*
X100857142Y-137121785D01*
X100857142Y-137121785D02*
X100928571Y-137050357D01*
X100928571Y-137050357D02*
X101071428Y-136978928D01*
X101071428Y-136978928D02*
X101357142Y-136978928D01*
X101357142Y-136978928D02*
X101500000Y-137050357D01*
X103285713Y-137978928D02*
X103285713Y-136478928D01*
X104142856Y-137978928D02*
X103499999Y-137121785D01*
X104142856Y-136478928D02*
X103285713Y-137336071D01*
X104785713Y-137193214D02*
X105285713Y-137193214D01*
X105499999Y-137978928D02*
X104785713Y-137978928D01*
X104785713Y-137978928D02*
X104785713Y-136478928D01*
X104785713Y-136478928D02*
X105499999Y-136478928D01*
X106214285Y-137978928D02*
X106499999Y-137978928D01*
X106499999Y-137978928D02*
X106642856Y-137907500D01*
X106642856Y-137907500D02*
X106714285Y-137836071D01*
X106714285Y-137836071D02*
X106857142Y-137621785D01*
X106857142Y-137621785D02*
X106928571Y-137336071D01*
X106928571Y-137336071D02*
X106928571Y-136764642D01*
X106928571Y-136764642D02*
X106857142Y-136621785D01*
X106857142Y-136621785D02*
X106785714Y-136550357D01*
X106785714Y-136550357D02*
X106642856Y-136478928D01*
X106642856Y-136478928D02*
X106357142Y-136478928D01*
X106357142Y-136478928D02*
X106214285Y-136550357D01*
X106214285Y-136550357D02*
X106142856Y-136621785D01*
X106142856Y-136621785D02*
X106071428Y-136764642D01*
X106071428Y-136764642D02*
X106071428Y-137121785D01*
X106071428Y-137121785D02*
X106142856Y-137264642D01*
X106142856Y-137264642D02*
X106214285Y-137336071D01*
X106214285Y-137336071D02*
X106357142Y-137407500D01*
X106357142Y-137407500D02*
X106642856Y-137407500D01*
X106642856Y-137407500D02*
X106785714Y-137336071D01*
X106785714Y-137336071D02*
X106857142Y-137264642D01*
X106857142Y-137264642D02*
X106928571Y-137121785D01*
X107571427Y-137978928D02*
X107571427Y-136478928D01*
X107571427Y-137193214D02*
X108428570Y-137193214D01*
X108428570Y-137978928D02*
X108428570Y-136478928D01*
X110214285Y-136407500D02*
X108928571Y-138336071D01*
X111642857Y-136478928D02*
X112142857Y-137978928D01*
X112142857Y-137978928D02*
X112642857Y-136478928D01*
X113142856Y-137978928D02*
X113142856Y-136478928D01*
X113999999Y-137978928D02*
X113357142Y-137121785D01*
X113999999Y-136478928D02*
X113142856Y-137336071D01*
X115285714Y-136478928D02*
X114999999Y-136478928D01*
X114999999Y-136478928D02*
X114857142Y-136550357D01*
X114857142Y-136550357D02*
X114785714Y-136621785D01*
X114785714Y-136621785D02*
X114642856Y-136836071D01*
X114642856Y-136836071D02*
X114571428Y-137121785D01*
X114571428Y-137121785D02*
X114571428Y-137693214D01*
X114571428Y-137693214D02*
X114642856Y-137836071D01*
X114642856Y-137836071D02*
X114714285Y-137907500D01*
X114714285Y-137907500D02*
X114857142Y-137978928D01*
X114857142Y-137978928D02*
X115142856Y-137978928D01*
X115142856Y-137978928D02*
X115285714Y-137907500D01*
X115285714Y-137907500D02*
X115357142Y-137836071D01*
X115357142Y-137836071D02*
X115428571Y-137693214D01*
X115428571Y-137693214D02*
X115428571Y-137336071D01*
X115428571Y-137336071D02*
X115357142Y-137193214D01*
X115357142Y-137193214D02*
X115285714Y-137121785D01*
X115285714Y-137121785D02*
X115142856Y-137050357D01*
X115142856Y-137050357D02*
X114857142Y-137050357D01*
X114857142Y-137050357D02*
X114714285Y-137121785D01*
X114714285Y-137121785D02*
X114642856Y-137193214D01*
X114642856Y-137193214D02*
X114571428Y-137336071D01*
X116071427Y-137978928D02*
X116071427Y-136478928D01*
X116071427Y-136478928D02*
X116642856Y-136478928D01*
X116642856Y-136478928D02*
X116785713Y-136550357D01*
X116785713Y-136550357D02*
X116857142Y-136621785D01*
X116857142Y-136621785D02*
X116928570Y-136764642D01*
X116928570Y-136764642D02*
X116928570Y-136978928D01*
X116928570Y-136978928D02*
X116857142Y-137121785D01*
X116857142Y-137121785D02*
X116785713Y-137193214D01*
X116785713Y-137193214D02*
X116642856Y-137264642D01*
X116642856Y-137264642D02*
X116071427Y-137264642D01*
X117571427Y-137978928D02*
X117571427Y-136478928D01*
X117571427Y-137193214D02*
X118428570Y-137193214D01*
X118428570Y-137978928D02*
X118428570Y-136478928D01*
X97285713Y-140408928D02*
X97285713Y-138908928D01*
X97285713Y-138908928D02*
X97642856Y-138908928D01*
X97642856Y-138908928D02*
X97857142Y-138980357D01*
X97857142Y-138980357D02*
X97999999Y-139123214D01*
X97999999Y-139123214D02*
X98071428Y-139266071D01*
X98071428Y-139266071D02*
X98142856Y-139551785D01*
X98142856Y-139551785D02*
X98142856Y-139766071D01*
X98142856Y-139766071D02*
X98071428Y-140051785D01*
X98071428Y-140051785D02*
X97999999Y-140194642D01*
X97999999Y-140194642D02*
X97857142Y-140337500D01*
X97857142Y-140337500D02*
X97642856Y-140408928D01*
X97642856Y-140408928D02*
X97285713Y-140408928D01*
X98785713Y-140408928D02*
X98785713Y-139408928D01*
X98785713Y-139694642D02*
X98857142Y-139551785D01*
X98857142Y-139551785D02*
X98928571Y-139480357D01*
X98928571Y-139480357D02*
X99071428Y-139408928D01*
X99071428Y-139408928D02*
X99214285Y-139408928D01*
X100357142Y-140408928D02*
X100357142Y-139623214D01*
X100357142Y-139623214D02*
X100285713Y-139480357D01*
X100285713Y-139480357D02*
X100142856Y-139408928D01*
X100142856Y-139408928D02*
X99857142Y-139408928D01*
X99857142Y-139408928D02*
X99714284Y-139480357D01*
X100357142Y-140337500D02*
X100214284Y-140408928D01*
X100214284Y-140408928D02*
X99857142Y-140408928D01*
X99857142Y-140408928D02*
X99714284Y-140337500D01*
X99714284Y-140337500D02*
X99642856Y-140194642D01*
X99642856Y-140194642D02*
X99642856Y-140051785D01*
X99642856Y-140051785D02*
X99714284Y-139908928D01*
X99714284Y-139908928D02*
X99857142Y-139837500D01*
X99857142Y-139837500D02*
X100214284Y-139837500D01*
X100214284Y-139837500D02*
X100357142Y-139766071D01*
X100928570Y-139408928D02*
X101214285Y-140408928D01*
X101214285Y-140408928D02*
X101499999Y-139694642D01*
X101499999Y-139694642D02*
X101785713Y-140408928D01*
X101785713Y-140408928D02*
X102071427Y-139408928D01*
X102642856Y-140408928D02*
X102642856Y-139408928D01*
X102642856Y-138908928D02*
X102571428Y-138980357D01*
X102571428Y-138980357D02*
X102642856Y-139051785D01*
X102642856Y-139051785D02*
X102714285Y-138980357D01*
X102714285Y-138980357D02*
X102642856Y-138908928D01*
X102642856Y-138908928D02*
X102642856Y-139051785D01*
X103357142Y-139408928D02*
X103357142Y-140408928D01*
X103357142Y-139551785D02*
X103428571Y-139480357D01*
X103428571Y-139480357D02*
X103571428Y-139408928D01*
X103571428Y-139408928D02*
X103785714Y-139408928D01*
X103785714Y-139408928D02*
X103928571Y-139480357D01*
X103928571Y-139480357D02*
X104000000Y-139623214D01*
X104000000Y-139623214D02*
X104000000Y-140408928D01*
X105357143Y-139408928D02*
X105357143Y-140623214D01*
X105357143Y-140623214D02*
X105285714Y-140766071D01*
X105285714Y-140766071D02*
X105214285Y-140837500D01*
X105214285Y-140837500D02*
X105071428Y-140908928D01*
X105071428Y-140908928D02*
X104857143Y-140908928D01*
X104857143Y-140908928D02*
X104714285Y-140837500D01*
X105357143Y-140337500D02*
X105214285Y-140408928D01*
X105214285Y-140408928D02*
X104928571Y-140408928D01*
X104928571Y-140408928D02*
X104785714Y-140337500D01*
X104785714Y-140337500D02*
X104714285Y-140266071D01*
X104714285Y-140266071D02*
X104642857Y-140123214D01*
X104642857Y-140123214D02*
X104642857Y-139694642D01*
X104642857Y-139694642D02*
X104714285Y-139551785D01*
X104714285Y-139551785D02*
X104785714Y-139480357D01*
X104785714Y-139480357D02*
X104928571Y-139408928D01*
X104928571Y-139408928D02*
X105214285Y-139408928D01*
X105214285Y-139408928D02*
X105357143Y-139480357D01*
X107000000Y-139408928D02*
X107571428Y-139408928D01*
X107214285Y-140408928D02*
X107214285Y-139123214D01*
X107214285Y-139123214D02*
X107285714Y-138980357D01*
X107285714Y-138980357D02*
X107428571Y-138908928D01*
X107428571Y-138908928D02*
X107571428Y-138908928D01*
X108714286Y-138908928D02*
X108428571Y-138908928D01*
X108428571Y-138908928D02*
X108285714Y-138980357D01*
X108285714Y-138980357D02*
X108214286Y-139051785D01*
X108214286Y-139051785D02*
X108071428Y-139266071D01*
X108071428Y-139266071D02*
X108000000Y-139551785D01*
X108000000Y-139551785D02*
X108000000Y-140123214D01*
X108000000Y-140123214D02*
X108071428Y-140266071D01*
X108071428Y-140266071D02*
X108142857Y-140337500D01*
X108142857Y-140337500D02*
X108285714Y-140408928D01*
X108285714Y-140408928D02*
X108571428Y-140408928D01*
X108571428Y-140408928D02*
X108714286Y-140337500D01*
X108714286Y-140337500D02*
X108785714Y-140266071D01*
X108785714Y-140266071D02*
X108857143Y-140123214D01*
X108857143Y-140123214D02*
X108857143Y-139766071D01*
X108857143Y-139766071D02*
X108785714Y-139623214D01*
X108785714Y-139623214D02*
X108714286Y-139551785D01*
X108714286Y-139551785D02*
X108571428Y-139480357D01*
X108571428Y-139480357D02*
X108285714Y-139480357D01*
X108285714Y-139480357D02*
X108142857Y-139551785D01*
X108142857Y-139551785D02*
X108071428Y-139623214D01*
X108071428Y-139623214D02*
X108000000Y-139766071D01*
X109499999Y-140408928D02*
X109499999Y-139408928D01*
X109499999Y-138908928D02*
X109428571Y-138980357D01*
X109428571Y-138980357D02*
X109499999Y-139051785D01*
X109499999Y-139051785D02*
X109571428Y-138980357D01*
X109571428Y-138980357D02*
X109499999Y-138908928D01*
X109499999Y-138908928D02*
X109499999Y-139051785D01*
X110000000Y-139408928D02*
X110571428Y-139408928D01*
X110214285Y-138908928D02*
X110214285Y-140194642D01*
X110214285Y-140194642D02*
X110285714Y-140337500D01*
X110285714Y-140337500D02*
X110428571Y-140408928D01*
X110428571Y-140408928D02*
X110571428Y-140408928D01*
X111714286Y-139408928D02*
X111714286Y-140408928D01*
X111071428Y-139408928D02*
X111071428Y-140194642D01*
X111071428Y-140194642D02*
X111142857Y-140337500D01*
X111142857Y-140337500D02*
X111285714Y-140408928D01*
X111285714Y-140408928D02*
X111500000Y-140408928D01*
X111500000Y-140408928D02*
X111642857Y-140337500D01*
X111642857Y-140337500D02*
X111714286Y-140266071D01*
X87265357Y-107178570D02*
X87265357Y-106464285D01*
X87693928Y-107321427D02*
X86193928Y-106821427D01*
X86193928Y-106821427D02*
X87693928Y-106321427D01*
X87693928Y-105607142D02*
X87622500Y-105749999D01*
X87622500Y-105749999D02*
X87479642Y-105821428D01*
X87479642Y-105821428D02*
X86193928Y-105821428D01*
X87622500Y-104464285D02*
X87693928Y-104607142D01*
X87693928Y-104607142D02*
X87693928Y-104892857D01*
X87693928Y-104892857D02*
X87622500Y-105035714D01*
X87622500Y-105035714D02*
X87479642Y-105107142D01*
X87479642Y-105107142D02*
X86908214Y-105107142D01*
X86908214Y-105107142D02*
X86765357Y-105035714D01*
X86765357Y-105035714D02*
X86693928Y-104892857D01*
X86693928Y-104892857D02*
X86693928Y-104607142D01*
X86693928Y-104607142D02*
X86765357Y-104464285D01*
X86765357Y-104464285D02*
X86908214Y-104392857D01*
X86908214Y-104392857D02*
X87051071Y-104392857D01*
X87051071Y-104392857D02*
X87193928Y-105107142D01*
X87693928Y-103892857D02*
X86693928Y-103107143D01*
X86693928Y-103892857D02*
X87693928Y-103107143D01*
X87693928Y-101392857D02*
X86193928Y-101392857D01*
X86693928Y-100678571D02*
X87693928Y-100678571D01*
X86836785Y-100678571D02*
X86765357Y-100607142D01*
X86765357Y-100607142D02*
X86693928Y-100464285D01*
X86693928Y-100464285D02*
X86693928Y-100249999D01*
X86693928Y-100249999D02*
X86765357Y-100107142D01*
X86765357Y-100107142D02*
X86908214Y-100035714D01*
X86908214Y-100035714D02*
X87693928Y-100035714D01*
X88265357Y-97749999D02*
X88193928Y-97821428D01*
X88193928Y-97821428D02*
X87979642Y-97964285D01*
X87979642Y-97964285D02*
X87836785Y-98035714D01*
X87836785Y-98035714D02*
X87622500Y-98107142D01*
X87622500Y-98107142D02*
X87265357Y-98178571D01*
X87265357Y-98178571D02*
X86979642Y-98178571D01*
X86979642Y-98178571D02*
X86622500Y-98107142D01*
X86622500Y-98107142D02*
X86408214Y-98035714D01*
X86408214Y-98035714D02*
X86265357Y-97964285D01*
X86265357Y-97964285D02*
X86051071Y-97821428D01*
X86051071Y-97821428D02*
X85979642Y-97749999D01*
X86193928Y-96749999D02*
X87265357Y-96749999D01*
X87265357Y-96749999D02*
X87479642Y-96821428D01*
X87479642Y-96821428D02*
X87622500Y-96964285D01*
X87622500Y-96964285D02*
X87693928Y-97178571D01*
X87693928Y-97178571D02*
X87693928Y-97321428D01*
X87693928Y-95249999D02*
X87693928Y-96107142D01*
X87693928Y-95678571D02*
X86193928Y-95678571D01*
X86193928Y-95678571D02*
X86408214Y-95821428D01*
X86408214Y-95821428D02*
X86551071Y-95964285D01*
X86551071Y-95964285D02*
X86622500Y-96107142D01*
X86193928Y-93892857D02*
X86193928Y-94607143D01*
X86193928Y-94607143D02*
X86908214Y-94678571D01*
X86908214Y-94678571D02*
X86836785Y-94607143D01*
X86836785Y-94607143D02*
X86765357Y-94464286D01*
X86765357Y-94464286D02*
X86765357Y-94107143D01*
X86765357Y-94107143D02*
X86836785Y-93964286D01*
X86836785Y-93964286D02*
X86908214Y-93892857D01*
X86908214Y-93892857D02*
X87051071Y-93821428D01*
X87051071Y-93821428D02*
X87408214Y-93821428D01*
X87408214Y-93821428D02*
X87551071Y-93892857D01*
X87551071Y-93892857D02*
X87622500Y-93964286D01*
X87622500Y-93964286D02*
X87693928Y-94107143D01*
X87693928Y-94107143D02*
X87693928Y-94464286D01*
X87693928Y-94464286D02*
X87622500Y-94607143D01*
X87622500Y-94607143D02*
X87551071Y-94678571D01*
X88265357Y-93321429D02*
X88193928Y-93250000D01*
X88193928Y-93250000D02*
X87979642Y-93107143D01*
X87979642Y-93107143D02*
X87836785Y-93035715D01*
X87836785Y-93035715D02*
X87622500Y-92964286D01*
X87622500Y-92964286D02*
X87265357Y-92892857D01*
X87265357Y-92892857D02*
X86979642Y-92892857D01*
X86979642Y-92892857D02*
X86622500Y-92964286D01*
X86622500Y-92964286D02*
X86408214Y-93035715D01*
X86408214Y-93035715D02*
X86265357Y-93107143D01*
X86265357Y-93107143D02*
X86051071Y-93250000D01*
X86051071Y-93250000D02*
X85979642Y-93321429D01*
X172183571Y-125642857D02*
X172183571Y-126500000D01*
X170683571Y-126071428D02*
X172183571Y-126071428D01*
X170683571Y-127214285D02*
X170755000Y-127071428D01*
X170755000Y-127071428D02*
X170826428Y-126999999D01*
X170826428Y-126999999D02*
X170969285Y-126928571D01*
X170969285Y-126928571D02*
X171397857Y-126928571D01*
X171397857Y-126928571D02*
X171540714Y-126999999D01*
X171540714Y-126999999D02*
X171612142Y-127071428D01*
X171612142Y-127071428D02*
X171683571Y-127214285D01*
X171683571Y-127214285D02*
X171683571Y-127428571D01*
X171683571Y-127428571D02*
X171612142Y-127571428D01*
X171612142Y-127571428D02*
X171540714Y-127642857D01*
X171540714Y-127642857D02*
X171397857Y-127714285D01*
X171397857Y-127714285D02*
X170969285Y-127714285D01*
X170969285Y-127714285D02*
X170826428Y-127642857D01*
X170826428Y-127642857D02*
X170755000Y-127571428D01*
X170755000Y-127571428D02*
X170683571Y-127428571D01*
X170683571Y-127428571D02*
X170683571Y-127214285D01*
X171112142Y-129428571D02*
X171112142Y-130142857D01*
X170683571Y-129285714D02*
X172183571Y-129785714D01*
X172183571Y-129785714D02*
X170683571Y-130285714D01*
X170683571Y-130999999D02*
X170755000Y-130857142D01*
X170755000Y-130857142D02*
X170897857Y-130785713D01*
X170897857Y-130785713D02*
X172183571Y-130785713D01*
X170755000Y-132142856D02*
X170683571Y-131999999D01*
X170683571Y-131999999D02*
X170683571Y-131714285D01*
X170683571Y-131714285D02*
X170755000Y-131571427D01*
X170755000Y-131571427D02*
X170897857Y-131499999D01*
X170897857Y-131499999D02*
X171469285Y-131499999D01*
X171469285Y-131499999D02*
X171612142Y-131571427D01*
X171612142Y-131571427D02*
X171683571Y-131714285D01*
X171683571Y-131714285D02*
X171683571Y-131999999D01*
X171683571Y-131999999D02*
X171612142Y-132142856D01*
X171612142Y-132142856D02*
X171469285Y-132214285D01*
X171469285Y-132214285D02*
X171326428Y-132214285D01*
X171326428Y-132214285D02*
X171183571Y-131499999D01*
X170683571Y-132714284D02*
X171683571Y-133499999D01*
X171683571Y-132714284D02*
X170683571Y-133499999D01*
X171469285Y-135714284D02*
X171397857Y-135928570D01*
X171397857Y-135928570D02*
X171326428Y-135999999D01*
X171326428Y-135999999D02*
X171183571Y-136071427D01*
X171183571Y-136071427D02*
X170969285Y-136071427D01*
X170969285Y-136071427D02*
X170826428Y-135999999D01*
X170826428Y-135999999D02*
X170755000Y-135928570D01*
X170755000Y-135928570D02*
X170683571Y-135785713D01*
X170683571Y-135785713D02*
X170683571Y-135214284D01*
X170683571Y-135214284D02*
X172183571Y-135214284D01*
X172183571Y-135214284D02*
X172183571Y-135714284D01*
X172183571Y-135714284D02*
X172112142Y-135857142D01*
X172112142Y-135857142D02*
X172040714Y-135928570D01*
X172040714Y-135928570D02*
X171897857Y-135999999D01*
X171897857Y-135999999D02*
X171755000Y-135999999D01*
X171755000Y-135999999D02*
X171612142Y-135928570D01*
X171612142Y-135928570D02*
X171540714Y-135857142D01*
X171540714Y-135857142D02*
X171469285Y-135714284D01*
X171469285Y-135714284D02*
X171469285Y-135214284D01*
X170683571Y-136714284D02*
X172183571Y-136714284D01*
X172183571Y-136714284D02*
X172183571Y-137285713D01*
X172183571Y-137285713D02*
X172112142Y-137428570D01*
X172112142Y-137428570D02*
X172040714Y-137499999D01*
X172040714Y-137499999D02*
X171897857Y-137571427D01*
X171897857Y-137571427D02*
X171683571Y-137571427D01*
X171683571Y-137571427D02*
X171540714Y-137499999D01*
X171540714Y-137499999D02*
X171469285Y-137428570D01*
X171469285Y-137428570D02*
X171397857Y-137285713D01*
X171397857Y-137285713D02*
X171397857Y-136714284D01*
X171469285Y-138714284D02*
X171469285Y-138214284D01*
X170683571Y-138214284D02*
X172183571Y-138214284D01*
X172183571Y-138214284D02*
X172183571Y-138928570D01*
X171255000Y-139499998D02*
X171255000Y-140642856D01*
X172040714Y-141285713D02*
X172112142Y-141357141D01*
X172112142Y-141357141D02*
X172183571Y-141499999D01*
X172183571Y-141499999D02*
X172183571Y-141857141D01*
X172183571Y-141857141D02*
X172112142Y-141999999D01*
X172112142Y-141999999D02*
X172040714Y-142071427D01*
X172040714Y-142071427D02*
X171897857Y-142142856D01*
X171897857Y-142142856D02*
X171755000Y-142142856D01*
X171755000Y-142142856D02*
X171540714Y-142071427D01*
X171540714Y-142071427D02*
X170683571Y-141214284D01*
X170683571Y-141214284D02*
X170683571Y-142142856D01*
X96988214Y-111096428D02*
X96988214Y-112167857D01*
X96988214Y-112167857D02*
X96916785Y-112382142D01*
X96916785Y-112382142D02*
X96773928Y-112525000D01*
X96773928Y-112525000D02*
X96559642Y-112596428D01*
X96559642Y-112596428D02*
X96416785Y-112596428D01*
X98488214Y-112596428D02*
X97631071Y-112596428D01*
X98059642Y-112596428D02*
X98059642Y-111096428D01*
X98059642Y-111096428D02*
X97916785Y-111310714D01*
X97916785Y-111310714D02*
X97773928Y-111453571D01*
X97773928Y-111453571D02*
X97631071Y-111525000D01*
X99773928Y-111096428D02*
X99488213Y-111096428D01*
X99488213Y-111096428D02*
X99345356Y-111167857D01*
X99345356Y-111167857D02*
X99273928Y-111239285D01*
X99273928Y-111239285D02*
X99131070Y-111453571D01*
X99131070Y-111453571D02*
X99059642Y-111739285D01*
X99059642Y-111739285D02*
X99059642Y-112310714D01*
X99059642Y-112310714D02*
X99131070Y-112453571D01*
X99131070Y-112453571D02*
X99202499Y-112525000D01*
X99202499Y-112525000D02*
X99345356Y-112596428D01*
X99345356Y-112596428D02*
X99631070Y-112596428D01*
X99631070Y-112596428D02*
X99773928Y-112525000D01*
X99773928Y-112525000D02*
X99845356Y-112453571D01*
X99845356Y-112453571D02*
X99916785Y-112310714D01*
X99916785Y-112310714D02*
X99916785Y-111953571D01*
X99916785Y-111953571D02*
X99845356Y-111810714D01*
X99845356Y-111810714D02*
X99773928Y-111739285D01*
X99773928Y-111739285D02*
X99631070Y-111667857D01*
X99631070Y-111667857D02*
X99345356Y-111667857D01*
X99345356Y-111667857D02*
X99202499Y-111739285D01*
X99202499Y-111739285D02*
X99131070Y-111810714D01*
X99131070Y-111810714D02*
X99059642Y-111953571D01*
X101702498Y-112596428D02*
X101702498Y-111096428D01*
X101702498Y-111096428D02*
X102273927Y-111096428D01*
X102273927Y-111096428D02*
X102416784Y-111167857D01*
X102416784Y-111167857D02*
X102488213Y-111239285D01*
X102488213Y-111239285D02*
X102559641Y-111382142D01*
X102559641Y-111382142D02*
X102559641Y-111596428D01*
X102559641Y-111596428D02*
X102488213Y-111739285D01*
X102488213Y-111739285D02*
X102416784Y-111810714D01*
X102416784Y-111810714D02*
X102273927Y-111882142D01*
X102273927Y-111882142D02*
X101702498Y-111882142D01*
X103059641Y-111096428D02*
X103416784Y-112596428D01*
X103416784Y-112596428D02*
X103702498Y-111525000D01*
X103702498Y-111525000D02*
X103988213Y-112596428D01*
X103988213Y-112596428D02*
X104345356Y-111096428D01*
X105773927Y-112596428D02*
X105273927Y-111882142D01*
X104916784Y-112596428D02*
X104916784Y-111096428D01*
X104916784Y-111096428D02*
X105488213Y-111096428D01*
X105488213Y-111096428D02*
X105631070Y-111167857D01*
X105631070Y-111167857D02*
X105702499Y-111239285D01*
X105702499Y-111239285D02*
X105773927Y-111382142D01*
X105773927Y-111382142D02*
X105773927Y-111596428D01*
X105773927Y-111596428D02*
X105702499Y-111739285D01*
X105702499Y-111739285D02*
X105631070Y-111810714D01*
X105631070Y-111810714D02*
X105488213Y-111882142D01*
X105488213Y-111882142D02*
X104916784Y-111882142D01*
X171806071Y-65964286D02*
X171806071Y-66821429D01*
X170306071Y-66392857D02*
X171806071Y-66392857D01*
X170306071Y-67535714D02*
X170377500Y-67392857D01*
X170377500Y-67392857D02*
X170448928Y-67321428D01*
X170448928Y-67321428D02*
X170591785Y-67250000D01*
X170591785Y-67250000D02*
X171020357Y-67250000D01*
X171020357Y-67250000D02*
X171163214Y-67321428D01*
X171163214Y-67321428D02*
X171234642Y-67392857D01*
X171234642Y-67392857D02*
X171306071Y-67535714D01*
X171306071Y-67535714D02*
X171306071Y-67750000D01*
X171306071Y-67750000D02*
X171234642Y-67892857D01*
X171234642Y-67892857D02*
X171163214Y-67964286D01*
X171163214Y-67964286D02*
X171020357Y-68035714D01*
X171020357Y-68035714D02*
X170591785Y-68035714D01*
X170591785Y-68035714D02*
X170448928Y-67964286D01*
X170448928Y-67964286D02*
X170377500Y-67892857D01*
X170377500Y-67892857D02*
X170306071Y-67750000D01*
X170306071Y-67750000D02*
X170306071Y-67535714D01*
X170734642Y-69750000D02*
X170734642Y-70464286D01*
X170306071Y-69607143D02*
X171806071Y-70107143D01*
X171806071Y-70107143D02*
X170306071Y-70607143D01*
X170306071Y-71321428D02*
X170377500Y-71178571D01*
X170377500Y-71178571D02*
X170520357Y-71107142D01*
X170520357Y-71107142D02*
X171806071Y-71107142D01*
X170377500Y-72464285D02*
X170306071Y-72321428D01*
X170306071Y-72321428D02*
X170306071Y-72035714D01*
X170306071Y-72035714D02*
X170377500Y-71892856D01*
X170377500Y-71892856D02*
X170520357Y-71821428D01*
X170520357Y-71821428D02*
X171091785Y-71821428D01*
X171091785Y-71821428D02*
X171234642Y-71892856D01*
X171234642Y-71892856D02*
X171306071Y-72035714D01*
X171306071Y-72035714D02*
X171306071Y-72321428D01*
X171306071Y-72321428D02*
X171234642Y-72464285D01*
X171234642Y-72464285D02*
X171091785Y-72535714D01*
X171091785Y-72535714D02*
X170948928Y-72535714D01*
X170948928Y-72535714D02*
X170806071Y-71821428D01*
X170306071Y-73035713D02*
X171306071Y-73821428D01*
X171306071Y-73035713D02*
X170306071Y-73821428D01*
X170306071Y-76249999D02*
X170306071Y-75535713D01*
X170306071Y-75535713D02*
X171806071Y-75535713D01*
X170306071Y-76749999D02*
X171806071Y-76749999D01*
X171806071Y-76749999D02*
X171806071Y-77321428D01*
X171806071Y-77321428D02*
X171734642Y-77464285D01*
X171734642Y-77464285D02*
X171663214Y-77535714D01*
X171663214Y-77535714D02*
X171520357Y-77607142D01*
X171520357Y-77607142D02*
X171306071Y-77607142D01*
X171306071Y-77607142D02*
X171163214Y-77535714D01*
X171163214Y-77535714D02*
X171091785Y-77464285D01*
X171091785Y-77464285D02*
X171020357Y-77321428D01*
X171020357Y-77321428D02*
X171020357Y-76749999D01*
X171091785Y-78749999D02*
X171091785Y-78249999D01*
X170306071Y-78249999D02*
X171806071Y-78249999D01*
X171806071Y-78249999D02*
X171806071Y-78964285D01*
X166612142Y-86285714D02*
X166612142Y-87000000D01*
X166183571Y-86142857D02*
X167683571Y-86642857D01*
X167683571Y-86642857D02*
X166183571Y-87142857D01*
X167183571Y-87428571D02*
X167183571Y-87999999D01*
X167683571Y-87642856D02*
X166397857Y-87642856D01*
X166397857Y-87642856D02*
X166255000Y-87714285D01*
X166255000Y-87714285D02*
X166183571Y-87857142D01*
X166183571Y-87857142D02*
X166183571Y-87999999D01*
X167183571Y-88285714D02*
X167183571Y-88857142D01*
X167683571Y-88499999D02*
X166397857Y-88499999D01*
X166397857Y-88499999D02*
X166255000Y-88571428D01*
X166255000Y-88571428D02*
X166183571Y-88714285D01*
X166183571Y-88714285D02*
X166183571Y-88857142D01*
X166255000Y-89928571D02*
X166183571Y-89785714D01*
X166183571Y-89785714D02*
X166183571Y-89500000D01*
X166183571Y-89500000D02*
X166255000Y-89357142D01*
X166255000Y-89357142D02*
X166397857Y-89285714D01*
X166397857Y-89285714D02*
X166969285Y-89285714D01*
X166969285Y-89285714D02*
X167112142Y-89357142D01*
X167112142Y-89357142D02*
X167183571Y-89500000D01*
X167183571Y-89500000D02*
X167183571Y-89785714D01*
X167183571Y-89785714D02*
X167112142Y-89928571D01*
X167112142Y-89928571D02*
X166969285Y-90000000D01*
X166969285Y-90000000D02*
X166826428Y-90000000D01*
X166826428Y-90000000D02*
X166683571Y-89285714D01*
X167183571Y-90642856D02*
X166183571Y-90642856D01*
X167040714Y-90642856D02*
X167112142Y-90714285D01*
X167112142Y-90714285D02*
X167183571Y-90857142D01*
X167183571Y-90857142D02*
X167183571Y-91071428D01*
X167183571Y-91071428D02*
X167112142Y-91214285D01*
X167112142Y-91214285D02*
X166969285Y-91285714D01*
X166969285Y-91285714D02*
X166183571Y-91285714D01*
X167183571Y-92642857D02*
X166183571Y-92642857D01*
X167183571Y-91999999D02*
X166397857Y-91999999D01*
X166397857Y-91999999D02*
X166255000Y-92071428D01*
X166255000Y-92071428D02*
X166183571Y-92214285D01*
X166183571Y-92214285D02*
X166183571Y-92428571D01*
X166183571Y-92428571D02*
X166255000Y-92571428D01*
X166255000Y-92571428D02*
X166326428Y-92642857D01*
X166183571Y-94000000D02*
X166969285Y-94000000D01*
X166969285Y-94000000D02*
X167112142Y-93928571D01*
X167112142Y-93928571D02*
X167183571Y-93785714D01*
X167183571Y-93785714D02*
X167183571Y-93500000D01*
X167183571Y-93500000D02*
X167112142Y-93357142D01*
X166255000Y-94000000D02*
X166183571Y-93857142D01*
X166183571Y-93857142D02*
X166183571Y-93500000D01*
X166183571Y-93500000D02*
X166255000Y-93357142D01*
X166255000Y-93357142D02*
X166397857Y-93285714D01*
X166397857Y-93285714D02*
X166540714Y-93285714D01*
X166540714Y-93285714D02*
X166683571Y-93357142D01*
X166683571Y-93357142D02*
X166755000Y-93500000D01*
X166755000Y-93500000D02*
X166755000Y-93857142D01*
X166755000Y-93857142D02*
X166826428Y-94000000D01*
X167183571Y-94500000D02*
X167183571Y-95071428D01*
X167683571Y-94714285D02*
X166397857Y-94714285D01*
X166397857Y-94714285D02*
X166255000Y-94785714D01*
X166255000Y-94785714D02*
X166183571Y-94928571D01*
X166183571Y-94928571D02*
X166183571Y-95071428D01*
X166183571Y-95785714D02*
X166255000Y-95642857D01*
X166255000Y-95642857D02*
X166326428Y-95571428D01*
X166326428Y-95571428D02*
X166469285Y-95500000D01*
X166469285Y-95500000D02*
X166897857Y-95500000D01*
X166897857Y-95500000D02*
X167040714Y-95571428D01*
X167040714Y-95571428D02*
X167112142Y-95642857D01*
X167112142Y-95642857D02*
X167183571Y-95785714D01*
X167183571Y-95785714D02*
X167183571Y-96000000D01*
X167183571Y-96000000D02*
X167112142Y-96142857D01*
X167112142Y-96142857D02*
X167040714Y-96214286D01*
X167040714Y-96214286D02*
X166897857Y-96285714D01*
X166897857Y-96285714D02*
X166469285Y-96285714D01*
X166469285Y-96285714D02*
X166326428Y-96214286D01*
X166326428Y-96214286D02*
X166255000Y-96142857D01*
X166255000Y-96142857D02*
X166183571Y-96000000D01*
X166183571Y-96000000D02*
X166183571Y-95785714D01*
X166183571Y-96928571D02*
X167183571Y-96928571D01*
X166897857Y-96928571D02*
X167040714Y-97000000D01*
X167040714Y-97000000D02*
X167112142Y-97071429D01*
X167112142Y-97071429D02*
X167183571Y-97214286D01*
X167183571Y-97214286D02*
X167183571Y-97357143D01*
X86193928Y-120535713D02*
X86193928Y-121392856D01*
X86193928Y-120964285D02*
X84693928Y-120964285D01*
X84693928Y-120964285D02*
X84908214Y-121107142D01*
X84908214Y-121107142D02*
X85051071Y-121249999D01*
X85051071Y-121249999D02*
X85122500Y-121392856D01*
X84836785Y-119964285D02*
X84765357Y-119892857D01*
X84765357Y-119892857D02*
X84693928Y-119750000D01*
X84693928Y-119750000D02*
X84693928Y-119392857D01*
X84693928Y-119392857D02*
X84765357Y-119250000D01*
X84765357Y-119250000D02*
X84836785Y-119178571D01*
X84836785Y-119178571D02*
X84979642Y-119107142D01*
X84979642Y-119107142D02*
X85122500Y-119107142D01*
X85122500Y-119107142D02*
X85336785Y-119178571D01*
X85336785Y-119178571D02*
X86193928Y-120035714D01*
X86193928Y-120035714D02*
X86193928Y-119107142D01*
X84693928Y-118678571D02*
X86193928Y-118178571D01*
X86193928Y-118178571D02*
X84693928Y-117678571D01*
X86193928Y-116035715D02*
X84693928Y-116035715D01*
X85193928Y-115321429D02*
X86193928Y-115321429D01*
X85336785Y-115321429D02*
X85265357Y-115250000D01*
X85265357Y-115250000D02*
X85193928Y-115107143D01*
X85193928Y-115107143D02*
X85193928Y-114892857D01*
X85193928Y-114892857D02*
X85265357Y-114750000D01*
X85265357Y-114750000D02*
X85408214Y-114678572D01*
X85408214Y-114678572D02*
X86193928Y-114678572D01*
X144928571Y-114193928D02*
X144428571Y-113479642D01*
X144071428Y-114193928D02*
X144071428Y-112693928D01*
X144071428Y-112693928D02*
X144642857Y-112693928D01*
X144642857Y-112693928D02*
X144785714Y-112765357D01*
X144785714Y-112765357D02*
X144857143Y-112836785D01*
X144857143Y-112836785D02*
X144928571Y-112979642D01*
X144928571Y-112979642D02*
X144928571Y-113193928D01*
X144928571Y-113193928D02*
X144857143Y-113336785D01*
X144857143Y-113336785D02*
X144785714Y-113408214D01*
X144785714Y-113408214D02*
X144642857Y-113479642D01*
X144642857Y-113479642D02*
X144071428Y-113479642D01*
X145428571Y-112693928D02*
X146428571Y-114193928D01*
X146428571Y-112693928D02*
X145428571Y-114193928D01*
X146642857Y-114336785D02*
X147785714Y-114336785D01*
X148071428Y-113765357D02*
X148785714Y-113765357D01*
X147928571Y-114193928D02*
X148428571Y-112693928D01*
X148428571Y-112693928D02*
X148928571Y-114193928D01*
X149428570Y-113193928D02*
X149428570Y-114193928D01*
X149428570Y-113336785D02*
X149499999Y-113265357D01*
X149499999Y-113265357D02*
X149642856Y-113193928D01*
X149642856Y-113193928D02*
X149857142Y-113193928D01*
X149857142Y-113193928D02*
X149999999Y-113265357D01*
X149999999Y-113265357D02*
X150071428Y-113408214D01*
X150071428Y-113408214D02*
X150071428Y-114193928D01*
X150571428Y-113193928D02*
X151142856Y-113193928D01*
X150785713Y-112693928D02*
X150785713Y-113979642D01*
X150785713Y-113979642D02*
X150857142Y-114122500D01*
X150857142Y-114122500D02*
X150999999Y-114193928D01*
X150999999Y-114193928D02*
X151142856Y-114193928D01*
X145035715Y-94193928D02*
X145892858Y-94193928D01*
X145464286Y-95693928D02*
X145464286Y-94193928D01*
X146250000Y-94193928D02*
X147250000Y-95693928D01*
X147250000Y-94193928D02*
X146250000Y-95693928D01*
X147464286Y-95836785D02*
X148607143Y-95836785D01*
X148892857Y-95265357D02*
X149607143Y-95265357D01*
X148750000Y-95693928D02*
X149250000Y-94193928D01*
X149250000Y-94193928D02*
X149750000Y-95693928D01*
X150249999Y-94693928D02*
X150249999Y-95693928D01*
X150249999Y-94836785D02*
X150321428Y-94765357D01*
X150321428Y-94765357D02*
X150464285Y-94693928D01*
X150464285Y-94693928D02*
X150678571Y-94693928D01*
X150678571Y-94693928D02*
X150821428Y-94765357D01*
X150821428Y-94765357D02*
X150892857Y-94908214D01*
X150892857Y-94908214D02*
X150892857Y-95693928D01*
X151392857Y-94693928D02*
X151964285Y-94693928D01*
X151607142Y-94193928D02*
X151607142Y-95479642D01*
X151607142Y-95479642D02*
X151678571Y-95622500D01*
X151678571Y-95622500D02*
X151821428Y-95693928D01*
X151821428Y-95693928D02*
X151964285Y-95693928D01*
X171806071Y-97714286D02*
X171806071Y-98571429D01*
X170306071Y-98142857D02*
X171806071Y-98142857D01*
X170306071Y-99285714D02*
X170377500Y-99142857D01*
X170377500Y-99142857D02*
X170448928Y-99071428D01*
X170448928Y-99071428D02*
X170591785Y-99000000D01*
X170591785Y-99000000D02*
X171020357Y-99000000D01*
X171020357Y-99000000D02*
X171163214Y-99071428D01*
X171163214Y-99071428D02*
X171234642Y-99142857D01*
X171234642Y-99142857D02*
X171306071Y-99285714D01*
X171306071Y-99285714D02*
X171306071Y-99500000D01*
X171306071Y-99500000D02*
X171234642Y-99642857D01*
X171234642Y-99642857D02*
X171163214Y-99714286D01*
X171163214Y-99714286D02*
X171020357Y-99785714D01*
X171020357Y-99785714D02*
X170591785Y-99785714D01*
X170591785Y-99785714D02*
X170448928Y-99714286D01*
X170448928Y-99714286D02*
X170377500Y-99642857D01*
X170377500Y-99642857D02*
X170306071Y-99500000D01*
X170306071Y-99500000D02*
X170306071Y-99285714D01*
X170734642Y-101500000D02*
X170734642Y-102214286D01*
X170306071Y-101357143D02*
X171806071Y-101857143D01*
X171806071Y-101857143D02*
X170306071Y-102357143D01*
X170306071Y-103071428D02*
X170377500Y-102928571D01*
X170377500Y-102928571D02*
X170520357Y-102857142D01*
X170520357Y-102857142D02*
X171806071Y-102857142D01*
X170377500Y-104214285D02*
X170306071Y-104071428D01*
X170306071Y-104071428D02*
X170306071Y-103785714D01*
X170306071Y-103785714D02*
X170377500Y-103642856D01*
X170377500Y-103642856D02*
X170520357Y-103571428D01*
X170520357Y-103571428D02*
X171091785Y-103571428D01*
X171091785Y-103571428D02*
X171234642Y-103642856D01*
X171234642Y-103642856D02*
X171306071Y-103785714D01*
X171306071Y-103785714D02*
X171306071Y-104071428D01*
X171306071Y-104071428D02*
X171234642Y-104214285D01*
X171234642Y-104214285D02*
X171091785Y-104285714D01*
X171091785Y-104285714D02*
X170948928Y-104285714D01*
X170948928Y-104285714D02*
X170806071Y-103571428D01*
X170306071Y-104785713D02*
X171306071Y-105571428D01*
X171306071Y-104785713D02*
X170306071Y-105571428D01*
X170306071Y-107285713D02*
X171806071Y-107285713D01*
X171091785Y-107285713D02*
X171091785Y-108142856D01*
X170306071Y-108142856D02*
X171806071Y-108142856D01*
X170306071Y-108857142D02*
X171806071Y-108857142D01*
X171806071Y-108857142D02*
X171806071Y-109428571D01*
X171806071Y-109428571D02*
X171734642Y-109571428D01*
X171734642Y-109571428D02*
X171663214Y-109642857D01*
X171663214Y-109642857D02*
X171520357Y-109714285D01*
X171520357Y-109714285D02*
X171306071Y-109714285D01*
X171306071Y-109714285D02*
X171163214Y-109642857D01*
X171163214Y-109642857D02*
X171091785Y-109571428D01*
X171091785Y-109571428D02*
X171020357Y-109428571D01*
X171020357Y-109428571D02*
X171020357Y-108857142D01*
X171091785Y-110857142D02*
X171091785Y-110357142D01*
X170306071Y-110357142D02*
X171806071Y-110357142D01*
X171806071Y-110357142D02*
X171806071Y-111071428D01*
X171877500Y-112714285D02*
X169948928Y-111428571D01*
X171091785Y-113714285D02*
X171020357Y-113928571D01*
X171020357Y-113928571D02*
X170948928Y-114000000D01*
X170948928Y-114000000D02*
X170806071Y-114071428D01*
X170806071Y-114071428D02*
X170591785Y-114071428D01*
X170591785Y-114071428D02*
X170448928Y-114000000D01*
X170448928Y-114000000D02*
X170377500Y-113928571D01*
X170377500Y-113928571D02*
X170306071Y-113785714D01*
X170306071Y-113785714D02*
X170306071Y-113214285D01*
X170306071Y-113214285D02*
X171806071Y-113214285D01*
X171806071Y-113214285D02*
X171806071Y-113714285D01*
X171806071Y-113714285D02*
X171734642Y-113857143D01*
X171734642Y-113857143D02*
X171663214Y-113928571D01*
X171663214Y-113928571D02*
X171520357Y-114000000D01*
X171520357Y-114000000D02*
X171377500Y-114000000D01*
X171377500Y-114000000D02*
X171234642Y-113928571D01*
X171234642Y-113928571D02*
X171163214Y-113857143D01*
X171163214Y-113857143D02*
X171091785Y-113714285D01*
X171091785Y-113714285D02*
X171091785Y-113214285D01*
X170306071Y-114714285D02*
X171806071Y-114714285D01*
X171806071Y-114714285D02*
X171806071Y-115285714D01*
X171806071Y-115285714D02*
X171734642Y-115428571D01*
X171734642Y-115428571D02*
X171663214Y-115500000D01*
X171663214Y-115500000D02*
X171520357Y-115571428D01*
X171520357Y-115571428D02*
X171306071Y-115571428D01*
X171306071Y-115571428D02*
X171163214Y-115500000D01*
X171163214Y-115500000D02*
X171091785Y-115428571D01*
X171091785Y-115428571D02*
X171020357Y-115285714D01*
X171020357Y-115285714D02*
X171020357Y-114714285D01*
X171091785Y-116714285D02*
X171091785Y-116214285D01*
X170306071Y-116214285D02*
X171806071Y-116214285D01*
X171806071Y-116214285D02*
X171806071Y-116928571D01*
X170877500Y-117499999D02*
X170877500Y-118642857D01*
X170306071Y-120142857D02*
X170306071Y-119285714D01*
X170306071Y-119714285D02*
X171806071Y-119714285D01*
X171806071Y-119714285D02*
X171591785Y-119571428D01*
X171591785Y-119571428D02*
X171448928Y-119428571D01*
X171448928Y-119428571D02*
X171377500Y-119285714D01*
X87693928Y-83357142D02*
X87693928Y-82500000D01*
X89193928Y-82928571D02*
X87693928Y-82928571D01*
X89193928Y-81785714D02*
X89122500Y-81928571D01*
X89122500Y-81928571D02*
X89051071Y-82000000D01*
X89051071Y-82000000D02*
X88908214Y-82071428D01*
X88908214Y-82071428D02*
X88479642Y-82071428D01*
X88479642Y-82071428D02*
X88336785Y-82000000D01*
X88336785Y-82000000D02*
X88265357Y-81928571D01*
X88265357Y-81928571D02*
X88193928Y-81785714D01*
X88193928Y-81785714D02*
X88193928Y-81571428D01*
X88193928Y-81571428D02*
X88265357Y-81428571D01*
X88265357Y-81428571D02*
X88336785Y-81357143D01*
X88336785Y-81357143D02*
X88479642Y-81285714D01*
X88479642Y-81285714D02*
X88908214Y-81285714D01*
X88908214Y-81285714D02*
X89051071Y-81357143D01*
X89051071Y-81357143D02*
X89122500Y-81428571D01*
X89122500Y-81428571D02*
X89193928Y-81571428D01*
X89193928Y-81571428D02*
X89193928Y-81785714D01*
X89193928Y-79500000D02*
X87693928Y-79500000D01*
X87693928Y-79500000D02*
X88765357Y-79000000D01*
X88765357Y-79000000D02*
X87693928Y-78500000D01*
X87693928Y-78500000D02*
X89193928Y-78500000D01*
X89122500Y-77214285D02*
X89193928Y-77357142D01*
X89193928Y-77357142D02*
X89193928Y-77642857D01*
X89193928Y-77642857D02*
X89122500Y-77785714D01*
X89122500Y-77785714D02*
X88979642Y-77857142D01*
X88979642Y-77857142D02*
X88408214Y-77857142D01*
X88408214Y-77857142D02*
X88265357Y-77785714D01*
X88265357Y-77785714D02*
X88193928Y-77642857D01*
X88193928Y-77642857D02*
X88193928Y-77357142D01*
X88193928Y-77357142D02*
X88265357Y-77214285D01*
X88265357Y-77214285D02*
X88408214Y-77142857D01*
X88408214Y-77142857D02*
X88551071Y-77142857D01*
X88551071Y-77142857D02*
X88693928Y-77857142D01*
X88193928Y-76500000D02*
X89193928Y-76500000D01*
X88336785Y-76500000D02*
X88265357Y-76428571D01*
X88265357Y-76428571D02*
X88193928Y-76285714D01*
X88193928Y-76285714D02*
X88193928Y-76071428D01*
X88193928Y-76071428D02*
X88265357Y-75928571D01*
X88265357Y-75928571D02*
X88408214Y-75857143D01*
X88408214Y-75857143D02*
X89193928Y-75857143D01*
X88193928Y-75357142D02*
X88193928Y-74785714D01*
X87693928Y-75142857D02*
X88979642Y-75142857D01*
X88979642Y-75142857D02*
X89122500Y-75071428D01*
X89122500Y-75071428D02*
X89193928Y-74928571D01*
X89193928Y-74928571D02*
X89193928Y-74785714D01*
X89193928Y-74071428D02*
X89122500Y-74214285D01*
X89122500Y-74214285D02*
X89051071Y-74285714D01*
X89051071Y-74285714D02*
X88908214Y-74357142D01*
X88908214Y-74357142D02*
X88479642Y-74357142D01*
X88479642Y-74357142D02*
X88336785Y-74285714D01*
X88336785Y-74285714D02*
X88265357Y-74214285D01*
X88265357Y-74214285D02*
X88193928Y-74071428D01*
X88193928Y-74071428D02*
X88193928Y-73857142D01*
X88193928Y-73857142D02*
X88265357Y-73714285D01*
X88265357Y-73714285D02*
X88336785Y-73642857D01*
X88336785Y-73642857D02*
X88479642Y-73571428D01*
X88479642Y-73571428D02*
X88908214Y-73571428D01*
X88908214Y-73571428D02*
X89051071Y-73642857D01*
X89051071Y-73642857D02*
X89122500Y-73714285D01*
X89122500Y-73714285D02*
X89193928Y-73857142D01*
X89193928Y-73857142D02*
X89193928Y-74071428D01*
X89193928Y-72928571D02*
X88193928Y-72928571D01*
X88479642Y-72928571D02*
X88336785Y-72857142D01*
X88336785Y-72857142D02*
X88265357Y-72785714D01*
X88265357Y-72785714D02*
X88193928Y-72642856D01*
X88193928Y-72642856D02*
X88193928Y-72499999D01*
D13*
X128357142Y-136112619D02*
X128023809Y-135636428D01*
X127785714Y-136112619D02*
X127785714Y-135112619D01*
X127785714Y-135112619D02*
X128166666Y-135112619D01*
X128166666Y-135112619D02*
X128261904Y-135160238D01*
X128261904Y-135160238D02*
X128309523Y-135207857D01*
X128309523Y-135207857D02*
X128357142Y-135303095D01*
X128357142Y-135303095D02*
X128357142Y-135445952D01*
X128357142Y-135445952D02*
X128309523Y-135541190D01*
X128309523Y-135541190D02*
X128261904Y-135588809D01*
X128261904Y-135588809D02*
X128166666Y-135636428D01*
X128166666Y-135636428D02*
X127785714Y-135636428D01*
X129309523Y-136112619D02*
X128738095Y-136112619D01*
X129023809Y-136112619D02*
X129023809Y-135112619D01*
X129023809Y-135112619D02*
X128928571Y-135255476D01*
X128928571Y-135255476D02*
X128833333Y-135350714D01*
X128833333Y-135350714D02*
X128738095Y-135398333D01*
X129642857Y-135112619D02*
X130261904Y-135112619D01*
X130261904Y-135112619D02*
X129928571Y-135493571D01*
X129928571Y-135493571D02*
X130071428Y-135493571D01*
X130071428Y-135493571D02*
X130166666Y-135541190D01*
X130166666Y-135541190D02*
X130214285Y-135588809D01*
X130214285Y-135588809D02*
X130261904Y-135684047D01*
X130261904Y-135684047D02*
X130261904Y-135922142D01*
X130261904Y-135922142D02*
X130214285Y-136017380D01*
X130214285Y-136017380D02*
X130166666Y-136065000D01*
X130166666Y-136065000D02*
X130071428Y-136112619D01*
X130071428Y-136112619D02*
X129785714Y-136112619D01*
X129785714Y-136112619D02*
X129690476Y-136065000D01*
X129690476Y-136065000D02*
X129642857Y-136017380D01*
X140357142Y-85962619D02*
X140023809Y-85486428D01*
X139785714Y-85962619D02*
X139785714Y-84962619D01*
X139785714Y-84962619D02*
X140166666Y-84962619D01*
X140166666Y-84962619D02*
X140261904Y-85010238D01*
X140261904Y-85010238D02*
X140309523Y-85057857D01*
X140309523Y-85057857D02*
X140357142Y-85153095D01*
X140357142Y-85153095D02*
X140357142Y-85295952D01*
X140357142Y-85295952D02*
X140309523Y-85391190D01*
X140309523Y-85391190D02*
X140261904Y-85438809D01*
X140261904Y-85438809D02*
X140166666Y-85486428D01*
X140166666Y-85486428D02*
X139785714Y-85486428D01*
X141309523Y-85962619D02*
X140738095Y-85962619D01*
X141023809Y-85962619D02*
X141023809Y-84962619D01*
X141023809Y-84962619D02*
X140928571Y-85105476D01*
X140928571Y-85105476D02*
X140833333Y-85200714D01*
X140833333Y-85200714D02*
X140738095Y-85248333D01*
X142261904Y-85962619D02*
X141690476Y-85962619D01*
X141976190Y-85962619D02*
X141976190Y-84962619D01*
X141976190Y-84962619D02*
X141880952Y-85105476D01*
X141880952Y-85105476D02*
X141785714Y-85200714D01*
X141785714Y-85200714D02*
X141690476Y-85248333D01*
X155962619Y-82238094D02*
X154962619Y-82238094D01*
X154962619Y-82238094D02*
X154962619Y-81999999D01*
X154962619Y-81999999D02*
X155010238Y-81857142D01*
X155010238Y-81857142D02*
X155105476Y-81761904D01*
X155105476Y-81761904D02*
X155200714Y-81714285D01*
X155200714Y-81714285D02*
X155391190Y-81666666D01*
X155391190Y-81666666D02*
X155534047Y-81666666D01*
X155534047Y-81666666D02*
X155724523Y-81714285D01*
X155724523Y-81714285D02*
X155819761Y-81761904D01*
X155819761Y-81761904D02*
X155915000Y-81857142D01*
X155915000Y-81857142D02*
X155962619Y-81999999D01*
X155962619Y-81999999D02*
X155962619Y-82238094D01*
X154962619Y-80761904D02*
X154962619Y-81238094D01*
X154962619Y-81238094D02*
X155438809Y-81285713D01*
X155438809Y-81285713D02*
X155391190Y-81238094D01*
X155391190Y-81238094D02*
X155343571Y-81142856D01*
X155343571Y-81142856D02*
X155343571Y-80904761D01*
X155343571Y-80904761D02*
X155391190Y-80809523D01*
X155391190Y-80809523D02*
X155438809Y-80761904D01*
X155438809Y-80761904D02*
X155534047Y-80714285D01*
X155534047Y-80714285D02*
X155772142Y-80714285D01*
X155772142Y-80714285D02*
X155867380Y-80761904D01*
X155867380Y-80761904D02*
X155915000Y-80809523D01*
X155915000Y-80809523D02*
X155962619Y-80904761D01*
X155962619Y-80904761D02*
X155962619Y-81142856D01*
X155962619Y-81142856D02*
X155915000Y-81238094D01*
X155915000Y-81238094D02*
X155867380Y-81285713D01*
X109462619Y-121238094D02*
X108462619Y-121238094D01*
X108462619Y-121238094D02*
X108462619Y-120999999D01*
X108462619Y-120999999D02*
X108510238Y-120857142D01*
X108510238Y-120857142D02*
X108605476Y-120761904D01*
X108605476Y-120761904D02*
X108700714Y-120714285D01*
X108700714Y-120714285D02*
X108891190Y-120666666D01*
X108891190Y-120666666D02*
X109034047Y-120666666D01*
X109034047Y-120666666D02*
X109224523Y-120714285D01*
X109224523Y-120714285D02*
X109319761Y-120761904D01*
X109319761Y-120761904D02*
X109415000Y-120857142D01*
X109415000Y-120857142D02*
X109462619Y-120999999D01*
X109462619Y-120999999D02*
X109462619Y-121238094D01*
X109462619Y-119714285D02*
X109462619Y-120285713D01*
X109462619Y-119999999D02*
X108462619Y-119999999D01*
X108462619Y-119999999D02*
X108605476Y-120095237D01*
X108605476Y-120095237D02*
X108700714Y-120190475D01*
X108700714Y-120190475D02*
X108748333Y-120285713D01*
X132812619Y-107166666D02*
X132336428Y-107499999D01*
X132812619Y-107738094D02*
X131812619Y-107738094D01*
X131812619Y-107738094D02*
X131812619Y-107357142D01*
X131812619Y-107357142D02*
X131860238Y-107261904D01*
X131860238Y-107261904D02*
X131907857Y-107214285D01*
X131907857Y-107214285D02*
X132003095Y-107166666D01*
X132003095Y-107166666D02*
X132145952Y-107166666D01*
X132145952Y-107166666D02*
X132241190Y-107214285D01*
X132241190Y-107214285D02*
X132288809Y-107261904D01*
X132288809Y-107261904D02*
X132336428Y-107357142D01*
X132336428Y-107357142D02*
X132336428Y-107738094D01*
X132241190Y-106595237D02*
X132193571Y-106690475D01*
X132193571Y-106690475D02*
X132145952Y-106738094D01*
X132145952Y-106738094D02*
X132050714Y-106785713D01*
X132050714Y-106785713D02*
X132003095Y-106785713D01*
X132003095Y-106785713D02*
X131907857Y-106738094D01*
X131907857Y-106738094D02*
X131860238Y-106690475D01*
X131860238Y-106690475D02*
X131812619Y-106595237D01*
X131812619Y-106595237D02*
X131812619Y-106404761D01*
X131812619Y-106404761D02*
X131860238Y-106309523D01*
X131860238Y-106309523D02*
X131907857Y-106261904D01*
X131907857Y-106261904D02*
X132003095Y-106214285D01*
X132003095Y-106214285D02*
X132050714Y-106214285D01*
X132050714Y-106214285D02*
X132145952Y-106261904D01*
X132145952Y-106261904D02*
X132193571Y-106309523D01*
X132193571Y-106309523D02*
X132241190Y-106404761D01*
X132241190Y-106404761D02*
X132241190Y-106595237D01*
X132241190Y-106595237D02*
X132288809Y-106690475D01*
X132288809Y-106690475D02*
X132336428Y-106738094D01*
X132336428Y-106738094D02*
X132431666Y-106785713D01*
X132431666Y-106785713D02*
X132622142Y-106785713D01*
X132622142Y-106785713D02*
X132717380Y-106738094D01*
X132717380Y-106738094D02*
X132765000Y-106690475D01*
X132765000Y-106690475D02*
X132812619Y-106595237D01*
X132812619Y-106595237D02*
X132812619Y-106404761D01*
X132812619Y-106404761D02*
X132765000Y-106309523D01*
X132765000Y-106309523D02*
X132717380Y-106261904D01*
X132717380Y-106261904D02*
X132622142Y-106214285D01*
X132622142Y-106214285D02*
X132431666Y-106214285D01*
X132431666Y-106214285D02*
X132336428Y-106261904D01*
X132336428Y-106261904D02*
X132288809Y-106309523D01*
X132288809Y-106309523D02*
X132241190Y-106404761D01*
X92666666Y-111962619D02*
X92666666Y-112676904D01*
X92666666Y-112676904D02*
X92619047Y-112819761D01*
X92619047Y-112819761D02*
X92523809Y-112915000D01*
X92523809Y-112915000D02*
X92380952Y-112962619D01*
X92380952Y-112962619D02*
X92285714Y-112962619D01*
X93666666Y-112962619D02*
X93095238Y-112962619D01*
X93380952Y-112962619D02*
X93380952Y-111962619D01*
X93380952Y-111962619D02*
X93285714Y-112105476D01*
X93285714Y-112105476D02*
X93190476Y-112200714D01*
X93190476Y-112200714D02*
X93095238Y-112248333D01*
X137047380Y-130666666D02*
X137095000Y-130714285D01*
X137095000Y-130714285D02*
X137142619Y-130857142D01*
X137142619Y-130857142D02*
X137142619Y-130952380D01*
X137142619Y-130952380D02*
X137095000Y-131095237D01*
X137095000Y-131095237D02*
X136999761Y-131190475D01*
X136999761Y-131190475D02*
X136904523Y-131238094D01*
X136904523Y-131238094D02*
X136714047Y-131285713D01*
X136714047Y-131285713D02*
X136571190Y-131285713D01*
X136571190Y-131285713D02*
X136380714Y-131238094D01*
X136380714Y-131238094D02*
X136285476Y-131190475D01*
X136285476Y-131190475D02*
X136190238Y-131095237D01*
X136190238Y-131095237D02*
X136142619Y-130952380D01*
X136142619Y-130952380D02*
X136142619Y-130857142D01*
X136142619Y-130857142D02*
X136190238Y-130714285D01*
X136190238Y-130714285D02*
X136237857Y-130666666D01*
X136142619Y-129761904D02*
X136142619Y-130238094D01*
X136142619Y-130238094D02*
X136618809Y-130285713D01*
X136618809Y-130285713D02*
X136571190Y-130238094D01*
X136571190Y-130238094D02*
X136523571Y-130142856D01*
X136523571Y-130142856D02*
X136523571Y-129904761D01*
X136523571Y-129904761D02*
X136571190Y-129809523D01*
X136571190Y-129809523D02*
X136618809Y-129761904D01*
X136618809Y-129761904D02*
X136714047Y-129714285D01*
X136714047Y-129714285D02*
X136952142Y-129714285D01*
X136952142Y-129714285D02*
X137047380Y-129761904D01*
X137047380Y-129761904D02*
X137095000Y-129809523D01*
X137095000Y-129809523D02*
X137142619Y-129904761D01*
X137142619Y-129904761D02*
X137142619Y-130142856D01*
X137142619Y-130142856D02*
X137095000Y-130238094D01*
X137095000Y-130238094D02*
X137047380Y-130285713D01*
X117937619Y-126013094D02*
X118747142Y-126013094D01*
X118747142Y-126013094D02*
X118842380Y-125965475D01*
X118842380Y-125965475D02*
X118890000Y-125917856D01*
X118890000Y-125917856D02*
X118937619Y-125822618D01*
X118937619Y-125822618D02*
X118937619Y-125632142D01*
X118937619Y-125632142D02*
X118890000Y-125536904D01*
X118890000Y-125536904D02*
X118842380Y-125489285D01*
X118842380Y-125489285D02*
X118747142Y-125441666D01*
X118747142Y-125441666D02*
X117937619Y-125441666D01*
X118937619Y-124441666D02*
X118937619Y-125013094D01*
X118937619Y-124727380D02*
X117937619Y-124727380D01*
X117937619Y-124727380D02*
X118080476Y-124822618D01*
X118080476Y-124822618D02*
X118175714Y-124917856D01*
X118175714Y-124917856D02*
X118223333Y-125013094D01*
X117937619Y-123822618D02*
X117937619Y-123727380D01*
X117937619Y-123727380D02*
X117985238Y-123632142D01*
X117985238Y-123632142D02*
X118032857Y-123584523D01*
X118032857Y-123584523D02*
X118128095Y-123536904D01*
X118128095Y-123536904D02*
X118318571Y-123489285D01*
X118318571Y-123489285D02*
X118556666Y-123489285D01*
X118556666Y-123489285D02*
X118747142Y-123536904D01*
X118747142Y-123536904D02*
X118842380Y-123584523D01*
X118842380Y-123584523D02*
X118890000Y-123632142D01*
X118890000Y-123632142D02*
X118937619Y-123727380D01*
X118937619Y-123727380D02*
X118937619Y-123822618D01*
X118937619Y-123822618D02*
X118890000Y-123917856D01*
X118890000Y-123917856D02*
X118842380Y-123965475D01*
X118842380Y-123965475D02*
X118747142Y-124013094D01*
X118747142Y-124013094D02*
X118556666Y-124060713D01*
X118556666Y-124060713D02*
X118318571Y-124060713D01*
X118318571Y-124060713D02*
X118128095Y-124013094D01*
X118128095Y-124013094D02*
X118032857Y-123965475D01*
X118032857Y-123965475D02*
X117985238Y-123917856D01*
X117985238Y-123917856D02*
X117937619Y-123822618D01*
X129738095Y-112112619D02*
X129738095Y-112922142D01*
X129738095Y-112922142D02*
X129785714Y-113017380D01*
X129785714Y-113017380D02*
X129833333Y-113065000D01*
X129833333Y-113065000D02*
X129928571Y-113112619D01*
X129928571Y-113112619D02*
X130119047Y-113112619D01*
X130119047Y-113112619D02*
X130214285Y-113065000D01*
X130214285Y-113065000D02*
X130261904Y-113017380D01*
X130261904Y-113017380D02*
X130309523Y-112922142D01*
X130309523Y-112922142D02*
X130309523Y-112112619D01*
X130928571Y-112541190D02*
X130833333Y-112493571D01*
X130833333Y-112493571D02*
X130785714Y-112445952D01*
X130785714Y-112445952D02*
X130738095Y-112350714D01*
X130738095Y-112350714D02*
X130738095Y-112303095D01*
X130738095Y-112303095D02*
X130785714Y-112207857D01*
X130785714Y-112207857D02*
X130833333Y-112160238D01*
X130833333Y-112160238D02*
X130928571Y-112112619D01*
X130928571Y-112112619D02*
X131119047Y-112112619D01*
X131119047Y-112112619D02*
X131214285Y-112160238D01*
X131214285Y-112160238D02*
X131261904Y-112207857D01*
X131261904Y-112207857D02*
X131309523Y-112303095D01*
X131309523Y-112303095D02*
X131309523Y-112350714D01*
X131309523Y-112350714D02*
X131261904Y-112445952D01*
X131261904Y-112445952D02*
X131214285Y-112493571D01*
X131214285Y-112493571D02*
X131119047Y-112541190D01*
X131119047Y-112541190D02*
X130928571Y-112541190D01*
X130928571Y-112541190D02*
X130833333Y-112588809D01*
X130833333Y-112588809D02*
X130785714Y-112636428D01*
X130785714Y-112636428D02*
X130738095Y-112731666D01*
X130738095Y-112731666D02*
X130738095Y-112922142D01*
X130738095Y-112922142D02*
X130785714Y-113017380D01*
X130785714Y-113017380D02*
X130833333Y-113065000D01*
X130833333Y-113065000D02*
X130928571Y-113112619D01*
X130928571Y-113112619D02*
X131119047Y-113112619D01*
X131119047Y-113112619D02*
X131214285Y-113065000D01*
X131214285Y-113065000D02*
X131261904Y-113017380D01*
X131261904Y-113017380D02*
X131309523Y-112922142D01*
X131309523Y-112922142D02*
X131309523Y-112731666D01*
X131309523Y-112731666D02*
X131261904Y-112636428D01*
X131261904Y-112636428D02*
X131214285Y-112588809D01*
X131214285Y-112588809D02*
X131119047Y-112541190D01*
X101357142Y-126187380D02*
X101309523Y-126235000D01*
X101309523Y-126235000D02*
X101166666Y-126282619D01*
X101166666Y-126282619D02*
X101071428Y-126282619D01*
X101071428Y-126282619D02*
X100928571Y-126235000D01*
X100928571Y-126235000D02*
X100833333Y-126139761D01*
X100833333Y-126139761D02*
X100785714Y-126044523D01*
X100785714Y-126044523D02*
X100738095Y-125854047D01*
X100738095Y-125854047D02*
X100738095Y-125711190D01*
X100738095Y-125711190D02*
X100785714Y-125520714D01*
X100785714Y-125520714D02*
X100833333Y-125425476D01*
X100833333Y-125425476D02*
X100928571Y-125330238D01*
X100928571Y-125330238D02*
X101071428Y-125282619D01*
X101071428Y-125282619D02*
X101166666Y-125282619D01*
X101166666Y-125282619D02*
X101309523Y-125330238D01*
X101309523Y-125330238D02*
X101357142Y-125377857D01*
X102309523Y-126282619D02*
X101738095Y-126282619D01*
X102023809Y-126282619D02*
X102023809Y-125282619D01*
X102023809Y-125282619D02*
X101928571Y-125425476D01*
X101928571Y-125425476D02*
X101833333Y-125520714D01*
X101833333Y-125520714D02*
X101738095Y-125568333D01*
X102642857Y-125282619D02*
X103261904Y-125282619D01*
X103261904Y-125282619D02*
X102928571Y-125663571D01*
X102928571Y-125663571D02*
X103071428Y-125663571D01*
X103071428Y-125663571D02*
X103166666Y-125711190D01*
X103166666Y-125711190D02*
X103214285Y-125758809D01*
X103214285Y-125758809D02*
X103261904Y-125854047D01*
X103261904Y-125854047D02*
X103261904Y-126092142D01*
X103261904Y-126092142D02*
X103214285Y-126187380D01*
X103214285Y-126187380D02*
X103166666Y-126235000D01*
X103166666Y-126235000D02*
X103071428Y-126282619D01*
X103071428Y-126282619D02*
X102785714Y-126282619D01*
X102785714Y-126282619D02*
X102690476Y-126235000D01*
X102690476Y-126235000D02*
X102642857Y-126187380D01*
X121833333Y-64112619D02*
X121500000Y-63636428D01*
X121261905Y-64112619D02*
X121261905Y-63112619D01*
X121261905Y-63112619D02*
X121642857Y-63112619D01*
X121642857Y-63112619D02*
X121738095Y-63160238D01*
X121738095Y-63160238D02*
X121785714Y-63207857D01*
X121785714Y-63207857D02*
X121833333Y-63303095D01*
X121833333Y-63303095D02*
X121833333Y-63445952D01*
X121833333Y-63445952D02*
X121785714Y-63541190D01*
X121785714Y-63541190D02*
X121738095Y-63588809D01*
X121738095Y-63588809D02*
X121642857Y-63636428D01*
X121642857Y-63636428D02*
X121261905Y-63636428D01*
X122166667Y-63112619D02*
X122833333Y-63112619D01*
X122833333Y-63112619D02*
X122404762Y-64112619D01*
X112738095Y-92462619D02*
X112738095Y-93272142D01*
X112738095Y-93272142D02*
X112785714Y-93367380D01*
X112785714Y-93367380D02*
X112833333Y-93415000D01*
X112833333Y-93415000D02*
X112928571Y-93462619D01*
X112928571Y-93462619D02*
X113119047Y-93462619D01*
X113119047Y-93462619D02*
X113214285Y-93415000D01*
X113214285Y-93415000D02*
X113261904Y-93367380D01*
X113261904Y-93367380D02*
X113309523Y-93272142D01*
X113309523Y-93272142D02*
X113309523Y-92462619D01*
X113738095Y-92557857D02*
X113785714Y-92510238D01*
X113785714Y-92510238D02*
X113880952Y-92462619D01*
X113880952Y-92462619D02*
X114119047Y-92462619D01*
X114119047Y-92462619D02*
X114214285Y-92510238D01*
X114214285Y-92510238D02*
X114261904Y-92557857D01*
X114261904Y-92557857D02*
X114309523Y-92653095D01*
X114309523Y-92653095D02*
X114309523Y-92748333D01*
X114309523Y-92748333D02*
X114261904Y-92891190D01*
X114261904Y-92891190D02*
X113690476Y-93462619D01*
X113690476Y-93462619D02*
X114309523Y-93462619D01*
X124462619Y-131238094D02*
X123462619Y-131238094D01*
X123462619Y-131238094D02*
X123462619Y-130999999D01*
X123462619Y-130999999D02*
X123510238Y-130857142D01*
X123510238Y-130857142D02*
X123605476Y-130761904D01*
X123605476Y-130761904D02*
X123700714Y-130714285D01*
X123700714Y-130714285D02*
X123891190Y-130666666D01*
X123891190Y-130666666D02*
X124034047Y-130666666D01*
X124034047Y-130666666D02*
X124224523Y-130714285D01*
X124224523Y-130714285D02*
X124319761Y-130761904D01*
X124319761Y-130761904D02*
X124415000Y-130857142D01*
X124415000Y-130857142D02*
X124462619Y-130999999D01*
X124462619Y-130999999D02*
X124462619Y-131238094D01*
X123462619Y-130333332D02*
X123462619Y-129666666D01*
X123462619Y-129666666D02*
X124462619Y-130095237D01*
X131761905Y-103462619D02*
X131761905Y-102462619D01*
X131761905Y-102462619D02*
X132000000Y-102462619D01*
X132000000Y-102462619D02*
X132142857Y-102510238D01*
X132142857Y-102510238D02*
X132238095Y-102605476D01*
X132238095Y-102605476D02*
X132285714Y-102700714D01*
X132285714Y-102700714D02*
X132333333Y-102891190D01*
X132333333Y-102891190D02*
X132333333Y-103034047D01*
X132333333Y-103034047D02*
X132285714Y-103224523D01*
X132285714Y-103224523D02*
X132238095Y-103319761D01*
X132238095Y-103319761D02*
X132142857Y-103415000D01*
X132142857Y-103415000D02*
X132000000Y-103462619D01*
X132000000Y-103462619D02*
X131761905Y-103462619D01*
X132714286Y-102557857D02*
X132761905Y-102510238D01*
X132761905Y-102510238D02*
X132857143Y-102462619D01*
X132857143Y-102462619D02*
X133095238Y-102462619D01*
X133095238Y-102462619D02*
X133190476Y-102510238D01*
X133190476Y-102510238D02*
X133238095Y-102557857D01*
X133238095Y-102557857D02*
X133285714Y-102653095D01*
X133285714Y-102653095D02*
X133285714Y-102748333D01*
X133285714Y-102748333D02*
X133238095Y-102891190D01*
X133238095Y-102891190D02*
X132666667Y-103462619D01*
X132666667Y-103462619D02*
X133285714Y-103462619D01*
X163436666Y-97862619D02*
X163436666Y-98576904D01*
X163436666Y-98576904D02*
X163389047Y-98719761D01*
X163389047Y-98719761D02*
X163293809Y-98815000D01*
X163293809Y-98815000D02*
X163150952Y-98862619D01*
X163150952Y-98862619D02*
X163055714Y-98862619D01*
X164341428Y-97862619D02*
X164150952Y-97862619D01*
X164150952Y-97862619D02*
X164055714Y-97910238D01*
X164055714Y-97910238D02*
X164008095Y-97957857D01*
X164008095Y-97957857D02*
X163912857Y-98100714D01*
X163912857Y-98100714D02*
X163865238Y-98291190D01*
X163865238Y-98291190D02*
X163865238Y-98672142D01*
X163865238Y-98672142D02*
X163912857Y-98767380D01*
X163912857Y-98767380D02*
X163960476Y-98815000D01*
X163960476Y-98815000D02*
X164055714Y-98862619D01*
X164055714Y-98862619D02*
X164246190Y-98862619D01*
X164246190Y-98862619D02*
X164341428Y-98815000D01*
X164341428Y-98815000D02*
X164389047Y-98767380D01*
X164389047Y-98767380D02*
X164436666Y-98672142D01*
X164436666Y-98672142D02*
X164436666Y-98434047D01*
X164436666Y-98434047D02*
X164389047Y-98338809D01*
X164389047Y-98338809D02*
X164341428Y-98291190D01*
X164341428Y-98291190D02*
X164246190Y-98243571D01*
X164246190Y-98243571D02*
X164055714Y-98243571D01*
X164055714Y-98243571D02*
X163960476Y-98291190D01*
X163960476Y-98291190D02*
X163912857Y-98338809D01*
X163912857Y-98338809D02*
X163865238Y-98434047D01*
X137462619Y-118309523D02*
X138176904Y-118309523D01*
X138176904Y-118309523D02*
X138319761Y-118357142D01*
X138319761Y-118357142D02*
X138415000Y-118452380D01*
X138415000Y-118452380D02*
X138462619Y-118595237D01*
X138462619Y-118595237D02*
X138462619Y-118690475D01*
X138462619Y-117309523D02*
X138462619Y-117880951D01*
X138462619Y-117595237D02*
X137462619Y-117595237D01*
X137462619Y-117595237D02*
X137605476Y-117690475D01*
X137605476Y-117690475D02*
X137700714Y-117785713D01*
X137700714Y-117785713D02*
X137748333Y-117880951D01*
X137462619Y-116690475D02*
X137462619Y-116595237D01*
X137462619Y-116595237D02*
X137510238Y-116499999D01*
X137510238Y-116499999D02*
X137557857Y-116452380D01*
X137557857Y-116452380D02*
X137653095Y-116404761D01*
X137653095Y-116404761D02*
X137843571Y-116357142D01*
X137843571Y-116357142D02*
X138081666Y-116357142D01*
X138081666Y-116357142D02*
X138272142Y-116404761D01*
X138272142Y-116404761D02*
X138367380Y-116452380D01*
X138367380Y-116452380D02*
X138415000Y-116499999D01*
X138415000Y-116499999D02*
X138462619Y-116595237D01*
X138462619Y-116595237D02*
X138462619Y-116690475D01*
X138462619Y-116690475D02*
X138415000Y-116785713D01*
X138415000Y-116785713D02*
X138367380Y-116833332D01*
X138367380Y-116833332D02*
X138272142Y-116880951D01*
X138272142Y-116880951D02*
X138081666Y-116928570D01*
X138081666Y-116928570D02*
X137843571Y-116928570D01*
X137843571Y-116928570D02*
X137653095Y-116880951D01*
X137653095Y-116880951D02*
X137557857Y-116833332D01*
X137557857Y-116833332D02*
X137510238Y-116785713D01*
X137510238Y-116785713D02*
X137462619Y-116690475D01*
X122367380Y-115142857D02*
X122415000Y-115190476D01*
X122415000Y-115190476D02*
X122462619Y-115333333D01*
X122462619Y-115333333D02*
X122462619Y-115428571D01*
X122462619Y-115428571D02*
X122415000Y-115571428D01*
X122415000Y-115571428D02*
X122319761Y-115666666D01*
X122319761Y-115666666D02*
X122224523Y-115714285D01*
X122224523Y-115714285D02*
X122034047Y-115761904D01*
X122034047Y-115761904D02*
X121891190Y-115761904D01*
X121891190Y-115761904D02*
X121700714Y-115714285D01*
X121700714Y-115714285D02*
X121605476Y-115666666D01*
X121605476Y-115666666D02*
X121510238Y-115571428D01*
X121510238Y-115571428D02*
X121462619Y-115428571D01*
X121462619Y-115428571D02*
X121462619Y-115333333D01*
X121462619Y-115333333D02*
X121510238Y-115190476D01*
X121510238Y-115190476D02*
X121557857Y-115142857D01*
X122462619Y-114190476D02*
X122462619Y-114761904D01*
X122462619Y-114476190D02*
X121462619Y-114476190D01*
X121462619Y-114476190D02*
X121605476Y-114571428D01*
X121605476Y-114571428D02*
X121700714Y-114666666D01*
X121700714Y-114666666D02*
X121748333Y-114761904D01*
X121557857Y-113809523D02*
X121510238Y-113761904D01*
X121510238Y-113761904D02*
X121462619Y-113666666D01*
X121462619Y-113666666D02*
X121462619Y-113428571D01*
X121462619Y-113428571D02*
X121510238Y-113333333D01*
X121510238Y-113333333D02*
X121557857Y-113285714D01*
X121557857Y-113285714D02*
X121653095Y-113238095D01*
X121653095Y-113238095D02*
X121748333Y-113238095D01*
X121748333Y-113238095D02*
X121891190Y-113285714D01*
X121891190Y-113285714D02*
X122462619Y-113857142D01*
X122462619Y-113857142D02*
X122462619Y-113238095D01*
X110833333Y-94962619D02*
X110500000Y-94486428D01*
X110261905Y-94962619D02*
X110261905Y-93962619D01*
X110261905Y-93962619D02*
X110642857Y-93962619D01*
X110642857Y-93962619D02*
X110738095Y-94010238D01*
X110738095Y-94010238D02*
X110785714Y-94057857D01*
X110785714Y-94057857D02*
X110833333Y-94153095D01*
X110833333Y-94153095D02*
X110833333Y-94295952D01*
X110833333Y-94295952D02*
X110785714Y-94391190D01*
X110785714Y-94391190D02*
X110738095Y-94438809D01*
X110738095Y-94438809D02*
X110642857Y-94486428D01*
X110642857Y-94486428D02*
X110261905Y-94486428D01*
X111214286Y-94057857D02*
X111261905Y-94010238D01*
X111261905Y-94010238D02*
X111357143Y-93962619D01*
X111357143Y-93962619D02*
X111595238Y-93962619D01*
X111595238Y-93962619D02*
X111690476Y-94010238D01*
X111690476Y-94010238D02*
X111738095Y-94057857D01*
X111738095Y-94057857D02*
X111785714Y-94153095D01*
X111785714Y-94153095D02*
X111785714Y-94248333D01*
X111785714Y-94248333D02*
X111738095Y-94391190D01*
X111738095Y-94391190D02*
X111166667Y-94962619D01*
X111166667Y-94962619D02*
X111785714Y-94962619D01*
X103666666Y-113962619D02*
X103666666Y-114676904D01*
X103666666Y-114676904D02*
X103619047Y-114819761D01*
X103619047Y-114819761D02*
X103523809Y-114915000D01*
X103523809Y-114915000D02*
X103380952Y-114962619D01*
X103380952Y-114962619D02*
X103285714Y-114962619D01*
X104047619Y-113962619D02*
X104666666Y-113962619D01*
X104666666Y-113962619D02*
X104333333Y-114343571D01*
X104333333Y-114343571D02*
X104476190Y-114343571D01*
X104476190Y-114343571D02*
X104571428Y-114391190D01*
X104571428Y-114391190D02*
X104619047Y-114438809D01*
X104619047Y-114438809D02*
X104666666Y-114534047D01*
X104666666Y-114534047D02*
X104666666Y-114772142D01*
X104666666Y-114772142D02*
X104619047Y-114867380D01*
X104619047Y-114867380D02*
X104571428Y-114915000D01*
X104571428Y-114915000D02*
X104476190Y-114962619D01*
X104476190Y-114962619D02*
X104190476Y-114962619D01*
X104190476Y-114962619D02*
X104095238Y-114915000D01*
X104095238Y-114915000D02*
X104047619Y-114867380D01*
X94109166Y-88202619D02*
X94109166Y-88916904D01*
X94109166Y-88916904D02*
X94061547Y-89059761D01*
X94061547Y-89059761D02*
X93966309Y-89155000D01*
X93966309Y-89155000D02*
X93823452Y-89202619D01*
X93823452Y-89202619D02*
X93728214Y-89202619D01*
X94537738Y-88297857D02*
X94585357Y-88250238D01*
X94585357Y-88250238D02*
X94680595Y-88202619D01*
X94680595Y-88202619D02*
X94918690Y-88202619D01*
X94918690Y-88202619D02*
X95013928Y-88250238D01*
X95013928Y-88250238D02*
X95061547Y-88297857D01*
X95061547Y-88297857D02*
X95109166Y-88393095D01*
X95109166Y-88393095D02*
X95109166Y-88488333D01*
X95109166Y-88488333D02*
X95061547Y-88631190D01*
X95061547Y-88631190D02*
X94490119Y-89202619D01*
X94490119Y-89202619D02*
X95109166Y-89202619D01*
X144600595Y-69452619D02*
X144600595Y-70262142D01*
X144600595Y-70262142D02*
X144648214Y-70357380D01*
X144648214Y-70357380D02*
X144695833Y-70405000D01*
X144695833Y-70405000D02*
X144791071Y-70452619D01*
X144791071Y-70452619D02*
X144981547Y-70452619D01*
X144981547Y-70452619D02*
X145076785Y-70405000D01*
X145076785Y-70405000D02*
X145124404Y-70357380D01*
X145124404Y-70357380D02*
X145172023Y-70262142D01*
X145172023Y-70262142D02*
X145172023Y-69452619D01*
X146076785Y-69452619D02*
X145886309Y-69452619D01*
X145886309Y-69452619D02*
X145791071Y-69500238D01*
X145791071Y-69500238D02*
X145743452Y-69547857D01*
X145743452Y-69547857D02*
X145648214Y-69690714D01*
X145648214Y-69690714D02*
X145600595Y-69881190D01*
X145600595Y-69881190D02*
X145600595Y-70262142D01*
X145600595Y-70262142D02*
X145648214Y-70357380D01*
X145648214Y-70357380D02*
X145695833Y-70405000D01*
X145695833Y-70405000D02*
X145791071Y-70452619D01*
X145791071Y-70452619D02*
X145981547Y-70452619D01*
X145981547Y-70452619D02*
X146076785Y-70405000D01*
X146076785Y-70405000D02*
X146124404Y-70357380D01*
X146124404Y-70357380D02*
X146172023Y-70262142D01*
X146172023Y-70262142D02*
X146172023Y-70024047D01*
X146172023Y-70024047D02*
X146124404Y-69928809D01*
X146124404Y-69928809D02*
X146076785Y-69881190D01*
X146076785Y-69881190D02*
X145981547Y-69833571D01*
X145981547Y-69833571D02*
X145791071Y-69833571D01*
X145791071Y-69833571D02*
X145695833Y-69881190D01*
X145695833Y-69881190D02*
X145648214Y-69928809D01*
X145648214Y-69928809D02*
X145600595Y-70024047D01*
X129588095Y-59057619D02*
X129588095Y-59867142D01*
X129588095Y-59867142D02*
X129635714Y-59962380D01*
X129635714Y-59962380D02*
X129683333Y-60010000D01*
X129683333Y-60010000D02*
X129778571Y-60057619D01*
X129778571Y-60057619D02*
X129969047Y-60057619D01*
X129969047Y-60057619D02*
X130064285Y-60010000D01*
X130064285Y-60010000D02*
X130111904Y-59962380D01*
X130111904Y-59962380D02*
X130159523Y-59867142D01*
X130159523Y-59867142D02*
X130159523Y-59057619D01*
X130540476Y-59057619D02*
X131159523Y-59057619D01*
X131159523Y-59057619D02*
X130826190Y-59438571D01*
X130826190Y-59438571D02*
X130969047Y-59438571D01*
X130969047Y-59438571D02*
X131064285Y-59486190D01*
X131064285Y-59486190D02*
X131111904Y-59533809D01*
X131111904Y-59533809D02*
X131159523Y-59629047D01*
X131159523Y-59629047D02*
X131159523Y-59867142D01*
X131159523Y-59867142D02*
X131111904Y-59962380D01*
X131111904Y-59962380D02*
X131064285Y-60010000D01*
X131064285Y-60010000D02*
X130969047Y-60057619D01*
X130969047Y-60057619D02*
X130683333Y-60057619D01*
X130683333Y-60057619D02*
X130588095Y-60010000D01*
X130588095Y-60010000D02*
X130540476Y-59962380D01*
X112482142Y-111017380D02*
X112434523Y-111065000D01*
X112434523Y-111065000D02*
X112291666Y-111112619D01*
X112291666Y-111112619D02*
X112196428Y-111112619D01*
X112196428Y-111112619D02*
X112053571Y-111065000D01*
X112053571Y-111065000D02*
X111958333Y-110969761D01*
X111958333Y-110969761D02*
X111910714Y-110874523D01*
X111910714Y-110874523D02*
X111863095Y-110684047D01*
X111863095Y-110684047D02*
X111863095Y-110541190D01*
X111863095Y-110541190D02*
X111910714Y-110350714D01*
X111910714Y-110350714D02*
X111958333Y-110255476D01*
X111958333Y-110255476D02*
X112053571Y-110160238D01*
X112053571Y-110160238D02*
X112196428Y-110112619D01*
X112196428Y-110112619D02*
X112291666Y-110112619D01*
X112291666Y-110112619D02*
X112434523Y-110160238D01*
X112434523Y-110160238D02*
X112482142Y-110207857D01*
X113434523Y-111112619D02*
X112863095Y-111112619D01*
X113148809Y-111112619D02*
X113148809Y-110112619D01*
X113148809Y-110112619D02*
X113053571Y-110255476D01*
X113053571Y-110255476D02*
X112958333Y-110350714D01*
X112958333Y-110350714D02*
X112863095Y-110398333D01*
X114053571Y-110112619D02*
X114148809Y-110112619D01*
X114148809Y-110112619D02*
X114244047Y-110160238D01*
X114244047Y-110160238D02*
X114291666Y-110207857D01*
X114291666Y-110207857D02*
X114339285Y-110303095D01*
X114339285Y-110303095D02*
X114386904Y-110493571D01*
X114386904Y-110493571D02*
X114386904Y-110731666D01*
X114386904Y-110731666D02*
X114339285Y-110922142D01*
X114339285Y-110922142D02*
X114291666Y-111017380D01*
X114291666Y-111017380D02*
X114244047Y-111065000D01*
X114244047Y-111065000D02*
X114148809Y-111112619D01*
X114148809Y-111112619D02*
X114053571Y-111112619D01*
X114053571Y-111112619D02*
X113958333Y-111065000D01*
X113958333Y-111065000D02*
X113910714Y-111017380D01*
X113910714Y-111017380D02*
X113863095Y-110922142D01*
X113863095Y-110922142D02*
X113815476Y-110731666D01*
X113815476Y-110731666D02*
X113815476Y-110493571D01*
X113815476Y-110493571D02*
X113863095Y-110303095D01*
X113863095Y-110303095D02*
X113910714Y-110207857D01*
X113910714Y-110207857D02*
X113958333Y-110160238D01*
X113958333Y-110160238D02*
X114053571Y-110112619D01*
X121962619Y-97738094D02*
X120962619Y-97738094D01*
X120962619Y-97738094D02*
X120962619Y-97499999D01*
X120962619Y-97499999D02*
X121010238Y-97357142D01*
X121010238Y-97357142D02*
X121105476Y-97261904D01*
X121105476Y-97261904D02*
X121200714Y-97214285D01*
X121200714Y-97214285D02*
X121391190Y-97166666D01*
X121391190Y-97166666D02*
X121534047Y-97166666D01*
X121534047Y-97166666D02*
X121724523Y-97214285D01*
X121724523Y-97214285D02*
X121819761Y-97261904D01*
X121819761Y-97261904D02*
X121915000Y-97357142D01*
X121915000Y-97357142D02*
X121962619Y-97499999D01*
X121962619Y-97499999D02*
X121962619Y-97738094D01*
X120962619Y-96309523D02*
X120962619Y-96499999D01*
X120962619Y-96499999D02*
X121010238Y-96595237D01*
X121010238Y-96595237D02*
X121057857Y-96642856D01*
X121057857Y-96642856D02*
X121200714Y-96738094D01*
X121200714Y-96738094D02*
X121391190Y-96785713D01*
X121391190Y-96785713D02*
X121772142Y-96785713D01*
X121772142Y-96785713D02*
X121867380Y-96738094D01*
X121867380Y-96738094D02*
X121915000Y-96690475D01*
X121915000Y-96690475D02*
X121962619Y-96595237D01*
X121962619Y-96595237D02*
X121962619Y-96404761D01*
X121962619Y-96404761D02*
X121915000Y-96309523D01*
X121915000Y-96309523D02*
X121867380Y-96261904D01*
X121867380Y-96261904D02*
X121772142Y-96214285D01*
X121772142Y-96214285D02*
X121534047Y-96214285D01*
X121534047Y-96214285D02*
X121438809Y-96261904D01*
X121438809Y-96261904D02*
X121391190Y-96309523D01*
X121391190Y-96309523D02*
X121343571Y-96404761D01*
X121343571Y-96404761D02*
X121343571Y-96595237D01*
X121343571Y-96595237D02*
X121391190Y-96690475D01*
X121391190Y-96690475D02*
X121438809Y-96738094D01*
X121438809Y-96738094D02*
X121534047Y-96785713D01*
X116333333Y-95687380D02*
X116285714Y-95735000D01*
X116285714Y-95735000D02*
X116142857Y-95782619D01*
X116142857Y-95782619D02*
X116047619Y-95782619D01*
X116047619Y-95782619D02*
X115904762Y-95735000D01*
X115904762Y-95735000D02*
X115809524Y-95639761D01*
X115809524Y-95639761D02*
X115761905Y-95544523D01*
X115761905Y-95544523D02*
X115714286Y-95354047D01*
X115714286Y-95354047D02*
X115714286Y-95211190D01*
X115714286Y-95211190D02*
X115761905Y-95020714D01*
X115761905Y-95020714D02*
X115809524Y-94925476D01*
X115809524Y-94925476D02*
X115904762Y-94830238D01*
X115904762Y-94830238D02*
X116047619Y-94782619D01*
X116047619Y-94782619D02*
X116142857Y-94782619D01*
X116142857Y-94782619D02*
X116285714Y-94830238D01*
X116285714Y-94830238D02*
X116333333Y-94877857D01*
X117285714Y-95782619D02*
X116714286Y-95782619D01*
X117000000Y-95782619D02*
X117000000Y-94782619D01*
X117000000Y-94782619D02*
X116904762Y-94925476D01*
X116904762Y-94925476D02*
X116809524Y-95020714D01*
X116809524Y-95020714D02*
X116714286Y-95068333D01*
X106857142Y-116367380D02*
X106809523Y-116415000D01*
X106809523Y-116415000D02*
X106666666Y-116462619D01*
X106666666Y-116462619D02*
X106571428Y-116462619D01*
X106571428Y-116462619D02*
X106428571Y-116415000D01*
X106428571Y-116415000D02*
X106333333Y-116319761D01*
X106333333Y-116319761D02*
X106285714Y-116224523D01*
X106285714Y-116224523D02*
X106238095Y-116034047D01*
X106238095Y-116034047D02*
X106238095Y-115891190D01*
X106238095Y-115891190D02*
X106285714Y-115700714D01*
X106285714Y-115700714D02*
X106333333Y-115605476D01*
X106333333Y-115605476D02*
X106428571Y-115510238D01*
X106428571Y-115510238D02*
X106571428Y-115462619D01*
X106571428Y-115462619D02*
X106666666Y-115462619D01*
X106666666Y-115462619D02*
X106809523Y-115510238D01*
X106809523Y-115510238D02*
X106857142Y-115557857D01*
X107809523Y-116462619D02*
X107238095Y-116462619D01*
X107523809Y-116462619D02*
X107523809Y-115462619D01*
X107523809Y-115462619D02*
X107428571Y-115605476D01*
X107428571Y-115605476D02*
X107333333Y-115700714D01*
X107333333Y-115700714D02*
X107238095Y-115748333D01*
X108761904Y-116462619D02*
X108190476Y-116462619D01*
X108476190Y-116462619D02*
X108476190Y-115462619D01*
X108476190Y-115462619D02*
X108380952Y-115605476D01*
X108380952Y-115605476D02*
X108285714Y-115700714D01*
X108285714Y-115700714D02*
X108190476Y-115748333D01*
X129738095Y-84112619D02*
X129738095Y-84922142D01*
X129738095Y-84922142D02*
X129785714Y-85017380D01*
X129785714Y-85017380D02*
X129833333Y-85065000D01*
X129833333Y-85065000D02*
X129928571Y-85112619D01*
X129928571Y-85112619D02*
X130119047Y-85112619D01*
X130119047Y-85112619D02*
X130214285Y-85065000D01*
X130214285Y-85065000D02*
X130261904Y-85017380D01*
X130261904Y-85017380D02*
X130309523Y-84922142D01*
X130309523Y-84922142D02*
X130309523Y-84112619D01*
X130690476Y-84112619D02*
X131357142Y-84112619D01*
X131357142Y-84112619D02*
X130928571Y-85112619D01*
X140462619Y-90833333D02*
X141176904Y-90833333D01*
X141176904Y-90833333D02*
X141319761Y-90880952D01*
X141319761Y-90880952D02*
X141415000Y-90976190D01*
X141415000Y-90976190D02*
X141462619Y-91119047D01*
X141462619Y-91119047D02*
X141462619Y-91214285D01*
X140462619Y-90452380D02*
X140462619Y-89785714D01*
X140462619Y-89785714D02*
X141462619Y-90214285D01*
X125357142Y-103112619D02*
X125023809Y-102636428D01*
X124785714Y-103112619D02*
X124785714Y-102112619D01*
X124785714Y-102112619D02*
X125166666Y-102112619D01*
X125166666Y-102112619D02*
X125261904Y-102160238D01*
X125261904Y-102160238D02*
X125309523Y-102207857D01*
X125309523Y-102207857D02*
X125357142Y-102303095D01*
X125357142Y-102303095D02*
X125357142Y-102445952D01*
X125357142Y-102445952D02*
X125309523Y-102541190D01*
X125309523Y-102541190D02*
X125261904Y-102588809D01*
X125261904Y-102588809D02*
X125166666Y-102636428D01*
X125166666Y-102636428D02*
X124785714Y-102636428D01*
X126309523Y-103112619D02*
X125738095Y-103112619D01*
X126023809Y-103112619D02*
X126023809Y-102112619D01*
X126023809Y-102112619D02*
X125928571Y-102255476D01*
X125928571Y-102255476D02*
X125833333Y-102350714D01*
X125833333Y-102350714D02*
X125738095Y-102398333D01*
X126690476Y-102207857D02*
X126738095Y-102160238D01*
X126738095Y-102160238D02*
X126833333Y-102112619D01*
X126833333Y-102112619D02*
X127071428Y-102112619D01*
X127071428Y-102112619D02*
X127166666Y-102160238D01*
X127166666Y-102160238D02*
X127214285Y-102207857D01*
X127214285Y-102207857D02*
X127261904Y-102303095D01*
X127261904Y-102303095D02*
X127261904Y-102398333D01*
X127261904Y-102398333D02*
X127214285Y-102541190D01*
X127214285Y-102541190D02*
X126642857Y-103112619D01*
X126642857Y-103112619D02*
X127261904Y-103112619D01*
X117833333Y-82687380D02*
X117785714Y-82735000D01*
X117785714Y-82735000D02*
X117642857Y-82782619D01*
X117642857Y-82782619D02*
X117547619Y-82782619D01*
X117547619Y-82782619D02*
X117404762Y-82735000D01*
X117404762Y-82735000D02*
X117309524Y-82639761D01*
X117309524Y-82639761D02*
X117261905Y-82544523D01*
X117261905Y-82544523D02*
X117214286Y-82354047D01*
X117214286Y-82354047D02*
X117214286Y-82211190D01*
X117214286Y-82211190D02*
X117261905Y-82020714D01*
X117261905Y-82020714D02*
X117309524Y-81925476D01*
X117309524Y-81925476D02*
X117404762Y-81830238D01*
X117404762Y-81830238D02*
X117547619Y-81782619D01*
X117547619Y-81782619D02*
X117642857Y-81782619D01*
X117642857Y-81782619D02*
X117785714Y-81830238D01*
X117785714Y-81830238D02*
X117833333Y-81877857D01*
X118214286Y-81877857D02*
X118261905Y-81830238D01*
X118261905Y-81830238D02*
X118357143Y-81782619D01*
X118357143Y-81782619D02*
X118595238Y-81782619D01*
X118595238Y-81782619D02*
X118690476Y-81830238D01*
X118690476Y-81830238D02*
X118738095Y-81877857D01*
X118738095Y-81877857D02*
X118785714Y-81973095D01*
X118785714Y-81973095D02*
X118785714Y-82068333D01*
X118785714Y-82068333D02*
X118738095Y-82211190D01*
X118738095Y-82211190D02*
X118166667Y-82782619D01*
X118166667Y-82782619D02*
X118785714Y-82782619D01*
X121833333Y-61547380D02*
X121785714Y-61595000D01*
X121785714Y-61595000D02*
X121642857Y-61642619D01*
X121642857Y-61642619D02*
X121547619Y-61642619D01*
X121547619Y-61642619D02*
X121404762Y-61595000D01*
X121404762Y-61595000D02*
X121309524Y-61499761D01*
X121309524Y-61499761D02*
X121261905Y-61404523D01*
X121261905Y-61404523D02*
X121214286Y-61214047D01*
X121214286Y-61214047D02*
X121214286Y-61071190D01*
X121214286Y-61071190D02*
X121261905Y-60880714D01*
X121261905Y-60880714D02*
X121309524Y-60785476D01*
X121309524Y-60785476D02*
X121404762Y-60690238D01*
X121404762Y-60690238D02*
X121547619Y-60642619D01*
X121547619Y-60642619D02*
X121642857Y-60642619D01*
X121642857Y-60642619D02*
X121785714Y-60690238D01*
X121785714Y-60690238D02*
X121833333Y-60737857D01*
X122166667Y-60642619D02*
X122785714Y-60642619D01*
X122785714Y-60642619D02*
X122452381Y-61023571D01*
X122452381Y-61023571D02*
X122595238Y-61023571D01*
X122595238Y-61023571D02*
X122690476Y-61071190D01*
X122690476Y-61071190D02*
X122738095Y-61118809D01*
X122738095Y-61118809D02*
X122785714Y-61214047D01*
X122785714Y-61214047D02*
X122785714Y-61452142D01*
X122785714Y-61452142D02*
X122738095Y-61547380D01*
X122738095Y-61547380D02*
X122690476Y-61595000D01*
X122690476Y-61595000D02*
X122595238Y-61642619D01*
X122595238Y-61642619D02*
X122309524Y-61642619D01*
X122309524Y-61642619D02*
X122214286Y-61595000D01*
X122214286Y-61595000D02*
X122166667Y-61547380D01*
X140833333Y-143112619D02*
X140500000Y-142636428D01*
X140261905Y-143112619D02*
X140261905Y-142112619D01*
X140261905Y-142112619D02*
X140642857Y-142112619D01*
X140642857Y-142112619D02*
X140738095Y-142160238D01*
X140738095Y-142160238D02*
X140785714Y-142207857D01*
X140785714Y-142207857D02*
X140833333Y-142303095D01*
X140833333Y-142303095D02*
X140833333Y-142445952D01*
X140833333Y-142445952D02*
X140785714Y-142541190D01*
X140785714Y-142541190D02*
X140738095Y-142588809D01*
X140738095Y-142588809D02*
X140642857Y-142636428D01*
X140642857Y-142636428D02*
X140261905Y-142636428D01*
X141309524Y-143112619D02*
X141500000Y-143112619D01*
X141500000Y-143112619D02*
X141595238Y-143065000D01*
X141595238Y-143065000D02*
X141642857Y-143017380D01*
X141642857Y-143017380D02*
X141738095Y-142874523D01*
X141738095Y-142874523D02*
X141785714Y-142684047D01*
X141785714Y-142684047D02*
X141785714Y-142303095D01*
X141785714Y-142303095D02*
X141738095Y-142207857D01*
X141738095Y-142207857D02*
X141690476Y-142160238D01*
X141690476Y-142160238D02*
X141595238Y-142112619D01*
X141595238Y-142112619D02*
X141404762Y-142112619D01*
X141404762Y-142112619D02*
X141309524Y-142160238D01*
X141309524Y-142160238D02*
X141261905Y-142207857D01*
X141261905Y-142207857D02*
X141214286Y-142303095D01*
X141214286Y-142303095D02*
X141214286Y-142541190D01*
X141214286Y-142541190D02*
X141261905Y-142636428D01*
X141261905Y-142636428D02*
X141309524Y-142684047D01*
X141309524Y-142684047D02*
X141404762Y-142731666D01*
X141404762Y-142731666D02*
X141595238Y-142731666D01*
X141595238Y-142731666D02*
X141690476Y-142684047D01*
X141690476Y-142684047D02*
X141738095Y-142636428D01*
X141738095Y-142636428D02*
X141785714Y-142541190D01*
X144738095Y-96612619D02*
X144738095Y-97422142D01*
X144738095Y-97422142D02*
X144785714Y-97517380D01*
X144785714Y-97517380D02*
X144833333Y-97565000D01*
X144833333Y-97565000D02*
X144928571Y-97612619D01*
X144928571Y-97612619D02*
X145119047Y-97612619D01*
X145119047Y-97612619D02*
X145214285Y-97565000D01*
X145214285Y-97565000D02*
X145261904Y-97517380D01*
X145261904Y-97517380D02*
X145309523Y-97422142D01*
X145309523Y-97422142D02*
X145309523Y-96612619D01*
X146214285Y-96945952D02*
X146214285Y-97612619D01*
X145976190Y-96565000D02*
X145738095Y-97279285D01*
X145738095Y-97279285D02*
X146357142Y-97279285D01*
X116333333Y-102612619D02*
X116000000Y-102136428D01*
X115761905Y-102612619D02*
X115761905Y-101612619D01*
X115761905Y-101612619D02*
X116142857Y-101612619D01*
X116142857Y-101612619D02*
X116238095Y-101660238D01*
X116238095Y-101660238D02*
X116285714Y-101707857D01*
X116285714Y-101707857D02*
X116333333Y-101803095D01*
X116333333Y-101803095D02*
X116333333Y-101945952D01*
X116333333Y-101945952D02*
X116285714Y-102041190D01*
X116285714Y-102041190D02*
X116238095Y-102088809D01*
X116238095Y-102088809D02*
X116142857Y-102136428D01*
X116142857Y-102136428D02*
X115761905Y-102136428D01*
X117285714Y-102612619D02*
X116714286Y-102612619D01*
X117000000Y-102612619D02*
X117000000Y-101612619D01*
X117000000Y-101612619D02*
X116904762Y-101755476D01*
X116904762Y-101755476D02*
X116809524Y-101850714D01*
X116809524Y-101850714D02*
X116714286Y-101898333D01*
X163436666Y-122362619D02*
X163436666Y-123076904D01*
X163436666Y-123076904D02*
X163389047Y-123219761D01*
X163389047Y-123219761D02*
X163293809Y-123315000D01*
X163293809Y-123315000D02*
X163150952Y-123362619D01*
X163150952Y-123362619D02*
X163055714Y-123362619D01*
X164389047Y-122362619D02*
X163912857Y-122362619D01*
X163912857Y-122362619D02*
X163865238Y-122838809D01*
X163865238Y-122838809D02*
X163912857Y-122791190D01*
X163912857Y-122791190D02*
X164008095Y-122743571D01*
X164008095Y-122743571D02*
X164246190Y-122743571D01*
X164246190Y-122743571D02*
X164341428Y-122791190D01*
X164341428Y-122791190D02*
X164389047Y-122838809D01*
X164389047Y-122838809D02*
X164436666Y-122934047D01*
X164436666Y-122934047D02*
X164436666Y-123172142D01*
X164436666Y-123172142D02*
X164389047Y-123267380D01*
X164389047Y-123267380D02*
X164341428Y-123315000D01*
X164341428Y-123315000D02*
X164246190Y-123362619D01*
X164246190Y-123362619D02*
X164008095Y-123362619D01*
X164008095Y-123362619D02*
X163912857Y-123315000D01*
X163912857Y-123315000D02*
X163865238Y-123267380D01*
X163436666Y-60862619D02*
X163436666Y-61576904D01*
X163436666Y-61576904D02*
X163389047Y-61719761D01*
X163389047Y-61719761D02*
X163293809Y-61815000D01*
X163293809Y-61815000D02*
X163150952Y-61862619D01*
X163150952Y-61862619D02*
X163055714Y-61862619D01*
X164055714Y-61291190D02*
X163960476Y-61243571D01*
X163960476Y-61243571D02*
X163912857Y-61195952D01*
X163912857Y-61195952D02*
X163865238Y-61100714D01*
X163865238Y-61100714D02*
X163865238Y-61053095D01*
X163865238Y-61053095D02*
X163912857Y-60957857D01*
X163912857Y-60957857D02*
X163960476Y-60910238D01*
X163960476Y-60910238D02*
X164055714Y-60862619D01*
X164055714Y-60862619D02*
X164246190Y-60862619D01*
X164246190Y-60862619D02*
X164341428Y-60910238D01*
X164341428Y-60910238D02*
X164389047Y-60957857D01*
X164389047Y-60957857D02*
X164436666Y-61053095D01*
X164436666Y-61053095D02*
X164436666Y-61100714D01*
X164436666Y-61100714D02*
X164389047Y-61195952D01*
X164389047Y-61195952D02*
X164341428Y-61243571D01*
X164341428Y-61243571D02*
X164246190Y-61291190D01*
X164246190Y-61291190D02*
X164055714Y-61291190D01*
X164055714Y-61291190D02*
X163960476Y-61338809D01*
X163960476Y-61338809D02*
X163912857Y-61386428D01*
X163912857Y-61386428D02*
X163865238Y-61481666D01*
X163865238Y-61481666D02*
X163865238Y-61672142D01*
X163865238Y-61672142D02*
X163912857Y-61767380D01*
X163912857Y-61767380D02*
X163960476Y-61815000D01*
X163960476Y-61815000D02*
X164055714Y-61862619D01*
X164055714Y-61862619D02*
X164246190Y-61862619D01*
X164246190Y-61862619D02*
X164341428Y-61815000D01*
X164341428Y-61815000D02*
X164389047Y-61767380D01*
X164389047Y-61767380D02*
X164436666Y-61672142D01*
X164436666Y-61672142D02*
X164436666Y-61481666D01*
X164436666Y-61481666D02*
X164389047Y-61386428D01*
X164389047Y-61386428D02*
X164341428Y-61338809D01*
X164341428Y-61338809D02*
X164246190Y-61291190D01*
X135462619Y-139738094D02*
X134462619Y-139738094D01*
X134462619Y-139738094D02*
X134462619Y-139499999D01*
X134462619Y-139499999D02*
X134510238Y-139357142D01*
X134510238Y-139357142D02*
X134605476Y-139261904D01*
X134605476Y-139261904D02*
X134700714Y-139214285D01*
X134700714Y-139214285D02*
X134891190Y-139166666D01*
X134891190Y-139166666D02*
X135034047Y-139166666D01*
X135034047Y-139166666D02*
X135224523Y-139214285D01*
X135224523Y-139214285D02*
X135319761Y-139261904D01*
X135319761Y-139261904D02*
X135415000Y-139357142D01*
X135415000Y-139357142D02*
X135462619Y-139499999D01*
X135462619Y-139499999D02*
X135462619Y-139738094D01*
X134462619Y-138833332D02*
X134462619Y-138214285D01*
X134462619Y-138214285D02*
X134843571Y-138547618D01*
X134843571Y-138547618D02*
X134843571Y-138404761D01*
X134843571Y-138404761D02*
X134891190Y-138309523D01*
X134891190Y-138309523D02*
X134938809Y-138261904D01*
X134938809Y-138261904D02*
X135034047Y-138214285D01*
X135034047Y-138214285D02*
X135272142Y-138214285D01*
X135272142Y-138214285D02*
X135367380Y-138261904D01*
X135367380Y-138261904D02*
X135415000Y-138309523D01*
X135415000Y-138309523D02*
X135462619Y-138404761D01*
X135462619Y-138404761D02*
X135462619Y-138690475D01*
X135462619Y-138690475D02*
X135415000Y-138785713D01*
X135415000Y-138785713D02*
X135367380Y-138833332D01*
X139547380Y-76166666D02*
X139595000Y-76214285D01*
X139595000Y-76214285D02*
X139642619Y-76357142D01*
X139642619Y-76357142D02*
X139642619Y-76452380D01*
X139642619Y-76452380D02*
X139595000Y-76595237D01*
X139595000Y-76595237D02*
X139499761Y-76690475D01*
X139499761Y-76690475D02*
X139404523Y-76738094D01*
X139404523Y-76738094D02*
X139214047Y-76785713D01*
X139214047Y-76785713D02*
X139071190Y-76785713D01*
X139071190Y-76785713D02*
X138880714Y-76738094D01*
X138880714Y-76738094D02*
X138785476Y-76690475D01*
X138785476Y-76690475D02*
X138690238Y-76595237D01*
X138690238Y-76595237D02*
X138642619Y-76452380D01*
X138642619Y-76452380D02*
X138642619Y-76357142D01*
X138642619Y-76357142D02*
X138690238Y-76214285D01*
X138690238Y-76214285D02*
X138737857Y-76166666D01*
X138642619Y-75309523D02*
X138642619Y-75499999D01*
X138642619Y-75499999D02*
X138690238Y-75595237D01*
X138690238Y-75595237D02*
X138737857Y-75642856D01*
X138737857Y-75642856D02*
X138880714Y-75738094D01*
X138880714Y-75738094D02*
X139071190Y-75785713D01*
X139071190Y-75785713D02*
X139452142Y-75785713D01*
X139452142Y-75785713D02*
X139547380Y-75738094D01*
X139547380Y-75738094D02*
X139595000Y-75690475D01*
X139595000Y-75690475D02*
X139642619Y-75595237D01*
X139642619Y-75595237D02*
X139642619Y-75404761D01*
X139642619Y-75404761D02*
X139595000Y-75309523D01*
X139595000Y-75309523D02*
X139547380Y-75261904D01*
X139547380Y-75261904D02*
X139452142Y-75214285D01*
X139452142Y-75214285D02*
X139214047Y-75214285D01*
X139214047Y-75214285D02*
X139118809Y-75261904D01*
X139118809Y-75261904D02*
X139071190Y-75309523D01*
X139071190Y-75309523D02*
X139023571Y-75404761D01*
X139023571Y-75404761D02*
X139023571Y-75595237D01*
X139023571Y-75595237D02*
X139071190Y-75690475D01*
X139071190Y-75690475D02*
X139118809Y-75738094D01*
X139118809Y-75738094D02*
X139214047Y-75785713D01*
X124857142Y-79112619D02*
X124523809Y-78636428D01*
X124285714Y-79112619D02*
X124285714Y-78112619D01*
X124285714Y-78112619D02*
X124666666Y-78112619D01*
X124666666Y-78112619D02*
X124761904Y-78160238D01*
X124761904Y-78160238D02*
X124809523Y-78207857D01*
X124809523Y-78207857D02*
X124857142Y-78303095D01*
X124857142Y-78303095D02*
X124857142Y-78445952D01*
X124857142Y-78445952D02*
X124809523Y-78541190D01*
X124809523Y-78541190D02*
X124761904Y-78588809D01*
X124761904Y-78588809D02*
X124666666Y-78636428D01*
X124666666Y-78636428D02*
X124285714Y-78636428D01*
X125809523Y-79112619D02*
X125238095Y-79112619D01*
X125523809Y-79112619D02*
X125523809Y-78112619D01*
X125523809Y-78112619D02*
X125428571Y-78255476D01*
X125428571Y-78255476D02*
X125333333Y-78350714D01*
X125333333Y-78350714D02*
X125238095Y-78398333D01*
X126428571Y-78112619D02*
X126523809Y-78112619D01*
X126523809Y-78112619D02*
X126619047Y-78160238D01*
X126619047Y-78160238D02*
X126666666Y-78207857D01*
X126666666Y-78207857D02*
X126714285Y-78303095D01*
X126714285Y-78303095D02*
X126761904Y-78493571D01*
X126761904Y-78493571D02*
X126761904Y-78731666D01*
X126761904Y-78731666D02*
X126714285Y-78922142D01*
X126714285Y-78922142D02*
X126666666Y-79017380D01*
X126666666Y-79017380D02*
X126619047Y-79065000D01*
X126619047Y-79065000D02*
X126523809Y-79112619D01*
X126523809Y-79112619D02*
X126428571Y-79112619D01*
X126428571Y-79112619D02*
X126333333Y-79065000D01*
X126333333Y-79065000D02*
X126285714Y-79017380D01*
X126285714Y-79017380D02*
X126238095Y-78922142D01*
X126238095Y-78922142D02*
X126190476Y-78731666D01*
X126190476Y-78731666D02*
X126190476Y-78493571D01*
X126190476Y-78493571D02*
X126238095Y-78303095D01*
X126238095Y-78303095D02*
X126285714Y-78207857D01*
X126285714Y-78207857D02*
X126333333Y-78160238D01*
X126333333Y-78160238D02*
X126428571Y-78112619D01*
X138867380Y-107166666D02*
X138915000Y-107214285D01*
X138915000Y-107214285D02*
X138962619Y-107357142D01*
X138962619Y-107357142D02*
X138962619Y-107452380D01*
X138962619Y-107452380D02*
X138915000Y-107595237D01*
X138915000Y-107595237D02*
X138819761Y-107690475D01*
X138819761Y-107690475D02*
X138724523Y-107738094D01*
X138724523Y-107738094D02*
X138534047Y-107785713D01*
X138534047Y-107785713D02*
X138391190Y-107785713D01*
X138391190Y-107785713D02*
X138200714Y-107738094D01*
X138200714Y-107738094D02*
X138105476Y-107690475D01*
X138105476Y-107690475D02*
X138010238Y-107595237D01*
X138010238Y-107595237D02*
X137962619Y-107452380D01*
X137962619Y-107452380D02*
X137962619Y-107357142D01*
X137962619Y-107357142D02*
X138010238Y-107214285D01*
X138010238Y-107214285D02*
X138057857Y-107166666D01*
X138295952Y-106309523D02*
X138962619Y-106309523D01*
X137915000Y-106547618D02*
X138629285Y-106785713D01*
X138629285Y-106785713D02*
X138629285Y-106166666D01*
X118112619Y-88666666D02*
X117636428Y-88999999D01*
X118112619Y-89238094D02*
X117112619Y-89238094D01*
X117112619Y-89238094D02*
X117112619Y-88857142D01*
X117112619Y-88857142D02*
X117160238Y-88761904D01*
X117160238Y-88761904D02*
X117207857Y-88714285D01*
X117207857Y-88714285D02*
X117303095Y-88666666D01*
X117303095Y-88666666D02*
X117445952Y-88666666D01*
X117445952Y-88666666D02*
X117541190Y-88714285D01*
X117541190Y-88714285D02*
X117588809Y-88761904D01*
X117588809Y-88761904D02*
X117636428Y-88857142D01*
X117636428Y-88857142D02*
X117636428Y-89238094D01*
X117112619Y-88333332D02*
X117112619Y-87714285D01*
X117112619Y-87714285D02*
X117493571Y-88047618D01*
X117493571Y-88047618D02*
X117493571Y-87904761D01*
X117493571Y-87904761D02*
X117541190Y-87809523D01*
X117541190Y-87809523D02*
X117588809Y-87761904D01*
X117588809Y-87761904D02*
X117684047Y-87714285D01*
X117684047Y-87714285D02*
X117922142Y-87714285D01*
X117922142Y-87714285D02*
X118017380Y-87761904D01*
X118017380Y-87761904D02*
X118065000Y-87809523D01*
X118065000Y-87809523D02*
X118112619Y-87904761D01*
X118112619Y-87904761D02*
X118112619Y-88190475D01*
X118112619Y-88190475D02*
X118065000Y-88285713D01*
X118065000Y-88285713D02*
X118017380Y-88333332D01*
X112738095Y-107462619D02*
X112738095Y-108272142D01*
X112738095Y-108272142D02*
X112785714Y-108367380D01*
X112785714Y-108367380D02*
X112833333Y-108415000D01*
X112833333Y-108415000D02*
X112928571Y-108462619D01*
X112928571Y-108462619D02*
X113119047Y-108462619D01*
X113119047Y-108462619D02*
X113214285Y-108415000D01*
X113214285Y-108415000D02*
X113261904Y-108367380D01*
X113261904Y-108367380D02*
X113309523Y-108272142D01*
X113309523Y-108272142D02*
X113309523Y-107462619D01*
X114309523Y-108462619D02*
X113738095Y-108462619D01*
X114023809Y-108462619D02*
X114023809Y-107462619D01*
X114023809Y-107462619D02*
X113928571Y-107605476D01*
X113928571Y-107605476D02*
X113833333Y-107700714D01*
X113833333Y-107700714D02*
X113738095Y-107748333D01*
X162166666Y-84462619D02*
X162166666Y-85176904D01*
X162166666Y-85176904D02*
X162119047Y-85319761D01*
X162119047Y-85319761D02*
X162023809Y-85415000D01*
X162023809Y-85415000D02*
X161880952Y-85462619D01*
X161880952Y-85462619D02*
X161785714Y-85462619D01*
X162690476Y-85462619D02*
X162880952Y-85462619D01*
X162880952Y-85462619D02*
X162976190Y-85415000D01*
X162976190Y-85415000D02*
X163023809Y-85367380D01*
X163023809Y-85367380D02*
X163119047Y-85224523D01*
X163119047Y-85224523D02*
X163166666Y-85034047D01*
X163166666Y-85034047D02*
X163166666Y-84653095D01*
X163166666Y-84653095D02*
X163119047Y-84557857D01*
X163119047Y-84557857D02*
X163071428Y-84510238D01*
X163071428Y-84510238D02*
X162976190Y-84462619D01*
X162976190Y-84462619D02*
X162785714Y-84462619D01*
X162785714Y-84462619D02*
X162690476Y-84510238D01*
X162690476Y-84510238D02*
X162642857Y-84557857D01*
X162642857Y-84557857D02*
X162595238Y-84653095D01*
X162595238Y-84653095D02*
X162595238Y-84891190D01*
X162595238Y-84891190D02*
X162642857Y-84986428D01*
X162642857Y-84986428D02*
X162690476Y-85034047D01*
X162690476Y-85034047D02*
X162785714Y-85081666D01*
X162785714Y-85081666D02*
X162976190Y-85081666D01*
X162976190Y-85081666D02*
X163071428Y-85034047D01*
X163071428Y-85034047D02*
X163119047Y-84986428D01*
X163119047Y-84986428D02*
X163166666Y-84891190D01*
X119962619Y-76238094D02*
X118962619Y-76238094D01*
X118962619Y-76238094D02*
X118962619Y-75999999D01*
X118962619Y-75999999D02*
X119010238Y-75857142D01*
X119010238Y-75857142D02*
X119105476Y-75761904D01*
X119105476Y-75761904D02*
X119200714Y-75714285D01*
X119200714Y-75714285D02*
X119391190Y-75666666D01*
X119391190Y-75666666D02*
X119534047Y-75666666D01*
X119534047Y-75666666D02*
X119724523Y-75714285D01*
X119724523Y-75714285D02*
X119819761Y-75761904D01*
X119819761Y-75761904D02*
X119915000Y-75857142D01*
X119915000Y-75857142D02*
X119962619Y-75999999D01*
X119962619Y-75999999D02*
X119962619Y-76238094D01*
X119295952Y-74809523D02*
X119962619Y-74809523D01*
X118915000Y-75047618D02*
X119629285Y-75285713D01*
X119629285Y-75285713D02*
X119629285Y-74666666D01*
X144738095Y-124112619D02*
X144738095Y-124922142D01*
X144738095Y-124922142D02*
X144785714Y-125017380D01*
X144785714Y-125017380D02*
X144833333Y-125065000D01*
X144833333Y-125065000D02*
X144928571Y-125112619D01*
X144928571Y-125112619D02*
X145119047Y-125112619D01*
X145119047Y-125112619D02*
X145214285Y-125065000D01*
X145214285Y-125065000D02*
X145261904Y-125017380D01*
X145261904Y-125017380D02*
X145309523Y-124922142D01*
X145309523Y-124922142D02*
X145309523Y-124112619D01*
X146261904Y-124112619D02*
X145785714Y-124112619D01*
X145785714Y-124112619D02*
X145738095Y-124588809D01*
X145738095Y-124588809D02*
X145785714Y-124541190D01*
X145785714Y-124541190D02*
X145880952Y-124493571D01*
X145880952Y-124493571D02*
X146119047Y-124493571D01*
X146119047Y-124493571D02*
X146214285Y-124541190D01*
X146214285Y-124541190D02*
X146261904Y-124588809D01*
X146261904Y-124588809D02*
X146309523Y-124684047D01*
X146309523Y-124684047D02*
X146309523Y-124922142D01*
X146309523Y-124922142D02*
X146261904Y-125017380D01*
X146261904Y-125017380D02*
X146214285Y-125065000D01*
X146214285Y-125065000D02*
X146119047Y-125112619D01*
X146119047Y-125112619D02*
X145880952Y-125112619D01*
X145880952Y-125112619D02*
X145785714Y-125065000D01*
X145785714Y-125065000D02*
X145738095Y-125017380D01*
X92666666Y-69462619D02*
X92666666Y-70176904D01*
X92666666Y-70176904D02*
X92619047Y-70319761D01*
X92619047Y-70319761D02*
X92523809Y-70415000D01*
X92523809Y-70415000D02*
X92380952Y-70462619D01*
X92380952Y-70462619D02*
X92285714Y-70462619D01*
X93571428Y-69795952D02*
X93571428Y-70462619D01*
X93333333Y-69415000D02*
X93095238Y-70129285D01*
X93095238Y-70129285D02*
X93714285Y-70129285D01*
X106833333Y-79812619D02*
X106500000Y-79336428D01*
X106261905Y-79812619D02*
X106261905Y-78812619D01*
X106261905Y-78812619D02*
X106642857Y-78812619D01*
X106642857Y-78812619D02*
X106738095Y-78860238D01*
X106738095Y-78860238D02*
X106785714Y-78907857D01*
X106785714Y-78907857D02*
X106833333Y-79003095D01*
X106833333Y-79003095D02*
X106833333Y-79145952D01*
X106833333Y-79145952D02*
X106785714Y-79241190D01*
X106785714Y-79241190D02*
X106738095Y-79288809D01*
X106738095Y-79288809D02*
X106642857Y-79336428D01*
X106642857Y-79336428D02*
X106261905Y-79336428D01*
X107738095Y-78812619D02*
X107261905Y-78812619D01*
X107261905Y-78812619D02*
X107214286Y-79288809D01*
X107214286Y-79288809D02*
X107261905Y-79241190D01*
X107261905Y-79241190D02*
X107357143Y-79193571D01*
X107357143Y-79193571D02*
X107595238Y-79193571D01*
X107595238Y-79193571D02*
X107690476Y-79241190D01*
X107690476Y-79241190D02*
X107738095Y-79288809D01*
X107738095Y-79288809D02*
X107785714Y-79384047D01*
X107785714Y-79384047D02*
X107785714Y-79622142D01*
X107785714Y-79622142D02*
X107738095Y-79717380D01*
X107738095Y-79717380D02*
X107690476Y-79765000D01*
X107690476Y-79765000D02*
X107595238Y-79812619D01*
X107595238Y-79812619D02*
X107357143Y-79812619D01*
X107357143Y-79812619D02*
X107261905Y-79765000D01*
X107261905Y-79765000D02*
X107214286Y-79717380D01*
X107333333Y-109687380D02*
X107285714Y-109735000D01*
X107285714Y-109735000D02*
X107142857Y-109782619D01*
X107142857Y-109782619D02*
X107047619Y-109782619D01*
X107047619Y-109782619D02*
X106904762Y-109735000D01*
X106904762Y-109735000D02*
X106809524Y-109639761D01*
X106809524Y-109639761D02*
X106761905Y-109544523D01*
X106761905Y-109544523D02*
X106714286Y-109354047D01*
X106714286Y-109354047D02*
X106714286Y-109211190D01*
X106714286Y-109211190D02*
X106761905Y-109020714D01*
X106761905Y-109020714D02*
X106809524Y-108925476D01*
X106809524Y-108925476D02*
X106904762Y-108830238D01*
X106904762Y-108830238D02*
X107047619Y-108782619D01*
X107047619Y-108782619D02*
X107142857Y-108782619D01*
X107142857Y-108782619D02*
X107285714Y-108830238D01*
X107285714Y-108830238D02*
X107333333Y-108877857D01*
X107809524Y-109782619D02*
X108000000Y-109782619D01*
X108000000Y-109782619D02*
X108095238Y-109735000D01*
X108095238Y-109735000D02*
X108142857Y-109687380D01*
X108142857Y-109687380D02*
X108238095Y-109544523D01*
X108238095Y-109544523D02*
X108285714Y-109354047D01*
X108285714Y-109354047D02*
X108285714Y-108973095D01*
X108285714Y-108973095D02*
X108238095Y-108877857D01*
X108238095Y-108877857D02*
X108190476Y-108830238D01*
X108190476Y-108830238D02*
X108095238Y-108782619D01*
X108095238Y-108782619D02*
X107904762Y-108782619D01*
X107904762Y-108782619D02*
X107809524Y-108830238D01*
X107809524Y-108830238D02*
X107761905Y-108877857D01*
X107761905Y-108877857D02*
X107714286Y-108973095D01*
X107714286Y-108973095D02*
X107714286Y-109211190D01*
X107714286Y-109211190D02*
X107761905Y-109306428D01*
X107761905Y-109306428D02*
X107809524Y-109354047D01*
X107809524Y-109354047D02*
X107904762Y-109401666D01*
X107904762Y-109401666D02*
X108095238Y-109401666D01*
X108095238Y-109401666D02*
X108190476Y-109354047D01*
X108190476Y-109354047D02*
X108238095Y-109306428D01*
X108238095Y-109306428D02*
X108285714Y-109211190D01*
D14*
X129227064Y-134735000D02*
X128772936Y-134735000D01*
X129227064Y-133265000D02*
X128772936Y-133265000D01*
X144272936Y-84765000D02*
X144727064Y-84765000D01*
X144272936Y-86235000D02*
X144727064Y-86235000D01*
X154635000Y-79040000D02*
X152365000Y-79040000D01*
X152365000Y-79040000D02*
X152365000Y-83100000D01*
X154635000Y-83100000D02*
X154635000Y-79040000D01*
X103850000Y-125710000D02*
X108150000Y-125710000D01*
X103850000Y-125710000D02*
X103850000Y-118300000D01*
X108150000Y-125710000D02*
X108150000Y-118300000D01*
X133265000Y-107227064D02*
X133265000Y-106772936D01*
X134735000Y-107227064D02*
X134735000Y-106772936D01*
X91212500Y-121710000D02*
X95212500Y-121710000D01*
X90182500Y-121420000D02*
X96202500Y-121420000D01*
X96202500Y-121420000D02*
X96202500Y-113580000D01*
X90182500Y-120840000D02*
X90782500Y-120840000D01*
X90782500Y-120840000D02*
X90782500Y-119240000D01*
X95202500Y-120040000D02*
X94672500Y-119790000D01*
X95202500Y-120040000D02*
X95202500Y-114960000D01*
X96202500Y-120040000D02*
X95202500Y-120040000D01*
X94672500Y-119790000D02*
X94672500Y-115210000D01*
X96202500Y-119790000D02*
X95202500Y-119790000D01*
X90782500Y-119240000D02*
X90182500Y-119240000D01*
X90182500Y-118300000D02*
X90782500Y-118300000D01*
X90782500Y-118300000D02*
X90782500Y-116700000D01*
X90782500Y-116700000D02*
X90182500Y-116700000D01*
X90182500Y-115760000D02*
X90782500Y-115760000D01*
X90782500Y-115760000D02*
X90782500Y-114160000D01*
X94672500Y-115210000D02*
X95202500Y-114960000D01*
X96202500Y-115210000D02*
X95202500Y-115210000D01*
X95202500Y-114960000D02*
X96202500Y-114960000D01*
X90782500Y-114160000D02*
X90182500Y-114160000D01*
X90182500Y-113580000D02*
X90182500Y-121420000D01*
X96202500Y-113580000D02*
X90182500Y-113580000D01*
X135735000Y-130238748D02*
X135735000Y-130761252D01*
X134265000Y-130238748D02*
X134265000Y-130761252D01*
X117450000Y-119030000D02*
X117180000Y-119030000D01*
X117180000Y-119030000D02*
X117180000Y-116200000D01*
X110820000Y-119030000D02*
X110820000Y-117930000D01*
X110550000Y-119030000D02*
X110820000Y-119030000D01*
X117450000Y-125450000D02*
X117450000Y-119030000D01*
X110550000Y-125450000D02*
X110550000Y-119030000D01*
X126640000Y-113490000D02*
X126640000Y-113725000D01*
X126640000Y-113725000D02*
X124825000Y-113725000D01*
X126640000Y-126510000D02*
X126640000Y-126275000D01*
X130500000Y-113490000D02*
X126640000Y-113490000D01*
X130500000Y-113490000D02*
X134360000Y-113490000D01*
X130500000Y-126510000D02*
X126640000Y-126510000D01*
X130500000Y-126510000D02*
X134360000Y-126510000D01*
X134360000Y-113490000D02*
X134360000Y-113725000D01*
X134360000Y-126510000D02*
X134360000Y-126275000D01*
X101738748Y-126765000D02*
X102261252Y-126765000D01*
X101738748Y-128235000D02*
X102261252Y-128235000D01*
X122227064Y-62735000D02*
X121772936Y-62735000D01*
X122227064Y-61265000D02*
X121772936Y-61265000D01*
X110687500Y-82905000D02*
X107237500Y-82905000D01*
X110687500Y-82905000D02*
X112637500Y-82905000D01*
X110687500Y-91775000D02*
X108737500Y-91775000D01*
X110687500Y-91775000D02*
X112637500Y-91775000D01*
X127135000Y-127540000D02*
X124865000Y-127540000D01*
X124865000Y-127540000D02*
X124865000Y-131600000D01*
X127135000Y-131600000D02*
X127135000Y-127540000D01*
X138460000Y-104135000D02*
X138460000Y-101865000D01*
X138460000Y-101865000D02*
X134400000Y-101865000D01*
X134400000Y-104135000D02*
X138460000Y-104135000D01*
X157820000Y-104000000D02*
X157820000Y-105000000D01*
X157820000Y-105000000D02*
X158820000Y-104500000D01*
X158820000Y-104500000D02*
X157820000Y-104000000D01*
X159210000Y-99290000D02*
X168330000Y-99290000D01*
X159210000Y-107530000D02*
X160520000Y-107530000D01*
X159210000Y-119870000D02*
X159210000Y-99290000D01*
X160520000Y-100590000D02*
X167020000Y-100590000D01*
X160520000Y-107530000D02*
X160520000Y-100590000D01*
X160520000Y-111630000D02*
X159210000Y-111630000D01*
X160520000Y-111630000D02*
X160520000Y-111630000D01*
X160520000Y-118570000D02*
X160520000Y-111630000D01*
X167020000Y-100590000D02*
X167020000Y-118570000D01*
X167020000Y-118570000D02*
X160520000Y-118570000D01*
X168330000Y-99290000D02*
X168330000Y-119870000D01*
X168330000Y-119870000D02*
X159210000Y-119870000D01*
X138830000Y-115500000D02*
X138830000Y-119500000D01*
X139120000Y-114470000D02*
X139120000Y-120490000D01*
X139120000Y-120490000D02*
X157120000Y-120490000D01*
X139700000Y-114470000D02*
X139700000Y-115070000D01*
X139700000Y-115070000D02*
X141300000Y-115070000D01*
X140500000Y-119490000D02*
X140750000Y-118960000D01*
X140500000Y-119490000D02*
X145580000Y-119490000D01*
X140500000Y-120490000D02*
X140500000Y-119490000D01*
X140750000Y-118960000D02*
X145580000Y-118960000D01*
X140750000Y-120490000D02*
X140750000Y-119490000D01*
X141300000Y-115070000D02*
X141300000Y-114470000D01*
X142240000Y-114470000D02*
X142240000Y-115070000D01*
X142240000Y-115070000D02*
X143840000Y-115070000D01*
X143840000Y-115070000D02*
X143840000Y-114470000D01*
X144780000Y-114470000D02*
X144780000Y-115070000D01*
X144780000Y-115070000D02*
X146380000Y-115070000D01*
X145580000Y-118960000D02*
X145580000Y-119490000D01*
X145580000Y-119490000D02*
X145580000Y-120490000D01*
X146380000Y-115070000D02*
X146380000Y-114470000D01*
X147320000Y-114470000D02*
X147320000Y-115070000D01*
X147320000Y-115070000D02*
X148920000Y-115070000D01*
X148920000Y-115070000D02*
X148920000Y-114470000D01*
X149860000Y-114470000D02*
X149860000Y-115070000D01*
X149860000Y-115070000D02*
X151460000Y-115070000D01*
X150660000Y-118960000D02*
X150660000Y-119490000D01*
X150660000Y-119490000D02*
X150660000Y-120490000D01*
X151460000Y-115070000D02*
X151460000Y-114470000D01*
X152400000Y-114470000D02*
X152400000Y-115070000D01*
X152400000Y-115070000D02*
X154000000Y-115070000D01*
X154000000Y-115070000D02*
X154000000Y-114470000D01*
X154940000Y-114470000D02*
X154940000Y-115070000D01*
X154940000Y-115070000D02*
X156540000Y-115070000D01*
X155490000Y-118960000D02*
X150660000Y-118960000D01*
X155490000Y-120490000D02*
X155490000Y-119490000D01*
X155740000Y-119490000D02*
X150660000Y-119490000D01*
X155740000Y-119490000D02*
X155490000Y-118960000D01*
X155740000Y-120490000D02*
X155740000Y-119490000D01*
X156540000Y-115070000D02*
X156540000Y-114470000D01*
X157120000Y-114470000D02*
X139120000Y-114470000D01*
X157120000Y-120490000D02*
X157120000Y-114470000D01*
X117990000Y-117135000D02*
X121010000Y-117135000D01*
X121010000Y-117135000D02*
X121010000Y-112750000D01*
X117990000Y-112750000D02*
X117990000Y-117135000D01*
X111227064Y-97235000D02*
X110772936Y-97235000D01*
X111227064Y-95765000D02*
X110772936Y-95765000D01*
X102867500Y-121410000D02*
X101537500Y-121410000D01*
X102867500Y-120080000D02*
X102867500Y-121410000D01*
X102867500Y-118810000D02*
X102867500Y-113670000D01*
X102867500Y-118810000D02*
X100207500Y-118810000D01*
X102867500Y-113670000D02*
X100207500Y-113670000D01*
X100207500Y-118810000D02*
X100207500Y-113670000D01*
X88492500Y-94340000D02*
X88492500Y-95340000D01*
X88492500Y-95340000D02*
X89492500Y-94840000D01*
X89492500Y-94840000D02*
X88492500Y-94340000D01*
X89882500Y-89630000D02*
X99002500Y-89630000D01*
X89882500Y-97870000D02*
X91192500Y-97870000D01*
X89882500Y-110210000D02*
X89882500Y-89630000D01*
X91192500Y-90930000D02*
X97692500Y-90930000D01*
X91192500Y-97870000D02*
X91192500Y-90930000D01*
X91192500Y-101970000D02*
X89882500Y-101970000D01*
X91192500Y-101970000D02*
X91192500Y-101970000D01*
X91192500Y-108910000D02*
X91192500Y-101970000D01*
X97692500Y-90930000D02*
X97692500Y-108910000D01*
X97692500Y-108910000D02*
X91192500Y-108910000D01*
X99002500Y-89630000D02*
X99002500Y-110210000D01*
X99002500Y-110210000D02*
X89882500Y-110210000D01*
X141502500Y-70830000D02*
X141502500Y-71065000D01*
X141502500Y-71065000D02*
X139687500Y-71065000D01*
X141502500Y-83850000D02*
X141502500Y-83615000D01*
X145362500Y-70830000D02*
X141502500Y-70830000D01*
X145362500Y-70830000D02*
X149222500Y-70830000D01*
X145362500Y-83850000D02*
X141502500Y-83850000D01*
X145362500Y-83850000D02*
X149222500Y-83850000D01*
X149222500Y-70830000D02*
X149222500Y-71065000D01*
X149222500Y-83850000D02*
X149222500Y-83615000D01*
X126490000Y-60435000D02*
X126490000Y-60670000D01*
X126490000Y-60670000D02*
X124675000Y-60670000D01*
X126490000Y-73455000D02*
X126490000Y-73220000D01*
X130350000Y-60435000D02*
X126490000Y-60435000D01*
X130350000Y-60435000D02*
X134210000Y-60435000D01*
X130350000Y-73455000D02*
X126490000Y-73455000D01*
X130350000Y-73455000D02*
X134210000Y-73455000D01*
X134210000Y-60435000D02*
X134210000Y-60670000D01*
X134210000Y-73455000D02*
X134210000Y-73220000D01*
X110490000Y-111490000D02*
X110490000Y-114510000D01*
X110490000Y-114510000D02*
X114875000Y-114510000D01*
X114875000Y-111490000D02*
X110490000Y-111490000D01*
X122635000Y-98040000D02*
X120365000Y-98040000D01*
X120365000Y-98040000D02*
X120365000Y-102100000D01*
X122635000Y-102100000D02*
X122635000Y-98040000D01*
X116238748Y-96265000D02*
X116761252Y-96265000D01*
X116238748Y-97735000D02*
X116761252Y-97735000D01*
X107238748Y-113265000D02*
X107761252Y-113265000D01*
X107238748Y-114735000D02*
X107761252Y-114735000D01*
X126640000Y-85490000D02*
X126640000Y-85725000D01*
X126640000Y-85725000D02*
X124825000Y-85725000D01*
X126640000Y-98510000D02*
X126640000Y-98275000D01*
X130500000Y-85490000D02*
X126640000Y-85490000D01*
X130500000Y-85490000D02*
X134360000Y-85490000D01*
X130500000Y-98510000D02*
X126640000Y-98510000D01*
X130500000Y-98510000D02*
X134360000Y-98510000D01*
X134360000Y-85490000D02*
X134360000Y-85725000D01*
X134360000Y-98510000D02*
X134360000Y-98275000D01*
X155250000Y-92500000D02*
X155250000Y-88500000D01*
X154960000Y-93530000D02*
X154960000Y-87510000D01*
X154960000Y-87510000D02*
X142040000Y-87510000D01*
X154380000Y-93530000D02*
X154380000Y-92930000D01*
X154380000Y-92930000D02*
X152780000Y-92930000D01*
X153580000Y-88510000D02*
X153330000Y-89040000D01*
X153580000Y-88510000D02*
X143420000Y-88510000D01*
X153580000Y-87510000D02*
X153580000Y-88510000D01*
X153330000Y-89040000D02*
X143670000Y-89040000D01*
X153330000Y-87510000D02*
X153330000Y-88510000D01*
X152780000Y-92930000D02*
X152780000Y-93530000D01*
X151840000Y-93530000D02*
X151840000Y-92930000D01*
X151840000Y-92930000D02*
X150240000Y-92930000D01*
X150240000Y-92930000D02*
X150240000Y-93530000D01*
X149300000Y-93530000D02*
X149300000Y-92930000D01*
X149300000Y-92930000D02*
X147700000Y-92930000D01*
X147700000Y-92930000D02*
X147700000Y-93530000D01*
X146760000Y-93530000D02*
X146760000Y-92930000D01*
X146760000Y-92930000D02*
X145160000Y-92930000D01*
X145160000Y-92930000D02*
X145160000Y-93530000D01*
X144220000Y-93530000D02*
X144220000Y-92930000D01*
X144220000Y-92930000D02*
X142620000Y-92930000D01*
X143670000Y-89040000D02*
X143420000Y-88510000D01*
X143670000Y-87510000D02*
X143670000Y-88510000D01*
X143420000Y-88510000D02*
X143420000Y-87510000D01*
X142620000Y-92930000D02*
X142620000Y-93530000D01*
X142040000Y-93530000D02*
X154960000Y-93530000D01*
X142040000Y-87510000D02*
X142040000Y-93530000D01*
X126227064Y-101735000D02*
X125772936Y-101735000D01*
X126227064Y-100265000D02*
X125772936Y-100265000D01*
X117738748Y-83265000D02*
X118261252Y-83265000D01*
X117738748Y-84735000D02*
X118261252Y-84735000D01*
X122261252Y-60235000D02*
X121738748Y-60235000D01*
X122261252Y-58765000D02*
X121738748Y-58765000D01*
X141227064Y-141735000D02*
X140772936Y-141735000D01*
X141227064Y-140265000D02*
X140772936Y-140265000D01*
X141640000Y-97990000D02*
X141640000Y-98225000D01*
X141640000Y-98225000D02*
X139825000Y-98225000D01*
X141640000Y-111010000D02*
X141640000Y-110775000D01*
X145500000Y-97990000D02*
X141640000Y-97990000D01*
X145500000Y-97990000D02*
X149360000Y-97990000D01*
X145500000Y-111010000D02*
X141640000Y-111010000D01*
X145500000Y-111010000D02*
X149360000Y-111010000D01*
X149360000Y-97990000D02*
X149360000Y-98225000D01*
X149360000Y-111010000D02*
X149360000Y-110775000D01*
X116727064Y-101235000D02*
X116272936Y-101235000D01*
X116727064Y-99765000D02*
X116272936Y-99765000D01*
X157820000Y-128500000D02*
X157820000Y-129500000D01*
X157820000Y-129500000D02*
X158820000Y-129000000D01*
X158820000Y-129000000D02*
X157820000Y-128500000D01*
X159210000Y-123790000D02*
X168330000Y-123790000D01*
X159210000Y-132030000D02*
X160520000Y-132030000D01*
X159210000Y-144370000D02*
X159210000Y-123790000D01*
X160520000Y-125090000D02*
X167020000Y-125090000D01*
X160520000Y-132030000D02*
X160520000Y-125090000D01*
X160520000Y-136130000D02*
X159210000Y-136130000D01*
X160520000Y-136130000D02*
X160520000Y-136130000D01*
X160520000Y-143070000D02*
X160520000Y-136130000D01*
X167020000Y-125090000D02*
X167020000Y-143070000D01*
X167020000Y-143070000D02*
X160520000Y-143070000D01*
X168330000Y-123790000D02*
X168330000Y-144370000D01*
X168330000Y-144370000D02*
X159210000Y-144370000D01*
X157820000Y-67000000D02*
X157820000Y-68000000D01*
X157820000Y-68000000D02*
X158820000Y-67500000D01*
X158820000Y-67500000D02*
X157820000Y-67000000D01*
X159210000Y-62290000D02*
X168330000Y-62290000D01*
X159210000Y-70530000D02*
X160520000Y-70530000D01*
X159210000Y-82870000D02*
X159210000Y-62290000D01*
X160520000Y-63590000D02*
X167020000Y-63590000D01*
X160520000Y-70530000D02*
X160520000Y-63590000D01*
X160520000Y-74630000D02*
X159210000Y-74630000D01*
X160520000Y-74630000D02*
X160520000Y-74630000D01*
X160520000Y-81570000D02*
X160520000Y-74630000D01*
X167020000Y-63590000D02*
X167020000Y-81570000D01*
X167020000Y-81570000D02*
X160520000Y-81570000D01*
X168330000Y-62290000D02*
X168330000Y-82870000D01*
X168330000Y-82870000D02*
X159210000Y-82870000D01*
X138135000Y-137040000D02*
X135865000Y-137040000D01*
X135865000Y-137040000D02*
X135865000Y-141100000D01*
X138135000Y-141100000D02*
X138135000Y-137040000D01*
X138235000Y-75738748D02*
X138235000Y-76261252D01*
X136765000Y-75738748D02*
X136765000Y-76261252D01*
X125727064Y-77735000D02*
X125272936Y-77735000D01*
X125727064Y-76265000D02*
X125272936Y-76265000D01*
X135765000Y-107261252D02*
X135765000Y-106738748D01*
X137235000Y-107261252D02*
X137235000Y-106738748D01*
X116735000Y-88272936D02*
X116735000Y-88727064D01*
X115265000Y-88272936D02*
X115265000Y-88727064D01*
X110687500Y-98105000D02*
X107237500Y-98105000D01*
X110687500Y-98105000D02*
X112637500Y-98105000D01*
X110687500Y-106975000D02*
X108737500Y-106975000D01*
X110687500Y-106975000D02*
X112637500Y-106975000D01*
X164500000Y-86250000D02*
X160500000Y-86250000D01*
X165530000Y-86540000D02*
X159510000Y-86540000D01*
X159510000Y-86540000D02*
X159510000Y-96920000D01*
X165530000Y-87120000D02*
X164930000Y-87120000D01*
X164930000Y-87120000D02*
X164930000Y-88720000D01*
X160510000Y-87920000D02*
X161040000Y-88170000D01*
X160510000Y-87920000D02*
X160510000Y-95540000D01*
X159510000Y-87920000D02*
X160510000Y-87920000D01*
X161040000Y-88170000D02*
X161040000Y-95290000D01*
X159510000Y-88170000D02*
X160510000Y-88170000D01*
X164930000Y-88720000D02*
X165530000Y-88720000D01*
X165530000Y-89660000D02*
X164930000Y-89660000D01*
X164930000Y-89660000D02*
X164930000Y-91260000D01*
X164930000Y-91260000D02*
X165530000Y-91260000D01*
X165530000Y-92200000D02*
X164930000Y-92200000D01*
X164930000Y-92200000D02*
X164930000Y-93800000D01*
X164930000Y-93800000D02*
X165530000Y-93800000D01*
X165530000Y-94740000D02*
X164930000Y-94740000D01*
X164930000Y-94740000D02*
X164930000Y-96340000D01*
X161040000Y-95290000D02*
X160510000Y-95540000D01*
X159510000Y-95290000D02*
X160510000Y-95290000D01*
X160510000Y-95540000D02*
X159510000Y-95540000D01*
X164930000Y-96340000D02*
X165530000Y-96340000D01*
X165530000Y-96920000D02*
X165530000Y-86540000D01*
X159510000Y-96920000D02*
X165530000Y-96920000D01*
X122635000Y-73040000D02*
X120365000Y-73040000D01*
X120365000Y-73040000D02*
X120365000Y-77100000D01*
X122635000Y-77100000D02*
X122635000Y-73040000D01*
X141640000Y-125490000D02*
X141640000Y-125725000D01*
X141640000Y-125725000D02*
X139825000Y-125725000D01*
X141640000Y-138510000D02*
X141640000Y-138275000D01*
X145500000Y-125490000D02*
X141640000Y-125490000D01*
X145500000Y-125490000D02*
X149360000Y-125490000D01*
X145500000Y-138510000D02*
X141640000Y-138510000D01*
X145500000Y-138510000D02*
X149360000Y-138510000D01*
X149360000Y-125490000D02*
X149360000Y-125725000D01*
X149360000Y-138510000D02*
X149360000Y-138275000D01*
X91212500Y-86710000D02*
X95212500Y-86710000D01*
X90182500Y-86420000D02*
X96202500Y-86420000D01*
X96202500Y-86420000D02*
X96202500Y-70960000D01*
X90182500Y-85840000D02*
X90782500Y-85840000D01*
X90782500Y-85840000D02*
X90782500Y-84240000D01*
X95202500Y-85040000D02*
X94672500Y-84790000D01*
X95202500Y-85040000D02*
X95202500Y-72340000D01*
X96202500Y-85040000D02*
X95202500Y-85040000D01*
X94672500Y-84790000D02*
X94672500Y-72590000D01*
X96202500Y-84790000D02*
X95202500Y-84790000D01*
X90782500Y-84240000D02*
X90182500Y-84240000D01*
X90182500Y-83300000D02*
X90782500Y-83300000D01*
X90782500Y-83300000D02*
X90782500Y-81700000D01*
X90782500Y-81700000D02*
X90182500Y-81700000D01*
X90182500Y-80760000D02*
X90782500Y-80760000D01*
X90782500Y-80760000D02*
X90782500Y-79160000D01*
X90782500Y-79160000D02*
X90182500Y-79160000D01*
X90182500Y-78220000D02*
X90782500Y-78220000D01*
X90782500Y-78220000D02*
X90782500Y-76620000D01*
X90782500Y-76620000D02*
X90182500Y-76620000D01*
X90182500Y-75680000D02*
X90782500Y-75680000D01*
X90782500Y-75680000D02*
X90782500Y-74080000D01*
X90782500Y-74080000D02*
X90182500Y-74080000D01*
X90182500Y-73140000D02*
X90782500Y-73140000D01*
X90782500Y-73140000D02*
X90782500Y-71540000D01*
X94672500Y-72590000D02*
X95202500Y-72340000D01*
X96202500Y-72590000D02*
X95202500Y-72590000D01*
X95202500Y-72340000D02*
X96202500Y-72340000D01*
X90782500Y-71540000D02*
X90182500Y-71540000D01*
X90182500Y-70960000D02*
X90182500Y-86420000D01*
X96202500Y-70960000D02*
X90182500Y-70960000D01*
X106772936Y-80265000D02*
X107227064Y-80265000D01*
X106772936Y-81735000D02*
X107227064Y-81735000D01*
X107238748Y-110265000D02*
X107761252Y-110265000D01*
X107238748Y-111735000D02*
X107761252Y-111735000D01*
%LPC*%
D15*
X130000000Y-134000000D03*
X128000000Y-134000000D03*
D16*
X143500000Y-85500000D03*
X145500000Y-85500000D03*
D17*
X153500000Y-80012500D03*
X153500000Y-82987500D03*
D18*
X106000000Y-123700000D03*
X106000000Y-118300000D03*
D19*
X134000000Y-108000000D03*
X134000000Y-106000000D03*
D20*
X93212500Y-120040000D03*
D21*
X93212500Y-117500000D03*
X93212500Y-114960000D03*
D22*
X174000000Y-147000000D03*
X174768845Y-145143845D03*
X174768845Y-148856155D03*
X176625000Y-144375000D03*
D23*
X176625000Y-147000000D03*
D22*
X176625000Y-149625000D03*
X178481155Y-145143845D03*
X178481155Y-148856155D03*
X179250000Y-147000000D03*
D24*
X135000000Y-129462500D03*
X135000000Y-131537500D03*
D25*
X116280000Y-117300000D03*
X114000000Y-117300000D03*
D26*
X114000000Y-123600000D03*
D25*
X111720000Y-117300000D03*
D22*
X174000000Y-58000000D03*
X174768845Y-56143845D03*
X174768845Y-59856155D03*
X176625000Y-55375000D03*
D23*
X176625000Y-58000000D03*
D22*
X176625000Y-60625000D03*
X178481155Y-56143845D03*
X178481155Y-59856155D03*
X179250000Y-58000000D03*
D27*
X125850000Y-114285000D03*
X125850000Y-115555000D03*
X125850000Y-116825000D03*
X125850000Y-118095000D03*
X125850000Y-119365000D03*
X125850000Y-120635000D03*
X125850000Y-121905000D03*
X125850000Y-123175000D03*
X125850000Y-124445000D03*
X125850000Y-125715000D03*
X135150000Y-125715000D03*
X135150000Y-124445000D03*
X135150000Y-123175000D03*
X135150000Y-121905000D03*
X135150000Y-120635000D03*
X135150000Y-119365000D03*
X135150000Y-118095000D03*
X135150000Y-116825000D03*
X135150000Y-115555000D03*
X135150000Y-114285000D03*
D28*
X100962500Y-127500000D03*
X103037500Y-127500000D03*
D15*
X123000000Y-62000000D03*
X121000000Y-62000000D03*
D29*
X108212500Y-83530000D03*
X108212500Y-84800000D03*
X108212500Y-86070000D03*
X108212500Y-87340000D03*
X108212500Y-88610000D03*
X108212500Y-89880000D03*
X108212500Y-91150000D03*
X113162500Y-91150000D03*
X113162500Y-89880000D03*
X113162500Y-88610000D03*
X113162500Y-87340000D03*
X113162500Y-86070000D03*
X113162500Y-84800000D03*
X113162500Y-83530000D03*
D17*
X126000000Y-128512500D03*
X126000000Y-131487500D03*
D22*
X85375000Y-147000000D03*
X86143845Y-145143845D03*
X86143845Y-148856155D03*
X88000000Y-144375000D03*
D23*
X88000000Y-147000000D03*
D22*
X88000000Y-149625000D03*
X89856155Y-145143845D03*
X89856155Y-148856155D03*
X90625000Y-147000000D03*
D30*
X137487500Y-103000000D03*
X134512500Y-103000000D03*
D31*
X162500000Y-104500000D03*
D32*
X165040000Y-104500000D03*
X162500000Y-107040000D03*
X165040000Y-107040000D03*
X162500000Y-109580000D03*
X165040000Y-109580000D03*
X162500000Y-112120000D03*
X165040000Y-112120000D03*
X162500000Y-114660000D03*
X165040000Y-114660000D03*
D33*
X140500000Y-117500000D03*
D34*
X143040000Y-117500000D03*
X145580000Y-117500000D03*
X148120000Y-117500000D03*
X150660000Y-117500000D03*
X153200000Y-117500000D03*
X155740000Y-117500000D03*
D35*
X119500000Y-116125000D03*
X119500000Y-112875000D03*
D15*
X112000000Y-96500000D03*
X110000000Y-96500000D03*
D22*
X85375000Y-58000000D03*
X86143845Y-56143845D03*
X86143845Y-59856155D03*
X88000000Y-55375000D03*
D23*
X88000000Y-58000000D03*
D22*
X88000000Y-60625000D03*
X89856155Y-56143845D03*
X89856155Y-59856155D03*
X90625000Y-58000000D03*
D36*
X101537500Y-120080000D03*
D37*
X101537500Y-117540000D03*
X101537500Y-115000000D03*
D31*
X93172500Y-94840000D03*
D32*
X95712500Y-94840000D03*
X93172500Y-97380000D03*
X95712500Y-97380000D03*
X93172500Y-99920000D03*
X95712500Y-99920000D03*
X93172500Y-102460000D03*
X95712500Y-102460000D03*
X93172500Y-105000000D03*
X95712500Y-105000000D03*
D27*
X140712500Y-71625000D03*
X140712500Y-72895000D03*
X140712500Y-74165000D03*
X140712500Y-75435000D03*
X140712500Y-76705000D03*
X140712500Y-77975000D03*
X140712500Y-79245000D03*
X140712500Y-80515000D03*
X140712500Y-81785000D03*
X140712500Y-83055000D03*
X150012500Y-83055000D03*
X150012500Y-81785000D03*
X150012500Y-80515000D03*
X150012500Y-79245000D03*
X150012500Y-77975000D03*
X150012500Y-76705000D03*
X150012500Y-75435000D03*
X150012500Y-74165000D03*
X150012500Y-72895000D03*
X150012500Y-71625000D03*
X125700000Y-61230000D03*
X125700000Y-62500000D03*
X125700000Y-63770000D03*
X125700000Y-65040000D03*
X125700000Y-66310000D03*
X125700000Y-67580000D03*
X125700000Y-68850000D03*
X125700000Y-70120000D03*
X125700000Y-71390000D03*
X125700000Y-72660000D03*
X135000000Y-72660000D03*
X135000000Y-71390000D03*
X135000000Y-70120000D03*
X135000000Y-68850000D03*
X135000000Y-67580000D03*
X135000000Y-66310000D03*
X135000000Y-65040000D03*
X135000000Y-63770000D03*
X135000000Y-62500000D03*
X135000000Y-61230000D03*
D38*
X111500000Y-113000000D03*
X114750000Y-113000000D03*
D17*
X121500000Y-99012500D03*
X121500000Y-101987500D03*
D28*
X115462500Y-97000000D03*
X117537500Y-97000000D03*
X106462500Y-114000000D03*
X108537500Y-114000000D03*
D27*
X125850000Y-86285000D03*
X125850000Y-87555000D03*
X125850000Y-88825000D03*
X125850000Y-90095000D03*
X125850000Y-91365000D03*
X125850000Y-92635000D03*
X125850000Y-93905000D03*
X125850000Y-95175000D03*
X125850000Y-96445000D03*
X125850000Y-97715000D03*
X135150000Y-97715000D03*
X135150000Y-96445000D03*
X135150000Y-95175000D03*
X135150000Y-93905000D03*
X135150000Y-92635000D03*
X135150000Y-91365000D03*
X135150000Y-90095000D03*
X135150000Y-88825000D03*
X135150000Y-87555000D03*
X135150000Y-86285000D03*
D39*
X153580000Y-90500000D03*
D34*
X151040000Y-90500000D03*
X148500000Y-90500000D03*
X145960000Y-90500000D03*
X143420000Y-90500000D03*
D15*
X127000000Y-101000000D03*
X125000000Y-101000000D03*
D28*
X116962500Y-84000000D03*
X119037500Y-84000000D03*
D40*
X123037500Y-59500000D03*
X120962500Y-59500000D03*
D15*
X142000000Y-141000000D03*
X140000000Y-141000000D03*
D27*
X140850000Y-98785000D03*
X140850000Y-100055000D03*
X140850000Y-101325000D03*
X140850000Y-102595000D03*
X140850000Y-103865000D03*
X140850000Y-105135000D03*
X140850000Y-106405000D03*
X140850000Y-107675000D03*
X140850000Y-108945000D03*
X140850000Y-110215000D03*
X150150000Y-110215000D03*
X150150000Y-108945000D03*
X150150000Y-107675000D03*
X150150000Y-106405000D03*
X150150000Y-105135000D03*
X150150000Y-103865000D03*
X150150000Y-102595000D03*
X150150000Y-101325000D03*
X150150000Y-100055000D03*
X150150000Y-98785000D03*
D15*
X117500000Y-100500000D03*
X115500000Y-100500000D03*
D31*
X162500000Y-129000000D03*
D32*
X165040000Y-129000000D03*
X162500000Y-131540000D03*
X165040000Y-131540000D03*
X162500000Y-134080000D03*
X165040000Y-134080000D03*
X162500000Y-136620000D03*
X165040000Y-136620000D03*
X162500000Y-139160000D03*
X165040000Y-139160000D03*
D31*
X162500000Y-67500000D03*
D32*
X165040000Y-67500000D03*
X162500000Y-70040000D03*
X165040000Y-70040000D03*
X162500000Y-72580000D03*
X165040000Y-72580000D03*
X162500000Y-75120000D03*
X165040000Y-75120000D03*
X162500000Y-77660000D03*
X165040000Y-77660000D03*
D17*
X137000000Y-138012500D03*
X137000000Y-140987500D03*
D24*
X137500000Y-74962500D03*
X137500000Y-77037500D03*
D15*
X126500000Y-77000000D03*
X124500000Y-77000000D03*
D41*
X136500000Y-108037500D03*
X136500000Y-105962500D03*
D42*
X116000000Y-87500000D03*
X116000000Y-89500000D03*
D29*
X108212500Y-98730000D03*
X108212500Y-100000000D03*
X108212500Y-101270000D03*
X108212500Y-102540000D03*
X108212500Y-103810000D03*
X108212500Y-105080000D03*
X108212500Y-106350000D03*
X113162500Y-106350000D03*
X113162500Y-105080000D03*
X113162500Y-103810000D03*
X113162500Y-102540000D03*
X113162500Y-101270000D03*
X113162500Y-100000000D03*
X113162500Y-98730000D03*
D43*
X162500000Y-87920000D03*
D21*
X162500000Y-90460000D03*
X162500000Y-93000000D03*
X162500000Y-95540000D03*
D17*
X121500000Y-74012500D03*
X121500000Y-76987500D03*
D27*
X140850000Y-126285000D03*
X140850000Y-127555000D03*
X140850000Y-128825000D03*
X140850000Y-130095000D03*
X140850000Y-131365000D03*
X140850000Y-132635000D03*
X140850000Y-133905000D03*
X140850000Y-135175000D03*
X140850000Y-136445000D03*
X140850000Y-137715000D03*
X150150000Y-137715000D03*
X150150000Y-136445000D03*
X150150000Y-135175000D03*
X150150000Y-133905000D03*
X150150000Y-132635000D03*
X150150000Y-131365000D03*
X150150000Y-130095000D03*
X150150000Y-128825000D03*
X150150000Y-127555000D03*
X150150000Y-126285000D03*
D20*
X93212500Y-85040000D03*
D21*
X93212500Y-82500000D03*
X93212500Y-79960000D03*
X93212500Y-77420000D03*
X93212500Y-74880000D03*
X93212500Y-72340000D03*
D16*
X106000000Y-81000000D03*
X108000000Y-81000000D03*
D28*
X106462500Y-111000000D03*
X108537500Y-111000000D03*
M02*
