G04 #@! TF.GenerationSoftware,KiCad,Pcbnew,7.0.1*
G04 #@! TF.CreationDate,2023-04-18T17:18:43+02:00*
G04 #@! TF.ProjectId,Alexandrie,416c6578-616e-4647-9269-652e6b696361,rev?*
G04 #@! TF.SameCoordinates,Original*
G04 #@! TF.FileFunction,Soldermask,Top*
G04 #@! TF.FilePolarity,Negative*
%FSLAX46Y46*%
G04 Gerber Fmt 4.6, Leading zero omitted, Abs format (unit mm)*
G04 Created by KiCad (PCBNEW 7.0.1) date 2023-04-18 17:18:43*
%MOMM*%
%LPD*%
G01*
G04 APERTURE LIST*
G04 Aperture macros list*
%AMRoundRect*
0 Rectangle with rounded corners*
0 $1 Rounding radius*
0 $2 $3 $4 $5 $6 $7 $8 $9 X,Y pos of 4 corners*
0 Add a 4 corners polygon primitive as box body*
4,1,4,$2,$3,$4,$5,$6,$7,$8,$9,$2,$3,0*
0 Add four circle primitives for the rounded corners*
1,1,$1+$1,$2,$3*
1,1,$1+$1,$4,$5*
1,1,$1+$1,$6,$7*
1,1,$1+$1,$8,$9*
0 Add four rect primitives between the rounded corners*
20,1,$1+$1,$2,$3,$4,$5,0*
20,1,$1+$1,$4,$5,$6,$7,0*
20,1,$1+$1,$6,$7,$8,$9,0*
20,1,$1+$1,$8,$9,$2,$3,0*%
G04 Aperture macros list end*
%ADD10RoundRect,0.450000X0.350000X0.450000X-0.350000X0.450000X-0.350000X-0.450000X0.350000X-0.450000X0*%
%ADD11RoundRect,0.450000X-0.350000X-0.450000X0.350000X-0.450000X0.350000X0.450000X-0.350000X0.450000X0*%
%ADD12RoundRect,0.450001X-0.624999X0.462499X-0.624999X-0.462499X0.624999X-0.462499X0.624999X0.462499X0*%
%ADD13RoundRect,0.450000X0.900000X-1.500000X0.900000X1.500000X-0.900000X1.500000X-0.900000X-1.500000X0*%
%ADD14RoundRect,0.450000X0.450000X-0.350000X0.450000X0.350000X-0.450000X0.350000X-0.450000X-0.350000X0*%
%ADD15RoundRect,0.450000X0.845000X-0.620000X0.845000X0.620000X-0.845000X0.620000X-0.845000X-0.620000X0*%
%ADD16O,2.590000X2.140000*%
%ADD17C,1.200000*%
%ADD18C,7.400000*%
%ADD19RoundRect,0.450000X-0.475000X0.337500X-0.475000X-0.337500X0.475000X-0.337500X0.475000X0.337500X0*%
%ADD20RoundRect,0.450000X-0.350000X0.850000X-0.350000X-0.850000X0.350000X-0.850000X0.350000X0.850000X0*%
%ADD21RoundRect,0.449997X-2.650003X2.950003X-2.650003X-2.950003X2.650003X-2.950003X2.650003X2.950003X0*%
%ADD22RoundRect,0.350000X-0.875000X-0.150000X0.875000X-0.150000X0.875000X0.150000X-0.875000X0.150000X0*%
%ADD23RoundRect,0.450000X-0.337500X-0.475000X0.337500X-0.475000X0.337500X0.475000X-0.337500X0.475000X0*%
%ADD24RoundRect,0.350000X-0.825000X-0.150000X0.825000X-0.150000X0.825000X0.150000X-0.825000X0.150000X0*%
%ADD25RoundRect,0.450001X0.462499X0.624999X-0.462499X0.624999X-0.462499X-0.624999X0.462499X-0.624999X0*%
%ADD26RoundRect,0.450000X-0.600000X-0.600000X0.600000X-0.600000X0.600000X0.600000X-0.600000X0.600000X0*%
%ADD27C,2.100000*%
%ADD28RoundRect,0.450000X-0.620000X-0.845000X0.620000X-0.845000X0.620000X0.845000X-0.620000X0.845000X0*%
%ADD29O,2.140000X2.590000*%
%ADD30RoundRect,0.450001X0.924999X-0.499999X0.924999X0.499999X-0.924999X0.499999X-0.924999X-0.499999X0*%
%ADD31RoundRect,0.200000X0.850000X0.850000X-0.850000X0.850000X-0.850000X-0.850000X0.850000X-0.850000X0*%
%ADD32O,2.100000X2.100000*%
%ADD33RoundRect,0.450001X-0.499999X-0.924999X0.499999X-0.924999X0.499999X0.924999X-0.499999X0.924999X0*%
%ADD34RoundRect,0.450000X0.620000X0.845000X-0.620000X0.845000X-0.620000X-0.845000X0.620000X-0.845000X0*%
%ADD35RoundRect,0.450000X0.337500X0.475000X-0.337500X0.475000X-0.337500X-0.475000X0.337500X-0.475000X0*%
%ADD36RoundRect,0.450000X0.475000X-0.337500X0.475000X0.337500X-0.475000X0.337500X-0.475000X-0.337500X0*%
%ADD37RoundRect,0.450000X-0.450000X0.350000X-0.450000X-0.350000X0.450000X-0.350000X0.450000X0.350000X0*%
%ADD38RoundRect,0.450000X-0.845000X0.620000X-0.845000X-0.620000X0.845000X-0.620000X0.845000X0.620000X0*%
G04 APERTURE END LIST*
D10*
X130000000Y-134000000D03*
X128000000Y-134000000D03*
D11*
X143500000Y-85500000D03*
X145500000Y-85500000D03*
D12*
X153500000Y-80012500D03*
X153500000Y-82987500D03*
D13*
X106000000Y-123700000D03*
X106000000Y-118300000D03*
D14*
X134000000Y-108000000D03*
X134000000Y-106000000D03*
D15*
X93212500Y-120040000D03*
D16*
X93212500Y-117500000D03*
X93212500Y-114960000D03*
D17*
X174000000Y-147000000D03*
X174768845Y-145143845D03*
X174768845Y-148856155D03*
X176625000Y-144375000D03*
D18*
X176625000Y-147000000D03*
D17*
X176625000Y-149625000D03*
X178481155Y-145143845D03*
X178481155Y-148856155D03*
X179250000Y-147000000D03*
D19*
X135000000Y-129462500D03*
X135000000Y-131537500D03*
D20*
X116280000Y-117300000D03*
X114000000Y-117300000D03*
D21*
X114000000Y-123600000D03*
D20*
X111720000Y-117300000D03*
D17*
X174000000Y-58000000D03*
X174768845Y-56143845D03*
X174768845Y-59856155D03*
X176625000Y-55375000D03*
D18*
X176625000Y-58000000D03*
D17*
X176625000Y-60625000D03*
X178481155Y-56143845D03*
X178481155Y-59856155D03*
X179250000Y-58000000D03*
D22*
X125850000Y-114285000D03*
X125850000Y-115555000D03*
X125850000Y-116825000D03*
X125850000Y-118095000D03*
X125850000Y-119365000D03*
X125850000Y-120635000D03*
X125850000Y-121905000D03*
X125850000Y-123175000D03*
X125850000Y-124445000D03*
X125850000Y-125715000D03*
X135150000Y-125715000D03*
X135150000Y-124445000D03*
X135150000Y-123175000D03*
X135150000Y-121905000D03*
X135150000Y-120635000D03*
X135150000Y-119365000D03*
X135150000Y-118095000D03*
X135150000Y-116825000D03*
X135150000Y-115555000D03*
X135150000Y-114285000D03*
D23*
X100962500Y-127500000D03*
X103037500Y-127500000D03*
D10*
X123000000Y-62000000D03*
X121000000Y-62000000D03*
D24*
X108212500Y-83530000D03*
X108212500Y-84800000D03*
X108212500Y-86070000D03*
X108212500Y-87340000D03*
X108212500Y-88610000D03*
X108212500Y-89880000D03*
X108212500Y-91150000D03*
X113162500Y-91150000D03*
X113162500Y-89880000D03*
X113162500Y-88610000D03*
X113162500Y-87340000D03*
X113162500Y-86070000D03*
X113162500Y-84800000D03*
X113162500Y-83530000D03*
D12*
X126000000Y-128512500D03*
X126000000Y-131487500D03*
D17*
X85375000Y-147000000D03*
X86143845Y-145143845D03*
X86143845Y-148856155D03*
X88000000Y-144375000D03*
D18*
X88000000Y-147000000D03*
D17*
X88000000Y-149625000D03*
X89856155Y-145143845D03*
X89856155Y-148856155D03*
X90625000Y-147000000D03*
D25*
X137487500Y-103000000D03*
X134512500Y-103000000D03*
D26*
X162500000Y-104500000D03*
D27*
X165040000Y-104500000D03*
X162500000Y-107040000D03*
X165040000Y-107040000D03*
X162500000Y-109580000D03*
X165040000Y-109580000D03*
X162500000Y-112120000D03*
X165040000Y-112120000D03*
X162500000Y-114660000D03*
X165040000Y-114660000D03*
D28*
X140500000Y-117500000D03*
D29*
X143040000Y-117500000D03*
X145580000Y-117500000D03*
X148120000Y-117500000D03*
X150660000Y-117500000D03*
X153200000Y-117500000D03*
X155740000Y-117500000D03*
D30*
X119500000Y-116125000D03*
X119500000Y-112875000D03*
D10*
X112000000Y-96500000D03*
X110000000Y-96500000D03*
D17*
X85375000Y-58000000D03*
X86143845Y-56143845D03*
X86143845Y-59856155D03*
X88000000Y-55375000D03*
D18*
X88000000Y-58000000D03*
D17*
X88000000Y-60625000D03*
X89856155Y-56143845D03*
X89856155Y-59856155D03*
X90625000Y-58000000D03*
D31*
X101537500Y-120080000D03*
D32*
X101537500Y-117540000D03*
X101537500Y-115000000D03*
D26*
X93172500Y-94840000D03*
D27*
X95712500Y-94840000D03*
X93172500Y-97380000D03*
X95712500Y-97380000D03*
X93172500Y-99920000D03*
X95712500Y-99920000D03*
X93172500Y-102460000D03*
X95712500Y-102460000D03*
X93172500Y-105000000D03*
X95712500Y-105000000D03*
D22*
X140712500Y-71625000D03*
X140712500Y-72895000D03*
X140712500Y-74165000D03*
X140712500Y-75435000D03*
X140712500Y-76705000D03*
X140712500Y-77975000D03*
X140712500Y-79245000D03*
X140712500Y-80515000D03*
X140712500Y-81785000D03*
X140712500Y-83055000D03*
X150012500Y-83055000D03*
X150012500Y-81785000D03*
X150012500Y-80515000D03*
X150012500Y-79245000D03*
X150012500Y-77975000D03*
X150012500Y-76705000D03*
X150012500Y-75435000D03*
X150012500Y-74165000D03*
X150012500Y-72895000D03*
X150012500Y-71625000D03*
X125700000Y-61230000D03*
X125700000Y-62500000D03*
X125700000Y-63770000D03*
X125700000Y-65040000D03*
X125700000Y-66310000D03*
X125700000Y-67580000D03*
X125700000Y-68850000D03*
X125700000Y-70120000D03*
X125700000Y-71390000D03*
X125700000Y-72660000D03*
X135000000Y-72660000D03*
X135000000Y-71390000D03*
X135000000Y-70120000D03*
X135000000Y-68850000D03*
X135000000Y-67580000D03*
X135000000Y-66310000D03*
X135000000Y-65040000D03*
X135000000Y-63770000D03*
X135000000Y-62500000D03*
X135000000Y-61230000D03*
D33*
X111500000Y-113000000D03*
X114750000Y-113000000D03*
D12*
X121500000Y-99012500D03*
X121500000Y-101987500D03*
D23*
X115462500Y-97000000D03*
X117537500Y-97000000D03*
X106462500Y-114000000D03*
X108537500Y-114000000D03*
D22*
X125850000Y-86285000D03*
X125850000Y-87555000D03*
X125850000Y-88825000D03*
X125850000Y-90095000D03*
X125850000Y-91365000D03*
X125850000Y-92635000D03*
X125850000Y-93905000D03*
X125850000Y-95175000D03*
X125850000Y-96445000D03*
X125850000Y-97715000D03*
X135150000Y-97715000D03*
X135150000Y-96445000D03*
X135150000Y-95175000D03*
X135150000Y-93905000D03*
X135150000Y-92635000D03*
X135150000Y-91365000D03*
X135150000Y-90095000D03*
X135150000Y-88825000D03*
X135150000Y-87555000D03*
X135150000Y-86285000D03*
D34*
X153580000Y-90500000D03*
D29*
X151040000Y-90500000D03*
X148500000Y-90500000D03*
X145960000Y-90500000D03*
X143420000Y-90500000D03*
D10*
X127000000Y-101000000D03*
X125000000Y-101000000D03*
D23*
X116962500Y-84000000D03*
X119037500Y-84000000D03*
D35*
X123037500Y-59500000D03*
X120962500Y-59500000D03*
D10*
X142000000Y-141000000D03*
X140000000Y-141000000D03*
D22*
X140850000Y-98785000D03*
X140850000Y-100055000D03*
X140850000Y-101325000D03*
X140850000Y-102595000D03*
X140850000Y-103865000D03*
X140850000Y-105135000D03*
X140850000Y-106405000D03*
X140850000Y-107675000D03*
X140850000Y-108945000D03*
X140850000Y-110215000D03*
X150150000Y-110215000D03*
X150150000Y-108945000D03*
X150150000Y-107675000D03*
X150150000Y-106405000D03*
X150150000Y-105135000D03*
X150150000Y-103865000D03*
X150150000Y-102595000D03*
X150150000Y-101325000D03*
X150150000Y-100055000D03*
X150150000Y-98785000D03*
D10*
X117500000Y-100500000D03*
X115500000Y-100500000D03*
D26*
X162500000Y-129000000D03*
D27*
X165040000Y-129000000D03*
X162500000Y-131540000D03*
X165040000Y-131540000D03*
X162500000Y-134080000D03*
X165040000Y-134080000D03*
X162500000Y-136620000D03*
X165040000Y-136620000D03*
X162500000Y-139160000D03*
X165040000Y-139160000D03*
D26*
X162500000Y-67500000D03*
D27*
X165040000Y-67500000D03*
X162500000Y-70040000D03*
X165040000Y-70040000D03*
X162500000Y-72580000D03*
X165040000Y-72580000D03*
X162500000Y-75120000D03*
X165040000Y-75120000D03*
X162500000Y-77660000D03*
X165040000Y-77660000D03*
D12*
X137000000Y-138012500D03*
X137000000Y-140987500D03*
D19*
X137500000Y-74962500D03*
X137500000Y-77037500D03*
D10*
X126500000Y-77000000D03*
X124500000Y-77000000D03*
D36*
X136500000Y-108037500D03*
X136500000Y-105962500D03*
D37*
X116000000Y-87500000D03*
X116000000Y-89500000D03*
D24*
X108212500Y-98730000D03*
X108212500Y-100000000D03*
X108212500Y-101270000D03*
X108212500Y-102540000D03*
X108212500Y-103810000D03*
X108212500Y-105080000D03*
X108212500Y-106350000D03*
X113162500Y-106350000D03*
X113162500Y-105080000D03*
X113162500Y-103810000D03*
X113162500Y-102540000D03*
X113162500Y-101270000D03*
X113162500Y-100000000D03*
X113162500Y-98730000D03*
D38*
X162500000Y-87920000D03*
D16*
X162500000Y-90460000D03*
X162500000Y-93000000D03*
X162500000Y-95540000D03*
D12*
X121500000Y-74012500D03*
X121500000Y-76987500D03*
D22*
X140850000Y-126285000D03*
X140850000Y-127555000D03*
X140850000Y-128825000D03*
X140850000Y-130095000D03*
X140850000Y-131365000D03*
X140850000Y-132635000D03*
X140850000Y-133905000D03*
X140850000Y-135175000D03*
X140850000Y-136445000D03*
X140850000Y-137715000D03*
X150150000Y-137715000D03*
X150150000Y-136445000D03*
X150150000Y-135175000D03*
X150150000Y-133905000D03*
X150150000Y-132635000D03*
X150150000Y-131365000D03*
X150150000Y-130095000D03*
X150150000Y-128825000D03*
X150150000Y-127555000D03*
X150150000Y-126285000D03*
D15*
X93212500Y-85040000D03*
D16*
X93212500Y-82500000D03*
X93212500Y-79960000D03*
X93212500Y-77420000D03*
X93212500Y-74880000D03*
X93212500Y-72340000D03*
D11*
X106000000Y-81000000D03*
X108000000Y-81000000D03*
D23*
X106462500Y-111000000D03*
X108537500Y-111000000D03*
G36*
X116643497Y-126998918D02*
G01*
X116643633Y-127000831D01*
X116642097Y-127001979D01*
X116642090Y-127001980D01*
X116641807Y-127002000D01*
X111358193Y-127002000D01*
X111356779Y-127001414D01*
X111356778Y-127001413D01*
X111356192Y-126999999D01*
X111356778Y-126998585D01*
X111358192Y-126997999D01*
X116641814Y-126997999D01*
X116643497Y-126998918D01*
G37*
G36*
X117101984Y-120657937D02*
G01*
X117101985Y-120657945D01*
X117102000Y-120658193D01*
X117102000Y-123609847D01*
X117101000Y-123611579D01*
X117099000Y-123611579D01*
X117098000Y-123609847D01*
X117097999Y-120658185D01*
X117098928Y-120656496D01*
X117100852Y-120656376D01*
X117101984Y-120657937D01*
G37*
M02*
